<svg width="28" height="26" viewBox="0 0 28 26" fill="none" xmlns="http://www.w3.org/2000/svg"><path d="M8.668 4.621c.6-.32 1.257-.433 1.9-.433.74 0 1.591.238 2.276.81.726.587 1.215 1.495 1.215 2.682 0 1.354-.964 2.094-1.508 2.513a.796.796 0 0 0-.112.098c-.587.46-.824.712-.824 1.229 0 .572-.475 1.047-1.048 1.047A1.055 1.055 0 0 1 9.52 11.52c0-1.578.992-2.388 1.62-2.877.712-.558.824-.684.824-.963 0-.559-.21-.866-.447-1.062a1.546 1.546 0 0 0-.95-.335c-.418 0-.698.07-.907.182-.196.111-.42.293-.615.67-.28.503-.908.698-1.424.419A1.052 1.052 0 0 1 7.2 6.13c.364-.685.853-1.187 1.467-1.523v.014ZM10.554 16.758a1.4 1.4 0 0 0 1.397-1.396 1.4 1.4 0 0 0-1.397-1.397 1.4 1.4 0 0 0-1.396 1.397 1.4 1.4 0 0 0 1.396 1.396Z" fill="#0098BB"/><path d="M10.556 0C4.776 0 .083 4.692.083 10.473c0 1.578.349 3.086.977 4.427-.349 1.397-.754 2.947-1.005 3.966-.322 1.27.824 2.43 2.094 2.123 1.048-.252 2.654-.643 4.092-.978 1.313.6 2.78.922 4.316.922 5.781 0 10.473-4.692 10.473-10.474C21.03 4.68 16.338 0 10.556 0ZM2.178 10.473c0-4.622 3.757-8.378 8.38-8.378 4.622 0 8.379 3.756 8.379 8.378 0 4.623-3.757 8.379-8.38 8.379a8.332 8.332 0 0 1-3.728-.88l-.335-.167-.363.084c-1.285.307-2.78.67-3.897.935.28-1.09.643-2.527.964-3.784l.098-.391-.182-.35a8.423 8.423 0 0 1-.922-3.84l-.014.014Z" fill="#0098BB"/><path d="M17.538 25.137a10.45 10.45 0 0 1-7.123-2.793h.14c1.005 0 1.983-.126 2.905-.363a8.363 8.363 0 0 0 7.806.181l.335-.167.364.083c1.284.308 2.75.629 3.826.852a135.636 135.636 0 0 0-.894-3.7l-.098-.391.182-.35a8.423 8.423 0 0 0 .922-3.84 8.358 8.358 0 0 0-3.84-7.038 12.074 12.074 0 0 0-1.118-2.862c4.106 1.424 7.052 5.32 7.052 9.9 0 1.578-.349 3.086-.977 4.427.35 1.41.712 2.933.936 3.91.279 1.243-.81 2.36-2.053 2.095-1.02-.21-2.612-.559-4.064-.894-1.313.6-2.78.922-4.315.922l.014.028Z" fill="#0098BB"/></svg>