<svg width="16" height="13" viewBox="0 0 16 13" fill="none" xmlns="http://www.w3.org/2000/svg"><g clip-path="url(#clip0_7159_2740)"><path d="M0 3.876c0-.277.107-.544.31-.758 4.164-4.154 10.945-4.154 15.11 0a1.064 1.064 0 1 1-1.506 1.506c-3.331-3.332-8.746-3.332-12.077 0A1.063 1.063 0 0 1 .02 3.866L0 3.876Zm3.022 3.022c0-.277.107-.544.31-.758A6.375 6.375 0 0 1 7.86 4.26c1.708 0 3.32.663 4.527 1.88a1.064 1.064 0 1 1-1.505 1.506 4.231 4.231 0 0 0-3.022-1.25c-1.143 0-2.211.449-3.023 1.25a1.063 1.063 0 0 1-1.815-.758v.01Zm2.712 3.78c0-1.174.962-2.135 2.136-2.135 1.175 0 2.136.961 2.136 2.136a2.142 2.142 0 0 1-2.136 2.136 2.142 2.142 0 0 1-2.136-2.136Z" fill="#fff"/></g><defs><clipPath id="clip0_7159_2740"><path fill="#fff" transform="rotate(90 7.865 7.865)" d="M0 0h12.815v15.73H0z"/></clipPath></defs></svg>