<svg width="20" height="20" viewBox="0 0 20 20" fill="none" xmlns="http://www.w3.org/2000/svg"><mask id="path-1-inside-1_7159_3029" fill="#fff"><path d="M0 10C0 4.477 4.477 0 10 0s10 4.477 10 10-4.477 10-10 10S0 15.523 0 10Z"/></mask><path d="M0 10C0 4.477 4.477 0 10 0s10 4.477 10 10-4.477 10-10 10S0 15.523 0 10Z" fill="#fff"/><path d="M10 20v-2a8 8 0 0 1-8-8h-4c0 6.627 5.373 12 12 12v-2Zm10-10h-2a8 8 0 0 1-8 8v4c6.627 0 12-5.373 12-12h-2ZM10 0v2a8 8 0 0 1 8 8h4c0-6.627-5.373-12-12-12v2Zm0 0v-2C3.373-2-2 3.373-2 10h4a8 8 0 0 1 8-8V0Z" fill="#0098BB" mask="url(#path-1-inside-1_7159_3029)"/><path d="m14 7-5.5 5.5L6 10" stroke="#0098BB" stroke-width="2" stroke-linecap="round" stroke-linejoin="round"/></svg>