<svg width="173" height="42" viewBox="0 0 173 42" fill="none" xmlns="http://www.w3.org/2000/svg"><path d="M73.51 15.776c1.065 0 2.087.425 2.84 1.18a4.03 4.03 0 0 1 1.175 2.845h-1.798a2.236 2.236 0 0 0-1.33-2.212 2.224 2.224 0 0 0-3.11 2.212v3.751a2.235 2.235 0 0 0 1.33 2.212 2.226 2.226 0 0 0 2.522-.527 2.236 2.236 0 0 0 .588-1.685h1.795a4.014 4.014 0 0 1-1.17 2.83 3.996 3.996 0 0 1-2.825 1.175l.001.006a4.002 4.002 0 0 1-3.723-2.466 4.028 4.028 0 0 1-.31-1.54v-3.756a4.03 4.03 0 0 1 1.175-2.845 4.012 4.012 0 0 1 2.84-1.18Zm48.481.012c1.026 0 2.01.41 2.736 1.136a3.885 3.885 0 0 1 1.133 2.743v4.024a3.88 3.88 0 0 1-1.132 2.738 3.863 3.863 0 0 1-5.469.001 3.885 3.885 0 0 1-1.137-2.739v-4.024a3.88 3.88 0 0 1 1.133-2.743 3.865 3.865 0 0 1 2.736-1.136Zm26.646.092a4.166 4.166 0 0 1 1.869-.045 4.678 4.678 0 0 1 3.363 2.021l-1.422 1.106a2.914 2.914 0 0 0-2.178-1.343 2.574 2.574 0 0 0-2.087.449 1.409 1.409 0 0 0-.448 1.098c0 .362.04 1.125 2.443 1.534 3.066.53 4.015 2.31 3.881 3.783a3.324 3.324 0 0 1-1.225 2.3 3.3 3.3 0 0 1-2.507.697h-.298a5.763 5.763 0 0 1-4.325-2.13l1.373-1.159a3.94 3.94 0 0 0 3.042 1.521c2.028.09 2.128-.995 2.16-1.355.078-.906-.799-1.587-2.407-1.866-.945-.166-3.829-.667-3.934-3.235a3.205 3.205 0 0 1 1.038-2.518 4.166 4.166 0 0 1 1.662-.858Zm-33.879 11.41h-1.796V16.074h1.796V27.29Zm27.929 0h-1.796V16.074h1.796V27.29Zm-90.57-11.216c.803 0 1.573.32 2.14.888.567.57.886 1.34.886 2.145l-.003.926a3.017 3.017 0 0 1-.88 2.136c.565.568.881 1.337.88 2.14v2.962h-1.796v-2.976a1.22 1.22 0 0 0-1.222-1.225h-3.145v4.215h-1.795V16.074h4.935Zm14.606 1.797h-6.02v2.743h4.35v1.803h-4.35v3.068h6.02v1.8h-7.817V16.074h7.817v1.797Zm22.07 0h-6.02v2.743h4.351v1.803h-4.35v3.068h6.02v1.8h-7.816V16.074h7.816v1.797Zm8.264-1.797c.802 0 1.572.32 2.14.888a3.04 3.04 0 0 1 .89 2.145v.928a3.045 3.045 0 0 1-.889 2.146c-.568.57-1.338.89-2.141.89h-3.145l-.003 4.214H92.12V16.074h4.937Zm12.813 1.797h-3.06v9.414h-1.792V17.87h-3.061v-1.797h7.93l-.017 1.797Zm25.38 5.56v-7.357h1.795v11.21h-1.697l-4.248-7.45-.001 7.45h-1.796v-11.21h1.702l4.245 7.356Zm28.571-5.56h-3.06v9.414h-1.796V17.87h-3.062v-1.797h7.922l-.004 1.797Zm-41.826-.274a2.068 2.068 0 0 0-2.064 2.07v4.024a2.064 2.064 0 1 0 4.129 0v-4.024a2.068 2.068 0 0 0-2.065-2.07Zm-73.022 3.675 3.144-.025a1.22 1.22 0 0 0 1.22-1.225v-.928a1.226 1.226 0 0 0-1.22-1.223h-3.144v3.401Zm44.936 0h3.145a1.226 1.226 0 0 0 1.222-1.225v-.938a1.227 1.227 0 0 0-1.222-1.225h-3.145v3.388Z" fill="#231815"/><path d="M41.63 33.002a63.32 63.32 0 0 1-9.256-6.632c-.94-.807-3.927-3.608-4.508-4.3a2.16 2.16 0 0 1-.555-1.383 1.991 1.991 0 0 1 .396-1.21l-.725.737a8.875 8.875 0 0 0-2.02 3.442 8.676 8.676 0 0 0-.287 3.95 8.784 8.784 0 0 0 1.5 3.682 9.12 9.12 0 0 0 2.995 2.693c.258.114.542.162.825.138h11.299a.633.633 0 0 0 .387-.111.601.601 0 0 0 .234-.32.583.583 0 0 0-.02-.391.606.606 0 0 0-.264-.296v.001Z" fill="#00AFD5"/><path d="M26.261 7.876a10.867 10.867 0 0 0-4.326.826 10.58 10.58 0 0 0-3.603 2.463c-5.55 6.197-9.176 13.791-10.455 21.903a.872.872 0 0 0 .206.731.953.953 0 0 0 .71.319h6.715a.95.95 0 0 0 .59-.207.898.898 0 0 0 .322-.523 34.267 34.267 0 0 1 4.543-11.827 28.412 28.412 0 0 1 3.62-4.849l.325-.295c.127-.108.258-.211.397-.307l.04-.026a6.262 6.262 0 0 1 .905-.534l.05-.024c.15-.074.31-.138.465-.196l.076-.03c.154-.058.313-.108.475-.154l.083-.023c.162-.042.329-.08.495-.112h.084c.171-.026.346-.054.523-.07h.056c.187 0 .372-.026.563-.026a6.49 6.49 0 0 1 4.284 1.605 6.113 6.113 0 0 1 2.06 3.979v.761a5.57 5.57 0 0 1-.985 3.13l-.175.235-.031.039a10.097 10.097 0 0 0 2.342-5.216 9.97 9.97 0 0 0-.888-5.623 10.352 10.352 0 0 0-3.845-4.299 10.819 10.819 0 0 0-5.617-1.65h-.004Z" fill="#00AFD5"/><path d="M26.308 16.095c.37.035.723.162 1.025.37.303.207.544.488.7.814a2.003 2.003 0 0 1-.182 2.04l-.127.158a1.99 1.99 0 0 0-.397 1.21c.014.51.21.998.555 1.383.574.692 3.569 3.493 4.509 4.3a7.081 7.081 0 0 0 2.124-2.002 5.635 5.635 0 0 0 .988-3.305 6.05 6.05 0 0 0-1.032-3.348 6.333 6.333 0 0 0-2.74-2.272 6.567 6.567 0 0 0-3.572-.47 6.473 6.473 0 0 0-3.266 1.48l-.187.165a2.13 2.13 0 0 1 .745-.424c.276-.09.567-.125.857-.101v.002Z" fill="#57C3EA"/></svg>