<svg width="339" height="60" viewBox="0 0 339 60" fill="none" xmlns="http://www.w3.org/2000/svg">
<g filter="url(#filter0_d_9_1238)">
<path d="M309.218 3H29.7818C16.6475 3 6 13.7452 6 27C6 40.2548 16.6475 51 29.7818 51H309.218C322.353 51 333 40.2548 333 27C333 13.7452 322.353 3 309.218 3Z" fill="#FF6262"/>
</g>
<path d="M153.771 32.992L153.869 33.034C154.835 33.524 156.123 33.818 157.691 33.972C157.453 34.196 157.229 34.49 157.005 34.84C156.865 35.05 156.809 35.106 156.683 35.106C156.627 35.106 156.543 35.106 156.347 35.078C155.101 34.896 153.547 34.35 152.525 33.706C152.399 33.622 152.399 33.566 152.595 33.496L153.659 32.992H148.955C149.459 33.188 149.753 33.328 150.145 33.51C150.285 33.552 150.341 33.622 150.341 33.706C150.341 33.79 150.257 33.846 150.131 33.874C149.977 33.902 149.795 34 149.557 34.126C148.703 34.56 147.569 34.924 146.365 35.106C146.253 35.12 146.155 35.134 146.085 35.134C145.917 35.134 145.875 35.078 145.735 34.84C145.539 34.49 145.315 34.224 145.105 34.028C146.379 33.902 147.485 33.65 148.255 33.342C148.451 33.258 148.661 33.16 148.885 32.992C147.723 32.992 147.275 33.02 147.191 33.02C147.051 33.02 147.037 33.006 147.037 32.852C147.037 32.768 147.065 32.376 147.065 31.48V29.086C147.065 28.176 147.037 27.798 147.037 27.7C147.037 27.56 147.051 27.546 147.191 27.546C147.289 27.546 147.751 27.574 149.025 27.574C148.983 27.518 148.941 27.448 148.899 27.35C148.759 27.112 148.563 26.832 148.409 26.706C150.425 26.356 151.559 25.754 152.035 24.466H150.859C150.593 24.788 150.299 25.082 149.963 25.348C149.795 25.474 149.711 25.544 149.641 25.544C149.543 25.544 149.473 25.446 149.319 25.264C149.137 25.068 148.913 24.9 148.703 24.802C149.501 24.228 150.117 23.584 150.537 22.842C150.635 22.674 150.733 22.45 150.803 22.212C151.237 22.282 151.587 22.352 151.909 22.436C152.077 22.478 152.147 22.52 152.147 22.59C152.147 22.674 152.119 22.716 152.021 22.786C151.909 22.856 151.839 22.968 151.741 23.164L151.587 23.43H155.731C155.913 23.43 156.011 23.416 156.081 23.374C156.137 23.346 156.207 23.318 156.277 23.318C156.375 23.318 156.459 23.36 156.795 23.598C157.173 23.85 157.257 23.976 157.257 24.088C157.257 24.172 157.215 24.228 157.145 24.27C157.047 24.326 156.977 24.382 156.893 24.522C156.655 24.914 156.445 25.194 156.207 25.516C156.053 25.712 155.983 25.796 155.871 25.796C155.787 25.796 155.675 25.754 155.493 25.67C155.185 25.53 154.905 25.432 154.709 25.39C155.017 25.096 155.325 24.732 155.507 24.466H153.435C154.051 26.09 155.983 26.664 157.859 26.832C157.691 27.056 157.551 27.434 157.467 27.742C157.341 28.176 157.327 28.176 156.907 28.092C156.515 28.022 156.151 27.924 155.801 27.812C155.787 27.994 155.773 28.386 155.773 29.086V31.48C155.773 32.376 155.801 32.768 155.801 32.852C155.801 33.006 155.787 33.02 155.647 33.02C155.563 33.02 155.073 32.992 153.771 32.992ZM150.005 27.574H153.715C154.387 27.574 154.835 27.574 155.143 27.56C154.135 27.14 153.309 26.524 152.805 25.642C152.301 26.58 151.363 27.196 150.005 27.574ZM154.415 31.998V31.396H148.409V31.998H154.415ZM148.409 30.57H154.415V29.982H148.409V30.57ZM154.415 28.568H148.409V29.156H154.415V28.568ZM148.815 25.054C148.829 25.292 148.871 25.572 148.913 25.852C149.011 26.314 149.011 26.314 148.619 26.524C147.933 26.888 147.121 27.21 146.435 27.462C146.253 27.532 146.127 27.588 146.057 27.658C145.987 27.728 145.931 27.77 145.861 27.77C145.777 27.77 145.721 27.728 145.665 27.616C145.483 27.28 145.315 26.832 145.175 26.426C145.525 26.356 145.847 26.286 146.211 26.174C147.023 25.908 148.003 25.53 148.815 25.054ZM145.721 23.276L146.309 22.688C146.435 22.562 146.463 22.548 146.603 22.604C147.205 22.856 147.919 23.262 148.535 23.696C148.605 23.752 148.633 23.78 148.633 23.822C148.633 23.85 148.605 23.892 148.535 23.962L147.933 24.648C147.807 24.802 147.751 24.816 147.639 24.718C147.023 24.228 146.365 23.808 145.735 23.542C145.665 23.5 145.623 23.472 145.623 23.43C145.623 23.388 145.651 23.346 145.721 23.276ZM161.639 26.846V24.242C161.639 23.346 161.611 22.898 161.527 22.268C162.045 22.282 162.465 22.31 162.941 22.366C163.081 22.38 163.165 22.45 163.165 22.506C163.165 22.632 163.123 22.702 163.081 22.8C162.997 22.968 162.983 23.262 162.983 24.214V26.846H163.095C164.173 26.846 164.523 26.818 164.607 26.818C164.747 26.818 164.761 26.832 164.761 26.972V27.966C164.761 28.092 164.747 28.106 164.607 28.106C164.523 28.106 164.187 28.078 163.179 28.078C163.767 29.044 164.313 29.73 165.069 30.5C164.859 30.752 164.663 31.088 164.509 31.424C164.425 31.592 164.369 31.676 164.313 31.676C164.257 31.676 164.187 31.606 164.089 31.466C163.683 30.878 163.291 30.234 162.955 29.464C162.955 32.236 163.053 34.742 163.053 34.952C163.053 35.092 163.039 35.106 162.885 35.106H161.737C161.597 35.106 161.583 35.092 161.583 34.952C161.583 34.742 161.653 32.432 161.681 29.814C161.261 30.948 160.701 32.026 159.987 33.006C159.875 33.146 159.805 33.23 159.735 33.23C159.679 33.23 159.623 33.16 159.567 32.992C159.441 32.6 159.231 32.166 159.063 31.97C160.071 30.808 160.799 29.548 161.317 28.078H161.065C159.973 28.078 159.623 28.106 159.539 28.106C159.399 28.106 159.385 28.092 159.385 27.966V26.972C159.385 26.832 159.399 26.818 159.539 26.818C159.623 26.818 159.973 26.846 161.065 26.846H161.639ZM166.833 30.514L168.975 30.094V24.494C168.975 23.5 168.961 23.066 168.863 22.366C169.395 22.38 169.857 22.408 170.347 22.464C170.473 22.478 170.557 22.534 170.557 22.618C170.557 22.716 170.515 22.786 170.473 22.898C170.403 23.066 170.389 23.416 170.389 24.452V29.814C171.201 29.646 171.523 29.548 171.649 29.52C171.775 29.492 171.775 29.506 171.803 29.66L171.971 30.752C171.985 30.878 171.985 30.892 171.831 30.92C171.733 30.948 171.355 31.004 170.389 31.2V32.502C170.389 34.056 170.417 34.854 170.417 34.924C170.417 35.064 170.403 35.078 170.263 35.078H169.101C168.961 35.078 168.947 35.064 168.947 34.924C168.947 34.84 168.975 34.07 168.975 32.516V31.48L167.057 31.858C165.839 32.096 165.391 32.194 165.251 32.222C165.111 32.25 165.083 32.236 165.069 32.11L164.887 31.004C164.859 30.85 164.873 30.85 165.013 30.822C165.153 30.794 165.615 30.752 166.833 30.514ZM165.251 27.14L165.895 26.524C165.965 26.454 165.993 26.426 166.021 26.426C166.063 26.426 166.091 26.454 166.161 26.51C166.805 26.958 167.533 27.616 168.093 28.302C168.191 28.428 168.191 28.456 168.051 28.596L167.365 29.282C167.211 29.422 167.183 29.422 167.085 29.31C166.511 28.582 165.881 27.924 165.237 27.406C165.181 27.35 165.139 27.322 165.139 27.294C165.139 27.252 165.181 27.21 165.251 27.14ZM165.657 23.92L166.273 23.332C166.399 23.22 166.413 23.192 166.539 23.276C167.239 23.766 167.953 24.368 168.513 25.054C168.597 25.152 168.597 25.208 168.471 25.32L167.799 25.978C167.645 26.132 167.617 26.146 167.533 26.02C166.959 25.292 166.245 24.634 165.629 24.186C165.531 24.116 165.517 24.046 165.657 23.92ZM163.249 25.866C163.543 25.138 163.767 24.354 163.893 23.752C163.921 23.612 163.963 23.36 163.977 23.15C164.355 23.276 164.789 23.416 165.041 23.542C165.153 23.598 165.195 23.64 165.195 23.71C165.195 23.78 165.167 23.822 165.111 23.85C165.027 23.906 164.985 24.004 164.943 24.158C164.775 24.732 164.565 25.292 164.299 25.936C164.215 26.146 164.173 26.23 164.089 26.23C164.033 26.23 163.949 26.188 163.809 26.104C163.599 25.992 163.375 25.908 163.249 25.866ZM159.707 23.528L160.295 23.29C160.463 23.22 160.477 23.234 160.547 23.374C160.911 24.2 161.135 24.914 161.303 25.726C161.331 25.866 161.303 25.908 161.121 25.978L160.519 26.202C160.309 26.286 160.295 26.272 160.267 26.118C160.113 25.278 159.875 24.522 159.553 23.78C159.497 23.626 159.525 23.598 159.707 23.528ZM180.987 29.73V31.984C180.987 32.138 180.903 32.208 180.721 32.236C180.539 32.264 180.119 32.306 179.727 32.306C179.601 32.306 179.545 32.222 179.545 32.082C179.545 31.578 179.545 30.878 179.559 30.374C178.313 31.018 177.865 31.564 177.865 32.236C177.865 32.824 178.341 33.202 179.811 33.202C181.099 33.202 182.219 33.076 183.297 32.922C183.423 32.908 183.479 32.95 183.493 33.076C183.563 33.398 183.619 33.888 183.619 34.224C183.633 34.392 183.577 34.49 183.465 34.49C182.261 34.644 181.351 34.672 179.993 34.672C177.697 34.672 176.479 33.986 176.479 32.362C176.479 31.018 177.319 30.038 179.433 28.946C179.391 28.232 179.223 27.952 178.593 27.98C177.935 28.008 177.305 28.428 176.661 28.988C176.059 29.576 175.709 29.982 175.261 30.514C175.191 30.598 175.149 30.64 175.093 30.64C175.051 30.64 174.995 30.598 174.939 30.542C174.743 30.346 174.323 29.912 174.141 29.618C174.099 29.562 174.085 29.52 174.085 29.492C174.085 29.436 174.113 29.394 174.183 29.338C175.261 28.372 176.297 27.266 177.109 25.866C176.451 25.894 175.695 25.908 174.869 25.908C174.743 25.908 174.701 25.838 174.673 25.684C174.631 25.46 174.575 24.942 174.533 24.522C175.597 24.578 176.689 24.564 177.753 24.508C177.907 24.13 178.033 23.794 178.173 23.304C178.229 23.066 178.271 22.828 178.271 22.45C178.887 22.548 179.503 22.702 179.867 22.842C179.979 22.884 180.035 22.982 180.035 23.08C180.035 23.15 180.007 23.234 179.937 23.29C179.853 23.36 179.769 23.486 179.699 23.626C179.615 23.822 179.545 24.004 179.377 24.382C180.231 24.284 181.085 24.144 181.925 23.948C182.079 23.92 182.121 23.962 182.149 24.088C182.219 24.368 182.275 24.69 182.289 25.096C182.303 25.236 182.247 25.292 182.051 25.32C181.001 25.474 179.797 25.628 178.775 25.74C178.453 26.258 178.145 26.776 177.725 27.294L177.739 27.322C178.187 27.028 178.761 26.888 179.139 26.888C180.063 26.888 180.707 27.308 180.847 28.4C181.393 28.148 182.191 27.784 182.905 27.42C183.171 27.28 183.619 27.028 183.969 26.664C184.431 27.154 184.795 27.644 184.949 27.896C185.033 28.022 185.061 28.12 185.061 28.204C185.061 28.316 184.991 28.372 184.851 28.4C184.557 28.442 184.277 28.512 183.997 28.61C183.087 28.932 182.177 29.24 180.987 29.73ZM192.243 30.36C192.173 30.906 192.159 31.242 192.159 31.494C192.159 32.782 192.719 33.286 194.021 33.286C195.659 33.286 196.569 32.656 196.569 31.396C196.569 30.612 196.373 29.968 195.309 28.848C195.869 28.918 196.177 28.848 196.737 28.764C196.835 28.736 196.947 28.75 197.031 28.82C197.801 29.548 198.221 30.5 198.221 31.452C198.221 33.44 196.597 34.728 194.189 34.728C191.711 34.728 190.661 33.608 190.661 31.564C190.661 31.27 190.703 30.878 190.759 30.248C189.919 30.122 189.359 29.996 188.855 29.828C188.757 29.8 188.715 29.73 188.701 29.562C188.659 29.128 188.645 28.694 188.673 28.26C189.513 28.568 190.143 28.722 190.941 28.806C191.011 28.288 191.123 27.378 191.179 26.804C190.199 26.678 189.695 26.594 189.163 26.412C188.995 26.37 188.939 26.3 188.939 26.174C188.925 25.838 188.897 25.376 188.897 24.872C189.849 25.18 190.521 25.306 191.431 25.404C191.543 24.592 191.585 24.214 191.613 23.794C191.641 23.402 191.641 22.996 191.599 22.618C192.243 22.702 192.971 22.884 193.279 23.01C193.475 23.08 193.587 23.206 193.587 23.332C193.587 23.43 193.545 23.514 193.475 23.598C193.377 23.696 193.307 23.878 193.223 24.2C193.153 24.522 193.069 24.998 192.999 25.516C193.559 25.558 194.133 25.516 194.721 25.432C194.819 25.432 194.861 25.502 194.861 25.6C194.875 25.936 194.875 26.328 194.833 26.65C194.833 26.804 194.777 26.846 194.609 26.86C193.993 26.93 193.363 26.944 192.747 26.93C192.663 27.42 192.523 28.372 192.439 28.932C193.181 28.946 193.755 28.932 194.427 28.89C194.609 28.862 194.651 28.918 194.651 29.044C194.651 29.296 194.623 29.8 194.581 30.094C194.567 30.262 194.525 30.318 194.385 30.318C193.685 30.374 192.957 30.374 192.243 30.36ZM204.619 23.696C204.955 23.192 205.221 22.828 205.445 22.604C205.515 22.534 205.599 22.492 205.711 22.534C206.747 22.94 207.615 23.472 208.455 24.2C208.525 24.256 208.553 24.298 208.553 24.354C208.553 24.396 208.525 24.452 208.483 24.522C208.301 24.816 208.007 25.222 207.769 25.502C207.713 25.572 207.657 25.614 207.615 25.614C207.559 25.614 207.517 25.586 207.447 25.516C206.663 24.83 205.725 24.186 204.619 23.696ZM203.639 25.642C204.185 25.796 204.773 25.964 205.095 26.146C205.249 26.216 205.319 26.3 205.319 26.412C205.319 26.482 205.291 26.552 205.249 26.622C205.123 26.846 205.025 27.098 204.969 27.364C204.829 28.078 204.689 29.114 204.633 29.912C205.921 28.61 207.601 27.7 209.309 27.7C211.353 27.7 212.571 28.89 212.571 30.696C212.571 32.222 211.661 33.23 210.457 33.832C209.519 34.308 208.077 34.644 206.873 34.798C206.565 34.84 206.439 34.826 206.313 34.616C206.047 34.14 205.795 33.762 205.361 33.426C206.929 33.328 208.273 33.062 209.211 32.642C210.345 32.152 210.863 31.424 210.863 30.528C210.863 29.772 210.387 29.086 209.183 29.086C207.951 29.086 206.467 29.884 205.151 31.214C204.899 31.466 204.717 31.704 204.549 31.984C204.465 32.124 204.409 32.124 204.227 32.082C203.905 31.97 203.569 31.844 203.275 31.704C203.135 31.648 203.079 31.62 203.079 31.424C203.163 29.8 203.345 28.148 203.513 26.902C203.569 26.482 203.639 26.118 203.639 25.642ZM219.921 22.408C221.223 22.926 222.539 23.192 223.981 23.402C224.135 23.43 224.191 23.542 224.163 23.654C224.107 23.948 223.953 24.62 223.855 24.886C223.813 25.026 223.771 25.096 223.659 25.082C222.133 24.83 221.041 24.564 219.599 24.004C219.529 23.976 219.459 23.906 219.501 23.724C219.599 23.206 219.753 22.828 219.921 22.408ZM217.205 27.028C217.779 26.972 218.115 26.86 218.871 26.622C220.047 26.23 221.013 25.922 222.077 25.922C223.953 25.922 225.031 27.196 225.031 29.254C225.031 30.626 224.541 31.746 223.897 32.6C223.239 33.496 222.301 34.238 221.195 34.826C221.097 34.868 221.027 34.896 220.957 34.896C220.831 34.896 220.747 34.84 220.621 34.714C220.313 34.42 219.935 34.154 219.459 33.972C220.999 33.244 221.951 32.46 222.539 31.634C222.945 31.06 223.309 30.29 223.309 29.156C223.309 27.994 222.819 27.392 222.007 27.392C221.223 27.392 220.607 27.602 219.809 27.994C218.983 28.4 218.787 28.54 218.619 28.666C218.507 28.75 218.423 28.806 218.311 28.806C218.129 28.806 218.003 28.624 217.919 28.498C217.723 28.204 217.429 27.588 217.205 27.028Z" fill="white"/>
<mask id="mask0_9_1238" style="mask-type:luminance" maskUnits="userSpaceOnUse" x="112" y="15" width="24" height="24">
<path d="M136 15H112V39H136V15Z" fill="white"/>
</mask>
<g mask="url(#mask0_9_1238)">
<path d="M126.4 21.75V17.448L130.873 22.1H126.75C126.658 22.0977 126.57 22.0601 126.505 21.995C126.44 21.9298 126.402 21.8421 126.4 21.75ZM131.4 23.543V34.75C131.374 35.2231 131.168 35.6684 130.824 35.994C130.48 36.3196 130.024 36.5007 129.55 36.5H117.849C117.359 36.4995 116.888 36.3044 116.542 35.9575C116.195 35.6106 116 35.1404 116 34.65V18.85C116 18.8088 116.003 18.7676 116.01 18.727C116.072 18.2717 116.288 17.8515 116.623 17.537C116.958 17.2225 117.391 17.0328 117.849 17H124.9V21.75C124.901 22.2405 125.096 22.7107 125.442 23.0576C125.789 23.4044 126.26 23.5995 126.75 23.6H131.117C131.214 23.5996 131.31 23.5803 131.4 23.543ZM126.745 28.695C126.675 28.6253 126.593 28.57 126.502 28.5323C126.411 28.4946 126.313 28.4752 126.215 28.4752C126.116 28.4752 126.018 28.4946 125.927 28.5323C125.836 28.57 125.754 28.6253 125.684 28.695L124.419 29.96V25.505C124.419 25.3061 124.34 25.1153 124.199 24.9747C124.059 24.834 123.868 24.755 123.669 24.755C123.47 24.755 123.279 24.834 123.139 24.9747C122.998 25.1153 122.919 25.3061 122.919 25.505V29.9L121.719 28.7C121.65 28.6284 121.567 28.5713 121.475 28.532C121.384 28.4928 121.286 28.4721 121.186 28.4713C121.086 28.4705 120.988 28.4895 120.895 28.5273C120.803 28.565 120.72 28.6208 120.649 28.6912C120.579 28.7617 120.523 28.8454 120.486 28.9376C120.448 29.0298 120.429 29.1286 120.43 29.2282C120.431 29.3277 120.451 29.4261 120.491 29.5176C120.53 29.6091 120.587 29.6918 120.659 29.761L123.169 32.27C123.239 32.3397 123.321 32.395 123.412 32.4327C123.503 32.4704 123.601 32.4898 123.7 32.4898C123.798 32.4898 123.896 32.4704 123.987 32.4327C124.078 32.395 124.16 32.3397 124.23 32.27L126.745 29.756C126.815 29.6863 126.87 29.6036 126.908 29.5126C126.945 29.4216 126.965 29.324 126.965 29.2255C126.965 29.127 126.945 29.0294 126.908 28.9384C126.87 28.8474 126.815 28.7647 126.745 28.695Z" fill="white"/>
</g>
<defs>
<filter id="filter0_d_9_1238" x="0" y="0" width="339" height="60" filterUnits="userSpaceOnUse" color-interpolation-filters="sRGB">
<feFlood flood-opacity="0" result="BackgroundImageFix"/>
<feColorMatrix in="SourceAlpha" type="matrix" values="0 0 0 0 0 0 0 0 0 0 0 0 0 0 0 0 0 0 127 0" result="hardAlpha"/>
<feOffset dy="3"/>
<feGaussianBlur stdDeviation="3"/>
<feColorMatrix type="matrix" values="0 0 0 0 0.47451 0 0 0 0 0 0 0 0 0 0 0 0 0 0.161 0"/>
<feBlend mode="normal" in2="BackgroundImageFix" result="effect1_dropShadow_9_1238"/>
<feBlend mode="normal" in="SourceGraphic" in2="effect1_dropShadow_9_1238" result="shape"/>
</filter>
</defs>
</svg>
