<svg id="レイヤー_1" data-name="レイヤー 1" xmlns="http://www.w3.org/2000/svg" viewBox="0 0 70 70"><defs><style>.cls-1{fill:#57c3ea;}</style></defs><path class="cls-1" d="M17.27,44.63H13.32L12.17,41.2H5.26L4.09,44.63h-4L7.2,25.2h3ZM11.16,38,8.79,30.93,6.33,38Z"/><path class="cls-1" d="M28.74,44.63H17.9v-2.7l6.3-8.32H18.26v-3.2H28.74v2.73l-6.39,8.3h6.39Z"/><path class="cls-1" d="M43,44.63H39.57V43.32A4.65,4.65,0,0,1,36,44.8a4.44,4.44,0,0,1-3.6-1.5,5.69,5.69,0,0,1-1.2-3.8V30.41h3.55V39a2.77,2.77,0,0,0,.61,1.87,2.16,2.16,0,0,0,1.73.72c1.59,0,2.38-.86,2.38-2.59v-8.6H43Z"/><path class="cls-1" d="M56.85,31.59l-2.68,2.7a2.62,2.62,0,0,0-1.88-.85,2,2,0,0,0-1.68.77A2.86,2.86,0,0,0,50,36.06v8.57H46.45V30.41h3.46v1.37a4.42,4.42,0,0,1,3.58-1.53A4.58,4.58,0,0,1,56.85,31.59Z"/><path class="cls-1" d="M70,38.63H61.1a3.19,3.19,0,0,0,.84,2.31,3,3,0,0,0,2.27.86,4.39,4.39,0,0,0,3.22-1.34l2.16,2.1a7.36,7.36,0,0,1-5.4,2.24q-6.59,0-6.58-7.29a8.18,8.18,0,0,1,1.5-5.1,5.54,5.54,0,0,1,4.69-2.16,5.73,5.73,0,0,1,4.62,2A7.15,7.15,0,0,1,70,37.05ZM66.51,36.2a3.7,3.7,0,0,0-.33-1.53,2.65,2.65,0,0,0-4.75,0,3.7,3.7,0,0,0-.33,1.53Z"/></svg>