<svg xmlns="http://www.w3.org/2000/svg" viewBox="0 0 70 70"><defs><style>.cls-1{fill:none;stroke:#57c3ea;stroke-miterlimit:10;stroke-width:4.66px;}.cls-2{fill:#00afd5;}.cls-3{fill:#fff;}.cls-4{fill:#57c3ea;}</style></defs><g id="レイヤー_1" data-name="レイヤー 1"><path class="cls-1" d="M12.27,50.5V45.1a4.87,4.87,0,0,1,4.87-4.86H52.62a4.86,4.86,0,0,1,4.86,4.86v5.4"/><line class="cls-1" x1="35.19" y1="40.24" x2="35.19" y2="26.38"/></g><g id="レイヤー_3" data-name="レイヤー 3"><rect class="cls-2" x="24.34" y="0.17" width="21.32" height="33.14" rx="1.19"/><path class="cls-3" d="M31.53,27.92h6.95a.65.65,0,0,1,.65.65v4.73a0,0,0,0,1,0,0H30.88a0,0,0,0,1,0,0V28.57A.65.65,0,0,1,31.53,27.92Z"/><rect class="cls-4" x="39.12" y="4.14" width="3.65" height="3.65" rx="0.52"/><rect class="cls-4" x="39.12" y="9.2" width="3.65" height="3.65" rx="0.52"/><rect class="cls-4" x="39.12" y="14.26" width="3.65" height="3.65" rx="0.52"/><rect class="cls-4" x="39.12" y="19.33" width="3.65" height="3.65" rx="0.52"/><rect class="cls-4" x="33.17" y="4.14" width="3.65" height="3.65" rx="0.52"/><rect class="cls-4" x="33.17" y="9.2" width="3.65" height="3.65" rx="0.52"/><rect class="cls-4" x="33.17" y="14.26" width="3.65" height="3.65" rx="0.52"/><rect class="cls-4" x="33.17" y="19.33" width="3.65" height="3.65" rx="0.52"/><rect class="cls-4" x="27.23" y="4.14" width="3.65" height="3.65" rx="0.52"/><rect class="cls-4" x="27.23" y="9.2" width="3.65" height="3.65" rx="0.52"/><rect class="cls-4" x="27.23" y="14.26" width="3.65" height="3.65" rx="0.52"/><rect class="cls-4" x="27.23" y="19.33" width="3.65" height="3.65" rx="0.52"/><rect class="cls-2" x="48.56" y="48.63" width="17.85" height="21.37" rx="1.21"/><path class="cls-3" d="M55.54,66.1h3.9a.65.65,0,0,1,.65.65V70a0,0,0,0,1,0,0H54.89a0,0,0,0,1,0,0V66.75A.65.65,0,0,1,55.54,66.1Z"/><rect class="cls-4" x="58.5" y="58.66" width="3.98" height="3.98" rx="0.78"/><rect class="cls-4" x="58.5" y="52.83" width="3.98" height="3.98" rx="0.67"/><rect class="cls-4" x="52.49" y="58.66" width="3.98" height="3.98" rx="0.78"/><rect class="cls-4" x="52.49" y="52.83" width="3.98" height="3.98" rx="0.67"/><rect class="cls-2" x="3.35" y="48.63" width="17.85" height="21.37" rx="1.21"/><path class="cls-3" d="M10.33,66.1h3.9a.65.65,0,0,1,.65.65V70a0,0,0,0,1,0,0H9.68a0,0,0,0,1,0,0V66.75A.65.65,0,0,1,10.33,66.1Z"/><rect class="cls-4" x="13.29" y="58.66" width="3.98" height="3.98" rx="0.78"/><rect class="cls-4" x="13.29" y="52.83" width="3.98" height="3.98" rx="0.67"/><rect class="cls-4" x="7.28" y="58.66" width="3.98" height="3.98" rx="0.78"/><rect class="cls-4" x="7.28" y="52.83" width="3.98" height="3.98" rx="0.67"/></g></svg>