<svg id="レイヤー_1" data-name="レイヤー 1" xmlns="http://www.w3.org/2000/svg" viewBox="0 0 70 70"><defs><style>.cls-1{fill:#00afd5;}.cls-2{fill:#57c3ea;}</style></defs><path class="cls-1" d="M50.25,36.63l-2.31-.33a.4.4,0,0,1-.32-.24l-.75-1.81a.39.39,0,0,1,.06-.39L48.31,32a.65.65,0,0,0,0-.88L47.19,30a.65.65,0,0,0-.88,0l-1.86,1.38a.37.37,0,0,1-.39.06l-1.81-.75a.4.4,0,0,1-.24-.32l-.33-2.31a.65.65,0,0,0-.65-.6H39.49a.65.65,0,0,0-.65.6l-.33,2.31a.37.37,0,0,1-.24.32l-1.8.75a.39.39,0,0,1-.4-.06L34.21,30a.63.63,0,0,0-.87,0l-1.1,1.09a.65.65,0,0,0,0,.88l1.38,1.86a.37.37,0,0,1,.06.39l-.75,1.81a.4.4,0,0,1-.32.24l-2.31.33a.65.65,0,0,0-.6.65v1.54a.65.65,0,0,0,.6.65l2.31.33a.4.4,0,0,1,.32.24l.75,1.81a.37.37,0,0,1-.06.39L32.21,44.1a.65.65,0,0,0,0,.88l1.1,1.09a.63.63,0,0,0,.87,0l1.86-1.38a.39.39,0,0,1,.4-.06l1.8.75a.37.37,0,0,1,.24.32L38.84,48a.65.65,0,0,0,.65.6H41a.65.65,0,0,0,.65-.6L42,45.73a.4.4,0,0,1,.24-.32l1.81-.75a.37.37,0,0,1,.39.06l1.86,1.38a.65.65,0,0,0,.88,0L48.28,45a.65.65,0,0,0,0-.88l-1.38-1.86a.39.39,0,0,1-.06-.39L47.62,40a.4.4,0,0,1,.32-.24l2.31-.33a.65.65,0,0,0,.6-.65V37.28A.65.65,0,0,0,50.25,36.63Zm-7.45,4a3.6,3.6,0,1,1,1.05-2.54A3.56,3.56,0,0,1,42.8,40.59Z"/><path class="cls-2" d="M30.58,32.51a.51.51,0,0,0,.32-.61l-.37-1.79a.33.33,0,0,1,.09-.31l1.13-1a.3.3,0,0,1,.31-.06l1.74.53a.52.52,0,0,0,.64-.26l.51-1.1a.49.49,0,0,0-.21-.65l-1.51-1a.32.32,0,0,1-.15-.27l.07-1.53a.3.3,0,0,1,.18-.26L35,23.29a.5.5,0,0,0,.26-.63l-.41-1.14a.5.5,0,0,0-.61-.32l-1.79.37a.3.3,0,0,1-.3-.09l-1-1.13A.3.3,0,0,1,31,20l.52-1.74a.51.51,0,0,0-.26-.64l-1.09-.51a.5.5,0,0,0-.66.21l-1,1.51a.32.32,0,0,1-.28.15L26.71,19a.33.33,0,0,1-.26-.18l-.86-1.61a.51.51,0,0,0-.64-.27l-1.13.41a.5.5,0,0,0-.32.61l.36,1.79a.3.3,0,0,1-.08.3l-1.14,1a.31.31,0,0,1-.31.05l-1.73-.52a.5.5,0,0,0-.64.26l-.52,1.09a.51.51,0,0,0,.21.66l1.51,1a.3.3,0,0,1,.15.28l-.07,1.53a.29.29,0,0,1-.18.26l-1.61.86a.51.51,0,0,0-.27.63l.41,1.14a.51.51,0,0,0,.61.32l1.8-.36a.29.29,0,0,1,.3.09l1,1.13a.29.29,0,0,1,.06.31l-.53,1.73a.51.51,0,0,0,.26.64l1.1.52a.52.52,0,0,0,.66-.21l1-1.51a.28.28,0,0,1,.27-.15l1.53.07A.31.31,0,0,1,28,31l.85,1.61a.52.52,0,0,0,.64.27Zm-2.43-5a2.77,2.77,0,0,1-2.15-.1,2.82,2.82,0,0,1-1.35-3.75,2.83,2.83,0,0,1,1.59-1.45,2.82,2.82,0,0,1,1.91,5.3Z"/><path class="cls-2" d="M63.06,13.1A2.92,2.92,0,0,1,66,16V49.48a2.92,2.92,0,0,1-2.92,2.92H6.94A2.92,2.92,0,0,1,4,49.48V16A2.92,2.92,0,0,1,6.94,13.1H63.06m0-4H6.94A6.92,6.92,0,0,0,0,16V49.48A6.92,6.92,0,0,0,6.94,56.4H63.06A6.92,6.92,0,0,0,70,49.48V16A6.92,6.92,0,0,0,63.06,9.1Z"/><rect class="cls-1" x="22.66" y="56.4" width="26.09" height="13.48"/></svg>