<svg id="レイヤー_1" data-name="レイヤー 1" xmlns="http://www.w3.org/2000/svg" viewBox="0 0 70 70"><defs><style>.cls-1{fill:#57c3ea;}.cls-2{fill:none;stroke:#fff;stroke-miterlimit:10;stroke-width:5.29px;}.cls-3{fill:#00afd5;}</style></defs><path class="cls-1" d="M55.48,8.58A28.94,28.94,0,0,0,14.55,49.51L35,70,55.48,49.51A29,29,0,0,0,55.48,8.58Z"/><line class="cls-2" x1="26.11" y1="14.48" x2="26.11" y2="43.74"/><path class="cls-2" d="M36.63,43.74V23.46a6.65,6.65,0,0,1,6.65-6.65h0a6.65,6.65,0,0,1,6.65,6.65v.76a6.65,6.65,0,0,1-6.65,6.65H36.63"/><polygon class="cls-3" points="70 69.97 62.37 69.97 0 0 7.63 0 70 69.97"/></svg>