<svg id="レイヤー_1" data-name="レイヤー 1" xmlns="http://www.w3.org/2000/svg" viewBox="0 0 70 70"><defs><style>.cls-1{fill:#00afd5;}.cls-2,.cls-3{fill:#57c3ea;}.cls-3,.cls-4{stroke:#fff;stroke-miterlimit:10;}.cls-3{stroke-width:5px;}.cls-4{fill:none;stroke-linecap:round;stroke-width:2.21px;}</style></defs><circle class="cls-1" cx="48.88" cy="31.46" r="6.46"/><path class="cls-1" d="M56.09,39.68H41.67a4.21,4.21,0,0,0-4.21,4.2V54.44H60.3V43.88A4.21,4.21,0,0,0,56.09,39.68Z"/><circle class="cls-2" cx="24.16" cy="32.7" r="9.41"/><path class="cls-3" d="M34.66,44.65h-21a6.13,6.13,0,0,0-6.13,6.13V66.15H40.78V50.78A6.13,6.13,0,0,0,34.66,44.65Z"/><path class="cls-2" d="M34.66,44.65h-21a6.13,6.13,0,0,0-6.13,6.13V66.15H40.78V50.78A6.13,6.13,0,0,0,34.66,44.65Z"/><rect class="cls-1" x="15.88" y="3.85" width="15.86" height="15.86" rx="2.94"/><polyline class="cls-4" points="20.28 11.44 23.21 14.37 28.4 9.17"/><rect class="cls-2" x="40.36" y="3.85" width="15.86" height="15.86" rx="2.94"/><polyline class="cls-4" points="44.76 11.44 47.69 14.37 52.89 9.17"/></svg>