<svg id="レイヤー_1" data-name="レイヤー 1" xmlns="http://www.w3.org/2000/svg" viewBox="0 0 70 70"><defs><style>.cls-1,.cls-3{fill:#57c3ea;}.cls-2{fill:#00afd5;}.cls-3{font-size:16px;font-family:DINbekBold, DINbek Bold;letter-spacing:-0.05em;}</style></defs><path class="cls-1" d="M42.54,45.59H18.7a7,7,0,0,0-6.95,6.95V70H49.49V52.54A7,7,0,0,0,42.54,45.59Z"/><circle class="cls-2" cx="30.62" cy="33" r="10.68"/><text class="cls-3" transform="translate(0 17.11)">WELCOME</text><path class="cls-1" d="M41.86,45.59h14.2a1.82,1.82,0,0,0,1.68-1.13L64.4,28.12a2.89,2.89,0,0,1,4.13-1.42h0a2.89,2.89,0,0,1,1.38,3.23l-5,19.88a6.29,6.29,0,0,1-4.39,4.51l-11,3.11L44.6,56.18Z"/></svg>