<svg xmlns="http://www.w3.org/2000/svg" viewBox="0 0 70 70"><defs><style>.cls-1{fill:#57c3ea;}.cls-2{fill:none;stroke:#57c3ea;stroke-linecap:round;stroke-miterlimit:10;stroke-width:5.51px;}.cls-3{fill:#00afd5;}.cls-4{font-size:16px;fill:#fff;font-family:DINbekBold, DINbek Bold;letter-spacing:0.04em;}</style></defs><g id="レイヤー_1" data-name="レイヤー 1"><path class="cls-1" d="M35,5A30,30,0,0,1,56.21,56.21,30,30,0,0,1,13.79,13.79,29.78,29.78,0,0,1,35,5m0-5A35,35,0,1,0,59.75,10.25,34.91,34.91,0,0,0,35,0Z"/></g><g id="レイヤー_3" data-name="レイヤー 3"><line class="cls-2" x1="55.63" y1="14.37" x2="14.37" y2="55.63"/><path class="cls-3" d="M47.15,40.49V17.17a2.86,2.86,0,0,0-5.69-.61c0,.27,0,.55,0,.82q0,6.69,0,13.38a2.46,2.46,0,0,1-.07.67.83.83,0,0,1-.84.66.84.84,0,0,1-.91-.63,2.49,2.49,0,0,1-.08-.72V13.31a2.86,2.86,0,1,0-5.7-.4c0,.23,0,.45,0,.68V30.88c0,.78-.33,1.21-.93,1.21a.87.87,0,0,1-.91-.7,2.56,2.56,0,0,1-.06-.62q0-7.8,0-15.6a2.92,2.92,0,0,0-2.42-3,2.83,2.83,0,0,0-3.18,2.06,4,4,0,0,0-.13,1q0,8.72,0,17.43a3.24,3.24,0,0,1,0,.44.92.92,0,0,1-1.84,0,5.52,5.52,0,0,1,0-.58c0-3.88,0-7.76,0-11.64a2.86,2.86,0,0,0-1.72-2.83,2.73,2.73,0,0,0-3.06.48,2.91,2.91,0,0,0-1,2.33q0,12.54,0,25.07a14.89,14.89,0,0,0,1.77,7.37A11.37,11.37,0,0,0,27.69,59a21.47,21.47,0,0,0,13.55-.76A14.36,14.36,0,0,0,48,52.53q4.38-6.63,8.75-13.26a3.78,3.78,0,0,0,.11-4.34,3.44,3.44,0,0,0-5-.48,6.93,6.93,0,0,0-1,1.18c-1.1,1.47-2.17,3-3.26,4.44l-.33.46Z"/><text class="cls-4" transform="translate(22.87 50.15)">NO</text></g></svg>