<svg id="レイヤー_1" data-name="レイヤー 1" xmlns="http://www.w3.org/2000/svg" viewBox="0 0 70 70"><defs><style>.cls-1{fill:#57c3ea;}.cls-2{fill:#00afd5;}</style></defs><path class="cls-1" d="M5.07,0h0a5.07,5.07,0,0,1,5.07,5.07V70a0,0,0,0,1,0,0H0a0,0,0,0,1,0,0V5.07A5.07,5.07,0,0,1,5.07,0Z"/><path class="cls-2" d="M10.14,10.91H28.76a4.4,4.4,0,0,1,4.4,4.4V38a4.4,4.4,0,0,1-4.4,4.4H10.14a0,0,0,0,1,0,0V10.91A0,0,0,0,1,10.14,10.91Z"/><path class="cls-1" d="M59.86,0H70a0,0,0,0,1,0,0V64.93A5.07,5.07,0,0,1,64.93,70h0a5.07,5.07,0,0,1-5.07-5.07V0a0,0,0,0,1,0,0Z" transform="translate(129.86 70) rotate(180)"/><path class="cls-2" d="M36.84,10.91H55.46a4.4,4.4,0,0,1,4.4,4.4V38a4.4,4.4,0,0,1-4.4,4.4H36.84a0,0,0,0,1,0,0V10.91A0,0,0,0,1,36.84,10.91Z" transform="translate(96.7 53.35) rotate(180)"/></svg>