<?xml version="1.0" encoding="UTF-8"?><svg id="_レイヤー_1" xmlns="http://www.w3.org/2000/svg" viewBox="0 0 70 70"><defs><style>.cls-1{fill:#00afd5;}.cls-2{fill:#e1f7ff;}.cls-3{fill:#57c3ea;}.cls-4{fill:none;stroke:#fff;stroke-linecap:round;stroke-miterlimit:10;stroke-width:5.02px;}</style></defs><circle class="cls-2" cx="35" cy="35" r="35"/><g><g><path class="cls-3" d="M45.47,16.43c-4.17-1.07-7.76-2.94-10.34-5.17l-.13-.03h-.02c-2.59,2.24-6.19,4.12-10.37,5.2-4.42,1.14-8.7,1.19-12.15,.34v21.8c0,6.26,3.18,11.99,8.24,14.82l14.31,8.02,14.31-8.02c5.05-2.83,8.24-8.56,8.24-14.82V16.79c-3.43,.83-7.69,.77-12.07-.36Z"/><path class="cls-1" d="M35.04,16.56c2.72,1.77,5.9,3.15,9.36,4.04,2.72,.7,5.45,1.06,8.11,1.06,.25,0,.49,0,.74,0v16.92c0,4.67-2.37,9.01-6.04,11.07l-12.21,6.84-12.21-6.84c-3.67-2.05-6.04-6.4-6.04-11.07V21.64c.27,0,.54,.01,.81,.01,2.66,0,5.39-.36,8.11-1.06,3.46-.89,6.64-2.27,9.36-4.04m-.04-5.32h-.02c-2.59,2.24-6.19,4.12-10.37,5.2-2.43,.63-4.81,.92-7.04,.92-1.83,0-3.56-.2-5.11-.58v21.8c0,6.26,3.18,11.99,8.24,14.82l14.31,8.02,14.31-8.02c5.05-2.83,8.24-8.56,8.24-14.82V16.79c-1.54,.37-3.24,.56-5.04,.56-2.23,0-4.61-.3-7.04-.92-4.17-1.07-7.76-2.94-10.34-5.17l-.13-.03h0Z"/></g><polyline class="cls-4" points="26.97 35.43 33.81 40.72 45.17 29.84"/></g></svg>