<svg id="レイヤー_1" data-name="レイヤー 1" xmlns="http://www.w3.org/2000/svg" viewBox="0 0 70 70"><defs><style>.cls-1{fill:#59b9dd;}.cls-2{fill:#57c3ea;}.cls-3{fill:#19a4c7;}.cls-4{fill:#00afd5;}.cls-5{fill:#fff;}</style></defs><path class="cls-1" d="M37.31,69.69a7.38,7.38,0,0,1-.92.16C36.69,69.82,37,69.74,37.31,69.69Z"/><path class="cls-1" d="M6.77,55.09c-.17-.13-.32-.26-.46-.39C6.45,54.83,6.6,55,6.77,55.09Z"/><path class="cls-1" d="M6.25,54.66c-.17-.15-.32-.3-.47-.45Z"/><path class="cls-1" d="M5.78,54.19A11.26,11.26,0,0,1,4.11,52,9.81,9.81,0,0,0,5.78,54.19Z"/><path class="cls-1" d="M38.42,69.37c-.3.09-.59.19-.89.26A7.47,7.47,0,0,0,38.42,69.37Z"/><path class="cls-1" d="M31.89,69.48l-.53-.17Z"/><path class="cls-1" d="M31.09,69.2,30.57,69C30.76,69.05,30.93,69.13,31.09,69.2Z"/><path class="cls-1" d="M7.33,55.5a4.41,4.41,0,0,1-.49-.36C7,55.25,7.16,55.39,7.33,55.5Z"/><path class="cls-1" d="M32.92,69.74q-.39-.08-.78-.18C32.4,69.61,32.66,69.69,32.92,69.74Z"/><path class="cls-1" d="M30.35,68.87a6.36,6.36,0,0,1-.72-.39A6.36,6.36,0,0,0,30.35,68.87Z"/><path class="cls-1" d="M36.38,69.85A11,11,0,0,1,35,70,10.6,10.6,0,0,0,36.38,69.85Z"/><path class="cls-2" d="M62.15,14.66,40.54,1.55a10.66,10.66,0,0,0-11.08,0L7.85,14.66A10.68,10.68,0,0,0,2.7,23.79V46.7A10.6,10.6,0,0,0,4.11,52L35,33.27,45.43,39.6a6,6,0,0,1,2.1-2.33l6.23-4A2.76,2.76,0,0,1,58,35.64V47.22L65.89,52a11.16,11.16,0,0,1-2.16,2.68,10.68,10.68,0,0,0,3.57-8V23.79A10.74,10.74,0,0,0,62.15,14.66Z"/><path class="cls-1" d="M7.42,55.55a6.34,6.34,0,0,0,.62.37l21.6,12.56L8,55.92A5.2,5.2,0,0,1,7.42,55.55Z"/><path class="cls-1" d="M58,58.25h0l4-2.31c.21-.11.41-.24.62-.37a6.34,6.34,0,0,1-.62.37Z"/><path class="cls-1" d="M39.3,69c-.3.13-.58.24-.88.35Z"/><path class="cls-1" d="M63.69,54.7c-.14.13-.31.26-.46.39C63.38,55,63.55,54.83,63.69,54.7Z"/><path class="cls-1" d="M40.36,68.5c-.28.16-.56.29-.86.44Z"/><path class="cls-1" d="M63.16,55.14c-.17.13-.34.26-.53.38Z"/><path class="cls-3" d="M32.92,69.74a12.88,12.88,0,0,0,1.37.19,12.88,12.88,0,0,1-1.37-.19Z"/><path class="cls-3" d="M63.71,54.66s0,0,0,0S63.71,54.68,63.71,54.66Z"/><path class="cls-3" d="M32.14,69.56l-.25-.08A.92.92,0,0,1,32.14,69.56Z"/><path class="cls-3" d="M37.53,69.63l-.22.06Z"/><path class="cls-3" d="M63.23,55.09s-.06,0-.07,0S63.19,55.11,63.23,55.09Z"/><path class="cls-3" d="M39.52,68.92a1.38,1.38,0,0,1-.22.1A1.38,1.38,0,0,0,39.52,68.92Z"/><path class="cls-3" d="M62.63,55.52a.09.09,0,0,1-.05,0Z"/><polygon class="cls-3" points="40.36 68.5 44.76 65.93 44.76 65.93 40.36 68.5"/><path class="cls-3" d="M6.29,54.7l0,0A0,0,0,0,1,6.29,54.7Z"/><path class="cls-3" d="M31.37,69.3l-.26-.1A1.17,1.17,0,0,0,31.37,69.3Z"/><path class="cls-3" d="M7.42,55.55l-.07,0Z"/><path class="cls-3" d="M30.57,69l-.22-.11Z"/><path class="cls-3" d="M6.84,55.14s0,0-.07,0Z"/><path class="cls-4" d="M44.76,42.26a6,6,0,0,1,.65-2.68L35,33.26,4.09,52h0a11.31,11.31,0,0,0,1.68,2.21h0c.14.15.31.3.46.45l0,0,.46.39.08,0a5.46,5.46,0,0,0,.48.36l.08.05c.2.13.39.26.61.38L29.59,68.46l.72.39.23.11c.16.08.35.15.52.22a1.17,1.17,0,0,0,.26.1,4.81,4.81,0,0,0,.54.16l.24.08q.39.11.78.18a10.65,10.65,0,0,0,1.38.19c.22,0,.46,0,.68,0a13.16,13.16,0,0,0,1.4-.09,8.62,8.62,0,0,0,.91-.17l.22-.06a7.62,7.62,0,0,0,.9-.26,7.18,7.18,0,0,0,.87-.35,2,2,0,0,1,.22-.09,8.87,8.87,0,0,0,.86-.45l4.41-2.57V42.26Z"/><path class="cls-4" d="M65.89,52,58,47.22V58.27L62,56c.21-.11.41-.24.62-.37,0,0,0,0,0,0a6.15,6.15,0,0,0,.52-.37l.08-.06c.17-.13.31-.26.46-.39h0A13,13,0,0,0,65.89,52Z"/><polygon class="cls-5" points="52.54 61.41 44.76 65.93 44.76 66.11 57.98 58.47 57.98 58.25 53.41 60.91 52.54 61.41"/><polygon class="cls-5" points="53.41 60.91 57.98 58.25 57.98 58.25 53.41 60.91"/><polygon class="cls-5" points="53.41 60.91 44.76 65.93 44.76 65.93 52.54 61.41 53.41 60.91"/><path class="cls-2" d="M44.76,65.93l8.65-5L58,58.25v-11L45.41,39.58a6,6,0,0,0-.65,2.68Z"/></svg>