<svg id="レイヤー_1" data-name="レイヤー 1" xmlns="http://www.w3.org/2000/svg" viewBox="0 0 70 70"><defs><style>.cls-1{fill:#00afd5;}.cls-2{fill:#fff;}</style></defs><path class="cls-1" d="M63.71,34.69A17.29,17.29,0,0,0,46.77,13.84a17.32,17.32,0,0,0-15.35,9.3A13.37,13.37,0,0,0,9.61,33.51s0,.09,0,.13A11.32,11.32,0,0,0,0,44.83H0A11.32,11.32,0,0,0,11.32,56.16H58.68A11.32,11.32,0,0,0,70,44.83h0A11.33,11.33,0,0,0,63.71,34.69Z"/><path class="cls-2" d="M19.36,36.31l7.17,0,12.45,0a.44.44,0,0,0,.48-.3,9.16,9.16,0,1,1,2.63,11.06,8.89,8.89,0,0,1-2.64-3.35A.38.38,0,0,0,39,43.5H29.81a1.32,1.32,0,0,1-.61-.16c-.58-.32-1.16-.67-1.73-1a.41.41,0,0,0-.46,0c-.66.34-1.32.68-2,1a.51.51,0,0,1-.42,0c-.67-.32-1.35-.67-2-1a.48.48,0,0,0-.49,0c-.7.35-1.42.68-2.11,1a.42.42,0,0,1-.58-.11q-1.72-1.74-3.47-3.46ZM53,41.52a2.53,2.53,0,1,0-3.59,0A2.53,2.53,0,0,0,53,41.52Z"/></svg>