<svg id="レイヤー_1" data-name="レイヤー 1" xmlns="http://www.w3.org/2000/svg" viewBox="0 0 70 70"><defs><style>.cls-1{fill:#00afd5;}.cls-2{fill:#57c3ea;}.cls-3,.cls-4{fill:none;stroke-linecap:round;stroke-miterlimit:10;}.cls-3{stroke:#fff;stroke-width:1.59px;}.cls-4{stroke:#57c3ea;stroke-width:3.19px;}</style></defs><rect class="cls-1" x="18.48" y="4.81" width="32.93" height="62.19" rx="4.84"/><rect class="cls-2" x="21.86" y="11.75" width="26.18" height="51.97" rx="1.63"/><line class="cls-3" x1="31.74" y1="8.26" x2="37.66" y2="8.26"/><path class="cls-4" d="M9,43.24A16.68,16.68,0,0,1,9,26"/><path class="cls-4" d="M4.39,23.29A24.42,24.42,0,0,0,4.39,46"/><path class="cls-4" d="M13.58,40.52a9.82,9.82,0,0,1,0-11.8"/><path class="cls-4" d="M9,26A16.68,16.68,0,0,0,9,43.24"/><path class="cls-4" d="M60.89,26a16.68,16.68,0,0,1,0,17.24"/><path class="cls-4" d="M65.48,46a24.42,24.42,0,0,0,0-22.67"/><path class="cls-4" d="M56.29,28.72a9.82,9.82,0,0,1,0,11.8"/><path class="cls-4" d="M60.89,43.24a16.68,16.68,0,0,0,0-17.24"/></svg>