<svg id="レイヤー_1" data-name="レイヤー 1" xmlns="http://www.w3.org/2000/svg" viewBox="0 0 70 70"><defs><style>.cls-1{fill:#57c3ea;}.cls-2{fill:#00afd5;}.cls-3{fill:none;stroke:#fff;stroke-linecap:round;stroke-miterlimit:10;stroke-width:2.21px;}</style></defs><circle class="cls-1" cx="16.46" cy="32.7" r="9.41"/><path class="cls-1" d="M27,44.65H6A6.13,6.13,0,0,0-.16,50.78V66.15H33.08V50.78A6.14,6.14,0,0,0,27,44.65Z"/><circle class="cls-2" cx="53.13" cy="32.7" r="9.41"/><path class="cls-2" d="M63.63,44.65h-21a6.13,6.13,0,0,0-6.13,6.13V66.15H69.75V50.78A6.13,6.13,0,0,0,63.63,44.65Z"/><rect class="cls-2" x="6.81" y="3.85" width="15.86" height="15.86" rx="2.94"/><polyline class="cls-3" points="11.21 11.44 14.13 14.37 19.33 9.17"/><rect class="cls-1" x="43.48" y="3.85" width="15.86" height="15.86" rx="2.94"/><polyline class="cls-3" points="47.88 11.44 50.81 14.37 56.01 9.17"/></svg>