<svg id="レイヤー_1" data-name="レイヤー 1" xmlns="http://www.w3.org/2000/svg" viewBox="0 0 70 70"><defs><style>.cls-1{fill:#00afd5;}.cls-2{fill:#57c3ea;}</style></defs><path class="cls-1" d="M68.51,43.55l-5.08-.73a.85.85,0,0,1-.71-.52l-1.65-4a.84.84,0,0,1,.13-.87l3-4.09a1.43,1.43,0,0,0-.08-1.94L61.76,29a1.42,1.42,0,0,0-1.93-.08l-4.09,3a.84.84,0,0,1-.87.14l-4-1.65a.86.86,0,0,1-.52-.71l-.74-5.08a1.43,1.43,0,0,0-1.42-1.32h-3.4a1.41,1.41,0,0,0-1.42,1.32l-.74,5.08a.85.85,0,0,1-.52.71l-4,1.65a.83.83,0,0,1-.87-.14l-4.09-3a1.43,1.43,0,0,0-1.94.08l-2.4,2.4a1.43,1.43,0,0,0-.08,1.94l3,4.09a.84.84,0,0,1,.14.87l-1.65,4a.85.85,0,0,1-.71.52l-5.09.73A1.43,1.43,0,0,0,23.19,45v3.4A1.42,1.42,0,0,0,24.5,49.8l5.09.74a.85.85,0,0,1,.71.52L32,55a.84.84,0,0,1-.14.87l-3,4.09a1.42,1.42,0,0,0,.08,1.93l2.4,2.41a1.42,1.42,0,0,0,1.94.07l4.09-3a.83.83,0,0,1,.87-.13l4,1.64a.88.88,0,0,1,.52.72l.74,5.08A1.41,1.41,0,0,0,44.81,70h3.4a1.42,1.42,0,0,0,1.42-1.32l.74-5.08a.88.88,0,0,1,.52-.72l4-1.64a.84.84,0,0,1,.87.13l4.09,3a1.41,1.41,0,0,0,1.93-.07l2.41-2.41A1.42,1.42,0,0,0,64.25,60l-3-4.09a.84.84,0,0,1-.13-.87l1.65-4a.85.85,0,0,1,.71-.52l5.08-.74a1.42,1.42,0,0,0,1.32-1.42V45A1.43,1.43,0,0,0,68.51,43.55ZM52.1,52.27a7.89,7.89,0,1,1,2.32-5.59A7.87,7.87,0,0,1,52.1,52.27Z"/><path class="cls-2" d="M25.19,34.47a1.11,1.11,0,0,0,.7-1.34l-.81-4a.67.67,0,0,1,.19-.67l2.5-2.27a.65.65,0,0,1,.68-.13l3.82,1.16a1.12,1.12,0,0,0,1.41-.57l1.14-2.41a1.11,1.11,0,0,0-.46-1.45L31,20.63A.64.64,0,0,1,30.7,20l.16-3.37a.65.65,0,0,1,.38-.57l3.56-1.9a1.12,1.12,0,0,0,.59-1.4l-.9-2.51a1.13,1.13,0,0,0-1.35-.7l-3.95.81a.66.66,0,0,1-.66-.2L26.26,7.69A.66.66,0,0,1,26.13,7l1.15-3.82a1.12,1.12,0,0,0-.57-1.41L24.3.64a1.12,1.12,0,0,0-1.45.46L20.64,4.43a.66.66,0,0,1-.6.33L16.67,4.6a.66.66,0,0,1-.58-.39L14.2.66A1.12,1.12,0,0,0,12.8.07L10.29,1a1.11,1.11,0,0,0-.7,1.35l.8,4a.66.66,0,0,1-.19.66L7.7,9.2A.65.65,0,0,1,7,9.33L3.2,8.18a1.12,1.12,0,0,0-1.41.57L.66,11.16a1.12,1.12,0,0,0,.45,1.45l3.33,2.2a.65.65,0,0,1,.33.61l-.15,3.37a.69.69,0,0,1-.39.58L.67,21.26a1.12,1.12,0,0,0-.59,1.4L1,25.17a1.12,1.12,0,0,0,1.35.7l4-.8a.63.63,0,0,1,.66.19l2.28,2.5a.67.67,0,0,1,.13.68L8.19,32.26a1.12,1.12,0,0,0,.57,1.41l2.41,1.13a1.12,1.12,0,0,0,1.45-.46L14.83,31a.66.66,0,0,1,.61-.34l3.37.16a.65.65,0,0,1,.57.39l1.9,3.55a1.11,1.11,0,0,0,1.39.6ZM19.84,23.56a6.2,6.2,0,1,1,3.51-3.2A6.24,6.24,0,0,1,19.84,23.56Z"/></svg>