<svg id="レイヤー_1" data-name="レイヤー 1" xmlns="http://www.w3.org/2000/svg" viewBox="0 0 70 70"><defs><style>.cls-1{fill:#57c3ea;}.cls-2{fill:#00afd5;}</style></defs><circle class="cls-1" cx="22.83" cy="25.2" r="6.24"/><path class="cls-1" d="M29.79,33.14H15.86a4.07,4.07,0,0,0-4.07,4.06V47.41H33.86V37.2A4.07,4.07,0,0,0,29.79,33.14Z"/><circle class="cls-2" cx="47.17" cy="25.2" r="6.24"/><path class="cls-2" d="M54.14,33.14H40.21a4.07,4.07,0,0,0-4.07,4.06V47.41H58.21V37.2A4.07,4.07,0,0,0,54.14,33.14Z"/><rect class="cls-2" x="21.95" y="56.52" width="26.09" height="13.48"/><path class="cls-1" d="M63.06,13.22A2.92,2.92,0,0,1,66,16.14V49.6a2.92,2.92,0,0,1-2.92,2.92H6.94A2.92,2.92,0,0,1,4,49.6V16.14a2.92,2.92,0,0,1,2.92-2.92H63.06m0-4H6.94A6.92,6.92,0,0,0,0,16.14V49.6a6.92,6.92,0,0,0,6.92,6.92H63.06A6.92,6.92,0,0,0,70,49.6V16.14a6.92,6.92,0,0,0-6.92-6.92Z"/></svg>