<svg id="レイヤー_1" data-name="レイヤー 1" xmlns="http://www.w3.org/2000/svg" viewBox="0 0 70 70"><defs><style>.cls-1{fill:#00afd5;}.cls-2{fill:#fff;}.cls-3{fill:#57c3ea;}</style></defs><rect class="cls-1" x="8.32" y="13.75" width="53.38" height="34.99" rx="3.37"/><rect class="cls-2" x="11.6" y="17.11" width="46.82" height="28.26" rx="0.95"/><rect class="cls-3" x="37.7" y="4.15" width="32.3" height="19.2" rx="3.15"/><path class="cls-1" d="M67.78,63.64H2.24A2.07,2.07,0,0,1,.51,60.27l7.15-8.41a2.26,2.26,0,0,1,1.73-.79H60.63a2.27,2.27,0,0,1,1.74.79l7.14,8.41A2.07,2.07,0,0,1,67.78,63.64Z"/><polyline class="cls-3" points="45.13 23.35 43.44 30.26 52.17 23.35 45.9 23.35"/><circle class="cls-2" cx="45.66" cy="13.26" r="2.22"/><circle class="cls-2" cx="54.22" cy="13.26" r="2.22"/><circle class="cls-2" cx="62.77" cy="13.26" r="2.22"/></svg>