<svg xmlns="http://www.w3.org/2000/svg" xmlns:xlink="http://www.w3.org/1999/xlink" viewBox="0 0 70 70"><defs><style>.cls-1,.cls-2,.cls-7{fill:none;}.cls-2{stroke:#00afd5;}.cls-2,.cls-7{stroke-linecap:round;stroke-linejoin:round;stroke-width:4px;}.cls-3{fill:#57c3ea;}.cls-4{fill:#00afd5;}.cls-5{fill:#fff;}.cls-6{clip-path:url(#clip-path);}.cls-7{stroke:#fff;}</style><clipPath id="clip-path"><rect class="cls-1" x="5.21" y="4.74" width="44.24" height="53.77" transform="translate(54.66 63.26) rotate(-180)"/></clipPath></defs><g id="レイヤー_3" data-name="レイヤー 3"><line class="cls-2" x1="41.24" y1="33.8" x2="63.13" y2="33.8"/><polyline class="cls-2" points="58.85 26.38 66.21 33.74 58.95 41"/><rect class="cls-3" x="5.21" y="4.74" width="44.24" height="53.77" rx="2.23" transform="translate(54.66 63.26) rotate(-180)"/><path class="cls-4" d="M27.8,70.28a3.88,3.88,0,0,1-1.6-.35L5.67,60.75a3.92,3.92,0,0,1-2.31-3.57V7.86A3.89,3.89,0,0,1,8.8,4.27L29.33,13a3.91,3.91,0,0,1,2.37,3.6V66.37a3.87,3.87,0,0,1-1.18,2.8,3.91,3.91,0,0,1-2.72,1.11Z"/><path class="cls-5" d="M7.27,5.8A2,2,0,0,1,8.08,6l20.53,8.76a2.08,2.08,0,0,1,1.25,1.9V66.37A2.06,2.06,0,0,1,27,68.25L6.43,59.06a2.05,2.05,0,0,1-1.22-1.88V7.86A2.06,2.06,0,0,1,7.27,5.8m0-3.69A5.77,5.77,0,0,0,1.51,7.86V57.18a5.77,5.77,0,0,0,3.41,5.26l20.53,9.18a5.75,5.75,0,0,0,8.1-5.25V16.63a5.74,5.74,0,0,0-3.49-5.29L9.53,2.57a5.67,5.67,0,0,0-2.26-.46Z"/><g class="cls-6"><line class="cls-7" x1="41.24" y1="33.8" x2="61.77" y2="33.8"/></g></g></svg>