<svg id="レイヤー_1" data-name="レイヤー 1" xmlns="http://www.w3.org/2000/svg" viewBox="0 0 70 70"><defs><style>.cls-1{fill:#00abdc;}.cls-2{fill:#fff;}.cls-3{fill:#57c3ea;}</style></defs><rect class="cls-1" x="10.87" y="11.33" width="9.65" height="9.65"/><rect class="cls-1" x="20.51" y="11.33" width="9.65" height="9.65"/><rect class="cls-1" x="39.8" y="11.33" width="9.65" height="9.65"/><rect class="cls-1" x="49.45" y="11.33" width="9.65" height="9.65"/><rect class="cls-1" x="10.87" y="20.98" width="9.65" height="9.65"/><rect class="cls-1" x="30.17" y="20.98" width="9.65" height="9.65"/><rect class="cls-1" x="20.52" y="20.98" width="9.65" height="9.65"/><rect class="cls-1" x="49.46" y="20.98" width="9.65" height="9.65"/><rect class="cls-1" x="10.88" y="30.62" width="9.65" height="9.65"/><rect class="cls-1" x="30.18" y="30.62" width="9.65" height="9.65"/><rect class="cls-1" x="39.82" y="30.62" width="9.65" height="9.65"/><rect class="cls-1" x="20.54" y="40.27" width="9.65" height="9.65"/><rect class="cls-1" x="39.83" y="40.27" width="9.65" height="9.65"/><rect class="cls-1" x="49.48" y="40.27" width="9.65" height="9.65"/><rect class="cls-1" x="49.49" y="49.91" width="9.65" height="9.65"/><rect class="cls-1" x="10.9" y="49.91" width="9.65" height="9.65"/><rect class="cls-1" x="30.2" y="49.91" width="9.65" height="9.65"/><rect class="cls-1" x="39.84" y="49.91" width="9.65" height="9.65"/><rect class="cls-2" x="44.58" y="45.04" width="10.62" height="10.62"/><rect class="cls-2" x="14.97" y="15.32" width="10.54" height="10.54"/><path class="cls-3" d="M65,5V65H5V5H65m5-5H0V70H70V0Z"/></svg>