<svg id="レイヤー_1" data-name="レイヤー 1" xmlns="http://www.w3.org/2000/svg" viewBox="0 0 70 70"><defs><style>.cls-1{fill:#0464b8;}.cls-2{fill:#0377d4;}.cls-3{fill:#29a7eb;}.cls-4{fill:#4fd8ff;}.cls-5{fill:#1681d7;}.cls-6{fill:#0178d4;}.cls-7{fill:#042071;}.cls-8{fill:#168fde;}.cls-9{fill:#fff;}.cls-10{isolation:isolate;opacity:0.2;}</style></defs><path class="cls-1" d="M65.78,12.39H18.87V4.92a2.2,2.2,0,0,1,2.18-2.24H63.54a2.21,2.21,0,0,1,2.24,2.24Z"/><rect class="cls-2" x="18.87" y="12.39" width="15.65" height="14.51"/><rect class="cls-3" x="34.53" y="12.39" width="15.65" height="14.51"/><rect class="cls-4" x="50.18" y="12.39" width="15.65" height="14.51"/><rect class="cls-5" x="18.87" y="26.9" width="15.65" height="14.51"/><rect class="cls-6" x="34.53" y="26.9" width="15.65" height="14.51"/><rect class="cls-3" x="50.18" y="26.9" width="15.65" height="14.51"/><rect class="cls-1" x="34.53" y="41.35" width="15.65" height="14.51"/><rect class="cls-5" x="50.18" y="41.35" width="15.65" height="14.51"/><path class="cls-7" d="M69.43,37.65l-3.6,2.12V33.66l3.55,2A1.15,1.15,0,0,1,69.43,37.65Z"/><path class="cls-8" d="M69.43,37.65l-.32.21h0l-.39.22-2.89,1.69v-.05L17.62,67.32h48.6a3.71,3.71,0,0,0,3.7-3.71L70,36.66A1.05,1.05,0,0,1,69.43,37.65Z"/><path class="cls-3" d="M66.76,67.32H18.11a3.72,3.72,0,0,1-3.71-3.71V37.32Z"/><path class="cls-5" d="M32.4,52.59H3.49A3.51,3.51,0,0,1,0,49.1V20.63a3.51,3.51,0,0,1,3.49-3.49H32.4a3.51,3.51,0,0,1,3.49,3.49V49.1A3.48,3.48,0,0,1,32.4,52.59Z"/><path class="cls-9" d="M17.94,45.17c-5.61,0-9.16-4.25-9.16-9.92,0-6,3.87-10.26,9.44-10.26,5.78,0,9.16,4.31,9.16,9.87.06,6.6-4,10.31-9.44,10.31Zm.22-2.83c3.49,0,5.46-3.22,5.46-7.31,0-3.71-1.86-7.15-5.46-7.15s-5.51,3.38-5.51,7.31,2,7.15,5.51,7.15Z"/><path class="cls-10" d="M35.94,20.3V49.1a3.51,3.51,0,0,1-3.49,3.49H14.4V55.7H35.34a3.52,3.52,0,0,0,3.5-3.49V23.74A3.43,3.43,0,0,0,35.94,20.3Z"/></svg>