<svg xmlns="http://www.w3.org/2000/svg" width="1115.74" height="106.57" viewBox="0 0 1115.74 106.57">
  <g id="comments" transform="translate(-45.678 -580.554)">
    <g id="グループ_34" data-name="グループ 34" transform="translate(45.678 582.054)">
      <g id="グループ_29" data-name="グループ 29" transform="translate(65.594 17.146)">
        <path id="パス_290" data-name="パス 290" d="M83.67,599.093a17.2,17.2,0,0,1-3.874,3.7,12.614,12.614,0,0,1-2.693,1.53c-.159,0-.194-.033-.581-.509a4.526,4.526,0,0,0-1.057-1.039,14.168,14.168,0,0,0,4.032-2.308,16.248,16.248,0,0,0,3.224-3.272c-2.59,0-4.437.051-5.195.156a1.215,1.215,0,0,1-.317.037c-.247,0-.317-.037-.388-.194a9.353,9.353,0,0,1-.176-1.973c.81.106,3.468.194,5.686.194h1.18l-.033-.828a12.455,12.455,0,0,0-.249-2.394,11.526,11.526,0,0,1,2.273.229c.159.035.229.123.229.244s-.018.161-.123.337a1.4,1.4,0,0,0-.141.773c0,.264,0,.581.018.9l.035.722c3.1-.053,3.468-.053,3.838-.07a2.027,2.027,0,0,1,.3-.018c.405,0,.44.088.44,1s-.018.967-.352.967H89.64a2.3,2.3,0,0,1-.3-.018h-.652c-1.039-.018-2.464-.051-3.081-.051l.194,4.332c0,.159.018.245.088,1.161a10.593,10.593,0,0,1,.053,1.075c0,1.936-.669,2.5-2.995,2.5a4.328,4.328,0,0,1-1.178-.088c-.176-.088-.211-.141-.352-.687a9,9,0,0,0-.617-1.462,10.459,10.459,0,0,0,2.041.231c.863,0,1.022-.123,1.022-.757a.087.087,0,0,0-.018-.053Z" transform="translate(-75.465 -591.417)" fill="#3c987a"/>
        <path id="パス_291" data-name="パス 291" d="M90.448,594.925a38.481,38.481,0,0,0-5.935.264.071.071,0,0,1-.053.015c-.333,0-.438-.579-.491-2.394a31.119,31.119,0,0,0,4.6.178c2.358,0,5.122-.055,5.563-.106a2.389,2.389,0,0,0,.74-.176.412.412,0,0,1,.194-.035c.3,0,.669.28,1.231.951.335.421.407.526.407.72a.617.617,0,0,1-.178.388c-.176.211-.192.264-.579,1.5a16.353,16.353,0,0,1-5.582,7.925,8.225,8.225,0,0,1-2.325,1.425c-.192,0-.229-.015-.632-.423a5.458,5.458,0,0,0-1.321-1,14.059,14.059,0,0,0,5.353-4.087,12.037,12.037,0,0,0,2.376-5.175C92.436,594.907,92.436,594.907,90.448,594.925Z" transform="translate(-65.242 -590.84)" fill="#3c987a"/>
        <path id="パス_292" data-name="パス 292" d="M96.127,599.112a17.7,17.7,0,0,1-3.539,1.848c-.176,0-.176,0-.511-.37a6.761,6.761,0,0,0-1.092-.969,19.385,19.385,0,0,0,6.71-3.944,8.26,8.26,0,0,0,1.707-1.918c.934.617,1.638,1.286,1.638,1.55,0,.106-.053.156-.211.229a3.766,3.766,0,0,0-.934.7c-.37.335-1.075.916-1.865,1.515v2.819c0,1.53.033,3.1.088,3.836v.194c0,.284-.176.317-1.286.317-.7,0-.775-.018-.775-.209v-.125a3.319,3.319,0,0,1,.018-.35c.035-.44.053-1.993.053-3.662Z" transform="translate(-56.808 -589.533)" fill="#3c987a"/>
        <path id="パス_293" data-name="パス 293" d="M109.65,602.041A7.736,7.736,0,0,1,111.464,604c0,.156-.229.44-.775.967-.405.388-.581.513-.7.513a.432.432,0,0,1-.262-.125c-.194-.227-.194-.227-1-1.143a23.12,23.12,0,0,0-3.821-3.347,27.55,27.55,0,0,1-4,3.4,8.933,8.933,0,0,1-2.167,1.216c-.176,0-.194-.02-.617-.5a6.932,6.932,0,0,0-1.092-.951,18.74,18.74,0,0,0,5.195-3.468,21.435,21.435,0,0,0,4.42-5.618,66.026,66.026,0,0,0-6.919.143c-.211.018-.247.018-.282.018a.3.3,0,0,1-.335-.282,12.2,12.2,0,0,1-.123-2.024,48.371,48.371,0,0,0,5.618.227c1.039,0,2.129-.033,2.711-.1a2.042,2.042,0,0,0,.634-.161.4.4,0,0,1,.211-.033c.3,0,.617.244,1.039.808a2.515,2.515,0,0,1,.529,1.04c0,.211-.053.282-.511.7a5.5,5.5,0,0,0-.951,1.319,25.48,25.48,0,0,1-2.008,2.8A23.975,23.975,0,0,1,109.65,602.041Z" transform="translate(-49.547 -590.772)" fill="#3c987a"/>
        <path id="パス_294" data-name="パス 294" d="M111.684,602.184a3.912,3.912,0,0,1-3.2,2.273c-1.832,0-3.134-1.8-3.134-4.3a7.1,7.1,0,0,1,3.821-6.446,8.3,8.3,0,0,1,4.12-.916,6.1,6.1,0,0,1,6.408,6.093,6.7,6.7,0,0,1-4.437,6.549,4.2,4.2,0,0,1-1.268.388c-.211,0-.3-.07-.526-.405a3.7,3.7,0,0,0-1.11-1.11c3.627-.932,5.263-2.64,5.263-5.492a4.12,4.12,0,0,0-1.707-3.468,4.466,4.466,0,0,0-2.079-.757C113.34,598.311,112.758,600.337,111.684,602.184Zm-2.535-6.232a5.47,5.47,0,0,0-1.85,4.171c0,1.357.44,2.149,1.18,2.149.879,0,1.777-1.216,2.447-3.31a22.187,22.187,0,0,0,.9-4.279A5.07,5.07,0,0,0,109.149,595.952Z" transform="translate(-39.544 -590.687)" fill="#3c987a"/>
        <path id="パス_295" data-name="パス 295" d="M116.4,594.551c-.511.106-.846.161-1.744.3a6.078,6.078,0,0,0-.667-1.568,15.717,15.717,0,0,0,4.1-.934,3.97,3.97,0,0,0,1.039-.509l1.057,1.48c-.194.088-.229.106-.335.156a12.362,12.362,0,0,1-1.689.616v2.255h.544a6.644,6.644,0,0,0,1.163-.071v1.76a7.194,7.194,0,0,0-1.163-.07h-.456a6.275,6.275,0,0,0,1.795,2.2,9.092,9.092,0,0,0-.81,1.621,10.4,10.4,0,0,1-1.178-1.641,15.446,15.446,0,0,1,.106,1.887v3.486a16.365,16.365,0,0,0,.1,2.076H116.3a13.3,13.3,0,0,0,.106-2.076V602.6c0-.513.035-1.253.106-1.956a12.708,12.708,0,0,1-2.026,3.785,6.645,6.645,0,0,0-.9-1.83,12.933,12.933,0,0,0,2.572-4.633h-.9a6.771,6.771,0,0,0-1.3.088V596.26a6.226,6.226,0,0,0,1.3.088H116.4Zm10.108,4.1a2.753,2.753,0,0,0-.266.4c-.051.07-.229.335-.35.493h1.5a7.909,7.909,0,0,0,1.286-.07l1,1.057a8.4,8.4,0,0,0-.423.775c-.141.247-.828,1.319-1.039,1.6a12.773,12.773,0,0,1-4.243,3.433,13.521,13.521,0,0,1-3.926,1.3,5.743,5.743,0,0,0-.916-1.709,11.773,11.773,0,0,0,4.842-1.583,8.456,8.456,0,0,0-1.357-1.18l1.268-.932a12.232,12.232,0,0,1,1.5,1.161,10.444,10.444,0,0,0,2.165-2.394h-2.922a14.183,14.183,0,0,1-4.05,2.764,9.19,9.19,0,0,0-1.11-1.409,10.885,10.885,0,0,0,5.071-3.625,15.291,15.291,0,0,1-3.979,1.969,4.68,4.68,0,0,0-1.022-1.478,12.428,12.428,0,0,0,3.592-1.5.639.639,0,0,0-.123-.123,5.238,5.238,0,0,0-.526-.546c-.037-.037-.108-.106-.214-.194l-.335-.282,1.216-.916a13.367,13.367,0,0,1,1.339,1.145,8.758,8.758,0,0,0,2.079-2.112H123.5a12.969,12.969,0,0,1-3.01,2.341,5.424,5.424,0,0,0-1.075-1.286,10.106,10.106,0,0,0,3.31-2.572,4.933,4.933,0,0,0,.758-1.3l1.779.544c-.088.126-.088.126-.282.425-.018.018-.053.088-.141.194-.035.053-.07.106-.141.194h1.936a7.9,7.9,0,0,0,1.286-.073l.951,1.022a7.328,7.328,0,0,0-.476.722,11.513,11.513,0,0,1-3.186,3.345Z" transform="translate(-29.64 -591.84)" fill="#3c987a"/>
        <path id="パス_296" data-name="パス 296" d="M127.259,606.045a9.932,9.932,0,0,0,.106,1.478H125.5a11.153,11.153,0,0,0,.106-1.568v-1.02H124.16a10.348,10.348,0,0,0-1.638.088v-1.744a9.274,9.274,0,0,0,1.55.088h1.53v-1h-.81c-.758,0-1.09.015-1.707.051a18.647,18.647,0,0,0,.07-1.9V597.7a15.339,15.339,0,0,0-.07-1.759c.456.035.773.053,1.671.053h.863v-1.022h-1.427a12.571,12.571,0,0,0-1.548.07V593.33a9.682,9.682,0,0,0,1.636.088h1.339v-.156a6.98,6.98,0,0,0-.123-1.374h1.867a6.7,6.7,0,0,0-.106,1.374v.156h1.178a9.825,9.825,0,0,0,1.638-.088v1.709a11.355,11.355,0,0,0-1.548-.07h-1.268v1.022h1.055a11.528,11.528,0,0,0,1.409-.053,15.677,15.677,0,0,0-.053,1.638v3.01c0,1.022.018,1.425.053,1.812-.335-.018-.652-.033-1.478-.033h-.987v1h1.3a8.4,8.4,0,0,0,1.392-.088v1.744a9.2,9.2,0,0,0-1.533-.088h-1.161Zm-2.66-8.595v1.022h1.057V597.45Zm0,2.343v1.092h1.057v-1.092Zm3.647-1.321V597.45H127.2v1.022Zm0,2.414v-1.092H127.2v1.092Zm3.539-1.691a10.523,10.523,0,0,0-1.621.088v-1.865a10.675,10.675,0,0,0,1.671.088h4.508a10.716,10.716,0,0,0,1.656-.088v1.865a11.023,11.023,0,0,0-1.656-.088h-2.218a45.611,45.611,0,0,1-1.795,5.741,28.337,28.337,0,0,0,3.257-.511,32.266,32.266,0,0,0-1.339-3.257l1.568-.634a40.68,40.68,0,0,1,2.358,6.091l-1.656.828c-.053-.159-.192-.685-.438-1.55-.6.159-1.145.282-1.832.423-.282.053-1.5.267-3.627.617a7.324,7.324,0,0,0-.987.176l-.388-1.918c.476-.018.7-.037,1.2-.073a37.15,37.15,0,0,0,1.777-5.933Zm-1.039-6.164a9.581,9.581,0,0,0,1.638.088h3.4a9.473,9.473,0,0,0,1.621-.088v1.817h-.141a1.669,1.669,0,0,1-.264-.02c-.229-.018-.72-.035-1.216-.035h-3.4a10.2,10.2,0,0,0-1.638.088Z" transform="translate(-18.897 -591.782)" fill="#3c987a"/>
        <path id="パス_297" data-name="パス 297" d="M138.106,601.993c-1.744,1.022-2.237,1.533-2.237,2.306a.736.736,0,0,0,.388.689,5.544,5.544,0,0,0,2.361.352,26.111,26.111,0,0,0,3.169-.214,10.889,10.889,0,0,0,1.286-.282h.086a.3.3,0,0,1,.266.211,5.9,5.9,0,0,1,.176,1.533c0,.266-.088.37-.317.423a32.6,32.6,0,0,1-3.664.194,10.989,10.989,0,0,1-4.136-.493,2.329,2.329,0,0,1-1.533-2.326,3.349,3.349,0,0,1,1.427-2.673,14.5,14.5,0,0,1,2.552-1.641c-.141-.579-.405-.826-.951-.826a4.25,4.25,0,0,0-2.306.826,12.06,12.06,0,0,0-1.48,1.216c-.529.546-.581.583-.722.583-.176,0-.546-.407-.916-1.022a1.756,1.756,0,0,1-.282-.652c0-.159.037-.194.458-.458a10.824,10.824,0,0,0,3.365-3.468c-1.251.088-1.9.106-2.59.106-.264,0-.317-.053-.405-.352a15.194,15.194,0,0,1-.159-1.639,10.446,10.446,0,0,0,1.8.106c.687,0,1.445-.018,2.235-.053a6.84,6.84,0,0,0,.511-2.464c1.568.264,2.29.528,2.29.828a.394.394,0,0,1-.073.209c-.121.231-.262.513-.491,1.059a.582.582,0,0,0-.053.121c1-.141,1.883-.317,2.5-.458a2.423,2.423,0,0,1,.564-.121.221.221,0,0,1,.247.156,10.534,10.534,0,0,1,.176,1.374c0,.194-.07.282-.3.335a35.735,35.735,0,0,1-4.12.616,10.03,10.03,0,0,1-1.445,2.132,4.636,4.636,0,0,1,2.1-.513c.793,0,1.321.458,1.671,1.445,1.744-.949,2.678-1.462,2.783-1.533a5.352,5.352,0,0,0,1.531-1.178,6.43,6.43,0,0,1,1.5,2.149c0,.1-.07.176-.3.227a36.453,36.453,0,0,0-5.142,2.22c.02.315.055,1.128.055,1.689v.846c0,.211-.035.317-.125.37a2.6,2.6,0,0,1-1.09.141c-.6,0-.7-.053-.7-.335v-.07c.035-.511.053-1.18.053-1.6Z" transform="translate(-8.377 -591.677)" fill="#3c987a"/>
        <path id="パス_298" data-name="パス 298" d="M153.591,592.72a16.507,16.507,0,0,1-1.445,2.079c.264.317.3.352.44.528a14.213,14.213,0,0,0,1.075-1.619l1.233.9c-.352.44-.352.44-1.2,1.513a12.442,12.442,0,0,1-1.357,1.535c.617-.037.793-.055,1.233-.106a5.569,5.569,0,0,0-.317-.669l1.075-.37a13.281,13.281,0,0,1,.984,2.658l-1.178.37c-.088-.37-.106-.493-.194-.793-.317.053-.74.088-1.233.141a3.952,3.952,0,0,1,.881.687l-.634.617h.37a10.451,10.451,0,0,0,1.779-.088v1.742c-.493-.051-1.128-.088-1.779-.088h-.581l1.3.828a13.919,13.919,0,0,1-1.85,2.044c.511.667.951,1.037,1.2,1.037.3,0,.458-.491.617-2.059a3.824,3.824,0,0,0,1.3.934c-.35,2.253-.773,2.94-1.795,2.94-.846,0-1.621-.544-2.587-1.848a13.345,13.345,0,0,1-3.715,1.918,4.709,4.709,0,0,0-.969-1.515,11.263,11.263,0,0,0,3.909-1.689,9.106,9.106,0,0,1-.863-2.59h-2.253c-.02.3-.035.37-.053.529a5.762,5.762,0,0,0,1.865,1.427,6.654,6.654,0,0,0-.458.74c-.229.44-.229.44-.333.65a5.655,5.655,0,0,1-1.409-1.178,7.776,7.776,0,0,1-2.114,3.521,6.152,6.152,0,0,0-1.354-1.233,5.673,5.673,0,0,0,2.218-4.455c-.617.02-.951.038-1.284.07v-1.707a9.1,9.1,0,0,0,1.39.07h3.486c-.07-.511-.07-.511-.123-.951l-.949.335c-.02-.282-.037-.388-.055-.564-.456.071-.758.125-1.2.176-1.392.194-2.185.3-2.414.335l-.07-.511a5.527,5.527,0,0,0-.491,1.18,9.318,9.318,0,0,1-.793-1.568c.035.528.035.528.068,2.077v4.86a14.15,14.15,0,0,0,.09,2.079h-1.85a15.563,15.563,0,0,0,.106-2.079v-2.975c0-.758.035-1.409.141-2.781a16.163,16.163,0,0,1-1.48,3.768,5.121,5.121,0,0,0-.81-1.85,12.7,12.7,0,0,0,1.268-2.675,21.073,21.073,0,0,0,.687-2.29h-.405a9.807,9.807,0,0,0-1.143.073v-1.8a5.81,5.81,0,0,0,1.143.07h.581v-1.407a11.4,11.4,0,0,0-.088-1.762h1.832a13.559,13.559,0,0,0-.073,1.742V595.1h.3c.368,0,.667-.018.861-.035a3.446,3.446,0,0,0-.37-.333l.987-1.165.37.352a8,8,0,0,0,1.075-2.006l1.39.687a14.56,14.56,0,0,1-1.478,2.358c.176.211.229.282.423.528a8.389,8.389,0,0,0,.881-1.583l1.2.811v-.8a10.184,10.184,0,0,0-.123-1.938h1.867a5.14,5.14,0,0,0-.088,1.147v1.055l.529-.722c.194.176.229.211.37.352a7.832,7.832,0,0,0,1.037-1.848Zm-9.315,4.1a6.463,6.463,0,0,0-.969-.073h-.229a5.439,5.439,0,0,0,1.022,1.656l-.053-.37a1.619,1.619,0,0,0,.264.018h.3c.529-.615.758-.9,1.057-1.3a10.1,10.1,0,0,0-1.392-1.563Zm4.05-.073c.229.531.3.725.44,1.11-.106-1.568-.141-2.306-.159-2.94-.211.317-.282.405-.352.528a18.414,18.414,0,0,1-1.936,2.484c.65-.055.65-.055,1.233-.125a6.682,6.682,0,0,0-.3-.72Zm1.938-1.795c.018,1.586.018,1.586.088,2.746a1.169,1.169,0,0,0,.247-.018,14.412,14.412,0,0,0,1.075-1.2A10.638,10.638,0,0,0,150.263,594.958Zm1.691,4.014c-.143.018-.249.035-.317.035-.3.035-.3.035-.724.071-.015,0-.192.018-.421.055.035.315.035.421.123,1.055h1.9a3.27,3.27,0,0,0-1.072-.74Zm-1.057,2.781a8.136,8.136,0,0,0,.562,1.586,4.359,4.359,0,0,0,1.268-1.586Z" transform="translate(1.115 -591.753)" fill="#3c987a"/>
        <path id="パス_299" data-name="パス 299" d="M152,601.666a.437.437,0,0,1,.068.247c0,.123-.015.143-.176.529a19.354,19.354,0,0,0-.984,3.028c-.053.194-.106.3-.176.337a5.571,5.571,0,0,1-.881.121h-.07c-.088,0-.211-.015-.352-.015-.229,0-.282-.055-.352-.266a23.228,23.228,0,0,1-.6-5.281,26.848,26.848,0,0,1,.614-5.776c.176-.951.264-1.48.335-2.061a8.34,8.34,0,0,1,1.9.564c.3.123.388.211.388.387,0,.125-.018.176-.211.458-.581.934-1.233,4.666-1.233,7.186,0,.4.018.949.07,1.83.493-1.11.669-1.442,1.075-2.306A5.394,5.394,0,0,0,152,601.666Zm3.821,1.251a4.939,4.939,0,0,0,2.411.405,8.935,8.935,0,0,0,2.887-.405.883.883,0,0,1,.247-.053c.123,0,.211.07.229.247a14.2,14.2,0,0,1,.159,1.654c0,.176-.053.231-.3.3a12.043,12.043,0,0,1-3.1.37,6.432,6.432,0,0,1-3.451-.689c-.775-.476-1.585-1.442-1.585-1.918,0-.247.37-.579,1.321-1.163A2.483,2.483,0,0,0,155.816,602.917Zm-1.233-8.98a15.52,15.52,0,0,0,2.376.159,19.71,19.71,0,0,0,3.416-.282.617.617,0,0,1,.159-.015c.123,0,.176.051.211.194a12.37,12.37,0,0,1,.088,1.425c0,.264-.053.352-.244.388a18.982,18.982,0,0,1-3.189.227,14.628,14.628,0,0,1-3.046-.194c-.088-.051-.123-.174-.123-.491a9.858,9.858,0,0,1,.088-1.321c.018-.07.07-.106.176-.106A.192.192,0,0,1,154.583,593.936Z" transform="translate(12.301 -591.014)" fill="#3c987a"/>
        <path id="パス_300" data-name="パス 300" d="M88.66,612.711c-.282.282-.282.282-1.48,1.636a15.79,15.79,0,0,1-2.114,1.85,18.516,18.516,0,0,0,6.076,1.5,7.792,7.792,0,0,0-.861,1.867,18.053,18.053,0,0,1-4.578-1.11,14.589,14.589,0,0,1-2.343-1.143,21.531,21.531,0,0,1-6.672,2.288,9.138,9.138,0,0,0-.934-1.8,19.577,19.577,0,0,0,6.04-1.636,12.044,12.044,0,0,1-2.713-3.081c-.511.033-.546.033-.846.071v-1.744a15.557,15.557,0,0,0,1.726.088h6.146a9.929,9.929,0,0,0,1.46-.07Zm-11.621-5.935a9.481,9.481,0,0,0-.617-1.707c.581.018,1.037.018,1.339.018a69.71,69.71,0,0,0,7.659-.458,16.355,16.355,0,0,0,3.415-.758L90,605.508c-.264.055-.282.055-.722.161-.652.139-1.233.264-2.061.385l1.656.511c-.793,1.533-.793,1.533-1.039,1.953h1.11a15.076,15.076,0,0,0,1.83-.068c-.035.456-.053.808-.053,1.427v1.231a8.532,8.532,0,0,0,.088,1.251H88.924v-2.112H77.812v2.182H75.947a9.626,9.626,0,0,0,.088-1.286v-1.266c0-.476-.018-.795-.07-1.427a16.753,16.753,0,0,0,1.865.068H78.9a13.053,13.053,0,0,0-.738-1.757Zm5.651,1.742A12.882,12.882,0,0,0,82,606.585c-.106,0-.755.051-1.971.1.247.546.511,1.2.722,1.83Zm-1.6,4.545a8.087,8.087,0,0,0,2.288,2.217,9.948,9.948,0,0,0,2.535-2.217Zm4.79-4.545A15.518,15.518,0,0,0,87,606.09c-.317.037-1.392.158-3.2.335a14.661,14.661,0,0,1,.669,2.094Z" transform="translate(-75.119 -577.376)" fill="#3c987a"/>
        <path id="パス_301" data-name="パス 301" d="M88.641,617.521c0,.773.035,1.39.088,2.041H86.686a16.369,16.369,0,0,0,.106-2.026v-5c0-.81.018-1.251.053-1.885a10.16,10.16,0,0,1-1.46,1.936,8.282,8.282,0,0,0-.951-1.936,14.734,14.734,0,0,0,3.134-4.684,9.136,9.136,0,0,0,.687-2.114l1.955.531a8.832,8.832,0,0,0-.425.984,27.931,27.931,0,0,1-1.143,2.572ZM96,606.2A17.793,17.793,0,0,0,95.9,604.1h2.041a18.33,18.33,0,0,0-.1,2.094v1.48h.491a9.852,9.852,0,0,0,1.638-.106v1.867c-.423-.037-.987-.073-1.583-.073h-.546v7.888c0,.881-.176,1.409-.581,1.674-.37.249-.828.317-2.079.317-.6,0-1.075-.018-1.795-.068a6.1,6.1,0,0,0-.529-1.923,13,13,0,0,0,2.077.194c.934,0,1.075-.051,1.075-.458v-7.624H91.4a17.159,17.159,0,0,0-1.989.106v-1.9a14.179,14.179,0,0,0,1.918.106H96Zm-4.349,4.314a20.372,20.372,0,0,1,2.607,3.944l-1.586,1.11a15.7,15.7,0,0,0-2.5-4.1Z" transform="translate(-64.684 -577.397)" fill="#3c987a"/>
        <path id="パス_302" data-name="パス 302" d="M100.128,613.993c-1.742,1.022-2.235,1.533-2.235,2.306a.732.732,0,0,0,.388.689,5.533,5.533,0,0,0,2.358.352,26.105,26.105,0,0,0,3.169-.214,10.871,10.871,0,0,0,1.286-.282h.088a.3.3,0,0,1,.264.211,5.807,5.807,0,0,1,.176,1.533c0,.264-.088.37-.317.423a32.618,32.618,0,0,1-3.662.194,11,11,0,0,1-4.138-.493,2.329,2.329,0,0,1-1.533-2.325,3.353,3.353,0,0,1,1.427-2.676,14.737,14.737,0,0,1,2.552-1.638c-.141-.579-.405-.826-.949-.826a4.261,4.261,0,0,0-2.308.826,11.861,11.861,0,0,0-1.48,1.215c-.526.546-.579.583-.72.583-.176,0-.546-.407-.916-1.022a1.756,1.756,0,0,1-.282-.652c0-.159.035-.194.458-.458a10.815,10.815,0,0,0,3.363-3.468c-1.251.088-1.9.106-2.59.106-.262,0-.315-.053-.4-.354a15.084,15.084,0,0,1-.159-1.636,10.448,10.448,0,0,0,1.8.106c.685,0,1.442-.018,2.235-.053a6.84,6.84,0,0,0,.511-2.464c1.566.264,2.288.529,2.288.828a.414.414,0,0,1-.07.209c-.123.231-.264.513-.493,1.059a.578.578,0,0,0-.053.121c1-.141,1.885-.317,2.5-.458a2.4,2.4,0,0,1,.562-.121c.141,0,.214.051.247.156a10.536,10.536,0,0,1,.176,1.374c0,.194-.068.282-.3.333a35.668,35.668,0,0,1-4.12.619,9.951,9.951,0,0,1-1.445,2.13,4.63,4.63,0,0,1,2.094-.511c.793,0,1.321.458,1.674,1.445,1.744-.949,2.678-1.462,2.781-1.533a5.367,5.367,0,0,0,1.533-1.178,6.431,6.431,0,0,1,1.5,2.147c0,.106-.068.178-.3.229a35.987,35.987,0,0,0-5.142,2.22c.018.315.053,1.125.053,1.689v.846c0,.211-.035.317-.123.37a2.609,2.609,0,0,1-1.092.141c-.6,0-.7-.053-.7-.335v-.07c.035-.511.053-1.18.053-1.6Z" transform="translate(-54.029 -577.251)" fill="#3c987a"/>
        <path id="パス_303" data-name="パス 303" d="M104.29,609.728c0,.4.015,1.213.035,1.707,0,.176.015.352.015.421,0,.354-.244.425-1.619.425-.529,0-.634-.071-.634-.37v-.352c.07-1.372.106-2.132.106-3.38a22.522,22.522,0,0,0-.194-3.752,13.818,13.818,0,0,1,2.132.161c.247.051.388.176.388.385a.754.754,0,0,1-.053.249,3.848,3.848,0,0,0-.176,1.531Zm6.849-2.29a21.126,21.126,0,0,1-.493,5.389,8.4,8.4,0,0,1-4.12,5.175,2.906,2.906,0,0,1-.9.388.425.425,0,0,1-.335-.194,4.924,4.924,0,0,0-1.337-1.2,8.1,8.1,0,0,0,2.852-1.777,6.614,6.614,0,0,0,1.8-3.2,25.953,25.953,0,0,0,.385-4.933,14.428,14.428,0,0,0-.176-2.779,12.4,12.4,0,0,1,2.237.194c.229.053.335.139.335.315a.924.924,0,0,1-.073.319,4.294,4.294,0,0,0-.174,1.566Z" transform="translate(-43.567 -576.857)" fill="#3c987a"/>
        <path id="パス_304" data-name="パス 304" d="M114.454,612.964c3.2,0,5.88-.053,7.148-.156a3.517,3.517,0,0,1,.388-.02.626.626,0,0,1,.211.035c.123.073.159.37.159,1.339,0,.9-.035.987-.335.987-.035,0-.035,0-.3-.02-.934-.088-2.006-.106-4.279-.106a77.857,77.857,0,0,0-8.24.214,1.364,1.364,0,0,1-.317.035c-.405,0-.476-.317-.617-2.431C109.7,612.929,111.426,612.964,114.454,612.964Zm.546-7.571a40.835,40.835,0,0,0,4.719-.176.853.853,0,0,1,.194-.018c.192,0,.264.053.3.3.02.141.035.758.035,1.251,0,.6-.051.738-.28.738a2.493,2.493,0,0,1-.3-.015c-.352-.018-2.924-.035-4.966-.035-1.357,0-2.273.018-3.239.086-.229.02-.511.038-.546.038a.389.389,0,0,1-.405-.264,10.612,10.612,0,0,1-.176-2.112A31.685,31.685,0,0,0,115,605.393Z" transform="translate(-36.026 -575.799)" fill="#3c987a"/>
        <path id="パス_305" data-name="パス 305" d="M120.881,608.462a10.114,10.114,0,0,0-1.442.088.347.347,0,0,1-.126.018c-.156,0-.262-.088-.3-.282a8.169,8.169,0,0,1-.141-1.724,21.7,21.7,0,0,0,3.609.174c1.6,0,1.759-.018,2.077-.156a.93.93,0,0,1,.194-.037,1.59,1.59,0,0,1,1,.528,1.743,1.743,0,0,1,.617.863.529.529,0,0,1-.143.3c-.209.282-.209.282-.491,1.953-.211,1.392-.317,1.956-.44,2.537a.219.219,0,0,0-.018.1c1.568,0,1.867-.015,2.623-.068h.106c.247,0,.3.174.3,1.09,0,.722-.035.828-.264.828-.088,0-.123,0-.846-.033-.579-.038-2.464-.055-4.136-.055-2.731,0-4.772.055-5.512.143H117.4c-.247,0-.352-.055-.423-.2a9.49,9.49,0,0,1-.211-1.812c1.233.1,1.726.121,6.549.121a1.715,1.715,0,0,0,.053-.3c.229-1.108.44-2.588.6-4.085Z" transform="translate(-25.822 -574.166)" fill="#3c987a"/>
        <path id="パス_306" data-name="パス 306" d="M130.125,607.086c3.222,0,5.069-.033,6.849-.159h.229c.529,0,.529.018.529,1.425,0,.724-.053.846-.352.846h-.07c-1.16-.05-1.812-.05-6.9-.05-1.865,0-2.8.018-4.42.07h-.511a4.778,4.778,0,0,0-.987.068c-.088,0-.159.02-.194.02a.316.316,0,0,1-.35-.247,11.1,11.1,0,0,1-.176-2.149A60.976,60.976,0,0,0,130.125,607.086Z" transform="translate(-17.397 -573.724)" fill="#3c987a"/>
        <path id="パス_307" data-name="パス 307" d="M136.831,604.856c1.46,0,2.57-.02,4.737-.07a6.071,6.071,0,0,0,1.284-.123.82.82,0,0,1,.3-.055c.335,0,.652.267,1.163.951a2.33,2.33,0,0,1,.617,1.2.489.489,0,0,1-.282.44c-.282.174-.335.229-.687.7a18.376,18.376,0,0,1-2.535,2.746c-.458.423-.617.529-.793.529a.348.348,0,0,1-.3-.143,4.456,4.456,0,0,0-1.445-1.125,10.379,10.379,0,0,0,3.345-3.239c-9.066.071-9.066.071-10.106.247a.839.839,0,0,1-.229.035c-.264,0-.423-.159-.511-.511a8.808,8.808,0,0,1-.229-1.8A38.78,38.78,0,0,0,136.831,604.856Zm1.425,3.36c.352.088.493.194.493.37,0,.07,0,.07-.1.3a6.147,6.147,0,0,0-.266,1.213,11.582,11.582,0,0,1-1.812,5.265,8.632,8.632,0,0,1-2.922,2.517.8.8,0,0,1-.335.106.444.444,0,0,1-.388-.211,4.9,4.9,0,0,0-1.374-1.09,8.822,8.822,0,0,0,2.184-1.357q2.534-2.193,2.535-6.443a8.178,8.178,0,0,0-.035-.971A9.976,9.976,0,0,1,138.256,608.216Z" transform="translate(-8.512 -576.492)" fill="#3c987a"/>
        <path id="パス_308" data-name="パス 308" d="M143.522,605.213a.3.3,0,0,1,.211.3.812.812,0,0,1-.035.249,4.62,4.62,0,0,0-.123,1.372c-.035,4.3-.81,7.042-2.658,9.383-.405.493-.564.652-.74.652a.72.72,0,0,1-.3-.106,4.934,4.934,0,0,0-1.709-.634,8.97,8.97,0,0,0,2.22-3.081,13.413,13.413,0,0,0,1.037-5.844,13.785,13.785,0,0,0-.174-2.57A8.254,8.254,0,0,1,143.522,605.213Zm1.885,1.707a15.362,15.362,0,0,0-.159-2.288c1.9.068,2.588.211,2.588.564a.9.9,0,0,1-.088.35,2.238,2.238,0,0,0-.123.652c-.053.476-.053.476-.088,8.223a16.335,16.335,0,0,0,5.177-4.349,8.775,8.775,0,0,0,.264,2.114.744.744,0,0,1,.053.3c0,.282-.176.513-.987,1.268a15.645,15.645,0,0,1-3.821,2.676,3.358,3.358,0,0,0-.828.546.686.686,0,0,1-.405.176,3.441,3.441,0,0,1-1.3-.861c-.35-.352-.509-.617-.509-.846a.886.886,0,0,1,.07-.3,4.472,4.472,0,0,0,.159-1.618Z" transform="translate(-0.087 -576.462)" fill="#3c987a"/>
        <path id="パス_309" data-name="パス 309" d="M78.76,616.42c.44.126.564.214.564.407a1.093,1.093,0,0,1-.108.421,10.062,10.062,0,0,0-.4,2.64c-.141,2.836-.211,5.036-.211,6.78a4.484,4.484,0,0,0,.141,1.269c.192.579.81.879,1.795.879a6.446,6.446,0,0,0,4.455-1.936,10.429,10.429,0,0,0,1.674-2.043,6.033,6.033,0,0,0,.632,1.724,1.024,1.024,0,0,1,.088.407c0,.317-.335.74-1.213,1.53a8.463,8.463,0,0,1-5.706,2.376,4.034,4.034,0,0,1-2.957-.967c-.669-.7-.934-1.619-.934-3.363,0-1.372.018-2.431.159-6.531.018-.617.035-.987.035-1.145a16.679,16.679,0,0,0-.123-2.693A10.112,10.112,0,0,1,78.76,616.42Z" transform="translate(-74.129 -562.585)" fill="#3c987a"/>
        <path id="パス_310" data-name="パス 310" d="M83.706,621.394H83.6a.851.851,0,0,1-.194.02c-.159,0-.247-.072-.3-.3a9.268,9.268,0,0,1-.211-1.654c.247.018.44.018.564.018a24.2,24.2,0,0,0,2.995-.194,19.458,19.458,0,0,0,.262-2.784v-.4c2.044.264,2.431.385,2.414.7a.778.778,0,0,1-.106.3,5.424,5.424,0,0,0-.511,1.847,15.787,15.787,0,0,0,1.918-.476.24.24,0,0,1,.141-.035c.161,0,.194.071.335.687a8.024,8.024,0,0,1,.141.987c0,.123-.053.194-.211.227a20.025,20.025,0,0,1-2.728.531,50.223,50.223,0,0,1-3.01,9.383c-.088.229-.176.317-.282.317a4.436,4.436,0,0,1-1.445-.581c-.3-.159-.385-.247-.385-.335a1.1,1.1,0,0,1,.139-.37A33.215,33.215,0,0,0,86.1,621.15C85.327,621.253,84.781,621.308,83.706,621.394Zm7.518,6.692a4.192,4.192,0,0,0,2.29.493,10.178,10.178,0,0,0,2.693-.282,1.062,1.062,0,0,1,.247-.055.255.255,0,0,1,.282.214,6.258,6.258,0,0,1,.211,1.636c0,.231-.07.317-.3.37a14.291,14.291,0,0,1-2.605.194c-2.2,0-3.435-.352-4.243-1.2a3.08,3.08,0,0,1-.687-1.161,2.284,2.284,0,0,1-.176-.652c0-.3.529-.619,1.442-.916A2,2,0,0,0,91.224,628.087Zm4.948-5.124a14.548,14.548,0,0,0-1.709-.088,16.165,16.165,0,0,0-3.4.317.3.3,0,0,1-.123.018.178.178,0,0,1-.194-.141,8.117,8.117,0,0,1-.123-1.357c0-.229.035-.335.176-.385a2.551,2.551,0,0,1,.546-.126,18.592,18.592,0,0,1,3.433-.3,5.249,5.249,0,0,1,1.674.123c.088.071.106.214.106.793a5.794,5.794,0,0,1-.07,1.075.176.176,0,0,1-.176.088A.437.437,0,0,1,96.173,622.962Z" transform="translate(-66.532 -562.681)" fill="#3c987a"/>
        <path id="パス_311" data-name="パス 311" d="M91.134,618.488c0-.511-.018-1.2-.053-1.585a7.943,7.943,0,0,1,1.885.387c.423.159.564.264.564.458a.533.533,0,0,1-.07.282,7.889,7.889,0,0,0-.3,2.872,15.569,15.569,0,0,0,.493,4.735c.264.828.669,1.3,1.145,1.3.72,0,1.319-.845,1.971-2.8a5.236,5.236,0,0,0,.951,1.8.642.642,0,0,1,.141.37,3.323,3.323,0,0,1-.617,1.392,3.1,3.1,0,0,1-2.5,1.548c-1.354,0-2.376-1.09-3.01-3.257a20.656,20.656,0,0,1-.6-5.651Zm10.478.282a.507.507,0,0,1,.335.176,11.692,11.692,0,0,1,2.376,3.625,10.894,10.894,0,0,1,.758,2.555c0,.176-.088.264-.458.458a5.594,5.594,0,0,1-1.445.493c-.159,0-.229-.088-.282-.405a12.267,12.267,0,0,0-1.09-3.486,9.4,9.4,0,0,0-1.726-2.554A4.332,4.332,0,0,1,101.612,618.77Z" transform="translate(-56.693 -561.711)" fill="#3c987a"/>
        <path id="パス_312" data-name="パス 312" d="M105.789,617.335a8.257,8.257,0,0,0-.1-1.392h2.165a7.1,7.1,0,0,0-.106,1.392v1.039h4.666a13.538,13.538,0,0,0,2.129-.123v2.061a14.33,14.33,0,0,0-2.077-.106h-6.181a1.779,1.779,0,0,0-.018.333c-.035.617-.068.953-.123,1.48h4.684a13.875,13.875,0,0,0,1.762-.071.608.608,0,0,0-.018.159,11.55,11.55,0,0,0-.07,1.18,33.168,33.168,0,0,1-.581,5.935c-.388,1.6-.951,2.024-2.643,2.024-.6,0-.984-.018-2.288-.106a6.01,6.01,0,0,0-.476-1.973,15.379,15.379,0,0,0,2.535.231c.74,0,.9-.194,1.127-1.359a23.686,23.686,0,0,0,.37-4.241h-4.666c-.722,3.413-2.218,5.545-5.439,7.659a4.874,4.874,0,0,0-1.357-1.621,10.643,10.643,0,0,0,3.028-2.482c1.462-1.762,2.026-3.7,2.114-7.148h-2.764a17.577,17.577,0,0,0-2.132.106v-2.061a14.355,14.355,0,0,0,2.112.123h4.349Z" transform="translate(-47.076 -562.865)" fill="#3c987a"/>
      </g>
      <path id="パス_313" data-name="パス 313" d="M56.4,620.953v-36.9H290.74v101.57H94.843" transform="translate(-32.786 -584.054)" fill="none" stroke="#3c987a" stroke-linecap="round" stroke-miterlimit="10" stroke-width="3"/>
      <g id="グループ_30" data-name="グループ 30" transform="translate(0 47.11)">
        <path id="パス_314" data-name="パス 314" d="M92.5,631.886A23.85,23.85,0,0,0,81.18,621.355a20,20,0,0,1-22.937,0,23.834,23.834,0,0,0-11.317,10.531c-2.83,5.03-.612,12.149,4.283,12.149H88.216C93.109,644.035,95.329,636.915,92.5,631.886Z" transform="translate(-45.678 -586.324)" fill="#3c987a"/>
        <path id="パス_315" data-name="パス 315" d="M64.854,639.333A15.128,15.128,0,0,0,79.983,624.2v-3.625a15.131,15.131,0,0,0-30.262,0V624.2A15.131,15.131,0,0,0,64.854,639.333Z" transform="translate(-40.818 -605.447)" fill="#3c987a"/>
      </g>
      <g id="グループ_31" data-name="グループ 31" transform="translate(849.859 47.11)">
        <path id="パス_316" data-name="パス 316" d="M478.426,631.886a23.844,23.844,0,0,0-11.317-10.531,20,20,0,0,1-22.939,0,23.854,23.854,0,0,0-11.317,10.531c-2.83,5.03-.61,12.149,4.285,12.149h37C479.038,644.035,481.258,636.915,478.426,631.886Z" transform="translate(-431.605 -586.324)" fill="#14726d"/>
        <path id="パス_317" data-name="パス 317" d="M450.78,639.333A15.13,15.13,0,0,0,465.91,624.2v-3.625a15.131,15.131,0,0,0-30.262,0V624.2A15.13,15.13,0,0,0,450.78,639.333Z" transform="translate(-426.745 -605.447)" fill="#14726d"/>
      </g>
      <g id="グループ_32" data-name="グループ 32" transform="translate(541.842 47.11)">
        <path id="パス_318" data-name="パス 318" d="M338.555,631.886a23.85,23.85,0,0,0-11.319-10.531,20,20,0,0,1-22.937,0,23.834,23.834,0,0,0-11.317,10.531c-2.832,5.03-.612,12.149,4.283,12.149h37.007C339.165,644.035,341.384,636.915,338.555,631.886Z" transform="translate(-291.733 -586.324)" fill="#3c987a"/>
        <path id="パス_319" data-name="パス 319" d="M310.907,639.333A15.13,15.13,0,0,0,326.038,624.2v-3.625a15.131,15.131,0,0,0-30.262,0V624.2A15.13,15.13,0,0,0,310.907,639.333Z" transform="translate(-286.872 -605.447)" fill="#3c987a"/>
      </g>
      <g id="グループ_33" data-name="グループ 33" transform="translate(297.24 47.11)">
        <path id="パス_320" data-name="パス 320" d="M227.478,631.886a23.85,23.85,0,0,0-11.319-10.531,20,20,0,0,1-22.937,0,23.834,23.834,0,0,0-11.317,10.531c-2.83,5.03-.612,12.149,4.283,12.149H223.2C228.088,644.035,230.308,636.915,227.478,631.886Z" transform="translate(-180.657 -586.324)" fill="#14726d"/>
        <path id="パス_321" data-name="パス 321" d="M199.833,639.333A15.128,15.128,0,0,0,214.962,624.2v-3.625a15.131,15.131,0,0,0-30.262,0V624.2A15.131,15.131,0,0,0,199.833,639.333Z" transform="translate(-175.797 -605.447)" fill="#14726d"/>
      </g>
    </g>
    <g id="グループ_36" data-name="グループ 36" transform="translate(365.685 584.054)">
      <g id="グループ_35" data-name="グループ 35" transform="translate(44.99 17.181)">
        <path id="パス_322" data-name="パス 322" d="M213.791,600.743a16.509,16.509,0,0,0-1.989.106v-1.92a11.73,11.73,0,0,0,1.971.106h1.462a13.93,13.93,0,0,0-1.3-2.8l1.586-.722a17.142,17.142,0,0,1,1.407,2.922l-1.337.6H218.3v-3.662h-3.821a14.488,14.488,0,0,0-1.883.088v-1.885a15.2,15.2,0,0,0,1.971.106H218.3v-.476a7.553,7.553,0,0,0-.088-1.3h2.044a7.1,7.1,0,0,0-.088,1.321v.456h4.012a13.367,13.367,0,0,0,2.008-.106v1.885a13.277,13.277,0,0,0-1.885-.088h-4.136v3.662h1.161a14.949,14.949,0,0,0,1.638-3.4l1.777.579a18.661,18.661,0,0,1-1.46,2.819h1.759a10.329,10.329,0,0,0,1.955-.106v1.92a16.094,16.094,0,0,0-2.044-.106h-3.715a13.266,13.266,0,0,0,6.076,4.47,8.383,8.383,0,0,0-1.145,1.779,16.194,16.194,0,0,1-3.821-2.552,12.45,12.45,0,0,1-2.235-2.607c.035.863.053,1.216.053,1.6v2.4a10.736,10.736,0,0,0,.123,1.724h-2.114a10.179,10.179,0,0,0,.123-1.724v-2.378c0-.546.018-.9.053-1.583a11.992,11.992,0,0,1-2.8,3.186,16.376,16.376,0,0,1-2.869,1.918,7.969,7.969,0,0,0-1.145-1.707,14.886,14.886,0,0,0,4.138-2.731,10.036,10.036,0,0,0,1.548-1.794Z" transform="translate(-211.291 -591.798)" fill="#14726d"/>
        <path id="パス_323" data-name="パス 323" d="M223.034,603.56c0-.335,0-.511-.018-.843-.687.192-1,.262-1.9.458a5.513,5.513,0,0,0-.808-1.641,21.868,21.868,0,0,0,6.3-1.848,11.249,11.249,0,0,1-1.619-1.357,14.692,14.692,0,0,1-2.942,1.815,5.029,5.029,0,0,0-1.039-1.321,13.959,13.959,0,0,0,4.3-2.834,4.7,4.7,0,0,0,.934-1.161H222.7v2.215h-1.83a7.089,7.089,0,0,0,.088-1.266v-1.357a8.376,8.376,0,0,0-.073-1.249c.564.053,1.145.071,1.92.071h4.367V593a4.724,4.724,0,0,0-.088-1.092h2.094a5.886,5.886,0,0,0-.106,1.092v.247H233.6c.863,0,1.392-.018,1.973-.071a7.946,7.946,0,0,0-.071,1.249v1.392a8.521,8.521,0,0,0,.071,1.268h-1.832v-2.253h-7.254l1.568.438c-.02.02-.194.211-.529.6h3.169a9.292,9.292,0,0,0,1.372-.07l1.18.934-.476.476a17.535,17.535,0,0,1-2.852,2.464,20.581,20.581,0,0,0,6.252,1.462,6.278,6.278,0,0,0-.775,1.883c-.846-.159-1.11-.209-1.832-.385-.018.421-.018.438-.018.932v2.361a13.016,13.016,0,0,0,.07,1.566h-1.883v-.634h-6.919v.617h-1.867c.053-.546.088-1.039.088-1.566Zm8.839-1.39a17.66,17.66,0,0,1-3.592-1.48,16.982,16.982,0,0,1-3.488,1.48Zm-7.06,3.131h6.937v-1.6h-6.937Zm1.354-7.958a14.679,14.679,0,0,0,2.059,1.48,13.165,13.165,0,0,0,2.114-1.548h-4.1Z" transform="translate(-200.751 -591.798)" fill="#14726d"/>
        <path id="パス_324" data-name="パス 324" d="M231.743,598.67a15.764,15.764,0,0,0-1.724.071v-1.6a15.006,15.006,0,0,0,1.724.068H233.8a11.989,11.989,0,0,0-.634-1.266h-1.812c-.813,0-1.48.035-2.008.088v-1.691a13.32,13.32,0,0,0,1.918.106h.546a7.486,7.486,0,0,0-1.145-1.568l1.691-.632a12.162,12.162,0,0,1,1.3,2.2h.951v-1.18a9,9,0,0,0-.09-1.321h1.832a11.28,11.28,0,0,0-.053,1.253v1.249h1.251V593.2a8.32,8.32,0,0,0-.07-1.253h1.848a8.727,8.727,0,0,0-.086,1.321v1.18H240.3a8.747,8.747,0,0,0,1.216-2.235l1.724.634a16.5,16.5,0,0,1-1.039,1.6h.478a13.014,13.014,0,0,0,1.918-.106v1.691c-.529-.053-1.2-.088-2.006-.088h-1.709a12.136,12.136,0,0,1-.617,1.266h1.956a15.606,15.606,0,0,0,1.742-.068v1.6a15.754,15.754,0,0,0-1.742-.071H237.8v.811h3.556a15.243,15.243,0,0,0,1.724-.071v1.48a15.024,15.024,0,0,0-1.724-.07H237.8v.845h4.737a13.992,13.992,0,0,0,2.024-.106v1.689a17.067,17.067,0,0,0-2.008-.106h-3.4a9.134,9.134,0,0,0,2.29,1.357,15.082,15.082,0,0,0,3.521.967,6.2,6.2,0,0,0-.969,1.726,12.753,12.753,0,0,1-6.25-3.363c.033.6.033.81.033,1.2v.846a11.26,11.26,0,0,0,.108,1.707H235.9a12.058,12.058,0,0,0,.106-1.724v-.81c0-.388,0-.531.035-1.163a8.547,8.547,0,0,1-2.429,1.865,16.136,16.136,0,0,1-3.451,1.427,6.818,6.818,0,0,0-1.022-1.638,12.056,12.056,0,0,0,5.527-2.394h-3.134a17.58,17.58,0,0,0-2.059.106V601.56a14.947,14.947,0,0,0,2.041.106h4.473v-.845h-3.345a15.091,15.091,0,0,0-1.726.07v-1.48a15.087,15.087,0,0,0,1.726.071h3.345v-.811Zm6.637-1.462a7.694,7.694,0,0,0,.564-1.266h-3.856a12.106,12.106,0,0,1,.511,1.266Z" transform="translate(-190.134 -591.751)" fill="#14726d"/>
        <path id="パス_325" data-name="パス 325" d="M245.941,602.754a9.125,9.125,0,0,0-1.339.07v-1.619c-.194.44-.247.564-.458.984a4.311,4.311,0,0,0-1.233-.914,8.726,8.726,0,0,0,.951-2.167h-1.057l.037,6.851a1.793,1.793,0,0,1-.214.967c-.244.37-.72.529-1.689.529-.352,0-.951-.035-1.427-.071a4.609,4.609,0,0,0-.352-1.656,9.556,9.556,0,0,0,1.5.194c.458,0,.546-.071.546-.421l-.018-4.032a10.213,10.213,0,0,1-2.5,3.574,6.691,6.691,0,0,0-.828-1.85,9.271,9.271,0,0,0,2.854-4.085h-1.163a7.4,7.4,0,0,0-1.425.09v-1.779a12.169,12.169,0,0,0,1.531.068h1.691a20.752,20.752,0,0,0-2.255-1.918l1.057-1c1,.758,1.057.81,1.445,1.128a6.156,6.156,0,0,0,1.372-1.478h-2.957a12.061,12.061,0,0,0-1.442.068v-1.742a12.356,12.356,0,0,0,1.583.068h2.9a12.048,12.048,0,0,0,1.427-.051l.916.984c-.07.088-.194.231-.37.476a16.226,16.226,0,0,1-2.358,2.66c.156.156.209.227.368.405l-.368.4h1a10.825,10.825,0,0,0,1.233-.051l.74.9a2.137,2.137,0,0,0-.211.529,10.908,10.908,0,0,0,2.764-1.055,7.764,7.764,0,0,1-1.374-1.744,16.6,16.6,0,0,1-1.3,1.5,5.071,5.071,0,0,0-1.286-1.143,8.872,8.872,0,0,0,2.519-3.275,4.238,4.238,0,0,0,.421-1.286l1.762.352a6.3,6.3,0,0,0-.264.6c-.088.214-.106.284-.282.652h3.521a14.974,14.974,0,0,0,1.779-.088v1.709a11.4,11.4,0,0,0-1.216-.053,7.784,7.784,0,0,1-1.674,2.658,11.826,11.826,0,0,0,3.242.934,6.114,6.114,0,0,0-.775,1.762,12.553,12.553,0,0,1-3.8-1.568,8.6,8.6,0,0,1-1.586.846l1.744.035c-.018.123-.018.123-.035.229a2.547,2.547,0,0,1-.035.3,2.509,2.509,0,0,0-.035.266c-.035.229-.053.37-.106.667h2.429a11.406,11.406,0,0,0,1.321-.051c-.035.4-.035.4-.07.72a20.941,20.941,0,0,1-.581,4.246c-.335,1.037-.775,1.3-2.094,1.3a15.812,15.812,0,0,1-1.8-.123,5.3,5.3,0,0,0-.405-1.742,10.4,10.4,0,0,0,1.955.227c.544,0,.72-.209.9-1.055a10.05,10.05,0,0,0,.211-1.92h-2.2c-.722,2.308-2.079,3.7-4.737,4.878a6.386,6.386,0,0,0-1.057-1.515c2.167-.791,3.292-1.759,3.962-3.363Zm1.724-1.6a11.245,11.245,0,0,0,.088-1.284.388.388,0,0,0-.018-.141,15.668,15.668,0,0,1-1.936.7,5.637,5.637,0,0,0-.546-1c-.247.722-.317.951-.6,1.674a12.258,12.258,0,0,0,1.392.051Zm.335-6.126a5.949,5.949,0,0,0,1.462,1.812,4.667,4.667,0,0,0,1.2-1.812Z" transform="translate(-179.653 -591.856)" fill="#14726d"/>
        <path id="パス_326" data-name="パス 326" d="M253.148,602.184a3.906,3.906,0,0,1-3.2,2.273c-1.832,0-3.134-1.8-3.134-4.3a7.107,7.107,0,0,1,3.821-6.446,8.307,8.307,0,0,1,4.12-.916,6.1,6.1,0,0,1,6.408,6.093,6.7,6.7,0,0,1-4.435,6.549,4.2,4.2,0,0,1-1.268.388c-.211,0-.3-.07-.529-.405a3.7,3.7,0,0,0-1.11-1.11c3.627-.932,5.265-2.64,5.265-5.492a4.121,4.121,0,0,0-1.709-3.468,4.448,4.448,0,0,0-2.077-.757C254.8,598.311,254.222,600.337,253.148,602.184Zm-2.535-6.232a5.47,5.47,0,0,0-1.85,4.171c0,1.357.44,2.149,1.18,2.149.881,0,1.779-1.216,2.449-3.31a22.2,22.2,0,0,0,.9-4.279A5.086,5.086,0,0,0,250.613,595.952Z" transform="translate(-168.89 -590.722)" fill="#14726d"/>
        <path id="パス_327" data-name="パス 327" d="M211.8,610.275a7.3,7.3,0,0,0,1.354.09H214.4a9.763,9.763,0,0,0,1.286-.073,15.741,15.741,0,0,0-.07,1.83v3.788a2.557,2.557,0,0,0,1.724,1.321,16.68,16.68,0,0,0,3.929.244,60.483,60.483,0,0,0,6.355-.262,6.75,6.75,0,0,0-.511,1.795c-2.255.088-3.68.123-5.706.123-1,0-2.376-.035-3.1-.088a4.5,4.5,0,0,1-3.609-1.812,16.516,16.516,0,0,1-1.955,1.619c-.121.088-.282.211-.491.37l-.828-1.918a9.53,9.53,0,0,0,2.411-1.638v-3.645h-.9a5.947,5.947,0,0,0-1.143.088Zm1.445-6.267a17.933,17.933,0,0,1,2.535,2.975l-1.339,1.46a13.356,13.356,0,0,0-2.572-3.186Zm5.1,4.05a7.981,7.981,0,0,0-1.251.071v-.617h-1.145a6.045,6.045,0,0,0,.073-1.039v-1.057a9.876,9.876,0,0,0-.053-1.092c.491.037.9.055,1.619.055h7.87a14.228,14.228,0,0,0,1.621-.07,6.323,6.323,0,0,0-.07,1.075v1.02a6.911,6.911,0,0,0,.07,1.11h-1.2v.617a7.328,7.328,0,0,0-1.231-.071h-2.4v.722h2.57a12.263,12.263,0,0,0,1.374-.055c-.035.405-.053.707-.053,1.253v2.532a12.069,12.069,0,0,0,.053,1.235c-.493-.037-.863-.055-1.374-.055h-2.57v.775h3.415a8.715,8.715,0,0,0,1.339-.068v1.581a9.855,9.855,0,0,0-1.392-.068h-3.363a7.659,7.659,0,0,0,.106,1.233h-1.883a8.274,8.274,0,0,0,.1-1.233h-3.134a9.986,9.986,0,0,0-1.356.068V614.4c.407.033.865.068,1.339.068h3.151v-.775h-2.411c-.617,0-.9.018-1.354.055a7.976,7.976,0,0,0,.051-1.235v-2.532a7.136,7.136,0,0,0-.051-1.253,13.162,13.162,0,0,0,1.354.055h2.411v-.722Zm2.235-2.237h-2.852v.828a5.065,5.065,0,0,0,.529.018h2.323Zm-2.059,4.138v.74h2.059v-.74Zm0,1.85v.685h2.059v-.685Zm6.285-5.142h.458v-.846h-3.01v.846Zm-2.552,4.032h2.2v-.74h-2.2Zm0,1.795h2.2v-.685h-2.2Z" transform="translate(-211.426 -577.248)" fill="#14726d"/>
        <path id="パス_328" data-name="パス 328" d="M223.461,613.884a11.255,11.255,0,0,1-1.726,5.353A9.053,9.053,0,0,0,220.1,617.9c1.407-2.059,1.724-4.1,1.724-11.339a21.109,21.109,0,0,0-.088-2.376,19.2,19.2,0,0,0,1.938.07h9.471a18.281,18.281,0,0,0,1.955-.07,18.362,18.362,0,0,0-.07,1.9V617.2c0,1.407-.511,1.777-2.431,1.777-.511,0-1.39-.035-1.883-.07a6.7,6.7,0,0,0-.476-1.777,18.861,18.861,0,0,0,2.114.159c.7,0,.843-.07.843-.44v-2.96h-4.032v2.784a13.657,13.657,0,0,0,.088,2.006h-2.006a11.359,11.359,0,0,0,.106-1.991v-2.8Zm3.891-3.979H223.6c0,.458-.015.828-.015,1.057,0,.773-.018.949-.018,1.251h3.785Zm0-3.889h-3.7v1.758l-.015.476h3.715Zm5.844,2.233v-2.233h-4.032v2.233Zm0,3.964v-2.308h-4.032v2.308Z" transform="translate(-201.001 -577.036)" fill="#14726d"/>
        <path id="パス_329" data-name="パス 329" d="M241.842,613.842c-.247.227-.247.227-1.022.967a16.555,16.555,0,0,1-2.149,1.83,17.852,17.852,0,0,0,5.988,1,6.3,6.3,0,0,0-.916,1.9,24.514,24.514,0,0,1-4.208-.846,16.421,16.421,0,0,1-2.623-1,20.357,20.357,0,0,1-7.2,1.777,5.493,5.493,0,0,0-.916-1.777,16.708,16.708,0,0,0,6.322-1.059,10.7,10.7,0,0,1-1.762-1.46,12.537,12.537,0,0,1-2.59,1.266,6.038,6.038,0,0,0-1.02-1.5,11.016,11.016,0,0,0,3.574-1.814,6.506,6.506,0,0,0,1.759-1.865l1.691.687a2.2,2.2,0,0,1-.317.35c-.018.02-.088.126-.194.249l-.176.209h3.206a6.583,6.583,0,0,0,1.478-.1Zm-8.311-5.811a10.459,10.459,0,0,1-1.357,2.165,10.747,10.747,0,0,1-1.6,1.654,3.807,3.807,0,0,0-.355-.3c-.421-.37-.421-.37-.65-.546l-.282-.194a1.861,1.861,0,0,1-.194-.123,8.888,8.888,0,0,0,1.48-1.321,6.562,6.562,0,0,0,1.319-2.094Zm-2.378-1.057a13.743,13.743,0,0,0-1.865.088v-1.815a13.4,13.4,0,0,0,2.006.106h4.455v-.333a6.688,6.688,0,0,0-.07-1.092h2.1a6.306,6.306,0,0,0-.088,1.075v.35h4.49a14.824,14.824,0,0,0,2.024-.106v1.815c-.546-.053-1.18-.088-1.989-.088h-2.66v3.433c0,.969-.37,1.268-1.636,1.268a12.139,12.139,0,0,1-1.268-.035,3.39,3.39,0,0,0-.529-1.654,7.429,7.429,0,0,0,1.286.121c.317,0,.388-.053.388-.317v-2.817h-1.55a6.9,6.9,0,0,1-.687,3.222,5.566,5.566,0,0,1-2.218,2.149,5.539,5.539,0,0,0-1.515-1.128c1.321-.687,1.832-1.11,2.184-1.9a5.042,5.042,0,0,0,.458-2.341Zm3.506,7.254a9.813,9.813,0,0,0,2.2,1.6,11.63,11.63,0,0,0,2.129-1.6Zm6.567-6.8a29.753,29.753,0,0,1,3.046,3.239l-1.583,1.2a16.911,16.911,0,0,0-2.854-3.506Z" transform="translate(-190.548 -577.344)" fill="#14726d"/>
        <path id="パス_330" data-name="パス 330" d="M241.2,613.924a19.08,19.08,0,0,0-1.92.07c.053-.6.07-1.213.07-1.812V608.82a18.207,18.207,0,0,0-.07-1.85,16.12,16.12,0,0,0,1.92.07h3.38v-1.18h-4.666a20.026,20.026,0,0,0-2.077.106v-1.83a17.661,17.661,0,0,0,2.077.106h11.059a18.337,18.337,0,0,0,2.077-.106v1.83a19.585,19.585,0,0,0-2.077-.106h-4.528v1.18h3.33c1.037,0,1.442-.018,1.9-.053-.053.634-.07,1.145-.07,1.85V612.2c0,.7.018,1.161.07,1.795a17.439,17.439,0,0,0-1.885-.07h-3.715a6.909,6.909,0,0,1-1,2.237,14.658,14.658,0,0,0,6.391,1.214c.528,0,.969-.016,1.885-.071a7.85,7.85,0,0,0-.652,1.938c-3.838-.018-6.461-.564-8.786-1.832a10.259,10.259,0,0,1-5.441,2.1,6.574,6.574,0,0,0-.773-1.727c2.464-.264,3.415-.564,4.631-1.409a13.146,13.146,0,0,1-1.48-1.407l-.247-.247,1.5-.793Zm-.088-5.336v1.165h3.415l.035-1.165Zm0,2.625v1.163h3.31c.053-.546.053-.652.07-1.163Zm1.108,2.711a6.859,6.859,0,0,0,1.286,1.286,3.86,3.86,0,0,0,.652-1.286Zm4.158-2.711c-.035.722-.035.843-.073,1.163h3.523v-1.163Zm.033-1.46h3.418v-1.165h-3.4Z" transform="translate(-179.844 -577.094)" fill="#14726d"/>
        <path id="パス_331" data-name="パス 331" d="M253.321,613.993c-1.742,1.022-2.235,1.533-2.235,2.306a.734.734,0,0,0,.385.689,5.552,5.552,0,0,0,2.361.352,26.135,26.135,0,0,0,3.169-.214,10.871,10.871,0,0,0,1.286-.282h.088a.3.3,0,0,1,.264.211,5.807,5.807,0,0,1,.176,1.533c0,.264-.088.37-.317.423a32.618,32.618,0,0,1-3.662.194,11,11,0,0,1-4.138-.493,2.329,2.329,0,0,1-1.533-2.325,3.353,3.353,0,0,1,1.427-2.676,14.649,14.649,0,0,1,2.552-1.638c-.141-.579-.405-.826-.949-.826a4.255,4.255,0,0,0-2.308.826,11.864,11.864,0,0,0-1.48,1.215c-.526.546-.579.583-.72.583-.176,0-.546-.407-.916-1.022a1.755,1.755,0,0,1-.282-.652c0-.159.035-.194.458-.458a10.815,10.815,0,0,0,3.363-3.468c-1.251.088-1.9.106-2.588.106-.264,0-.317-.053-.405-.354a15.073,15.073,0,0,1-.159-1.636,10.42,10.42,0,0,0,1.795.106c.687,0,1.445-.018,2.237-.053a6.833,6.833,0,0,0,.509-2.464c1.568.264,2.29.529,2.29.828a.414.414,0,0,1-.07.209c-.123.231-.264.513-.493,1.059a.576.576,0,0,0-.053.121c1-.141,1.885-.317,2.5-.458a2.424,2.424,0,0,1,.564-.121c.141,0,.214.051.247.156a10.534,10.534,0,0,1,.176,1.374c0,.194-.07.282-.3.333a35.508,35.508,0,0,1-4.12.619,9.871,9.871,0,0,1-1.442,2.13,4.616,4.616,0,0,1,2.094-.511c.793,0,1.321.458,1.674,1.445,1.744-.949,2.676-1.462,2.781-1.533a5.366,5.366,0,0,0,1.533-1.178,6.431,6.431,0,0,1,1.5,2.147c0,.106-.07.178-.3.229a36,36,0,0,0-5.14,2.22c.018.315.051,1.125.051,1.689v.846c0,.211-.033.317-.121.37a2.609,2.609,0,0,1-1.092.141c-.6,0-.7-.053-.7-.335v-.07c.035-.511.053-1.18.053-1.6Z" transform="translate(-169.275 -577.286)" fill="#14726d"/>
        <path id="パス_332" data-name="パス 332" d="M220.258,621.391a10.94,10.94,0,0,0-1.372.051v-.775a11.649,11.649,0,0,1-1.6,1.092,5.483,5.483,0,0,0-.564-1.057c-.352-.018-.37-.018-.579-.018h-.423a9.558,9.558,0,0,0,1.724,2.872,7.58,7.58,0,0,0-.773,1.618,13.53,13.53,0,0,1-1.127-2.288c.035.493.07,1.266.07,2.255v4.365a15.87,15.87,0,0,0,.106,2.077H213.78a16.635,16.635,0,0,0,.106-2.077V626.02c0-.581.035-1.409.106-2.237-.493,1.553-.546,1.691-.828,2.4-.07.141-.3.652-.72,1.533a6.275,6.275,0,0,0-.969-1.8,16.643,16.643,0,0,0,2.235-5.23h-.667a6.423,6.423,0,0,0-1.145.07v-1.848a6.308,6.308,0,0,0,1.145.07h.826v-1.321a11.009,11.009,0,0,0-.088-1.762h1.92a11.425,11.425,0,0,0-.088,1.744v1.339h.509a4.417,4.417,0,0,0,.9-.07v.969a13.933,13.933,0,0,0,1.8-1.374,8.821,8.821,0,0,0,2.006-2.464h1.867a7.281,7.281,0,0,0,1.991,2.182,11.526,11.526,0,0,0,2.975,1.744,6.6,6.6,0,0,0-.881,1.672,12.677,12.677,0,0,1-1.885-1.108v.914a13.356,13.356,0,0,0-1.354-.051h-.9v1.037h2.218c.687,0,1.092-.018,1.5-.053-.035.476-.053.846-.053,1.3v2.077a12.87,12.87,0,0,0,.053,1.286,13.7,13.7,0,0,0-1.6-.071h-1.724a7.258,7.258,0,0,0,4.508,2.746,5.574,5.574,0,0,0-.934,1.814,9.677,9.677,0,0,1-3.38-1.988,6.676,6.676,0,0,1-1.409-1.762,6.95,6.95,0,0,1-4.525,3.732,4.806,4.806,0,0,0-1.072-1.689c2.2-.5,3.327-1.271,4.1-2.854h-1.337a12.616,12.616,0,0,0-1.533.071c.018-.388.035-.7.035-1.073v-2.431c0-.458-.018-.74-.053-1.145.476.035.617.035,1.445.035h2.077v-1.037Zm-1.108,2.464v1.671h1.619a10.493,10.493,0,0,0,.141-1.671Zm4.384-4.032h.405a9.82,9.82,0,0,1-2.132-2.288,12.3,12.3,0,0,1-1.9,2.288h3.627Zm-.934,4.032a16.669,16.669,0,0,1-.141,1.671h2.147v-1.671Z" transform="translate(-211.368 -562.958)" fill="#14726d"/>
        <path id="パス_333" data-name="パス 333" d="M220.41,618.663a7.1,7.1,0,0,0,1.354.088h3.856a8.629,8.629,0,0,0,1.356-.07v1.726a10.674,10.674,0,0,0-1.286-.053h-3.926a10.529,10.529,0,0,0-1.354.068Zm.564,12.836c.051-.511.086-1.057.086-1.638v-2.5a10.052,10.052,0,0,0-.07-1.339,11.868,11.868,0,0,0,1.3.053h3.116a5.617,5.617,0,0,0,1.145-.053,12.242,12.242,0,0,0-.053,1.233v2.658a11.578,11.578,0,0,0,.07,1.374H224.83v-.581h-2.114v.793Zm.086-15.214a9.67,9.67,0,0,0,1.409.073h2.623a9.67,9.67,0,0,0,1.409-.073v1.621c-.423-.035-.793-.053-1.409-.053h-2.623c-.617,0-1.022.018-1.409.053Zm.035,4.948a6.423,6.423,0,0,0,1.11.053h3.239a5.993,5.993,0,0,0,1.092-.053v1.586a6.654,6.654,0,0,0-1.092-.053H222.2a6.884,6.884,0,0,0-1.11.053Zm0,2.378a6.64,6.64,0,0,0,1.11.053h3.239a6.2,6.2,0,0,0,1.092-.053v1.583a9.366,9.366,0,0,0-1.11-.053h-3.239a6.315,6.315,0,0,0-1.092.053Zm1.621,5.6h2.129v-1.656h-2.129Zm6.146-7.1a21.451,21.451,0,0,1,2.394,4.191l-1.674.984a19.809,19.809,0,0,0-2.235-4.312Zm5.21,7.342c0,.916-.247,1.409-.81,1.621a5.36,5.36,0,0,1-1.83.194c-.634,0-1.145-.035-2.008-.106a7.521,7.521,0,0,0-.458-1.883,21.523,21.523,0,0,0,2.537.244c.544,0,.7-.106.7-.421v-7.994h-2.924c-.687,0-1.319.033-1.918.086v-1.885a12.732,12.732,0,0,0,1.883.108h2.96v-1.374a16.8,16.8,0,0,0-.106-2.094h2.077a16.411,16.411,0,0,0-.106,2.094v1.374h.264a11.936,11.936,0,0,0,1.742-.108V621.2a14.954,14.954,0,0,0-1.707-.086h-.3Z" transform="translate(-200.626 -562.89)" fill="#14726d"/>
        <path id="パス_334" data-name="パス 334" d="M232.25,616.42c.438.126.561.214.561.407a1.077,1.077,0,0,1-.106.421,9.877,9.877,0,0,0-.4,2.64c-.141,2.836-.214,5.036-.214,6.78a4.483,4.483,0,0,0,.141,1.269c.194.579.81.879,1.8.879a6.45,6.45,0,0,0,4.455-1.936,10.348,10.348,0,0,0,1.671-2.043,5.931,5.931,0,0,0,.636,1.724,1.105,1.105,0,0,1,.086.407c0,.317-.335.74-1.213,1.53a8.467,8.467,0,0,1-5.706,2.376,4.034,4.034,0,0,1-2.957-.967c-.669-.7-.934-1.619-.934-3.363,0-1.372.018-2.431.159-6.531.018-.617.035-.987.035-1.145a16.675,16.675,0,0,0-.123-2.693A10.132,10.132,0,0,1,232.25,616.42Z" transform="translate(-189.02 -562.62)" fill="#14726d"/>
        <path id="パス_335" data-name="パス 335" d="M238.374,620.108a8.322,8.322,0,0,0-1.251.388,1.333,1.333,0,0,1-.458.121c-.385,0-.74-.722-1.055-2.235a26.637,26.637,0,0,0,3.486-.405c2.112-.315,4.79-.722,6.2-.9,1.586-.211,2.854-.423,3.521-.564a.791.791,0,0,1,.266-.035c.227,0,.315.106.473.546a4.076,4.076,0,0,1,.247,1.145c0,.211-.07.282-.317.282a6.526,6.526,0,0,0-1.039.088,6.325,6.325,0,0,0-5.351,5.844c0,2.061,1.619,3.418,4.367,3.662.247.018.335.106.335.319a5.964,5.964,0,0,1-.335,1.671.448.448,0,0,1-.458.282,6.158,6.158,0,0,1-1.3-.264c-2.993-.881-4.561-2.781-4.561-5.477a6.333,6.333,0,0,1,1.392-3.979,7.216,7.216,0,0,1,1.92-1.671C242.141,619.315,239.713,619.773,238.374,620.108Z" transform="translate(-182.354 -562.256)" fill="#14726d"/>
        <path id="パス_336" data-name="パス 336" d="M243.886,618.488c0-.511-.018-1.2-.053-1.585a7.942,7.942,0,0,1,1.885.387c.423.159.564.264.564.458a.533.533,0,0,1-.07.282,7.89,7.89,0,0,0-.3,2.872,15.656,15.656,0,0,0,.491,4.735c.266.828.672,1.3,1.147,1.3.72,0,1.319-.845,1.971-2.8a5.235,5.235,0,0,0,.951,1.8.643.643,0,0,1,.141.37A3.322,3.322,0,0,1,250,627.7a3.1,3.1,0,0,1-2.5,1.548c-1.354,0-2.376-1.09-3.01-3.257a20.657,20.657,0,0,1-.6-5.651Zm10.478.282a.507.507,0,0,1,.335.176,11.691,11.691,0,0,1,2.376,3.625,10.893,10.893,0,0,1,.758,2.555c0,.176-.088.264-.458.458a5.6,5.6,0,0,1-1.445.493c-.159,0-.229-.088-.282-.405a12.267,12.267,0,0,0-1.09-3.486,9.4,9.4,0,0,0-1.726-2.554A4.332,4.332,0,0,1,254.364,618.77Z" transform="translate(-172.469 -561.747)" fill="#14726d"/>
        <path id="パス_337" data-name="パス 337" d="M260.351,621.836a4,4,0,0,1,4.243,4.087,4.608,4.608,0,0,1-2.308,3.977,7.011,7.011,0,0,1-3.627.9c-2.235,0-3.539-.9-3.539-2.429,0-1.392,1.163-2.378,2.817-2.378a3.457,3.457,0,0,1,3.292,2.308,2.623,2.623,0,0,0,1.268-2.29,2.471,2.471,0,0,0-2.764-2.5,7.466,7.466,0,0,0-5.107,2.394,10.465,10.465,0,0,0-.863.987c-.121.176-.209.244-.315.244a3.693,3.693,0,0,1-1.568-1.548c0-.159.07-.247.458-.528.4-.317.987-.826,1.726-1.53a51.822,51.822,0,0,0,4.805-5.23,29.354,29.354,0,0,0-4.226.722,1.1,1.1,0,0,1-.194.033c-.141,0-.229-.086-.335-.35a6.05,6.05,0,0,1-.37-1.883,7.787,7.787,0,0,0,1.2.088c.846,0,2.273-.126,4.12-.337a4.157,4.157,0,0,0,1.357-.315.787.787,0,0,1,.352-.088c.247,0,.493.211.951.914.333.458.438.687.438.828,0,.229-.053.3-.438.546a4.794,4.794,0,0,0-.916.74c-.881.846-.9.846-1.991,1.956-.775.79-.861.879-1.568,1.583A6.029,6.029,0,0,1,260.351,621.836Zm-1.691,6.093a1.585,1.585,0,0,0-.9-.264c-.544,0-.9.264-.9.685,0,.513.546.828,1.39.828a4.076,4.076,0,0,0,1.163-.156A1.869,1.869,0,0,0,258.66,627.929Z" transform="translate(-162.793 -562.63)" fill="#14726d"/>
        <path id="パス_338" data-name="パス 338" d="M266.334,617.335a8.25,8.25,0,0,0-.1-1.392h2.165a7.1,7.1,0,0,0-.106,1.392v1.039h4.666a13.538,13.538,0,0,0,2.129-.123v2.061a14.33,14.33,0,0,0-2.077-.106h-6.181a1.775,1.775,0,0,0-.018.333c-.035.617-.07.953-.123,1.48h4.684a13.876,13.876,0,0,0,1.762-.071.543.543,0,0,0-.02.159c-.035.264-.035.388-.068,1.18a33.166,33.166,0,0,1-.581,5.935c-.388,1.6-.951,2.024-2.642,2.024-.6,0-.984-.018-2.288-.106a6.013,6.013,0,0,0-.476-1.973,15.38,15.38,0,0,0,2.535.231c.74,0,.9-.194,1.128-1.359a23.69,23.69,0,0,0,.37-4.241h-4.666c-.722,3.413-2.218,5.545-5.439,7.659a4.874,4.874,0,0,0-1.356-1.621,10.676,10.676,0,0,0,3.028-2.482c1.462-1.762,2.026-3.7,2.114-7.148H262a17.577,17.577,0,0,0-2.132.106v-2.061a14.355,14.355,0,0,0,2.112.123h4.349Z" transform="translate(-153.484 -562.901)" fill="#14726d"/>
      </g>
      <path id="パス_339" data-name="パス 339" d="M191,620.953v-36.9H374.813v101.57H227.284" transform="translate(-190.996 -584.054)" fill="none" stroke="#14726d" stroke-linecap="round" stroke-miterlimit="10" stroke-width="3"/>
    </g>
    <g id="グループ_38" data-name="グループ 38" transform="translate(611.555 584.054)">
      <g id="グループ_37" data-name="グループ 37" transform="translate(38.039 29.399)">
        <path id="パス_340" data-name="パス 340" d="M322.2,606.243a16.585,16.585,0,0,0-1.991.106v-1.92a11.739,11.739,0,0,0,1.973.106h1.46a13.757,13.757,0,0,0-1.3-2.8l1.586-.722a16.888,16.888,0,0,1,1.409,2.922l-1.339.6h2.713v-3.662h-3.823a14.486,14.486,0,0,0-1.883.088v-1.885a15.25,15.25,0,0,0,1.971.106h3.735v-.476a7.567,7.567,0,0,0-.088-1.3h2.041a7.285,7.285,0,0,0-.088,1.321v.456h4.014a13.409,13.409,0,0,0,2.008-.106v1.885a13.278,13.278,0,0,0-1.885-.088h-4.138v3.662h1.163a15.136,15.136,0,0,0,1.638-3.4l1.775.579a18.577,18.577,0,0,1-1.46,2.819h1.762a10.285,10.285,0,0,0,1.953-.106v1.92a16.068,16.068,0,0,0-2.041-.106h-3.715a13.287,13.287,0,0,0,6.073,4.47,8.37,8.37,0,0,0-1.143,1.779,16.211,16.211,0,0,1-3.823-2.552,12.447,12.447,0,0,1-2.235-2.607c.035.863.053,1.216.053,1.6v2.4a10.729,10.729,0,0,0,.123,1.724h-2.112a10.414,10.414,0,0,0,.123-1.724v-2.38c0-.544.016-.9.051-1.581a12.021,12.021,0,0,1-2.8,3.187,16.4,16.4,0,0,1-2.872,1.918,7.965,7.965,0,0,0-1.145-1.707,14.892,14.892,0,0,0,4.138-2.731,10.033,10.033,0,0,0,1.548-1.795Z" transform="translate(-319.892 -597.404)" fill="#3c987a"/>
        <path id="パス_341" data-name="パス 341" d="M331.441,609.06c0-.335,0-.511-.018-.846-.685.194-1,.264-1.9.458a5.588,5.588,0,0,0-.81-1.638,21.84,21.84,0,0,0,6.3-1.848,11.489,11.489,0,0,1-1.619-1.356,14.739,14.739,0,0,1-2.94,1.814,5.037,5.037,0,0,0-1.039-1.321,13.946,13.946,0,0,0,4.294-2.834,4.574,4.574,0,0,0,.934-1.163h-3.537v2.217h-1.832a6.883,6.883,0,0,0,.088-1.266v-1.357a8.424,8.424,0,0,0-.071-1.251c.562.055,1.143.073,1.92.073h4.365v-.249a4.712,4.712,0,0,0-.088-1.09h2.1a5.673,5.673,0,0,0-.108,1.09v.249h4.528a19.666,19.666,0,0,0,1.973-.073,7.7,7.7,0,0,0-.073,1.251v1.392a8.2,8.2,0,0,0,.073,1.268h-1.834v-2.255h-7.252l1.566.44c-.018.018-.192.211-.529.6H339.1a9.322,9.322,0,0,0,1.372-.07l1.18.934-.476.476a17.642,17.642,0,0,1-2.854,2.464,20.648,20.648,0,0,0,6.252,1.462,6.28,6.28,0,0,0-.775,1.883c-.843-.158-1.108-.209-1.832-.387-.015.423-.015.44-.015.934v2.36a12.548,12.548,0,0,0,.07,1.564H340.14v-.632h-6.919v.616h-1.867a15.21,15.21,0,0,0,.088-1.566Zm8.839-1.392a17.759,17.759,0,0,1-3.592-1.478,16.793,16.793,0,0,1-3.486,1.478Zm-7.06,3.134h6.937v-1.6h-6.937Zm1.357-7.958a14.544,14.544,0,0,0,2.059,1.48,13.252,13.252,0,0,0,2.114-1.548h-4.1Z" transform="translate(-309.352 -597.404)" fill="#3c987a"/>
        <path id="パス_342" data-name="パス 342" d="M343.3,610.989c0,.758.018,1.321.07,1.867H341.5a16.99,16.99,0,0,0,.09-1.85v-1.691c0-.244.015-.7.033-1.475a9.219,9.219,0,0,1-.828.738,4.7,4.7,0,0,0-.37-.793,18.571,18.571,0,0,1-.526,2.625,12.72,12.72,0,0,1-.916,2.359,6.488,6.488,0,0,0-1.5-1.531,8.759,8.759,0,0,0,.987-2.66,44.193,44.193,0,0,0,.617-8.276,23.255,23.255,0,0,0-.088-2.746c.579.053,1.231.088,2.22.088h9.418a15.718,15.718,0,0,0,1.955-.088,6.58,6.58,0,0,0-.055,1.125v1.251c0,.194.02.634.055,1.319-.425-.033-1.077-.051-1.85-.051H347.4c-.108.227-.141.3-.264.528h4.208a14.366,14.366,0,0,0,1.654-.07V603c-.421-.033-.916-.053-1.654-.053h-4.9c-.123.176-.159.229-.352.511h4.525c.828,0,1.2-.015,1.6-.053a9.793,9.793,0,0,0-.055,1.321v1.515a9.531,9.531,0,0,0,.055,1.213c-.476-.018-.793-.035-1.233-.035H348.16c-.231.337-.282.405-.407.564h2.4c.476,0,.934-.018,1.251-.051l.828.773c-.123.141-.143.141-.355.388a11.186,11.186,0,0,1-1.865,1.636,14.967,14.967,0,0,0,3.486.564,6.633,6.633,0,0,0-.687,1.621,16.172,16.172,0,0,1-4.314-1.286,14.848,14.848,0,0,1-4.259,1.286,6.267,6.267,0,0,0-.775-1.427,13.06,13.06,0,0,0,3.592-.7,8.553,8.553,0,0,1-1.18-1.022,8.993,8.993,0,0,1-1.707.916,4.052,4.052,0,0,0-.863-1.2Zm0-1.53a5.407,5.407,0,0,0,3.134-2.044h-.247c-.581,0-.863.018-1.18.035a7.819,7.819,0,0,0,.073-1.3v-1.515a3.326,3.326,0,0,0-.231.247,5.293,5.293,0,0,0-1.233-1.057,6.286,6.286,0,0,0,2.044-2.623h-2.094l.879.458a12.785,12.785,0,0,1-2.975,3.081,6.164,6.164,0,0,0-.7-.828c-.055,1.163-.088,1.709-.211,2.764a8.267,8.267,0,0,0,2.658-2.64l1.3.987a8.616,8.616,0,0,1-1.216,1.46Zm-2.464-8.258c-.02,1-.02,1.46-.037,2.077a7.064,7.064,0,0,0,2.008-2.077Zm9.965-1.409v-.7h-9.947v.7Zm-4.155,5.177h3.926v-.493h-3.926Zm0,1.442h3.926v-.491h-3.926Zm.44,2.766a5.816,5.816,0,0,0,1.425.951,6,6,0,0,0,1.409-.951Z" transform="translate(-298.802 -597.221)" fill="#3c987a"/>
        <path id="パス_343" data-name="パス 343" d="M358.959,600.663h1.6a7.231,7.231,0,0,0,1-.053v1.515a7.674,7.674,0,0,0-.984-.055h-1.2a7.193,7.193,0,0,0,2.854,2.572,10.836,10.836,0,0,0-1.11,1.354,8.356,8.356,0,0,1-2.2-2.517v.214c.018.1.018.4.035.9v.81a4.152,4.152,0,0,0,.088,1.022h-1.689a4.836,4.836,0,0,0,.088-.987v-.687c0-.053,0-.194.018-.405,0-.106,0-.141.015-.388v-.335a7.994,7.994,0,0,1-1.848,2.273,5.839,5.839,0,0,0-1.022-1.127,7.276,7.276,0,0,0,2.466-2.7h-.669a3.764,3.764,0,0,0-.793.055v-1.515a8.546,8.546,0,0,0,1.022.053h.81V599.4h-3.964v1.268h.775a5.429,5.429,0,0,0,.934-.053v1.5c-.211-.018-.423-.037-.81-.037h-.493a4.052,4.052,0,0,0,1.533,1.429,11.146,11.146,0,0,0-.969,1.2,3.713,3.713,0,0,1-1-1.216c.018.335.035.722.035,1.075v.828a5.987,5.987,0,0,0,.071,1.039H351.9a5.958,5.958,0,0,0,.086-1.059v-.791c0-.194.02-.634.037-1.039a8.391,8.391,0,0,1-1.779,2.343,5.9,5.9,0,0,0-.846-1.057c-.209,3.75-.65,5.741-1.724,7.817a8.865,8.865,0,0,0-1.48-1.6c1.127-2.079,1.48-4.613,1.48-10.425a27.007,27.007,0,0,0-.088-2.94,20.89,20.89,0,0,0,2.182.086h9.967a16.442,16.442,0,0,0,2.077-.106v1.817a15.55,15.55,0,0,0-1.795-.073h-1.057Zm-4.279,6.587a7.463,7.463,0,0,0-.07-1.216h1.9a7.105,7.105,0,0,0-.07,1.216v.262H359.1a15.478,15.478,0,0,0,1.744-.068v1.707a16.458,16.458,0,0,0-1.744-.071h-2.658v1.531h3.468a15.277,15.277,0,0,0,1.989-.088v1.8a18.107,18.107,0,0,0-2.253-.108h-8.434a17.015,17.015,0,0,0-2.167.108v-1.779a15.518,15.518,0,0,0,1.656.068h.282v-2.218a7.4,7.4,0,0,0-.07-1.2h1.883a5.457,5.457,0,0,0-.088,1.2v2.218h1.973Zm-5.195-7.855v1.321c0,1.619-.015,2.711-.07,3.768a6.765,6.765,0,0,0,2.132-2.414h-.916a5.089,5.089,0,0,0-.828.055v-1.515a5.128,5.128,0,0,0,.828.053h1.354V599.4Z" transform="translate(-288.339 -597.107)" fill="#3c987a"/>
        <path id="パス_344" data-name="パス 344" d="M362.026,607.493c-1.744,1.022-2.237,1.533-2.237,2.306a.732.732,0,0,0,.388.689,5.533,5.533,0,0,0,2.358.352,26.16,26.16,0,0,0,3.171-.214,10.872,10.872,0,0,0,1.284-.282h.088a.3.3,0,0,1,.264.211,5.8,5.8,0,0,1,.176,1.533c0,.264-.088.37-.317.423a32.637,32.637,0,0,1-3.662.194,11.01,11.01,0,0,1-4.138-.493,2.332,2.332,0,0,1-1.533-2.325,3.349,3.349,0,0,1,1.429-2.676,14.466,14.466,0,0,1,2.552-1.638c-.143-.579-.407-.826-.951-.826a4.262,4.262,0,0,0-2.308.826,12.027,12.027,0,0,0-1.48,1.216c-.526.546-.579.583-.72.583-.176,0-.546-.407-.916-1.022a1.756,1.756,0,0,1-.282-.652c0-.159.035-.194.458-.458a10.821,10.821,0,0,0,3.365-3.468c-1.253.088-1.9.106-2.59.106-.264,0-.317-.053-.405-.354a15.087,15.087,0,0,1-.159-1.636,10.436,10.436,0,0,0,1.795.106c.687,0,1.445-.018,2.237-.053a6.838,6.838,0,0,0,.511-2.464c1.566.264,2.29.528,2.29.828a.4.4,0,0,1-.073.209c-.121.231-.264.513-.491,1.059a.5.5,0,0,0-.055.121c1-.141,1.885-.317,2.5-.458a2.432,2.432,0,0,1,.564-.121.219.219,0,0,1,.244.156,10.526,10.526,0,0,1,.176,1.374c0,.194-.068.282-.3.333a35.633,35.633,0,0,1-4.12.619,9.95,9.95,0,0,1-1.445,2.13,4.63,4.63,0,0,1,2.094-.511c.795,0,1.321.458,1.674,1.445,1.744-.949,2.676-1.462,2.784-1.533a5.381,5.381,0,0,0,1.531-1.178,6.447,6.447,0,0,1,1.5,2.147c0,.106-.07.178-.3.229a35.972,35.972,0,0,0-5.142,2.22c.018.315.053,1.125.053,1.689v.846c0,.211-.035.317-.123.37a2.6,2.6,0,0,1-1.09.141c-.6,0-.707-.053-.707-.335v-.07c.035-.511.055-1.18.055-1.6Z" transform="translate(-277.52 -597.317)" fill="#3c987a"/>
        <path id="パス_345" data-name="パス 345" d="M365.4,599.172a9.611,9.611,0,0,0-.106-1.729h1.988a9.42,9.42,0,0,0-.106,1.711v1.39h.458a6.955,6.955,0,0,0,.951-.053v1.762a5.666,5.666,0,0,0-.934-.053h-.476v2.552c.6-.211.793-.282,1.478-.546v1.656c-1.2.491-1.2.491-1.478.6v4.754c0,.863-.229,1.251-.861,1.445a5.439,5.439,0,0,1-1.605.192c-.3,0-.491,0-.932-.033a5.7,5.7,0,0,0-.388-1.742,11.338,11.338,0,0,0,1.48.106c.423,0,.529-.106.529-.5v-3.592c-.106.037-.6.194-1.48.458a2.541,2.541,0,0,0-.317.106l-.37-1.883a10.174,10.174,0,0,0,2.167-.476v-3.1h-.81a9.788,9.788,0,0,0-1.233.07v-1.815a6.944,6.944,0,0,0,1.249.088h.795Zm3.733.6a13.87,13.87,0,0,0-.053-1.619,14.573,14.573,0,0,0,1.656.07H376.6a15.207,15.207,0,0,0,1.707-.07,12.108,12.108,0,0,0-.088,1.619V604.1c0,.616.037,1.251.088,1.814-.564-.037-.861-.053-1.724-.053h-5.651v4.4c0,.667.176.722,2.885.722,3.118,0,3.171-.055,3.242-3.277a6.707,6.707,0,0,0,1.85.634c-.176,2.378-.37,3.206-.883,3.627-.634.546-1.83.74-4.664.74a13.086,13.086,0,0,1-2.993-.194,1.367,1.367,0,0,1-1.233-1.6Zm1.8.141v4.3h1.845v-4.3Zm3.556,4.3h1.951v-4.3h-1.951Z" transform="translate(-267.855 -597.357)" fill="#3c987a"/>
        <path id="パス_346" data-name="パス 346" d="M373.373,602.189a9.607,9.607,0,0,0-1.2.07v-1.8a6.1,6.1,0,0,0,1.216.088h.529v-1.374a11.444,11.444,0,0,0-.088-1.724h1.936a10.87,10.87,0,0,0-.088,1.724v1.374h.335a5.644,5.644,0,0,0,.863-.053v1.744a6.7,6.7,0,0,0-.863-.053h-.335v2.658c.493-.194.667-.264,1.357-.544v1.669c-.669.282-.916.37-1.357.546v4.614c0,1.374-.423,1.744-1.991,1.744-.315,0-.722-.018-1.161-.037a5.136,5.136,0,0,0-.388-1.707,10.66,10.66,0,0,0,1.339.088c.352,0,.44-.088.44-.438v-3.629c-.883.282-1.341.423-1.674.546l-.229-1.832a10.837,10.837,0,0,0,1.9-.421v-3.257Zm12.693.508a10.506,10.506,0,0,0,1.445-.068v1.636a9.223,9.223,0,0,0-1.284-.07h-.865a27.2,27.2,0,0,1,2.237,2.731l-1.409.863c-.3-.5-.388-.652-.581-.951-.861.106-.916.106-1.812.194v1.231h1.742a9.759,9.759,0,0,0,1.445-.07v1.656a11.424,11.424,0,0,0-1.445-.07H383.8v1.2h2.129a11.834,11.834,0,0,0,1.762-.088v1.742a12.034,12.034,0,0,0-1.848-.106h-5.759a18.286,18.286,0,0,0-1.867.088V610.9a8.465,8.465,0,0,0,1.233.071h2.676v-1.2H380.66a11.567,11.567,0,0,0-1.407.07v-1.656a9.545,9.545,0,0,0,1.407.07h1.462V607.17c-.28.035-.28.035-1.795.123-.423.02-.546.037-.967.07l-.2-1.6a8.3,8.3,0,0,0,.934.053,1.624,1.624,0,0,0,.264-.018,8.309,8.309,0,0,0,.773-1.6h-2.057a27.4,27.4,0,0,1-.5,4.9,11.8,11.8,0,0,1-1.442,3.7,5.6,5.6,0,0,0-1.427-1.3,8.652,8.652,0,0,0,1.3-3.363,18.99,18.99,0,0,0,.333-3.556c.037-1.02.073-2.957.073-4.173,0-1.3-.018-1.955-.073-2.482a18,18,0,0,0,1.815.068h6.373a15.877,15.877,0,0,0,1.744-.068c-.033.438-.053.72-.053,1.3v1.445c0,.546.02.951.053,1.3-.37-.038-.81-.053-1.357-.053h-6.813v.791Zm-.562-2.253v-.969H379.13v.969Zm-2.643,3.75a13.327,13.327,0,0,1-.81,1.55c.707-.018,1.9-.106,2.66-.176-.211-.264-.335-.423-.74-.881l1.039-.493Z" transform="translate(-257.295 -597.346)" fill="#3c987a"/>
        <path id="パス_347" data-name="パス 347" d="M383.928,597.92c.44.125.564.214.564.407a1.092,1.092,0,0,1-.108.421,9.984,9.984,0,0,0-.4,2.64c-.141,2.836-.211,5.036-.211,6.78a4.407,4.407,0,0,0,.141,1.269c.192.579.81.879,1.795.879a6.446,6.446,0,0,0,4.455-1.936,10.442,10.442,0,0,0,1.674-2.044,6,6,0,0,0,.632,1.726,1.006,1.006,0,0,1,.088.405c0,.317-.333.74-1.213,1.53a8.46,8.46,0,0,1-5.7,2.378,4.037,4.037,0,0,1-2.96-.969c-.669-.7-.934-1.618-.934-3.363,0-1.372.018-2.431.159-6.531.018-.617.035-.987.035-1.145a16.691,16.691,0,0,0-.123-2.693A10.072,10.072,0,0,1,383.928,597.92Z" transform="translate(-245.602 -597.077)" fill="#3c987a"/>
        <path id="パス_348" data-name="パス 348" d="M388.878,602.894h-.106a.86.86,0,0,1-.194.02c-.159,0-.247-.07-.3-.3a9.257,9.257,0,0,1-.211-1.654c.249.018.443.018.564.018a24.2,24.2,0,0,0,2.995-.194,19.2,19.2,0,0,0,.264-2.784v-.4c2.044.264,2.429.385,2.411.7a.779.779,0,0,1-.106.3,5.425,5.425,0,0,0-.511,1.847,15.787,15.787,0,0,0,1.918-.476.243.243,0,0,1,.143-.035c.159,0,.194.07.333.687a8.135,8.135,0,0,1,.143.987c0,.123-.055.194-.211.227a20.335,20.335,0,0,1-2.728.531,50.555,50.555,0,0,1-3.013,9.383c-.088.229-.176.317-.282.317a4.45,4.45,0,0,1-1.445-.581c-.3-.159-.388-.247-.388-.335a1.148,1.148,0,0,1,.143-.37,33.3,33.3,0,0,0,2.975-8.132C390.5,602.753,389.95,602.808,388.878,602.894Zm7.518,6.692a4.179,4.179,0,0,0,2.288.493,10.183,10.183,0,0,0,2.693-.282,1.059,1.059,0,0,1,.247-.055.255.255,0,0,1,.282.214,6.257,6.257,0,0,1,.211,1.636c0,.231-.071.317-.3.37a14.318,14.318,0,0,1-2.607.194c-2.2,0-3.435-.352-4.243-1.2a3.037,3.037,0,0,1-.687-1.161,2.284,2.284,0,0,1-.176-.652c0-.3.528-.617,1.445-.916A1.984,1.984,0,0,0,396.4,609.587Zm4.946-5.124a14.451,14.451,0,0,0-1.709-.088,16.164,16.164,0,0,0-3.4.317.291.291,0,0,1-.121.018.173.173,0,0,1-.194-.141,7.848,7.848,0,0,1-.125-1.357c0-.229.037-.335.176-.385a2.519,2.519,0,0,1,.546-.125,18.589,18.589,0,0,1,3.435-.3,5.234,5.234,0,0,1,1.671.123c.088.071.108.214.108.793a5.717,5.717,0,0,1-.073,1.075.176.176,0,0,1-.176.088A.448.448,0,0,1,401.341,604.462Z" transform="translate(-238.004 -597.173)" fill="#3c987a"/>
        <path id="パス_349" data-name="パス 349" d="M396.3,599.989c0-.511-.015-1.2-.053-1.586a7.951,7.951,0,0,1,1.885.388c.423.159.564.264.564.458a.532.532,0,0,1-.07.282,7.9,7.9,0,0,0-.3,2.872,15.568,15.568,0,0,0,.493,4.735c.264.828.669,1.3,1.145,1.3.722,0,1.319-.846,1.971-2.8a5.236,5.236,0,0,0,.951,1.8.648.648,0,0,1,.141.37,3.322,3.322,0,0,1-.617,1.392,3.1,3.1,0,0,1-2.5,1.548c-1.354,0-2.376-1.09-3.01-3.257a20.651,20.651,0,0,1-.6-5.651Zm10.478.282a.507.507,0,0,1,.335.176,11.677,11.677,0,0,1,2.376,3.627,10.854,10.854,0,0,1,.757,2.552c0,.176-.088.264-.458.458a5.564,5.564,0,0,1-1.445.493c-.156,0-.227-.088-.282-.405a12.22,12.22,0,0,0-1.09-3.486,9.365,9.365,0,0,0-1.726-2.552A4.354,4.354,0,0,1,406.779,600.27Z" transform="translate(-228.165 -596.203)" fill="#3c987a"/>
        <path id="パス_350" data-name="パス 350" d="M409.039,602.1a2.1,2.1,0,1,1-2.1-2.1A2.09,2.09,0,0,1,409.039,602.1Z" transform="translate(-217.828 -594.281)" fill="#3c987a"/>
        <path id="パス_351" data-name="パス 351" d="M321.1,618.441h-.39a.344.344,0,0,0-.156.02H320.4a.315.315,0,0,1-.337-.282,9.5,9.5,0,0,1-.139-1.814c1.055.108,3.486.176,6.816.176,2.991,0,6.441-.051,6.987-.106h.161c.244,0,.244.018.244,1.18,0,.775-.035.863-.282.863h-.123c-.81-.038-1.143-.038-5.281-.088a10.768,10.768,0,0,1-.37,2.711,7.164,7.164,0,0,1-3.345,4.472,2.866,2.866,0,0,1-1.039.493c-.088,0-.159-.035-.3-.176a4.316,4.316,0,0,0-1.48-1.125c3.116-1.464,4.263-3.136,4.369-6.393C323.425,618.39,322.456,618.39,321.1,618.441Zm1.812-6.038c.405.018.758.037.951.037.9.051,1.161.051,2.325.051a47.849,47.849,0,0,0,4.875-.139h.088c.247,0,.3.121.3.669v.368c0,.106,0,.282-.018.493,0,.476-.035.528-.37.528-.192,0-1.478-.035-2.711-.053-.264-.018-.7-.018-1.337-.018-2.255,0-3.841.035-4.4.106a.448.448,0,0,1-.143.018.263.263,0,0,1-.3-.229,12.744,12.744,0,0,1-.141-1.9A6.655,6.655,0,0,0,322.914,612.4Zm10.037,1.374a7.667,7.667,0,0,0-1.3-1.777c-.106-.106-.106-.106-.106-.161,0-.1.106-.209.405-.438.282-.2.388-.264.491-.264.143,0,.319.141.758.614a4.708,4.708,0,0,1,.971,1.321c0,.106-.055.176-.264.352-.388.335-.636.493-.775.493C333.057,613.918,333.019,613.883,332.951,613.777Zm2.482-1.319a1.1,1.1,0,0,1-.476.244c-.051,0-.106-.035-.176-.156a8.247,8.247,0,0,0-1.321-1.726.271.271,0,0,1-.088-.141,1.974,1.974,0,0,1,.9-.634c.141.018.194.035.388.211a5.976,5.976,0,0,1,1.3,1.689C335.961,612.05,335.82,612.176,335.433,612.458Z" transform="translate(-319.921 -582.209)" fill="#3c987a"/>
        <path id="パス_352" data-name="パス 352" d="M335.2,613.586c3.22,0,5.069-.033,6.849-.158h.227c.531,0,.531.018.531,1.425,0,.724-.055.846-.355.846h-.07c-1.16-.051-1.812-.051-6.9-.051-1.865,0-2.8.018-4.417.07h-.513a4.736,4.736,0,0,0-.984.068c-.088,0-.159.02-.194.02a.32.32,0,0,1-.352-.247,11.281,11.281,0,0,1-.176-2.149A61.008,61.008,0,0,0,335.2,613.586Z" transform="translate(-309.198 -578.163)" fill="#3c987a"/>
        <path id="パス_353" data-name="パス 353" d="M339.824,617.853c-.531.423-.813.6-.951.6s-.159,0-.5-.352a5.374,5.374,0,0,0-1.249-.9,12.548,12.548,0,0,0,4.1-3.7,10.375,10.375,0,0,0,1.566-3.028c1.867.685,2.308.916,2.308,1.163,0,.086-.053.156-.231.282a5.189,5.189,0,0,0-.879,1.161h.317c.617.018,1.057.018,1.163.018a7.03,7.03,0,0,0,2.7-.247.709.709,0,0,1,.3-.07c.247,0,.493.194,1.039.846.438.493.564.7.564.9,0,.161-.055.249-.247.443a4.44,4.44,0,0,0-.617.987,21.924,21.924,0,0,1-4.878,6.459c-1.568,1.429-4.047,3.1-4.6,3.1a.617.617,0,0,1-.44-.211,4.665,4.665,0,0,0-1.48-1.039,21.362,21.362,0,0,0,5.988-4.171l-.509-.528a12.509,12.509,0,0,0-1.674-1.392c-.106-.088-.141-.141-.141-.211,0-.088.229-.352.843-.987.3-.3.37-.35.476-.35a8.1,8.1,0,0,1,2.378,1.918,15.337,15.337,0,0,0,2.235-3.8c-2.006.035-2.006.035-4.576.053A19.11,19.11,0,0,1,339.824,617.853Z" transform="translate(-299.235 -581.69)" fill="#3c987a"/>
        <path id="パス_354" data-name="パス 354" d="M347.406,619.262c0-.544,0-1.055.035-1.9a15.768,15.768,0,0,1-1.742,2.2,9.2,9.2,0,0,0-.9-1.991,14.046,14.046,0,0,0,2.358-3.013,12.113,12.113,0,0,0,1.707-4.188l1.993.564c-.143.333-.214.509-.37.951-.37,1.02-.458,1.214-1.216,2.94V623.9c0,.7.035,1.442.106,2.165H347.3a21.383,21.383,0,0,0,.1-2.182Zm6.69,4.07c0,.476.282.564,1.674.564,1.533,0,2.112-.088,2.325-.37.282-.388.388-1.039.476-3.1a7.982,7.982,0,0,0,1.83.65c-.141,2.112-.37,3.222-.793,3.733-.511.652-1.445.828-4.153.828-2.766,0-3.259-.282-3.259-1.83V612.66a14.818,14.818,0,0,0-.106-2.024H354.2a15.565,15.565,0,0,0-.106,2.024v3.785a15.08,15.08,0,0,0,4.613-3.642l1.462,1.5a1.675,1.675,0,0,0-.352.3,27.162,27.162,0,0,1-5.723,3.944Z" transform="translate(-290.012 -581.815)" fill="#3c987a"/>
        <path id="パス_355" data-name="パス 355" d="M356.721,610.92c.44.125.564.214.564.407a1.092,1.092,0,0,1-.108.421,9.987,9.987,0,0,0-.4,2.64c-.141,2.836-.211,5.036-.211,6.78a4.4,4.4,0,0,0,.141,1.269c.192.579.81.879,1.795.879a6.447,6.447,0,0,0,4.455-1.936,10.441,10.441,0,0,0,1.674-2.044,5.994,5.994,0,0,0,.632,1.727,1.006,1.006,0,0,1,.088.405c0,.317-.333.74-1.213,1.53a8.461,8.461,0,0,1-5.7,2.378,4.036,4.036,0,0,1-2.96-.969c-.669-.7-.934-1.619-.934-3.363,0-1.372.018-2.431.159-6.531.018-.617.035-.987.035-1.145a16.7,16.7,0,0,0-.123-2.693A10.073,10.073,0,0,1,356.721,610.92Z" transform="translate(-278.31 -581.449)" fill="#3c987a"/>
        <path id="パス_356" data-name="パス 356" d="M361.67,615.894h-.106a.858.858,0,0,1-.194.02c-.159,0-.247-.07-.3-.3a9.259,9.259,0,0,1-.211-1.654c.249.018.443.018.564.018a24.2,24.2,0,0,0,2.995-.194A19.191,19.191,0,0,0,364.68,611v-.4c2.044.264,2.429.385,2.409.7a.763.763,0,0,1-.1.3,5.426,5.426,0,0,0-.511,1.848,15.794,15.794,0,0,0,1.918-.476.244.244,0,0,1,.143-.035c.159,0,.194.07.333.687a8.111,8.111,0,0,1,.143.987c0,.123-.055.194-.211.227a20.324,20.324,0,0,1-2.728.531,50.543,50.543,0,0,1-3.013,9.383c-.088.229-.176.317-.282.317a4.452,4.452,0,0,1-1.445-.581c-.3-.159-.388-.247-.388-.335a1.147,1.147,0,0,1,.143-.37,33.2,33.2,0,0,0,2.973-8.132C363.288,615.753,362.742,615.809,361.67,615.894Zm7.518,6.692a4.178,4.178,0,0,0,2.288.493,10.185,10.185,0,0,0,2.693-.282,1.059,1.059,0,0,1,.247-.055.255.255,0,0,1,.282.214,6.256,6.256,0,0,1,.211,1.636c0,.231-.07.317-.3.37a14.318,14.318,0,0,1-2.607.194c-2.2,0-3.435-.352-4.243-1.2a3.036,3.036,0,0,1-.687-1.16,2.282,2.282,0,0,1-.176-.652c0-.3.528-.617,1.445-.916A1.983,1.983,0,0,0,369.188,622.587Zm4.946-5.124a14.465,14.465,0,0,0-1.709-.088,16.166,16.166,0,0,0-3.4.317.288.288,0,0,1-.121.018.173.173,0,0,1-.194-.141,7.849,7.849,0,0,1-.125-1.357c0-.229.037-.335.176-.385a2.524,2.524,0,0,1,.546-.125,18.583,18.583,0,0,1,3.435-.3,5.234,5.234,0,0,1,1.671.123c.088.071.106.214.106.793a5.8,5.8,0,0,1-.07,1.075.176.176,0,0,1-.176.088A.447.447,0,0,1,374.134,617.462Z" transform="translate(-270.711 -581.546)" fill="#3c987a"/>
        <path id="パス_357" data-name="パス 357" d="M369.094,612.988c0-.511-.015-1.2-.053-1.586a7.945,7.945,0,0,1,1.885.388c.423.158.564.264.564.458a.532.532,0,0,1-.07.282,7.9,7.9,0,0,0-.3,2.872,15.567,15.567,0,0,0,.493,4.735c.264.828.669,1.3,1.145,1.3.722,0,1.319-.846,1.971-2.8a5.234,5.234,0,0,0,.951,1.8.648.648,0,0,1,.141.37,3.322,3.322,0,0,1-.617,1.392,3.1,3.1,0,0,1-2.5,1.548c-1.354,0-2.376-1.09-3.01-3.257a20.655,20.655,0,0,1-.6-5.651Zm10.478.282a.507.507,0,0,1,.335.176,11.678,11.678,0,0,1,2.376,3.627,10.856,10.856,0,0,1,.758,2.552c0,.176-.088.264-.458.458a5.561,5.561,0,0,1-1.445.493c-.156,0-.227-.088-.282-.405a12.223,12.223,0,0,0-1.09-3.486,9.367,9.367,0,0,0-1.727-2.552A4.356,4.356,0,0,1,379.572,613.27Z" transform="translate(-260.873 -580.575)" fill="#3c987a"/>
        <path id="パス_358" data-name="パス 358" d="M383.75,611.835a8.023,8.023,0,0,0-.106-1.392h2.165a7.134,7.134,0,0,0-.1,1.392v1.039h4.666a13.547,13.547,0,0,0,2.129-.123v2.061a14.687,14.687,0,0,0-2.079-.106h-6.179a1.775,1.775,0,0,0-.018.333c-.035.619-.073.954-.123,1.48h4.684a13.893,13.893,0,0,0,1.762-.071.55.55,0,0,0-.02.159c-.035.264-.035.388-.068,1.18a32.915,32.915,0,0,1-.584,5.935c-.388,1.6-.951,2.024-2.64,2.024-.6,0-.984-.018-2.288-.106a6.021,6.021,0,0,0-.476-1.973,15.149,15.149,0,0,0,2.535.231c.74,0,.9-.194,1.128-1.356a23.729,23.729,0,0,0,.37-4.243h-4.666c-.722,3.415-2.22,5.545-5.441,7.659a4.867,4.867,0,0,0-1.354-1.621,10.674,10.674,0,0,0,3.028-2.482c1.462-1.762,2.026-3.7,2.112-7.148h-2.764a18.085,18.085,0,0,0-2.132.106v-2.061a14.4,14.4,0,0,0,2.114.123h4.349Z" transform="translate(-251.255 -581.729)" fill="#3c987a"/>
      </g>
      <path id="パス_359" data-name="パス 359" d="M302.647,619.173v-35.12H548.611v101.57h-209.9" transform="translate(-302.647 -584.054)" fill="none" stroke="#3c987a" stroke-linecap="round" stroke-miterlimit="10" stroke-width="3"/>
    </g>
    <g id="グループ_40" data-name="グループ 40" transform="translate(919.572 584.054)">
      <g id="グループ_39" data-name="グループ 39" transform="translate(44.272 14.926)">
        <path id="パス_360" data-name="パス 360" d="M465.776,596.728c0,.4.018,1.213.035,1.707,0,.176.018.352.018.421,0,.354-.247.425-1.621.425-.529,0-.634-.071-.634-.37v-.352c.073-1.372.106-2.132.106-3.38a22.274,22.274,0,0,0-.194-3.752,13.737,13.737,0,0,1,2.132.161c.247.051.388.176.388.385a.7.7,0,0,1-.053.249,3.848,3.848,0,0,0-.176,1.53Zm6.851-2.29a21.1,21.1,0,0,1-.5,5.389,8.393,8.393,0,0,1-4.12,5.175,2.9,2.9,0,0,1-.9.388.431.431,0,0,1-.337-.194,4.889,4.889,0,0,0-1.337-1.2,8.083,8.083,0,0,0,2.852-1.777,6.6,6.6,0,0,0,1.8-3.2,25.918,25.918,0,0,0,.388-4.933,14.425,14.425,0,0,0-.176-2.779,12.419,12.419,0,0,1,2.237.194c.227.053.333.139.333.315a.963.963,0,0,1-.07.319,4.245,4.245,0,0,0-.174,1.566Z" transform="translate(-461.588 -590.264)" fill="#14726d"/>
        <path id="パス_361" data-name="パス 361" d="M476.661,596.483H478.1c1.183,0,3.979-.068,4.631-.123a4.439,4.439,0,0,1,.458-.035c.3,0,.352.106.352.7a4.449,4.449,0,0,1-.088,1.251.324.324,0,0,1-.227.086h-.106c-.337-.033-5.021-.106-6.307-.106h-.192l-.018.758v.846c0,1.3.071,1.568.458,1.815a4.178,4.178,0,0,0,1.918.3,16.419,16.419,0,0,0,2.623-.247c.176-.018.214-.018.37-.035.231,0,.282.07.337.476a8.678,8.678,0,0,1,.1,1.266.384.384,0,0,1-.315.407,23.427,23.427,0,0,1-2.766.156,7.869,7.869,0,0,1-3.415-.526c-1-.476-1.407-1.251-1.407-2.731,0-.247,0-.932.033-2.464-2.676.035-2.676.035-3.5.053-.191.015-.315.015-.385.015H470.5a.6.6,0,0,1-.159.018.31.31,0,0,1-.333-.3,9.112,9.112,0,0,1-.143-1.779c1.216.106,3.1.176,4.684.176l.018-2.728c-2.077.035-2.358.053-2.816.088a.436.436,0,0,1-.141.018.234.234,0,0,1-.247-.194,12.038,12.038,0,0,1-.141-1.85c1.216.123,2.643.158,5.177.158,2.623,0,4.155-.035,5-.139h.088c.247,0,.3.1.3.74,0,1.231,0,1.231-.385,1.231H481.2c-.634-.018-2.977-.053-4.49-.053Z" transform="translate(-453.922 -589.669)" fill="#14726d"/>
        <path id="パス_362" data-name="パス 362" d="M484.676,594.086c3.222,0,5.072-.033,6.849-.158h.229c.529,0,.529.018.529,1.425,0,.724-.053.846-.352.846h-.07c-1.163-.051-1.812-.051-6.9-.051-1.867,0-2.8.018-4.42.07h-.511a4.785,4.785,0,0,0-.987.068c-.088,0-.159.02-.192.02a.322.322,0,0,1-.355-.247,11.47,11.47,0,0,1-.176-2.149A61.037,61.037,0,0,0,484.676,594.086Z" transform="translate(-443.757 -587.132)" fill="#14726d"/>
        <path id="パス_363" data-name="パス 363" d="M489.863,600.143c0,1.072.053,3.944.088,4.772V605a.375.375,0,0,1-.121.333,4.041,4.041,0,0,1-1.48.194c-.564,0-.669-.053-.669-.405v-.07c.035-.458.088-5.53.088-7.624a44.654,44.654,0,0,0-.194-6.215,18.127,18.127,0,0,1,2.341.245c.176.055.264.143.264.282a1.421,1.421,0,0,1-.068.39,2.827,2.827,0,0,0-.125.738c0,.035-.035,1.092-.088,3.169a17.768,17.768,0,0,1,1.971.619,27.236,27.236,0,0,1,4.332,1.9c.143.106.214.194.214.3a6.612,6.612,0,0,1-.6,1.55c-.139.3-.227.385-.333.385a.53.53,0,0,1-.282-.121,19.708,19.708,0,0,0-5.336-2.519Z" transform="translate(-432.63 -590.37)" fill="#14726d"/>
        <path id="パス_364" data-name="パス 364" d="M496.023,597.075c0,.264-.051.352-.209.405a7.318,7.318,0,0,1-1.427.106c-.493,0-.579-.07-.579-.458,0-.035,0-.035.015-.564.035-.74.07-2.114.07-2.94,0-.123-.053-1.356-.07-1.762.6.053.687.053,1.654.073.106,0,.546.015,1.092.033.951.018,2.079.035,3.277.035a22.191,22.191,0,0,0,4.558-.176.708.708,0,0,1,.264-.053c.264,0,.564.211,1.077.724.473.473.667.773.667.984,0,.158-.018.209-.194.546a3.557,3.557,0,0,0-.3,1.2,12.342,12.342,0,0,1-2.66,6.091,14.214,14.214,0,0,1-3.68,2.993,2.593,2.593,0,0,1-.987.423c-.159,0-.247-.071-.669-.491a3.732,3.732,0,0,0-1.145-.916,11.323,11.323,0,0,0,5.23-4,10.987,10.987,0,0,0,1.762-5.333c-2.678-.071-2.678-.071-3.926-.071-1.427,0-2.854.018-3.838.035V595.6Z" transform="translate(-425.137 -589.698)" fill="#14726d"/>
        <path id="パス_365" data-name="パス 365" d="M507.787,594.086c3.222,0,5.072-.033,6.851-.158h.227c.529,0,.529.018.529,1.425,0,.724-.053.846-.352.846h-.071c-1.16-.051-1.812-.051-6.9-.051-1.865,0-2.8.018-4.42.07h-.511a4.747,4.747,0,0,0-.984.068c-.088,0-.161.02-.194.02a.318.318,0,0,1-.352-.247,11.281,11.281,0,0,1-.176-2.149A60.959,60.959,0,0,0,507.787,594.086Z" transform="translate(-415.972 -587.132)" fill="#14726d"/>
        <path id="パス_366" data-name="パス 366" d="M515.39,595.443c-1.216,1.621-3.292,3.556-3.8,3.556-.161,0-.231-.033-.581-.333a8.963,8.963,0,0,0-1.3-.881,12.751,12.751,0,0,0,3.5-2.887,12.216,12.216,0,0,0,2.27-3.788,8.86,8.86,0,0,1,1.9.81c.249.141.337.229.337.388a.41.41,0,0,1-.211.352,4.815,4.815,0,0,0-.81.969l2.623.018a3.71,3.71,0,0,0,1.656-.211.754.754,0,0,1,.194-.035c.282,0,.581.264,1.09.914.337.443.425.6.425.8s-.055.282-.3.528a5.759,5.759,0,0,0-.546.791,22.143,22.143,0,0,1-6.534,7.7,12.157,12.157,0,0,1-3.151,1.848.572.572,0,0,1-.423-.247,5.865,5.865,0,0,0-1.46-1.022,20.468,20.468,0,0,0,6.126-4.243,16.076,16.076,0,0,0,2.907-3.926c.158-.3.264-.529.546-1.11Z" transform="translate(-406.028 -590.497)" fill="#14726d"/>
        <path id="パス_367" data-name="パス 367" d="M518.759,597.98a1.335,1.335,0,0,0-.315.123.375.375,0,0,1-.211.071c-.388,0-.669-.669-.881-1.971h.335a26.24,26.24,0,0,0,3.75-.458A16.468,16.468,0,0,0,522,592.2a2.08,2.08,0,0,0-.018-.3,7.045,7.045,0,0,1,1.973.443c.282.1.421.247.421.421a.519.519,0,0,1-.106.3,8.235,8.235,0,0,0-.808,2.394,10.879,10.879,0,0,1,1.2-.088,2.916,2.916,0,0,1,1.689.423c.707.509,1.059,1.548,1.059,3.151,0,2.623-.478,4.876-1.286,5.985a2.671,2.671,0,0,1-2.341,1.145,3.847,3.847,0,0,1-1.409-.194c-.143-.088-.143-.088-.194-.74a4.69,4.69,0,0,0-.37-1.392,4.2,4.2,0,0,0,1.707.37c.846,0,1.2-.4,1.586-1.83a13.027,13.027,0,0,0,.405-3.433c0-1.374-.335-1.867-1.266-1.867A10.761,10.761,0,0,0,523,597.1c-.053.209-.071.227-.143.456a40.146,40.146,0,0,1-2.288,6.076c-.932,1.92-1.163,2.306-1.39,2.306a3.825,3.825,0,0,1-1.128-.581c-.405-.247-.511-.35-.511-.493,0-.088,0-.088.722-1.231a25.908,25.908,0,0,0,2.676-6.164C519.642,597.769,518.918,597.927,518.759,597.98Zm11.059-3.609a1.3,1.3,0,0,1-.564.3c-.053,0-.106-.035-.157-.123a8.434,8.434,0,0,0-1.5-1.726.144.144,0,0,1-.055-.1c0-.073.123-.194.425-.425.3-.211.388-.262.509-.262a5.728,5.728,0,0,1,1.83,1.848C530.309,593.983,530.17,594.106,529.818,594.371Zm-1.868,1.865c0-.123.159-.282.669-.685.352-.266.529-.37.669-.37.229,0,1.02.843,1.76,1.883a8.814,8.814,0,0,1,1.286,2.431c0,.176-.053.227-.617.685a2.435,2.435,0,0,1-.9.513c-.123,0-.176-.055-.3-.355a12.162,12.162,0,0,0-1.11-2.182,8.154,8.154,0,0,0-1.356-1.707A.358.358,0,0,1,527.951,596.236Zm2.308-5.4a5.168,5.168,0,0,1,1.795,1.795c0,.09-.106.194-.458.443-.315.244-.476.333-.546.333-.088,0-.088,0-.438-.493a9.593,9.593,0,0,0-1.18-1.268c-.053-.05-.088-.086-.088-.139A1.905,1.905,0,0,1,530.259,590.832Z" transform="translate(-396.834 -590.832)" fill="#14726d"/>
        <path id="パス_368" data-name="パス 368" d="M527.727,592.984a13.388,13.388,0,0,0-.106-1.867h1.971a10.7,10.7,0,0,0-.108,1.885v2.273h.2a10.984,10.984,0,0,0,1.178-.053v1.744c-.368-.037-.773-.055-1.161-.055h-.214v4.563c.76-.266.916-.337,1.641-.652l.071,1.636c-1.533.722-2.537,1.143-4.3,1.812-.264.108-.581.231-.795.335l-.368-1.971a14.44,14.44,0,0,0,1.991-.546V596.91H527.3a8.852,8.852,0,0,0-1.372.088v-1.812a11.53,11.53,0,0,0,1.39.088h.407Zm5.651-.035a8.982,8.982,0,0,0-1-1.638l1.779-.438a15.9,15.9,0,0,1,1.092,2.077h1.689a9.777,9.777,0,0,0,.987-2.059l1.777.458a13.132,13.132,0,0,1-.916,1.6h.74c.617,0,1.2-.015,1.568-.053a12.406,12.406,0,0,0-.07,1.55v3.083a12.213,12.213,0,0,0,.07,1.548c-.405-.035-.81-.053-1.548-.053h-6.816a14.839,14.839,0,0,0-1.513.053c.033-.458.05-.775.05-1.5v-3.169a14.183,14.183,0,0,0-.05-1.515c.37.037.9.053,1.513.053Zm-1.462,8.082a12.1,12.1,0,0,0-.051-1.3c.438.033.843.053,1.53.053H538.8c.7,0,1.128-.02,1.531-.053a9.939,9.939,0,0,0-.071,1.425v3.68a10.5,10.5,0,0,0,.088,1.727H538.5v-.669h-4.858v.669h-1.815a10.244,10.244,0,0,0,.088-1.707Zm1-5.668h2.326v-1h-2.326Zm0,2.343h2.326v-1.059h-2.326Zm.722,4.435H538.5v-.969h-4.858Zm0,2.288H538.5v-1h-4.858Zm3.222-9.066h2.447v-1h-2.447Zm0,2.343h2.447v-1.059h-2.447Z" transform="translate(-386.756 -590.784)" fill="#14726d"/>
        <path id="パス_369" data-name="パス 369" d="M540.819,600.07a3.418,3.418,0,0,1,1-.176c1.216,0,1.779.722,2.011,2.537.121,1.037.174,1.231.421,1.444.211.211.546.282,1.161.282a8.589,8.589,0,0,0,2.678-.458.35.35,0,0,1,.123-.018c.106,0,.159.035.229.156a6.48,6.48,0,0,1,.264,1.726c0,.159-.035.229-.194.264a19.735,19.735,0,0,1-3.169.264c-1.533,0-2.341-.282-2.817-1a4.473,4.473,0,0,1-.546-2.1c-.123-1.357-.337-1.691-1.039-1.691-.634,0-1.128.317-2.165,1.357a18.269,18.269,0,0,0-2.449,2.975c-.106.176-.229.282-.335.282-.123,0-.244-.106-.791-.687-.531-.581-.724-.81-.724-.916,0-.123.035-.156.354-.438.421-.352.421-.352,6.972-7.324-2.834.509-4.631.879-5.054,1.037a.975.975,0,0,1-.352.088c-.159,0-.194-.053-.3-.405a8.281,8.281,0,0,1-.335-1.742c.37.018.493.018.617.018a47.983,47.983,0,0,0,4.893-.493,5.934,5.934,0,0,0,2.1-.44.67.67,0,0,1,.282-.088c.438,0,1.443,1.143,1.443,1.656,0,.209-.071.3-.3.421a4.09,4.09,0,0,0-.951.617c-.176.141-.7.634-.949.863Zm-2.1-8.8c.07-.209.125-.3.211-.282a1.173,1.173,0,0,1,.176.038,15.063,15.063,0,0,0,2.149.546,15.83,15.83,0,0,0,3.134.317c.211.015.229.071.229.491a4.254,4.254,0,0,1-.159,1.321.238.238,0,0,1-.211.158c-.088,0-1.989-.211-2.27-.247a18.362,18.362,0,0,1-3.365-.808c-.159-.073-.209-.125-.209-.249A6.546,6.546,0,0,1,538.722,591.266Z" transform="translate(-376.246 -590.651)" fill="#14726d"/>
        <path id="パス_370" data-name="パス 370" d="M543.256,596.157c.319-.282.407-.352.531-.352a7.53,7.53,0,0,1,2.059,1.515,8.431,8.431,0,0,1,1.867,2.235c0,.159-.037.194-.546.652-.669.617-.81.722-.934.722-.106,0-.211-.071-.3-.247a11.336,11.336,0,0,0-3.275-3.345c-.143-.106-.211-.176-.211-.282C542.448,596.93,542.483,596.88,543.256,596.157Z" transform="translate(-366.666 -584.854)" fill="#14726d"/>
        <path id="パス_371" data-name="パス 371" d="M470.829,611.095a17.245,17.245,0,0,1-3.874,3.7,12.673,12.673,0,0,1-2.7,1.531c-.159,0-.194-.033-.579-.509a4.564,4.564,0,0,0-1.057-1.039,14.2,14.2,0,0,0,4.032-2.308,16.3,16.3,0,0,0,3.222-3.272c-2.59,0-4.437.051-5.193.156a1.232,1.232,0,0,1-.319.038c-.244,0-.317-.038-.388-.194a9.363,9.363,0,0,1-.176-1.975c.81.108,3.468.2,5.688.2h1.178l-.033-.828a12.332,12.332,0,0,0-.249-2.4,11.685,11.685,0,0,1,2.275.231c.156.035.227.123.227.244s-.018.159-.123.337a1.418,1.418,0,0,0-.141.773c0,.264,0,.581.018.9l.035.72c3.1-.051,3.471-.051,3.841-.068a1.806,1.806,0,0,1,.3-.02c.405,0,.443.088.443,1.006s-.02.967-.355.967h-.1a2.307,2.307,0,0,1-.3-.018h-.65c-1.042-.018-2.466-.051-3.083-.051l.194,4.332c0,.159.018.244.088,1.161a10.561,10.561,0,0,1,.053,1.075c0,1.936-.669,2.5-2.995,2.5a4.319,4.319,0,0,1-1.178-.088c-.176-.088-.209-.141-.352-.687a8.773,8.773,0,0,0-.614-1.462,10.447,10.447,0,0,0,2.041.231c.861,0,1.02-.123,1.02-.758a.092.092,0,0,0-.015-.053Z" transform="translate(-462.624 -574.773)" fill="#14726d"/>
        <path id="パス_372" data-name="パス 372" d="M477.606,606.925a38.9,38.9,0,0,0-5.933.262.067.067,0,0,1-.053.018c-.335,0-.44-.579-.493-2.394a31.27,31.27,0,0,0,4.6.176c2.358,0,5.124-.053,5.563-.1a2.353,2.353,0,0,0,.74-.176.414.414,0,0,1,.194-.035c.3,0,.669.28,1.233.951.335.42.405.526.405.72a.615.615,0,0,1-.176.385c-.176.214-.194.266-.581,1.5a16.34,16.34,0,0,1-5.582,7.926,8.226,8.226,0,0,1-2.323,1.425c-.194,0-.229-.018-.632-.423a5.451,5.451,0,0,0-1.321-1,14.093,14.093,0,0,0,5.353-4.087,12.064,12.064,0,0,0,2.376-5.175C479.6,606.907,479.6,606.907,477.606,606.925Z" transform="translate(-452.402 -574.195)" fill="#14726d"/>
        <path id="パス_373" data-name="パス 373" d="M483.286,611.11a17.563,17.563,0,0,1-3.541,1.85c-.176,0-.176,0-.509-.37a6.663,6.663,0,0,0-1.092-.969,19.393,19.393,0,0,0,6.708-3.944,8.274,8.274,0,0,0,1.709-1.918c.934.617,1.636,1.286,1.636,1.55,0,.106-.051.156-.211.227a3.905,3.905,0,0,0-.934.7c-.37.335-1.073.916-1.865,1.515v2.819c0,1.531.033,3.1.088,3.836v.194c0,.284-.176.317-1.286.317-.7,0-.775-.018-.775-.211v-.123a3.314,3.314,0,0,1,.018-.35c.037-.443.055-1.993.055-3.662Z" transform="translate(-443.967 -572.888)" fill="#14726d"/>
        <path id="パス_374" data-name="パス 374" d="M496.809,614.041A7.7,7.7,0,0,1,498.621,616c0,.156-.227.44-.773.967-.405.388-.581.513-.707.513a.442.442,0,0,1-.262-.125c-.194-.229-.194-.229-1-1.145a23.032,23.032,0,0,0-3.821-3.345,27.429,27.429,0,0,1-4,3.4,8.934,8.934,0,0,1-2.165,1.216c-.176,0-.194-.02-.617-.5a7.134,7.134,0,0,0-1.092-.951,18.821,18.821,0,0,0,5.195-3.468,21.472,21.472,0,0,0,4.42-5.618,66.157,66.157,0,0,0-6.921.143c-.209.018-.244.018-.282.018a.3.3,0,0,1-.333-.282,12.168,12.168,0,0,1-.125-2.024,48.421,48.421,0,0,0,5.618.227,26.731,26.731,0,0,0,2.713-.106,1.976,1.976,0,0,0,.634-.159.393.393,0,0,1,.209-.033c.3,0,.619.244,1.039.808a2.523,2.523,0,0,1,.529,1.037c0,.214-.053.284-.511.707a5.5,5.5,0,0,0-.951,1.319,25.452,25.452,0,0,1-2.006,2.8A24.229,24.229,0,0,1,496.809,614.041Z" transform="translate(-436.706 -574.127)" fill="#14726d"/>
        <path id="パス_375" data-name="パス 375" d="M498.844,614.184a3.912,3.912,0,0,1-3.206,2.273c-1.83,0-3.134-1.8-3.134-4.3a7.107,7.107,0,0,1,3.821-6.446,8.306,8.306,0,0,1,4.12-.916,6.1,6.1,0,0,1,6.41,6.091,6.7,6.7,0,0,1-4.437,6.551,4.221,4.221,0,0,1-1.268.388c-.211,0-.3-.07-.529-.405a3.722,3.722,0,0,0-1.108-1.11c3.625-.934,5.263-2.64,5.263-5.492a4.125,4.125,0,0,0-1.707-3.468,4.475,4.475,0,0,0-2.081-.758C500.5,610.311,499.916,612.337,498.844,614.184Zm-2.537-6.234a5.477,5.477,0,0,0-1.848,4.173c0,1.357.44,2.149,1.178,2.149.881,0,1.777-1.216,2.449-3.31a22.376,22.376,0,0,0,.9-4.279A5.085,5.085,0,0,0,496.307,607.95Z" transform="translate(-426.705 -574.042)" fill="#14726d"/>
        <path id="パス_376" data-name="パス 376" d="M503.039,612.743a16.535,16.535,0,0,0-1.991.106v-1.92a11.755,11.755,0,0,0,1.973.106h1.46a13.757,13.757,0,0,0-1.3-2.8l1.586-.722a17.066,17.066,0,0,1,1.407,2.922l-1.337.6h2.711v-3.662h-3.821a14.5,14.5,0,0,0-1.883.088v-1.885a15.237,15.237,0,0,0,1.971.106h3.733v-.476a7.348,7.348,0,0,0-.088-1.3H509.5a7.284,7.284,0,0,0-.088,1.321v.456h4.012a13.412,13.412,0,0,0,2.011-.106v1.885a13.3,13.3,0,0,0-1.885-.088h-4.138v3.662h1.161a15.052,15.052,0,0,0,1.64-3.4l1.775.579a18.571,18.571,0,0,1-1.46,2.819h1.762a10.3,10.3,0,0,0,1.953-.106v1.92a16.068,16.068,0,0,0-2.041-.106h-3.717a13.3,13.3,0,0,0,6.076,4.47,8.291,8.291,0,0,0-1.143,1.779,16.208,16.208,0,0,1-3.823-2.552,12.447,12.447,0,0,1-2.235-2.607c.035.863.053,1.216.053,1.6v2.4a10.722,10.722,0,0,0,.123,1.724h-2.112a10.42,10.42,0,0,0,.121-1.724v-2.38c0-.544.018-.9.053-1.581a11.99,11.99,0,0,1-2.8,3.187,16.3,16.3,0,0,1-2.869,1.918,7.964,7.964,0,0,0-1.145-1.707,14.885,14.885,0,0,0,4.138-2.731,10.034,10.034,0,0,0,1.548-1.795Z" transform="translate(-416.751 -575.118)" fill="#14726d"/>
        <path id="パス_377" data-name="パス 377" d="M512.281,615.56c0-.335,0-.511-.02-.846-.685.194-1,.264-1.9.458a5.584,5.584,0,0,0-.808-1.639,21.9,21.9,0,0,0,6.3-1.848,11.4,11.4,0,0,1-1.621-1.356,14.674,14.674,0,0,1-2.94,1.814,5,5,0,0,0-1.039-1.321,13.957,13.957,0,0,0,4.3-2.834,4.674,4.674,0,0,0,.934-1.163h-3.539v2.217h-1.83a7.087,7.087,0,0,0,.088-1.266v-1.357a8.4,8.4,0,0,0-.073-1.251c.564.055,1.145.073,1.918.073h4.369v-.249a4.708,4.708,0,0,0-.088-1.09h2.094a5.9,5.9,0,0,0-.106,1.09v.249h4.525a19.6,19.6,0,0,0,1.971-.073,8.26,8.26,0,0,0-.071,1.251v1.392a8.812,8.812,0,0,0,.071,1.268h-1.83v-2.255H515.73l1.568.44c-.018.018-.194.211-.529.6h3.171a9.356,9.356,0,0,0,1.374-.07l1.178.934-.476.476a17.639,17.639,0,0,1-2.852,2.464,20.629,20.629,0,0,0,6.252,1.462,6.28,6.28,0,0,0-.777,1.883c-.843-.158-1.11-.209-1.83-.388-.018.423-.018.44-.018.934v2.361a12.971,12.971,0,0,0,.07,1.564h-1.885v-.632h-6.917v.617h-1.867c.051-.546.088-1.039.088-1.566Zm8.839-1.392a17.659,17.659,0,0,1-3.592-1.478,16.917,16.917,0,0,1-3.488,1.478Zm-7.06,3.134H521v-1.6h-6.935Zm1.354-7.958a14.416,14.416,0,0,0,2.059,1.48,13.056,13.056,0,0,0,2.112-1.548h-4.1Z" transform="translate(-406.21 -575.118)" fill="#14726d"/>
        <path id="パス_378" data-name="パス 378" d="M520.989,610.67a15.8,15.8,0,0,0-1.724.071v-1.6a15.038,15.038,0,0,0,1.724.068h2.061a12.049,12.049,0,0,0-.634-1.266H520.6a19.743,19.743,0,0,0-2.008.088v-1.691a13.7,13.7,0,0,0,1.92.106h.546a7.59,7.59,0,0,0-1.145-1.568l1.691-.632a12.1,12.1,0,0,1,1.3,2.2h.951v-1.18a9.343,9.343,0,0,0-.088-1.321h1.83a11.4,11.4,0,0,0-.051,1.253v1.248H526.8V605.2a8.3,8.3,0,0,0-.07-1.253h1.85a8.42,8.42,0,0,0-.088,1.321v1.18h1.055a8.725,8.725,0,0,0,1.216-2.237l1.727.636a16.516,16.516,0,0,1-1.042,1.6h.478a13.3,13.3,0,0,0,1.918-.106v1.691a19.752,19.752,0,0,0-2.006-.088h-1.709a12.158,12.158,0,0,1-.617,1.266h1.956a15.587,15.587,0,0,0,1.742-.068v1.6a15.744,15.744,0,0,0-1.742-.071h-4.42v.81H530.6a15.815,15.815,0,0,0,1.727-.07v1.48a14.586,14.586,0,0,0-1.727-.07h-3.556v.843h4.737a14.107,14.107,0,0,0,2.026-.1v1.689a17.121,17.121,0,0,0-2.008-.106h-3.4a9.082,9.082,0,0,0,2.288,1.357,15.148,15.148,0,0,0,3.521.967,6.193,6.193,0,0,0-.967,1.726,12.753,12.753,0,0,1-6.252-3.362c.035.6.035.81.035,1.2v.845a11.312,11.312,0,0,0,.106,1.707h-1.991a12.044,12.044,0,0,0,.106-1.724v-.81c0-.388,0-.531.037-1.163a8.554,8.554,0,0,1-2.431,1.865,16.077,16.077,0,0,1-3.451,1.427,6.817,6.817,0,0,0-1.022-1.638,12.074,12.074,0,0,0,5.53-2.394H520.78a17.592,17.592,0,0,0-2.061.106V613.56a15.061,15.061,0,0,0,2.044.1h4.47v-.843H521.89a14.652,14.652,0,0,0-1.729.07v-1.48a15.646,15.646,0,0,0,1.729.07h3.343v-.81Zm6.639-1.462a8.068,8.068,0,0,0,.564-1.266h-3.856a12.352,12.352,0,0,1,.509,1.266Z" transform="translate(-395.594 -575.071)" fill="#14726d"/>
        <path id="パス_379" data-name="パス 379" d="M535.186,614.756a8.819,8.819,0,0,0-1.339.07v-1.619c-.194.44-.244.562-.458.984a4.314,4.314,0,0,0-1.233-.914,8.683,8.683,0,0,0,.951-2.167h-1.055l.035,6.851a1.793,1.793,0,0,1-.211.967c-.247.37-.722.526-1.691.526-.35,0-.951-.033-1.427-.068a4.564,4.564,0,0,0-.352-1.656,9.555,9.555,0,0,0,1.5.194c.458,0,.546-.07.546-.421l-.018-4.032a10.2,10.2,0,0,1-2.5,3.574,6.753,6.753,0,0,0-.826-1.85,9.268,9.268,0,0,0,2.852-4.085h-1.163a7.619,7.619,0,0,0-1.425.088v-1.777a12.216,12.216,0,0,0,1.533.068h1.689a20.95,20.95,0,0,0-2.253-1.918l1.057-1c1,.758,1.055.81,1.443,1.128a6.2,6.2,0,0,0,1.374-1.478h-2.96a12.081,12.081,0,0,0-1.442.068v-1.742a12.791,12.791,0,0,0,1.585.068h2.9a12.58,12.58,0,0,0,1.425-.05l.916.984c-.07.088-.194.231-.37.476a16.009,16.009,0,0,1-2.358,2.66c.156.156.211.227.37.4l-.37.405h1a10.845,10.845,0,0,0,1.233-.051l.74.9a2.1,2.1,0,0,0-.211.529,10.924,10.924,0,0,0,2.766-1.055,7.7,7.7,0,0,1-1.374-1.744,17.07,17.07,0,0,1-1.3,1.5,5.03,5.03,0,0,0-1.286-1.143A8.879,8.879,0,0,0,536,605.141a4.2,4.2,0,0,0,.423-1.286l1.759.355a5.915,5.915,0,0,0-.262.6c-.088.214-.108.284-.282.652h3.519a14.975,14.975,0,0,0,1.779-.088v1.709a11.411,11.411,0,0,0-1.216-.053,7.77,7.77,0,0,1-1.674,2.658,11.919,11.919,0,0,0,3.242.934,6.057,6.057,0,0,0-.773,1.762,12.566,12.566,0,0,1-3.805-1.568,8.456,8.456,0,0,1-1.586.843l1.744.037c-.018.123-.018.123-.035.229a2.533,2.533,0,0,1-.035.3,2.6,2.6,0,0,0-.035.264c-.035.231-.053.37-.106.669h2.429a11.385,11.385,0,0,0,1.321-.051c-.035.4-.035.4-.068.72a21.071,21.071,0,0,1-.584,4.246c-.335,1.037-.775,1.3-2.094,1.3a15.811,15.811,0,0,1-1.8-.123,5.3,5.3,0,0,0-.4-1.742,10.348,10.348,0,0,0,1.953.227c.544,0,.722-.209.9-1.055a10.281,10.281,0,0,0,.209-1.92h-2.2c-.722,2.308-2.077,3.7-4.737,4.878a6.384,6.384,0,0,0-1.057-1.515c2.167-.79,3.294-1.759,3.962-3.363Zm1.727-1.6a11.78,11.78,0,0,0,.088-1.284.386.386,0,0,0-.018-.141,15.621,15.621,0,0,1-1.938.7,5.637,5.637,0,0,0-.546-1c-.244.722-.317.951-.6,1.674a12.259,12.259,0,0,0,1.392.051Zm.333-6.126a5.97,5.97,0,0,0,1.462,1.812,4.671,4.671,0,0,0,1.2-1.812Z" transform="translate(-385.111 -575.177)" fill="#14726d"/>
        <path id="パス_380" data-name="パス 380" d="M539.881,613.666a.44.44,0,0,1,.07.247c0,.123-.018.143-.176.528a19.283,19.283,0,0,0-.987,3.028c-.053.194-.106.3-.174.337a5.581,5.581,0,0,1-.883.121h-.07c-.088,0-.211-.018-.35-.018-.231,0-.282-.053-.352-.264a23.088,23.088,0,0,1-.6-5.281,26.863,26.863,0,0,1,.617-5.776c.176-.951.264-1.48.335-2.061a8.322,8.322,0,0,1,1.9.564c.3.123.387.211.387.388,0,.125-.018.176-.211.458-.579.934-1.231,4.666-1.231,7.186,0,.4.018.949.068,1.83.5-1.11.672-1.445,1.075-2.306A5.52,5.52,0,0,0,539.881,613.666Zm3.821,1.251a4.952,4.952,0,0,0,2.411.405,8.957,8.957,0,0,0,2.889-.405.856.856,0,0,1,.247-.053c.123,0,.211.07.227.247a14.223,14.223,0,0,1,.161,1.654c0,.176-.055.229-.3.3a12.067,12.067,0,0,1-3.1.37,6.431,6.431,0,0,1-3.453-.689c-.773-.476-1.583-1.442-1.583-1.918,0-.247.37-.581,1.319-1.163A2.492,2.492,0,0,0,543.7,614.917Zm-1.231-8.98a15.489,15.489,0,0,0,2.376.159,19.728,19.728,0,0,0,3.416-.282.617.617,0,0,1,.159-.015c.123,0,.176.051.211.191a12.411,12.411,0,0,1,.088,1.427c0,.264-.053.352-.247.388a18.961,18.961,0,0,1-3.187.227,14.63,14.63,0,0,1-3.048-.194c-.088-.051-.121-.174-.121-.491a9.444,9.444,0,0,1,.088-1.321c.015-.07.07-.106.176-.106A.2.2,0,0,1,542.471,605.936Z" transform="translate(-373.984 -574.369)" fill="#14726d"/>
        <path id="パス_381" data-name="パス 381" d="M475.784,632.265V631.3H464.992v.969h-1.936a17.543,17.543,0,0,0,.106-2.2V619.219a17.953,17.953,0,0,0-.106-2.044,15.966,15.966,0,0,0,1.989.088H475.7a15.967,15.967,0,0,0,1.989-.088,17.777,17.777,0,0,0-.086,2.044V630.08a16.085,16.085,0,0,0,.106,2.185Zm-10.793-2.605h10.775V618.9H464.992v8.207a10.768,10.768,0,0,0,3.926-4.138h-1.812c-.548,0-.8.015-1.48.068V621.3a3.733,3.733,0,0,0,.473.035,3.856,3.856,0,0,1,.388.015c.319.018.564.018.707.018h2.215v-.951a7.408,7.408,0,0,0-.088-1.178h1.9a7.005,7.005,0,0,0-.073,1.178v.951h2.431a10.36,10.36,0,0,0,1.586-.086v1.777a9.276,9.276,0,0,0-1.447-.086H471.7a10.323,10.323,0,0,0,4.032,3.995,7.959,7.959,0,0,0-.987,1.586,10.835,10.835,0,0,1-3.645-4.014c.037.6.053.916.053,1.407v1.85a9.138,9.138,0,0,0,.088,1.53h-1.92a9.166,9.166,0,0,0,.088-1.53v-1.85c0-.546,0-.879.037-1.407a10.137,10.137,0,0,1-3.33,4.067,8.2,8.2,0,0,0-1.125-1.427Z" transform="translate(-462.105 -559.163)" fill="#14726d"/>
        <path id="パス_382" data-name="パス 382" d="M474.51,620.375a19.8,19.8,0,0,1,5.016-.9c2.484,0,4.017,1.354,4.017,3.556a4.3,4.3,0,0,1-1.586,3.363,8.548,8.548,0,0,1-3.063,1.478,9.336,9.336,0,0,1-1.92.37c-.209,0-.315-.051-.388-.229a4.037,4.037,0,0,0-.9-1.425c3.876-.407,5.849-1.638,5.849-3.644a1.853,1.853,0,0,0-1.938-1.815,12.9,12.9,0,0,0-6.164,1.848,1.076,1.076,0,0,1-.35.143c-.3,0-.795-.883-1.2-2.149A16.589,16.589,0,0,0,474.51,620.375Z" transform="translate(-451.489 -556.395)" fill="#14726d"/>
        <path id="パス_383" data-name="パス 383" d="M481.18,621.108a8.231,8.231,0,0,0-1.249.388,1.359,1.359,0,0,1-.458.121c-.388,0-.74-.722-1.057-2.235a26.657,26.657,0,0,0,3.486-.405c2.112-.315,4.79-.722,6.2-.9,1.586-.211,2.852-.421,3.521-.564a.779.779,0,0,1,.264-.035c.229,0,.317.106.476.548a4.058,4.058,0,0,1,.247,1.143c0,.211-.07.282-.317.282a6.527,6.527,0,0,0-1.039.088,6.33,6.33,0,0,0-5.353,5.844c0,2.061,1.621,3.418,4.369,3.662.244.018.333.106.333.319a5.959,5.959,0,0,1-.333,1.671.45.45,0,0,1-.458.282,6.238,6.238,0,0,1-1.3-.262c-2.993-.883-4.561-2.784-4.561-5.479a6.322,6.322,0,0,1,1.392-3.977,7.18,7.18,0,0,1,1.92-1.674C484.947,620.315,482.516,620.773,481.18,621.108Z" transform="translate(-443.64 -558.799)" fill="#14726d"/>
        <path id="パス_384" data-name="パス 384" d="M486.692,619.488c0-.511-.018-1.2-.053-1.586a7.969,7.969,0,0,1,1.885.388c.423.159.564.264.564.458a.532.532,0,0,1-.07.282,7.847,7.847,0,0,0-.3,2.872,15.5,15.5,0,0,0,.493,4.735c.264.828.667,1.3,1.143,1.3.722,0,1.321-.846,1.973-2.8a5.272,5.272,0,0,0,.949,1.8.651.651,0,0,1,.143.37,3.305,3.305,0,0,1-.619,1.392,3.094,3.094,0,0,1-2.5,1.548c-1.354,0-2.376-1.09-3.01-3.257a20.655,20.655,0,0,1-.6-5.651Zm10.478.282a.5.5,0,0,1,.333.176,11.6,11.6,0,0,1,2.376,3.627,10.777,10.777,0,0,1,.76,2.552c0,.176-.088.264-.458.458a5.567,5.567,0,0,1-1.445.493c-.156,0-.229-.088-.282-.405a12.292,12.292,0,0,0-1.09-3.486,9.418,9.418,0,0,0-1.727-2.552A4.338,4.338,0,0,1,497.169,619.77Z" transform="translate(-433.755 -558.289)" fill="#14726d"/>
        <path id="パス_385" data-name="パス 385" d="M503.156,622.836a4,4,0,0,1,4.246,4.087,4.613,4.613,0,0,1-2.308,3.977,7.016,7.016,0,0,1-3.627.9c-2.235,0-3.539-.9-3.539-2.431,0-1.392,1.163-2.378,2.816-2.378a3.463,3.463,0,0,1,3.294,2.308,2.626,2.626,0,0,0,1.266-2.29,2.471,2.471,0,0,0-2.764-2.5,7.467,7.467,0,0,0-5.1,2.394,10.745,10.745,0,0,0-.865.987c-.123.176-.211.245-.317.245a3.705,3.705,0,0,1-1.568-1.548c0-.159.073-.247.46-.528.4-.315.987-.826,1.727-1.531a52.071,52.071,0,0,0,4.8-5.23,29.269,29.269,0,0,0-4.226.722,1.147,1.147,0,0,1-.194.035c-.141,0-.229-.088-.335-.352a6.115,6.115,0,0,1-.37-1.883,7.8,7.8,0,0,0,1.2.088c.846,0,2.27-.125,4.12-.335a4.181,4.181,0,0,0,1.354-.317.8.8,0,0,1,.355-.088c.247,0,.491.211.949.914.337.458.44.689.44.828,0,.229-.053.3-.44.546a4.938,4.938,0,0,0-.916.74c-.879.846-.9.846-1.988,1.956-.775.791-.863.879-1.568,1.583A6.028,6.028,0,0,1,503.156,622.836Zm-1.689,6.093a1.584,1.584,0,0,0-.9-.264c-.546,0-.9.264-.9.685,0,.513.546.828,1.392.828a4,4,0,0,0,1.163-.156A1.869,1.869,0,0,0,501.467,628.929Z" transform="translate(-424.08 -559.173)" fill="#14726d"/>
        <path id="パス_386" data-name="パス 386" d="M509.142,618.335a8.233,8.233,0,0,0-.106-1.392H511.2a7.082,7.082,0,0,0-.108,1.392v1.039h4.666a13.568,13.568,0,0,0,2.132-.123v2.061a14.686,14.686,0,0,0-2.077-.106h-6.181a1.784,1.784,0,0,0-.018.333c-.035.619-.07.953-.123,1.48h4.684a13.8,13.8,0,0,0,1.759-.071.7.7,0,0,0-.015.159c-.037.264-.037.388-.073,1.18a33.419,33.419,0,0,1-.579,5.935c-.388,1.6-.951,2.024-2.64,2.024-.6,0-.989-.018-2.292-.106a5.972,5.972,0,0,0-.473-1.973,15.109,15.109,0,0,0,2.535.231c.74,0,.9-.194,1.128-1.357a23.729,23.729,0,0,0,.37-4.243H509.23c-.725,3.415-2.22,5.545-5.442,7.659a4.9,4.9,0,0,0-1.356-1.621,10.677,10.677,0,0,0,3.028-2.482c1.462-1.762,2.026-3.7,2.114-7.148H504.81a18.078,18.078,0,0,0-2.132.106v-2.061a14.355,14.355,0,0,0,2.112.123h4.351Z" transform="translate(-414.77 -559.443)" fill="#14726d"/>
      </g>
      <path id="パス_387" data-name="パス 387" d="M442.52,617.52V584.054H682.866v101.57H478.97" transform="translate(-442.52 -584.054)" fill="none" stroke="#14726d" stroke-linecap="round" stroke-miterlimit="10" stroke-width="3"/>
    </g>
  </g>
</svg>
