<svg xmlns="http://www.w3.org/2000/svg" width="766" height="290.118" viewBox="0 0 766 290.118">
  <g id="credits" transform="translate(-257 -1145)">
    <g id="グループ_49" data-name="グループ 49" transform="translate(2 -25)">
      <text id="_2020年12月31日まで_" data-name="2020年12月31日まで" transform="translate(418 1174)" fill="#1a1818" font-size="14" font-family="YuGo-Medium, YuGothic" font-weight="500"><tspan x="0" y="12">2020年12月31日まで</tspan></text>
      <text id="RECEPTIONISTの導入企業に属している方に限ります_" data-name="RECEPTIONISTの導入企業に属している方に限ります。" transform="translate(418 1215)" fill="#1a1818" font-size="14" font-family="YuGo-Medium, YuGothic" font-weight="500"><tspan x="0" y="12">RECEPTIONISTの導入企業に属している方に限ります。</tspan></text>
      <text id="お打ち合わせ1社ご設定ごとに紹介した方_ご紹介者様_および紹介された方_被紹介者様_に_500円分のSTARBUCKS_eGift券を差し上げます_" data-name="お打ち合わせ1社ご設定ごとに紹介した方(ご紹介者様)および紹介された方(被紹介者様)に
500円分のSTARBUCKS eGift券を差し上げます。" transform="translate(418 1318)" fill="#1a1818" font-size="14" font-family="YuGo-Medium, YuGothic" font-weight="500"><tspan x="0" y="12">お打ち合わせ1社ご設定ごとに紹介した方(ご紹介者様)および紹介された方(被紹介者様)に</tspan><tspan x="0" y="34.4">500円分のSTARBUCKS eGift券を差し上げます。</tspan></text>
      <text id="紹介された方とアポイントの約束ができ_商談を実施できた場合_商談はオンラインで行なう場合があります_" data-name="紹介された方とアポイントの約束ができ、商談を実施できた場合 
※商談はオンラインで行なう場合があります。" transform="translate(418 1381)" fill="#1a1818" font-size="14" font-family="YuGo-Medium, YuGothic" font-weight="500"><tspan x="0" y="12">紹介された方とアポイントの約束ができ、商談を実施できた場合 </tspan><tspan x="0" y="34.4">※商談はオンラインで行なう場合があります。</tspan></text>
      <text id="商談が実施されなかった場合は特典適用対象外となります_" data-name="商談が実施されなかった場合は特典適用対象外となります。" transform="translate(418 1442)" fill="#1a1818" font-size="14" font-family="YuGo-Medium, YuGothic" font-weight="500"><tspan x="0" y="12">商談が実施されなかった場合は特典適用対象外となります。</tspan></text>
      <g id="グループ_45" data-name="グループ 45" transform="translate(212.525 499.659)">
        <rect id="長方形_13" data-name="長方形 13" width="143.439" height="21.423" transform="translate(42.475 670.341)" fill="#a5c9b7"/>
        <rect id="長方形_14" data-name="長方形 14" width="143.439" height="21.423" transform="translate(42.475 711.207)" fill="#a5c9b7"/>
        <g id="グループ_44" data-name="グループ 44" transform="translate(49.885 682.029)">
          <path id="パス_415" data-name="パス 415" d="M53.031,689.451a7.541,7.541,0,0,0,2.1,2,11.6,11.6,0,0,0,4.407,1.634,4.548,4.548,0,0,0-.6,1.035,13.075,13.075,0,0,1-4.858-2.235,9.048,9.048,0,0,1-2.038-2.272,6.123,6.123,0,0,1-2.519,3,10.874,10.874,0,0,1-3.655,1.473,4.212,4.212,0,0,0-.585-1,9.232,9.232,0,0,0,3.438-1.169,5.242,5.242,0,0,0,2.355-2.466H47.024a10.73,10.73,0,0,0-1.52.1v-1.066a9.509,9.509,0,0,0,1.484.081h4.393a10.058,10.058,0,0,0,.234-1.534H48.691a9.436,9.436,0,0,0-1.386.067v-1a7.509,7.509,0,0,0,1.386.084h2.987c.036-.585.053-.752.067-1.436h-3.1a12,12,0,0,0-1.537.086v-1.022a8.981,8.981,0,0,0,1.537.086h3.1a5.915,5.915,0,0,0-.081-1.286h1.183a6.213,6.213,0,0,0-.1,1.286H56.1a8.862,8.862,0,0,0,1.537-.086v1.022a9.564,9.564,0,0,0-1.537-.086H52.747c-.017.451-.031,1.036-.067,1.436h3.173a7.527,7.527,0,0,0,1.386-.084v1a9.274,9.274,0,0,0-1.386-.067h-3.24a11.461,11.461,0,0,1-.234,1.534h5.476a9.526,9.526,0,0,0,1.486-.081v1.066a10.26,10.26,0,0,0-1.517-.1Zm-1.317-8.783a5.208,5.208,0,0,0-.1-1h1.233a5.119,5.119,0,0,0-.1,1v.6h4.707a15.128,15.128,0,0,0,1.62-.067,7.121,7.121,0,0,0-.067,1.083v.935a7.217,7.217,0,0,0,.067,1.122H58.022v-2.188H46.74v2.188H45.688a7.085,7.085,0,0,0,.067-1.122v-.935a6.984,6.984,0,0,0-.067-1.083,15.106,15.106,0,0,0,1.617.067h4.409Z" transform="translate(-44.869 -687.666)" fill="#1a1818"/>
          <path id="パス_416" data-name="パス 416" d="M61.7,681.223a9.693,9.693,0,0,0-.1-1.467h1.186a7.7,7.7,0,0,0-.1,1.467v1.069h1.086a9.31,9.31,0,0,0,1.434-.081v1.052a10.081,10.081,0,0,0-1.434-.067H61.8c-.017.6-.033,1.333-.05,2.185h1.6a6.974,6.974,0,0,0,1.133-.067,8.78,8.78,0,0,0-.033,1,46.781,46.781,0,0,1-.3,5.659,2.716,2.716,0,0,1-.582,1.584,2.1,2.1,0,0,1-1.152.234c-.217,0-.651-.034-1.1-.064a3.816,3.816,0,0,0-.167-1.036,5.211,5.211,0,0,0,1.286.164c.551,0,.649-.15.818-1.233a42.15,42.15,0,0,0,.267-5.359h-1.8a20.1,20.1,0,0,1-.484,3.939,10.367,10.367,0,0,1-1.821,3.805,2.982,2.982,0,0,0-.749-.8,8.794,8.794,0,0,0,1.951-5.155,47.77,47.77,0,0,0,.234-4.858h-.468a7.087,7.087,0,0,0-1.353.084v-1.086a8.243,8.243,0,0,0,1.4.1H61.7Zm4.991,1.637a17.544,17.544,0,0,1-1.737,2.622,2.328,2.328,0,0,0-.768-.635,11.7,11.7,0,0,0,1.8-2.619,10.655,10.655,0,0,0,.952-2.556l1.069.27c-.067.148-.084.181-.284.665-.251.615-.334.818-.568,1.336h4.59a9.8,9.8,0,0,0,1.637-.1v1.086a14.734,14.734,0,0,0-1.62-.07ZM68.776,686v-1.183a10.1,10.1,0,0,0-.081-1.339h1.083a7.537,7.537,0,0,0-.1,1.3v.935l1.8-.548c.434-.133,1.069-.367,1.3-.468-.033.849-.033.983-.05,1.55-.084,2.453-.184,3.4-.434,3.822-.15.284-.468.4-1.069.4-.184,0-.534-.033-.869-.067a3,3,0,0,0-.251-.935,8.179,8.179,0,0,0,1.052.134c.284,0,.418-.148.468-.484a24.233,24.233,0,0,0,.167-3.154l-2.121.685V689.6a8.756,8.756,0,0,0,.07,1.336H68.709a8.808,8.808,0,0,0,.067-1.336v-2.669l-1.818.582v4.643c0,.651.184.7,2.77.7,1.687,0,2.255-.064,2.439-.267a4.816,4.816,0,0,0,.334-2.168,3.219,3.219,0,0,0,.985.4c-.267,2.873-.4,2.97-3.791,2.97-3.154,0-3.672-.2-3.672-1.367V687.82a7.908,7.908,0,0,0-1.036.418l-.2-1.069a5.715,5.715,0,0,0,1.136-.284l.1-.017V685.7a10.26,10.26,0,0,0-.067-1.319h1.086a7.546,7.546,0,0,0-.084,1.3v.882Z" transform="translate(-21.011 -687.655)" fill="#1a1818"/>
          <path id="パス_417" data-name="パス 417" d="M74.1,681.27a9.863,9.863,0,0,0-.084-1.52h1.1a9.964,9.964,0,0,0-.083,1.537v.284h2.956v-.3a8.68,8.68,0,0,0-.086-1.52h1.1a11.886,11.886,0,0,0-.083,1.537v.284a8.465,8.465,0,0,0,1.336-.083v1a8.831,8.831,0,0,0-1.336-.064v6.862A8.021,8.021,0,0,0,80.2,689.2v1q-.5-.05-1.453-.05H73.669a8.523,8.523,0,0,0-1.3.067V689.2a6.417,6.417,0,0,0,1.283.083H74.1v-6.862H74a9.956,9.956,0,0,0-1.386.064v-1A8.318,8.318,0,0,0,74,681.57h.1ZM75.74,691.2a9.077,9.077,0,0,1-2.486,2.77,2.5,2.5,0,0,0-.738-.766A6.566,6.566,0,0,0,74.9,690.7Zm2.255-7.1v-1.684H75.039v1.684Zm0,2.505v-1.687H75.039v1.687Zm0,2.672V687.43H75.039v1.854Zm-.234,1.4a5.393,5.393,0,0,0,1.567,1.651,3.128,3.128,0,0,0-.735.688,8.246,8.246,0,0,1-1.567-1.837Zm4.073-1.82a8.579,8.579,0,0,1-1.871,5.178c-.067-.07-.117-.117-.15-.153a2.335,2.335,0,0,0-.651-.585,6.081,6.081,0,0,0,1.6-3.6,71.685,71.685,0,0,0,.267-7.527,14.806,14.806,0,0,0-.067-1.8,12.363,12.363,0,0,0,1.534.067h2.2a12.045,12.045,0,0,0,1.537-.067,12.17,12.17,0,0,0-.067,1.57v10.781c0,.537-.134.888-.434,1.052a3.393,3.393,0,0,1-1.3.17c-.217,0-.4-.017-1.253-.07a3.882,3.882,0,0,0-.267-1.116,9.222,9.222,0,0,0,1.754.2c.384,0,.518-.1.518-.348v-3.741Zm.15-3.822c-.033,1.617-.033,2.021-.086,2.92h3.29v-2.92Zm3.2-3.705H82v2.8h3.187Z" transform="translate(3.436 -687.516)" fill="#1a1818"/>
          <path id="パス_418" data-name="パス 418" d="M87.3,691.993a9.271,9.271,0,0,0,.1,1.8H86.218a11.572,11.572,0,0,0,.1-1.8V681.647a17.191,17.191,0,0,0-.067-1.771,13.08,13.08,0,0,0,1.67.067h2.3a12.808,12.808,0,0,0,1.637-.067c-.033.468-.05.935-.05,1.537V683.4c0,.632.017,1.052.05,1.484-.518-.033-.985-.05-1.637-.05H87.3Zm0-9.98h3.588v-1.286H87.3Zm0,2.052h3.588v-1.283H87.3Zm8.412,6.077c0,.651.017,1.069.05,1.47-.418-.033-1-.05-1.654-.05H90.625v1.119h-1a11.651,11.651,0,0,0,.084-1.5V687.6c0-.548-.017-1.066-.05-1.5a13.708,13.708,0,0,0,1.587.067h2.92a14.026,14.026,0,0,0,1.6-.067c-.033.434-.05.852-.05,1.5Zm-5.091-1.737H94.8v-1.434H90.625Zm0,2.355H94.8V689.21H90.625Zm8.6,1.484c0,1.052-.331,1.32-1.651,1.32-.367,0-1.152-.034-1.587-.05a4.213,4.213,0,0,0-.3-1.036c.735.086,1.436.153,1.754.153.668,0,.8-.067.8-.451v-7.346h-3.29c-.685,0-1.086.017-1.62.05.036-.448.053-.9.053-1.484v-1.988c0-.568-.017-1.016-.053-1.537a12.487,12.487,0,0,0,1.637.067H97.6a13.244,13.244,0,0,0,1.687-.067c-.05.6-.07,1.069-.07,1.771ZM94.3,682.014h3.942v-1.286H94.3Zm0,2.052h3.942v-1.283H94.3Z" transform="translate(28.139 -687.291)" fill="#1a1818"/>
          <path id="パス_419" data-name="パス 419" d="M47,702.977A3.683,3.683,0,0,0,49.158,704a12.984,12.984,0,0,0,2.085.167,19.224,19.224,0,0,0,4.407-.518.156.156,0,0,1,.086-.017c.081,0,.131.05.148.15a6.7,6.7,0,0,1,.05.919c0,.15-.05.217-.184.251a24.458,24.458,0,0,1-4.473.431c-2.152,0-3.438-.267-4.423-.932a3.641,3.641,0,0,1-1.169-1.253,2.788,2.788,0,0,1-.331-.818c0-.134.315-.367.882-.665A2.841,2.841,0,0,0,47,702.977Zm4.34-8.532c.668,0,1.654-.047,2.088-.1.451-.05.534-.067.618-.067.1,0,.131.033.15.117a3.978,3.978,0,0,1,.067.718c0,.3-.017.367-.134.4a18.5,18.5,0,0,1-2.489.134,21.484,21.484,0,0,1-4.306-.432c-.484-.1-.5-.117-.5-.42a4.006,4.006,0,0,1,.084-.9A17.438,17.438,0,0,0,51.343,694.446Zm3.274-1.667a.685.685,0,0,0,.134-.1c.234-.167.315-.2.4-.2a4.65,4.65,0,0,1,1.183,1.119,2.333,2.333,0,0,1,.468.718,1.5,1.5,0,0,1-.7.568c-.05,0-.1-.033-.15-.15a6.455,6.455,0,0,0-1.333-1.67c-.067-.05-.1-.1-.1-.131A.2.2,0,0,1,54.617,692.778Zm1.951-1.267a5,5,0,0,1,1.587,1.8c0,.1-.05.133-.384.367-.184.117-.251.15-.3.15s-.1-.034-.134-.117a5.954,5.954,0,0,0-1.353-1.67c-.05-.033-.067-.047-.067-.084C55.917,691.843,56.418,691.492,56.568,691.512Z" transform="translate(-44.752 -658.539)" fill="#1a1818"/>
          <path id="パス_420" data-name="パス 420" d="M52.348,700.718a15.567,15.567,0,0,1-.935,4.66l-.9-.4a11.255,11.255,0,0,0,.933-4.454ZM50.561,698.7c.217.014.4.034.718.034.15,0,.2,0,.585-.02.568-.716.635-.8,1-1.333a19.547,19.547,0,0,0-2.322-2.67l.6-.735c.317.348.451.484.668.718a11.027,11.027,0,0,0,1.486-3.04l1.019.451a8.477,8.477,0,0,0-.7,1.236c-.351.634-.635,1.119-1.219,2.018.5.585.6.718,1.019,1.239a15.17,15.17,0,0,0,1.67-2.973l.933.551c-.083.1-.434.651-1.069,1.651a32.7,32.7,0,0,1-2.052,2.856c1.253-.086,1.77-.134,2.606-.251a10,10,0,0,0-.718-1.42l.735-.351a22.018,22.018,0,0,1,1.383,3l-.785.434c-.134-.434-.184-.568-.3-.9l-.665.1c-.234.036-.418.053-.885.086v5.308a10.443,10.443,0,0,0,.1,1.6H53.2a10.778,10.778,0,0,0,.1-1.6v-5.208c-.551.047-.818.064-1.186.1a7.47,7.47,0,0,0-1.4.134Zm5.192,1.737a19.475,19.475,0,0,1,.785,3.822l-.9.248a16.832,16.832,0,0,0-.685-3.822Zm2.455-7.213a10.292,10.292,0,0,0-1.637.1v-1.086a11.392,11.392,0,0,0,1.654.1H63.2a14.2,14.2,0,0,0,1.436-.05c-.017.217-.033.387-.067,1.219a15.735,15.735,0,0,1-.585,4.139c-.284.534-.585.651-1.787.651-.418,0-.6,0-1.3-.05a2.274,2.274,0,0,0-.251-1.1,8.432,8.432,0,0,0,1.754.217c.468,0,.651-.117.752-.468a16.537,16.537,0,0,0,.418-3.672h-3a6.257,6.257,0,0,1-3.374,5.593,2.243,2.243,0,0,0-.7-.835,5.247,5.247,0,0,0,2.388-2.138,5.715,5.715,0,0,0,.668-2.62Zm.15,12.969H57.289a10.664,10.664,0,0,0,.084-1.57v-3.635a12.866,12.866,0,0,0-.067-1.487,8.856,8.856,0,0,0,1.286.067h4.473a8.6,8.6,0,0,0,1.269-.067,11.3,11.3,0,0,0-.067,1.5v3.672a10.763,10.763,0,0,0,.084,1.6H63.266v-1.036H58.358Zm0-1.868h4.908v-3.841H58.358Z" transform="translate(-35.546 -658.283)" fill="#1a1818"/>
          <path id="パス_421" data-name="パス 421" d="M64.363,691.756a11.857,11.857,0,0,0,2.9,3.374,17.516,17.516,0,0,0,4.056,2.569,3.746,3.746,0,0,0-.668,1.036,21.4,21.4,0,0,1-4.256-2.956,12.942,12.942,0,0,1-2.619-3.1,14.643,14.643,0,0,1-2.352,2.906,17.937,17.937,0,0,1-4.259,3.121,3.684,3.684,0,0,0-.7-.969,15.415,15.415,0,0,0,6.678-5.977Zm-2.505,5.292a12.387,12.387,0,0,0-.1,1.5c-.05,3.972-1.083,5.89-4.089,7.513a2.974,2.974,0,0,0-.852-.922,6.2,6.2,0,0,0,2.722-1.968,7.447,7.447,0,0,0,1.15-4.59,8.827,8.827,0,0,0-.117-1.537Zm5.025,0a12.866,12.866,0,0,0-.1,1.654v5.476a11.345,11.345,0,0,0,.117,1.684H65.613a11.049,11.049,0,0,0,.117-1.684v-5.492a10.026,10.026,0,0,0-.117-1.637Z" transform="translate(-24.93 -658.101)" fill="#1a1818"/>
          <path id="パス_422" data-name="パス 422" d="M64.638,697.559a13.643,13.643,0,0,0-1.784.1V696.54a10.89,10.89,0,0,0,1.8.1H68.7v-2H66.107a11.294,11.294,0,0,0-1.734.086v-1.069a10.7,10.7,0,0,0,1.751.1H68.7V693.2a8.063,8.063,0,0,0-.1-1.537h1.216a8.658,8.658,0,0,0-.1,1.537v.551H71.2a10.9,10.9,0,0,0,1.754-.1v1.069a10.24,10.24,0,0,0-1.7-.086H69.715v2h1.434a15.44,15.44,0,0,0,4.039-4.256l.952.635c-.234.25-.267.284-.668.768a23.075,23.075,0,0,1-2.937,2.853h2.619a10.455,10.455,0,0,0,1.7-.1v1.119a13.279,13.279,0,0,0-1.751-.1H71.332c-.952.668-1.587,1.085-2.589,1.687.835-.033,1.186-.033,1.687-.033H73.17a17.278,17.278,0,0,0,1.734-.067,14.662,14.662,0,0,0-.067,1.751v3.6a8.177,8.177,0,0,0,.1,1.654H73.821v-.749H67.193v.749H66.074a11.212,11.212,0,0,0,.1-1.654v-2.72c0-.367.017-.768.033-1.166a32,32,0,0,1-3.171,1.433,3.652,3.652,0,0,0-.618-.918,30.39,30.39,0,0,0,7.413-3.571Zm2.555,4.223h6.628v-1.718H67.193Zm0,2.756h6.628V702.65H67.193Z" transform="translate(-14.311 -658.262)" fill="#1a1818"/>
          <path id="パス_423" data-name="パス 423" d="M70.913,693.325a9.113,9.113,0,0,0-.083-1.654h1.136a10.207,10.207,0,0,0-.084,1.637v1.567h.635a5.815,5.815,0,0,0,1.019-.064v.983a9.47,9.47,0,0,0-1.036-.047h-.568a8.789,8.789,0,0,0,1.5,2.62,5.392,5.392,0,0,0-.551.852,9.8,9.8,0,0,1-1.052-2.238c.033,1.219.05,2.038.05,2.606v4.857a12.9,12.9,0,0,0,.1,1.854H70.812a10.47,10.47,0,0,0,.117-1.854V699.9c0-.637,0-.637.05-1.4,0-.084.017-.384.05-.785,0-.134.017-.334.017-.585a11.616,11.616,0,0,1-1.033,3.07,13.907,13.907,0,0,1-1.036,1.823,4.125,4.125,0,0,0-.618-1,9.151,9.151,0,0,0,1.5-2.519,16.457,16.457,0,0,0,.9-2.753h-.835a7.054,7.054,0,0,0-1.119.064v-1a6.393,6.393,0,0,0,1.119.064h.985ZM75.1,694.8a8.136,8.136,0,0,0-1.383.081V693.86a8.228,8.228,0,0,0,1.4.083h.849a8.909,8.909,0,0,0-1.033-1.767l.832-.367a11.176,11.176,0,0,1,1.169,2.135h1.837a9.62,9.62,0,0,0,1.1-2.171l.949.351c-.284.521-.8,1.47-1.036,1.82h1.4a9.769,9.769,0,0,0,1.486-.1v1.033a12.727,12.727,0,0,0-1.47-.081h-2.92v1.367h2.419a11.549,11.549,0,0,0,1.453-.081v1.033a9.1,9.1,0,0,0-1.436-.081H78.292v1.45h3.137a9.555,9.555,0,0,0,1.47-.1v1.052a9.528,9.528,0,0,0-1.47-.1H78.392a8.875,8.875,0,0,0,1.3,2.4,8.267,8.267,0,0,0,1.734-2.068l.835.585a13.71,13.71,0,0,1-2,2.168,8.693,8.693,0,0,0,3.056,2.238,4.317,4.317,0,0,0-.668.935,10.88,10.88,0,0,1-2.369-1.837,9.775,9.775,0,0,1-2.1-3.271,14.353,14.353,0,0,1,.117,1.584v3.02c0,.871-.3,1.088-1.5,1.088a12.172,12.172,0,0,1-1.317-.07,2.735,2.735,0,0,0-.284-1,12.105,12.105,0,0,0,1.584.133c.468,0,.568-.053.568-.351v-2.271c-.184.133-.184.133-.5.367a22.48,22.48,0,0,1-2.923,1.7c-.214.117-.532.317-.715.434l-.468-1.052a16.392,16.392,0,0,0,4.607-2.438v-2.3h-2.5a7.858,7.858,0,0,0-1.386.084v-1a10.586,10.586,0,0,0,1.4.067H77.34v-1.45H75.553a10.728,10.728,0,0,0-1.4.064v-1.016a7.75,7.75,0,0,0,1.37.081H77.34V694.8Zm-.6,4.908a14.372,14.372,0,0,1,1.537,1.935l-.735.534a10.27,10.27,0,0,0-1.517-1.971Z" transform="translate(-3.714 -658.251)" fill="#1a1818"/>
          <path id="パス_424" data-name="パス 424" d="M80.344,699.467c-.969,2.2-2.071,3.307-3.321,3.307a2.284,2.284,0,0,1-1.887-1.136,5.13,5.13,0,0,1-.668-2.7,6.415,6.415,0,0,1,2.689-5.294,7.262,7.262,0,0,1,4.29-1.286c3.638,0,6.043,2.2,6.043,5.545a6,6,0,0,1-3.073,5.275,6.974,6.974,0,0,1-2.085.952c-.1,0-.167-.053-.284-.2a2.276,2.276,0,0,0-.735-.635,8.985,8.985,0,0,0,2.622-1.1,5.106,5.106,0,0,0,2.4-4.34,4.308,4.308,0,0,0-2.555-4.075,4.648,4.648,0,0,0-1.885-.431A21.847,21.847,0,0,1,80.344,699.467Zm-1.868-5.442A5.442,5.442,0,0,0,75.554,699c0,1.5.618,2.572,1.5,2.572.7,0,1.45-.835,2.168-2.436a19.93,19.93,0,0,0,1.52-5.729A6.273,6.273,0,0,0,78.477,694.025Z" transform="translate(7.18 -657.033)" fill="#1a1818"/>
          <path id="パス_425" data-name="パス 425" d="M91.29,693.591a4.293,4.293,0,0,0-.434.434,14.268,14.268,0,0,1-2.786,2.388,19.731,19.731,0,0,0,6.358,1.935,2.815,2.815,0,0,0-.5.969,23.284,23.284,0,0,1-4.874-1.386,12.572,12.572,0,0,1-1.871-.969,17.243,17.243,0,0,1-2,1,21.274,21.274,0,0,1-4.657,1.453,2.663,2.663,0,0,0-.468-.918,18.057,18.057,0,0,0,6.294-2.071,13.48,13.48,0,0,1-2.121-1.885,11.891,11.891,0,0,1-3.121,2.052,2.3,2.3,0,0,0-.635-.752,11.409,11.409,0,0,0,2.987-1.854A9.65,9.65,0,0,0,85.5,691.57l1.069.334c-.117.15-.434.518-.935,1.119h3.555a9.01,9.01,0,0,0,1.487-.081Zm.935,6.611a9.5,9.5,0,0,0,1.784-.1v1.083a13.926,13.926,0,0,0-1.818-.1H88.15a9.1,9.1,0,0,0,1.72,1.537,15.827,15.827,0,0,0,4.526,2.3,4.431,4.431,0,0,0-.635,1.016,17.634,17.634,0,0,1-4.159-2.386,12.849,12.849,0,0,1-2.135-2.035c.031.7.05,1.036.05,1.4v1.968a6.932,6.932,0,0,0,.1,1.52H86.449a7.426,7.426,0,0,0,.1-1.52v-1.951c0-.368.017-.869.05-1.4a15.739,15.739,0,0,1-2.338,2.238,18.8,18.8,0,0,1-3.588,2.068,2.9,2.9,0,0,0-.618-.952,14.154,14.154,0,0,0,5.843-3.805H82.109a13.727,13.727,0,0,0-1.8.1V700.1a8.335,8.335,0,0,0,1.687.1h4.557v-.785a6.6,6.6,0,0,0-.067-1.085h1.1a6.6,6.6,0,0,0-.067,1.085v.785Zm-7.4-6.244a9.775,9.775,0,0,0,2.372,1.971,13.184,13.184,0,0,0,2.5-2.088H84.929Z" transform="translate(17.146 -658.433)" fill="#1a1818"/>
          <path id="パス_426" data-name="パス 426" d="M88.128,699.114c0-.685.014-1.236.05-1.937a11.528,11.528,0,0,1-1.687,2.489,3,3,0,0,0-.651-.918,15.454,15.454,0,0,0,3.107-5.058,10.791,10.791,0,0,0,.568-2.071l1.116.334c-.084.234-.134.367-.251.718a23.319,23.319,0,0,1-1.216,3v8.749a16.37,16.37,0,0,0,.081,1.887H88.028a15.9,15.9,0,0,0,.1-1.921Zm6.926-5.542a9.586,9.586,0,0,0-.117-1.62H96.19a9.808,9.808,0,0,0-.1,1.62v1.8h2.319a10.191,10.191,0,0,0,1.653-.1v1.133a14.466,14.466,0,0,0-1.634-.1H96.09V699.8H99.1a9.644,9.644,0,0,0,1.684-.1v1.153a12.483,12.483,0,0,0-1.67-.1H96.09v3.839a10.161,10.161,0,0,0,.1,1.67H94.937a10.031,10.031,0,0,0,.117-1.67v-3.839h-3.2a10.733,10.733,0,0,0-1.67.1V699.7a10.664,10.664,0,0,0,1.67.1h3.2v-3.488H92.368a14.3,14.3,0,0,1-1.453,2.5,3.223,3.223,0,0,0-.9-.618,12.519,12.519,0,0,0,1.954-3.538,8.538,8.538,0,0,0,.534-2.121l1.119.32c-.1.265-.15.415-.3.866-.234.752-.334,1.052-.568,1.654h2.3Z" transform="translate(27.464 -658.348)" fill="#1a1818"/>
        </g>
        <g id="グループ_48" data-name="グループ 48" transform="translate(0 26)">
          <rect id="長方形_16" data-name="長方形 16" width="143.439" height="21.423" transform="translate(42.475 788.516)" fill="#a5c9b7"/>
          <path id="パス_435" data-name="パス 435" d="M46.776,720.009a12.96,12.96,0,0,1-.718,2.419,4.773,4.773,0,0,0-.885-.434,12.4,12.4,0,0,0,1-4.643,3.606,3.606,0,0,0-.017-.415l1.033.167c-.031.184-.031.234-.064.5-.036.434-.084.835-.2,1.5h1.15V717a6.414,6.414,0,0,0-.117-1.336h1.2a8.065,8.065,0,0,0-.1,1.336v2.1H49.4a7.554,7.554,0,0,0,1.4-.1v1.088a8.1,8.1,0,0,0-1.353-.083h-.384v3.171c.668-.317.935-.451,1.67-.835l.017.952-.067.05c.351.034.852.064,1.486.064h4.624v-1.851h-4.64a9.107,9.107,0,0,0-1.637.1v-1.1a10.49,10.49,0,0,0,1.637.1H54.42v-2.138H52.65a12.309,12.309,0,0,0-1.52.086v-1.069a9.062,9.062,0,0,0,1.52.1h1.77v-.668a7.469,7.469,0,0,0-.1-1.286h1.169a7.438,7.438,0,0,0-.084,1.286v.668h2.185a9.4,9.4,0,0,0,1.537-.1v1.069a12.538,12.538,0,0,0-1.537-.086H55.406v2.138h2.739a10.714,10.714,0,0,0,1.651-.1v1.1a10.963,10.963,0,0,0-1.6-.1h-.4v1.851h.415a9.628,9.628,0,0,0,1.57-.1v1.1a10.205,10.205,0,0,0-1.57-.1h-.415v4.54c0,.919-.387,1.186-1.687,1.186-.434,0-1-.033-1.6-.081a3.263,3.263,0,0,0-.251-1.088,10.816,10.816,0,0,0,1.854.217c.585,0,.685-.064.685-.431v-4.343H52.1a9.8,9.8,0,0,0-1.553.1v-1c-.117.07-.117.07-.334.187-.3.164-.568.3-1.152.585v4.42a13.449,13.449,0,0,0,.1,1.687h-1.2a9.589,9.589,0,0,0,.117-1.687v-3.969c-.117.047-1.434.584-2,.818a2.435,2.435,0,0,0-.384.181l-.351-1.116a14.159,14.159,0,0,0,2.736-.919v-3.588Zm5.64,4.888A18.956,18.956,0,0,1,54.7,727.5l-.852.635a13.788,13.788,0,0,0-2.219-2.686Z" transform="translate(4.812 76.575)" fill="#1a1818"/>
          <path id="パス_436" data-name="パス 436" d="M91.038,717.111a6.09,6.09,0,0,0-.1-1.4h1.169a6.5,6.5,0,0,0-.1,1.42v.751h2.469v-.751a6,6,0,0,0-.1-1.42h1.186a6.3,6.3,0,0,0-.117,1.4v.768h2.238c.768,0,1.2-.019,1.537-.05a8.213,8.213,0,0,0-.067,1.27v6.043a9.643,9.643,0,0,0,1.55-.1v1.133a11.134,11.134,0,0,0-1.667-.1H87.584a11.082,11.082,0,0,0-1.654.1v-1.133a9.2,9.2,0,0,0,1.52.1V719.1a8.217,8.217,0,0,0-.067-1.27c.384.031.785.05,1.484.05h2.171Zm.568,10.1a12.559,12.559,0,0,1-4.874,2.939,3.887,3.887,0,0,0-.768-.921,10.767,10.767,0,0,0,2.739-1.083,9.334,9.334,0,0,0,1.985-1.52Zm-.568-8.415H88.449v2.589h2.589Zm0,3.507H88.449v2.839h2.589Zm3.438-.919V718.8H92.007v2.589Zm0,3.758V722.3H92.007v2.839Zm.9,1.5a10.427,10.427,0,0,0,2.138,1.52,11.668,11.668,0,0,0,2.87,1.152,3.988,3.988,0,0,0-.685.952,12.56,12.56,0,0,1-2.77-1.272,13.828,13.828,0,0,1-2.352-1.751Zm2.773-5.258V718.8H95.445v2.589Zm0,3.758V722.3H95.445v2.839Z" transform="translate(77.51 76.65)" fill="#1a1818"/>
        </g>
        <g id="グループ_47" data-name="グループ 47" transform="translate(0 55)">
          <rect id="長方形_18" data-name="長方形 18" width="143.439" height="21.423" transform="translate(42.475 884.036)" fill="#a5c9b7"/>
          <path id="パス_441" data-name="パス 441" d="M46.776,744.008a12.966,12.966,0,0,1-.718,2.419,4.758,4.758,0,0,0-.885-.434,12.4,12.4,0,0,0,1-4.643,3.608,3.608,0,0,0-.017-.415l1.033.167c-.031.184-.031.234-.064.5-.036.434-.084.835-.2,1.5h1.15V741a6.413,6.413,0,0,0-.117-1.336h1.2a8.065,8.065,0,0,0-.1,1.336v2.1H49.4a7.555,7.555,0,0,0,1.4-.1v1.089a8.09,8.09,0,0,0-1.353-.083h-.384v3.171c.668-.318.935-.451,1.67-.835l.017.952-.067.05c.351.033.852.064,1.486.064h4.624v-1.851h-4.64a9.107,9.107,0,0,0-1.637.1v-1.1a10.5,10.5,0,0,0,1.637.1H54.42v-2.138H52.65a12.348,12.348,0,0,0-1.52.086v-1.069a9.072,9.072,0,0,0,1.52.1h1.77v-.668a7.471,7.471,0,0,0-.1-1.286h1.169a7.442,7.442,0,0,0-.084,1.286v.668h2.185a9.412,9.412,0,0,0,1.537-.1v1.069a12.578,12.578,0,0,0-1.537-.086H55.406v2.138h2.739a10.721,10.721,0,0,0,1.651-.1v1.1a10.937,10.937,0,0,0-1.6-.1h-.4v1.851h.415a9.636,9.636,0,0,0,1.57-.1v1.1a10.212,10.212,0,0,0-1.57-.1h-.415v4.54c0,.918-.387,1.186-1.687,1.186-.434,0-1-.033-1.6-.081a3.262,3.262,0,0,0-.251-1.088,10.815,10.815,0,0,0,1.854.217c.585,0,.685-.064.685-.432v-4.343H52.1a9.81,9.81,0,0,0-1.553.1V747.41c-.117.07-.117.07-.334.187-.3.164-.568.3-1.152.584V752.6a13.447,13.447,0,0,0,.1,1.687h-1.2a9.589,9.589,0,0,0,.117-1.687v-3.97c-.117.047-1.434.585-2,.818a2.423,2.423,0,0,0-.384.181l-.351-1.116a14.138,14.138,0,0,0,2.736-.918v-3.588Zm5.64,4.888A18.96,18.96,0,0,1,54.7,751.5l-.852.634a13.789,13.789,0,0,0-2.219-2.686Z" transform="translate(4.812 148.384)" fill="#1a1818"/>
          <path id="パス_442" data-name="パス 442" d="M60.483,741.111a5.935,5.935,0,0,0-.1-1.4h1.169a6.5,6.5,0,0,0-.1,1.42v.752h2.472v-.752a6.154,6.154,0,0,0-.1-1.42h1.183a6.469,6.469,0,0,0-.117,1.4v.768h2.238c.768,0,1.2-.019,1.537-.05a8.218,8.218,0,0,0-.067,1.27v6.043a9.688,9.688,0,0,0,1.553-.1v1.133a11.179,11.179,0,0,0-1.67-.1H57.029a11.085,11.085,0,0,0-1.654.1v-1.133a9.227,9.227,0,0,0,1.52.1V743.1a8.215,8.215,0,0,0-.067-1.27c.384.031.785.05,1.486.05h2.168Zm.568,10.1a12.542,12.542,0,0,1-4.874,2.94,3.817,3.817,0,0,0-.768-.921,10.762,10.762,0,0,0,2.739-1.083,9.193,9.193,0,0,0,1.985-1.52Zm-.568-8.415H57.9v2.589h2.586Zm0,3.508H57.9v2.839h2.586Zm3.441-.919V742.8H61.452v2.589Zm0,3.758V746.3H61.452v2.839Zm.9,1.5a10.331,10.331,0,0,0,2.135,1.52,11.748,11.748,0,0,0,2.87,1.152,3.977,3.977,0,0,0-.682.952,12.511,12.511,0,0,1-2.773-1.272,13.936,13.936,0,0,1-2.352-1.751Zm2.77-5.258V742.8H64.89v2.589Zm0,3.758V746.3H64.89v2.839Z" transform="translate(23.009 148.459)" fill="#1a1818"/>
          <path id="パス_443" data-name="パス 443" d="M68.983,741.338a7.448,7.448,0,0,0-.1-1.617h1.2a11,11,0,0,0-.1,1.617v1.069h1.534a8.726,8.726,0,0,0,1.47-.1v1.069a11.541,11.541,0,0,0-1.453-.064,15.4,15.4,0,0,1-1.133,5.055,32.237,32.237,0,0,1,2.285,3.357l-.818.768a23.583,23.583,0,0,0-1.951-3.137,13.042,13.042,0,0,1-3.541,4.29,2.8,2.8,0,0,0-.8-.788,11.239,11.239,0,0,0,3.705-4.357,26.864,26.864,0,0,0-2.906-3.287l.752-.635a37.232,37.232,0,0,1,2.572,2.906,14.6,14.6,0,0,0,.8-4.173H67.146a8.488,8.488,0,0,0-1.42.081V742.3a9.081,9.081,0,0,0,1.486.1h1.77Zm4.657,4.29a16.838,16.838,0,0,1,2.369,3.571l-.866.6a14.329,14.329,0,0,0-2.322-3.672Zm1-1.336a9.678,9.678,0,0,0-1.5.1v-1.1a9.38,9.38,0,0,0,1.52.081h2.5v-1.8a8.871,8.871,0,0,0-.117-1.734h1.236a12.434,12.434,0,0,0-.1,1.734v1.8h.4a9.8,9.8,0,0,0,1.567-.1v1.119a9.263,9.263,0,0,0-1.567-.1h-.4v8.265c0,1.069-.317,1.3-1.751,1.3-.721,0-1.139-.019-1.837-.069a3.1,3.1,0,0,0-.317-1.066,14.754,14.754,0,0,0,2.052.184c.718,0,.835-.053.835-.4v-8.212Z" transform="translate(41.21 148.482)" fill="#1a1818"/>
          <path id="パス_444" data-name="パス 444" d="M84.873,746.549a8.772,8.772,0,0,0,1.019,2.355,8.842,8.842,0,0,0,2.522-2l.849.718c-.264.2-.284.2-1,.782a20.565,20.565,0,0,1-1.851,1.239,8.453,8.453,0,0,0,4.006,3.134,3.432,3.432,0,0,0-.7.988,9.907,9.907,0,0,1-3.054-2.221,11.873,11.873,0,0,1-2.753-4.991h-.351a7.087,7.087,0,0,1-1.052.685,6.843,6.843,0,0,1,1.935,4.757c0,1.266-.351,2.021-1.066,2.271a4.36,4.36,0,0,1-1.436.164c-.351,0-.668-.017-1.069-.047a3.335,3.335,0,0,0-.267-1.052,8.7,8.7,0,0,0,1.537.134c.615,0,.849-.07,1.033-.32a2.182,2.182,0,0,0,.27-1.317,4.8,4.8,0,0,0-.067-.785,22.153,22.153,0,0,1-6.661,2.89,4.3,4.3,0,0,0-.585-.888,20.454,20.454,0,0,0,7.062-2.853,6.969,6.969,0,0,0-.384-.985,20.167,20.167,0,0,1-5.843,2.322,2.945,2.945,0,0,0-.534-.869,17.19,17.19,0,0,0,5.977-2.185,7.7,7.7,0,0,0-.668-.835,17.736,17.736,0,0,1-4.908,1.584,2.987,2.987,0,0,0-.534-.852,16.624,16.624,0,0,0,5.81-1.818H79.431c-.668,0-1.233.016-1.72.05a9.863,9.863,0,0,0,.05-1.319v-1.45a15.89,15.89,0,0,1-1.383.849,3.307,3.307,0,0,0-.585-.785,12.416,12.416,0,0,0,3.825-2.77,5.831,5.831,0,0,0,1.15-1.553l1.1.351-.334.384c-.1.117-.167.2-.468.534h2.956a8.609,8.609,0,0,0,1.467-.084l.551.568c-.267.284-.267.284-.6.665a14.464,14.464,0,0,1-1.152,1.138h2.973a14.431,14.431,0,0,0,1.768-.07c-.031.367-.05.718-.05,1.322v.9c0,.618.019.985.05,1.319-.4-.033-1.033-.05-1.718-.05Zm-1.784-3.421a8.8,8.8,0,0,0,1.467-1.489H80.35a14.849,14.849,0,0,1-1.654,1.489Zm-.351,2.586v-1.737H78.733v1.737Zm5.275,0v-1.737H83.688v1.737Z" transform="translate(59.429 148.213)" fill="#1a1818"/>
          <path id="パス_445" data-name="パス 445" d="M89.359,745.453a13.8,13.8,0,0,1,2.185,1.951,19.7,19.7,0,0,0,1.319-4.421H89.841a16.05,16.05,0,0,1-3.137,4.958,2.544,2.544,0,0,0-.7-.835,14.186,14.186,0,0,0,3.29-5.442,11.213,11.213,0,0,0,.5-2l1.152.234a8.43,8.43,0,0,0-.317.9c-.117.367-.234.682-.434,1.267H92.7c.585,0,.885-.014,1.267-.047-.031.2-.047.267-.081.451a9.674,9.674,0,0,0,1.968,3.5v-4.507a10.779,10.779,0,0,0-.117-1.67H96.97a10.44,10.44,0,0,0-.1,1.67v5.459a13.531,13.531,0,0,0,3.956,2.522,5.442,5.442,0,0,0-.668,1.016,13.3,13.3,0,0,1-3.288-2.255v4.042a13.18,13.18,0,0,0,.1,1.954H95.734a13.242,13.242,0,0,0,.117-1.954v-4.96a10.171,10.171,0,0,1-2.219-3.371,15.018,15.018,0,0,1-6.394,10.233,2.786,2.786,0,0,0-.785-.866,13.787,13.787,0,0,0,4.64-4.961,12.193,12.193,0,0,0-2.319-2.118Z" transform="translate(77.638 148.373)" fill="#1a1818"/>
        </g>
        <g id="グループ_46" data-name="グループ 46" transform="translate(0 24)">
          <rect id="長方形_17" data-name="長方形 17" width="143.439" height="21.423" transform="translate(42.475 853.382)" fill="#a5c9b7"/>
          <path id="パス_437" data-name="パス 437" d="M46.776,732.008a12.966,12.966,0,0,1-.718,2.419,4.754,4.754,0,0,0-.885-.434,12.4,12.4,0,0,0,1-4.643,3.608,3.608,0,0,0-.017-.415l1.033.167c-.031.184-.031.234-.064.5-.036.434-.084.835-.2,1.5h1.15V729a6.415,6.415,0,0,0-.117-1.336h1.2a8.067,8.067,0,0,0-.1,1.336v2.1H49.4a7.559,7.559,0,0,0,1.4-.1v1.088a8.117,8.117,0,0,0-1.353-.083h-.384v3.171c.668-.317.935-.451,1.67-.835l.017.952-.067.05c.351.033.852.064,1.486.064h4.624v-1.851h-4.64a9.114,9.114,0,0,0-1.637.1v-1.1a10.5,10.5,0,0,0,1.637.1H54.42v-2.138H52.65a12.351,12.351,0,0,0-1.52.086v-1.069a9.075,9.075,0,0,0,1.52.1h1.77v-.668a7.469,7.469,0,0,0-.1-1.286h1.169a7.439,7.439,0,0,0-.084,1.286v.668h2.185a9.416,9.416,0,0,0,1.537-.1v1.069a12.582,12.582,0,0,0-1.537-.086H55.406v2.138h2.739a10.721,10.721,0,0,0,1.651-.1v1.1a10.956,10.956,0,0,0-1.6-.1h-.4v1.851h.415a9.636,9.636,0,0,0,1.57-.1v1.1a10.221,10.221,0,0,0-1.57-.1h-.415v4.54c0,.919-.387,1.186-1.687,1.186-.434,0-1-.033-1.6-.081a3.264,3.264,0,0,0-.251-1.089,10.808,10.808,0,0,0,1.854.217c.585,0,.685-.064.685-.432v-4.343H52.1a9.819,9.819,0,0,0-1.553.1v-1c-.117.07-.117.07-.334.187-.3.164-.568.3-1.152.585v4.42a13.445,13.445,0,0,0,.1,1.687h-1.2a9.587,9.587,0,0,0,.117-1.687v-3.969c-.117.047-1.434.584-2,.818a2.417,2.417,0,0,0-.384.181l-.351-1.116a14.156,14.156,0,0,0,2.736-.918v-3.588Zm5.64,4.888A18.968,18.968,0,0,1,54.7,739.5l-.852.635a13.78,13.78,0,0,0-2.219-2.686Z" transform="translate(4.812 129.98)" fill="#1a1818"/>
          <path id="パス_438" data-name="パス 438" d="M63.876,729.111a5.936,5.936,0,0,0-.1-1.4h1.169a6.508,6.508,0,0,0-.1,1.42v.751h2.472v-.751a6.154,6.154,0,0,0-.1-1.42H68.4a6.47,6.47,0,0,0-.117,1.4v.768h2.238c.768,0,1.2-.019,1.537-.05a8.218,8.218,0,0,0-.067,1.27v6.043a9.658,9.658,0,0,0,1.553-.1v1.133a11.2,11.2,0,0,0-1.67-.1H60.422a11.038,11.038,0,0,0-1.651.1v-1.133a9.136,9.136,0,0,0,1.517.1V731.1a8.212,8.212,0,0,0-.067-1.27c.384.031.785.05,1.486.05h2.168Zm.571,10.1a12.571,12.571,0,0,1-4.877,2.939,3.82,3.82,0,0,0-.768-.921,10.76,10.76,0,0,0,2.739-1.083,9.2,9.2,0,0,0,1.985-1.52Zm-.571-8.415H61.29v2.589h2.586Zm0,3.507H61.29v2.839h2.586Zm3.441-.919V730.8H64.845v2.589Zm0,3.758V734.3H64.845v2.839Zm.9,1.5a10.34,10.34,0,0,0,2.135,1.52,11.751,11.751,0,0,0,2.87,1.152,3.977,3.977,0,0,0-.682.952,12.525,12.525,0,0,1-2.773-1.272,13.943,13.943,0,0,1-2.352-1.751Zm2.77-5.258V730.8H68.283v2.589Zm0,3.758V734.3H68.283v2.839Z" transform="translate(29.067 130.055)" fill="#1a1818"/>
          <path id="パス_439" data-name="パス 439" d="M75.773,729.338a7.448,7.448,0,0,0-.1-1.617h1.2a10.993,10.993,0,0,0-.1,1.617v1.069h1.534a8.722,8.722,0,0,0,1.47-.1v1.069a11.538,11.538,0,0,0-1.453-.064,15.4,15.4,0,0,1-1.133,5.055,32.265,32.265,0,0,1,2.285,3.357l-.818.768a23.588,23.588,0,0,0-1.951-3.137,13.042,13.042,0,0,1-3.541,4.289,2.8,2.8,0,0,0-.8-.788,11.24,11.24,0,0,0,3.705-4.357,26.861,26.861,0,0,0-2.906-3.288l.752-.635a37.28,37.28,0,0,1,2.572,2.906,14.6,14.6,0,0,0,.8-4.173H73.936a8.5,8.5,0,0,0-1.42.081V730.3a9.1,9.1,0,0,0,1.486.1h1.77Zm4.657,4.29A16.829,16.829,0,0,1,82.8,737.2l-.866.6a14.329,14.329,0,0,0-2.322-3.672Zm1-1.336a9.685,9.685,0,0,0-1.5.1v-1.1a9.355,9.355,0,0,0,1.52.081h2.5v-1.8a8.869,8.869,0,0,0-.117-1.734h1.236a12.434,12.434,0,0,0-.1,1.734v1.8h.4a9.874,9.874,0,0,0,1.57-.1v1.119a9.317,9.317,0,0,0-1.57-.1h-.4v8.265c0,1.069-.317,1.3-1.751,1.3-.721,0-1.139-.019-1.837-.069a3.038,3.038,0,0,0-.317-1.066,14.744,14.744,0,0,0,2.052.184c.718,0,.835-.053.835-.4v-8.212Z" transform="translate(53.321 130.078)" fill="#1a1818"/>
          <path id="パス_440" data-name="パス 440" d="M95.058,734.549a8.77,8.77,0,0,0,1.019,2.355,8.841,8.841,0,0,0,2.522-2l.849.718c-.264.2-.284.2-1,.782a21.053,21.053,0,0,1-1.854,1.239,8.452,8.452,0,0,0,4.006,3.134,3.435,3.435,0,0,0-.7.988,9.911,9.911,0,0,1-3.054-2.221,11.874,11.874,0,0,1-2.753-4.991h-.351a7.062,7.062,0,0,1-1.052.685,6.844,6.844,0,0,1,1.935,4.757c0,1.267-.351,2.021-1.066,2.272a4.363,4.363,0,0,1-1.436.164c-.351,0-.668-.017-1.069-.047a3.335,3.335,0,0,0-.267-1.052,8.714,8.714,0,0,0,1.537.134c.618,0,.852-.07,1.033-.32a2.181,2.181,0,0,0,.27-1.317,4.8,4.8,0,0,0-.067-.785,22.152,22.152,0,0,1-6.661,2.89,4.306,4.306,0,0,0-.585-.888,20.454,20.454,0,0,0,7.062-2.853,6.648,6.648,0,0,0-.384-.985,20.136,20.136,0,0,1-5.843,2.322,2.945,2.945,0,0,0-.534-.868,17.193,17.193,0,0,0,5.977-2.185,7.683,7.683,0,0,0-.668-.835,17.746,17.746,0,0,1-4.908,1.584,2.986,2.986,0,0,0-.534-.852,16.614,16.614,0,0,0,5.81-1.818H89.616c-.668,0-1.233.017-1.72.05a9.687,9.687,0,0,0,.053-1.32v-1.45c-.468.317-.735.482-1.386.849a3.3,3.3,0,0,0-.585-.785,12.415,12.415,0,0,0,3.825-2.77,5.829,5.829,0,0,0,1.15-1.553l1.1.351-.334.384c-.1.117-.167.2-.468.535h2.956a8.619,8.619,0,0,0,1.467-.084l.551.568c-.267.284-.267.284-.6.665a13.991,13.991,0,0,1-1.152,1.138h2.973a14.39,14.39,0,0,0,1.768-.07c-.031.368-.05.718-.05,1.322v.9c0,.618.019.985.05,1.32-.4-.033-1.033-.05-1.718-.05Zm-1.784-3.421a8.788,8.788,0,0,0,1.467-1.489H90.535a14.582,14.582,0,0,1-1.654,1.489Zm-.351,2.586v-1.737H88.918v1.737Zm5.275,0v-1.737H93.873v1.737Z" transform="translate(77.596 129.808)" fill="#1a1818"/>
        </g>
      </g>
      <g id="グループ_52" data-name="グループ 52" transform="translate(0 7)">
        <text id="RECEPTIONIST未導入企業の方_弊社から被紹介者様に連絡をさせて頂きます_その旨を必ず事前にお伝えください_" data-name="RECEPTIONIST未導入企業の方。 ※弊社から被紹介者様に連絡をさせて頂きます。
その旨を必ず事前にお伝えください。" transform="translate(418 1249)" fill="#1a1818" font-size="14" font-family="YuGo-Medium, YuGothic" font-weight="500"><tspan x="0" y="12">RECEPTIONIST未導入企業の方。 ※弊社から被紹介者様に連絡をさせて頂きます。</tspan><tspan x="0" y="34.4">その旨を必ず事前にお伝えください。</tspan></text>
        <rect id="長方形_15" data-name="長方形 15" width="143.439" height="21.423" transform="translate(255 1245.309)" fill="#a5c9b7"/>
        <path id="パス_427" data-name="パス 427" d="M48.491,716.64a14.164,14.164,0,0,0,.084,1.62h-1.1a14.522,14.522,0,0,0,.081-1.667V711.7a21.09,21.09,0,0,1-1.918,1.951,3.82,3.82,0,0,0-.5-.918,12.627,12.627,0,0,0,4.156-5.423H46.874a7.125,7.125,0,0,0-1.236.081v-1.049a7.25,7.25,0,0,0,1.267.081h.635v-1.45c0-.568-.033-1-.064-1.319h1.116a5.979,5.979,0,0,0-.084,1.286v1.483h.451a8.9,8.9,0,0,0,1.119-.047l.451.515a5.212,5.212,0,0,0-.234.484,16.722,16.722,0,0,1-1.754,3.023,6.471,6.471,0,0,0,.651.852,7.127,7.127,0,0,0,1.036-1.7l.7.5c-.1.15-.167.267-.217.334a7.168,7.168,0,0,1-1,1.383,8.006,8.006,0,0,0,1.119.9,3.426,3.426,0,0,0-.518.785,9.131,9.131,0,0,1-1.821-1.907Zm3.872-5.656c-.248,3.288-.949,5.406-2.386,7.229a2.81,2.81,0,0,0-.835-.6,8.542,8.542,0,0,0,1.77-3.457,24.881,24.881,0,0,0,.6-6.141,14.571,14.571,0,0,0-.1-1.921,13.008,13.008,0,0,0,1.584.067h1.9v-.852a7.871,7.871,0,0,0-.1-1.45h1.119a7.745,7.745,0,0,0-.084,1.45v.852h1.787a7.591,7.591,0,0,0,1.584-.086l.585.484c-.033.086-.033.086-.434,1.136a11.152,11.152,0,0,1-.785,1.553,3,3,0,0,0-.885-.4,7.1,7.1,0,0,0,.9-1.8H55.837v3.087h1.35a6.955,6.955,0,0,0,1.42-.084l.484.548a6.419,6.419,0,0,0-.3.688,13.5,13.5,0,0,1-2.255,3.538,11.2,11.2,0,0,0,3.591,2.255,3.888,3.888,0,0,0-.551,1,13.245,13.245,0,0,1-3.705-2.569,13.554,13.554,0,0,1-4.123,2.636,3.036,3.036,0,0,0-.651-.819,12.208,12.208,0,0,0,4.139-2.5,9.981,9.981,0,0,1-2.155-3.839Zm2.539-.852v-3.087H52.466v1.267c0,.584-.017,1.052-.053,1.821Zm-.885.852a8.625,8.625,0,0,0,1.871,3.19,9.6,9.6,0,0,0,1.951-3.19Z" transform="translate(217.273 544.808)" fill="#1a1818"/>
        <path id="パス_428" data-name="パス 428" d="M52.947,712.718a15.568,15.568,0,0,1-.935,4.66l-.9-.4a11.2,11.2,0,0,0,.935-4.454ZM51.16,710.7c.217.014.4.034.718.034.15,0,.2,0,.585-.019.568-.716.635-.8,1-1.334a19.563,19.563,0,0,0-2.322-2.669l.6-.735c.317.348.451.484.668.718a11.028,11.028,0,0,0,1.486-3.04l1.019.451a7.9,7.9,0,0,0-.7,1.236c-.351.635-.635,1.119-1.219,2.018.5.585.6.718,1.016,1.239a15.024,15.024,0,0,0,1.67-2.973l.935.551c-.084.1-.434.651-1.069,1.651a33.95,33.95,0,0,1-2.052,2.856c1.25-.086,1.77-.134,2.6-.251a9.691,9.691,0,0,0-.715-1.42l.732-.351a22.039,22.039,0,0,1,1.386,3l-.785.434c-.134-.434-.184-.568-.3-.9l-.668.1c-.234.036-.418.053-.885.086v5.308a10.056,10.056,0,0,0,.1,1.6H53.8a10.777,10.777,0,0,0,.1-1.6v-5.208c-.551.047-.818.064-1.186.1a7.485,7.485,0,0,0-1.4.134Zm5.192,1.737a19.471,19.471,0,0,1,.785,3.822l-.9.248a16.987,16.987,0,0,0-.685-3.822Zm2.455-7.213a10.3,10.3,0,0,0-1.637.1v-1.086a11.355,11.355,0,0,0,1.654.1H63.8a14.254,14.254,0,0,0,1.439-.05c-.019.217-.036.387-.07,1.219a15.768,15.768,0,0,1-.582,4.139c-.284.534-.585.651-1.787.651-.418,0-.6,0-1.3-.05a2.274,2.274,0,0,0-.251-1.1,8.431,8.431,0,0,0,1.754.217c.468,0,.651-.117.749-.468a16.494,16.494,0,0,0,.42-3.672H61.159a6.25,6.25,0,0,1-3.371,5.592,2.243,2.243,0,0,0-.7-.835,5.224,5.224,0,0,0,2.386-2.138,5.681,5.681,0,0,0,.668-2.619Zm.15,12.969H57.888a10.663,10.663,0,0,0,.084-1.57v-3.635A12.868,12.868,0,0,0,57.9,711.5a8.855,8.855,0,0,0,1.286.067h4.473a8.554,8.554,0,0,0,1.267-.067,11.8,11.8,0,0,0-.067,1.5v3.672a10.712,10.712,0,0,0,.086,1.6H63.862v-1.035h-4.9Zm0-1.868h4.9v-3.841h-4.9Z" transform="translate(227.927 544.808)" fill="#1a1818"/>
        <path id="パス_429" data-name="パス 429" d="M64.86,703.756a11.857,11.857,0,0,0,2.9,3.374A17.513,17.513,0,0,0,71.82,709.7a3.738,3.738,0,0,0-.665,1.036,21.339,21.339,0,0,1-4.259-2.956,13,13,0,0,1-2.619-3.1,14.646,14.646,0,0,1-2.352,2.906,17.939,17.939,0,0,1-4.259,3.12,3.624,3.624,0,0,0-.7-.969,15.415,15.415,0,0,0,6.678-5.977Zm-2.505,5.292a12.386,12.386,0,0,0-.1,1.5c-.05,3.972-1.083,5.89-4.089,7.513a2.973,2.973,0,0,0-.852-.921,6.2,6.2,0,0,0,2.722-1.968,7.446,7.446,0,0,0,1.15-4.59,8.824,8.824,0,0,0-.117-1.536Zm5.027,0a12.353,12.353,0,0,0-.1,1.653v5.476a11.351,11.351,0,0,0,.117,1.684H66.113a11.42,11.42,0,0,0,.117-1.684v-5.492a10.344,10.344,0,0,0-.117-1.637Z" transform="translate(238.367 544.99)" fill="#1a1818"/>
        <path id="パス_430" data-name="パス 430" d="M65.036,709.559a13.6,13.6,0,0,0-1.784.1V708.54a10.886,10.886,0,0,0,1.8.1h4.039v-2H66.505a11.321,11.321,0,0,0-1.734.086v-1.069a10.689,10.689,0,0,0,1.751.1h2.569V705.2a8.1,8.1,0,0,0-.1-1.536H70.21a8.654,8.654,0,0,0-.1,1.536v.551H71.6a10.893,10.893,0,0,0,1.754-.1v1.069a10.264,10.264,0,0,0-1.7-.086H70.113v2h1.434a15.439,15.439,0,0,0,4.039-4.256l.952.634c-.234.251-.267.284-.668.768a23.078,23.078,0,0,1-2.937,2.853h2.619a10.451,10.451,0,0,0,1.7-.1v1.119a13.25,13.25,0,0,0-1.754-.1H71.73c-.952.668-1.587,1.086-2.589,1.687.835-.033,1.186-.033,1.687-.033h2.739a17.3,17.3,0,0,0,1.734-.067,14.656,14.656,0,0,0-.067,1.751v3.6a8.432,8.432,0,0,0,.1,1.653H74.219v-.749H67.591v.749H66.472a11.208,11.208,0,0,0,.1-1.653v-2.72c0-.367.017-.768.033-1.166a32.03,32.03,0,0,1-3.171,1.434,3.65,3.65,0,0,0-.618-.919,30.329,30.329,0,0,0,7.41-3.571Zm2.555,4.223h6.628v-1.718H67.591Zm0,2.756h6.628V714.65H67.591Z" transform="translate(248.809 544.83)" fill="#1a1818"/>
        <path id="パス_431" data-name="パス 431" d="M71.213,705.325a8.774,8.774,0,0,0-.086-1.654h1.139a9.821,9.821,0,0,0-.086,1.637v1.567h.635a5.809,5.809,0,0,0,1.019-.064v.983a9.417,9.417,0,0,0-1.033-.047h-.571a8.791,8.791,0,0,0,1.5,2.62,5.382,5.382,0,0,0-.551.852,9.8,9.8,0,0,1-1.052-2.238c.033,1.22.05,2.038.05,2.606v4.858a13.325,13.325,0,0,0,.1,1.854H71.113a10.473,10.473,0,0,0,.117-1.854V711.9c0-.637,0-.637.05-1.4,0-.084.014-.384.05-.785,0-.134.017-.334.017-.585a11.614,11.614,0,0,1-1.036,3.071,13.585,13.585,0,0,1-1.036,1.823,4.039,4.039,0,0,0-.618-1,9.157,9.157,0,0,0,1.5-2.519,16.183,16.183,0,0,0,.9-2.753h-.832a7.033,7.033,0,0,0-1.119.064v-1a6.367,6.367,0,0,0,1.119.064h.985ZM75.4,706.8a8.173,8.173,0,0,0-1.386.081V705.86a8.222,8.222,0,0,0,1.4.083h.852a8.8,8.8,0,0,0-1.035-1.768l.835-.367a11.007,11.007,0,0,1,1.166,2.135h1.837a9.509,9.509,0,0,0,1.1-2.171l.952.351c-.284.521-.8,1.47-1.036,1.821h1.4a9.73,9.73,0,0,0,1.484-.1v1.033a12.756,12.756,0,0,0-1.47-.081H78.59v1.367h2.422a11.468,11.468,0,0,0,1.45-.081v1.033a9.049,9.049,0,0,0-1.434-.081H78.59v1.45h3.14a9.535,9.535,0,0,0,1.467-.1v1.052a9.5,9.5,0,0,0-1.467-.1H78.69a8.946,8.946,0,0,0,1.3,2.4,8.272,8.272,0,0,0,1.737-2.068l.832.585a13.554,13.554,0,0,1-2,2.168,8.658,8.658,0,0,0,3.054,2.238,4.219,4.219,0,0,0-.665.935,10.9,10.9,0,0,1-2.372-1.837,9.821,9.821,0,0,1-2.1-3.271,14.346,14.346,0,0,1,.117,1.584v3.02c0,.871-.3,1.088-1.5,1.088a12.251,12.251,0,0,1-1.319-.069,2.682,2.682,0,0,0-.284-1,12.163,12.163,0,0,0,1.587.134c.465,0,.565-.053.565-.351v-2.272c-.184.134-.184.134-.5.367a22.468,22.468,0,0,1-2.923,1.7c-.217.117-.534.317-.718.434l-.468-1.052a16.352,16.352,0,0,0,4.607-2.438v-2.3h-2.5a7.865,7.865,0,0,0-1.386.083v-1a10.606,10.606,0,0,0,1.4.067h2.486v-1.45H75.854a10.7,10.7,0,0,0-1.4.064v-1.016a7.7,7.7,0,0,0,1.367.081h1.821V706.8Zm-.6,4.908a14.593,14.593,0,0,1,1.537,1.935l-.735.534a10.177,10.177,0,0,0-1.52-1.971Z" transform="translate(259.227 544.84)" fill="#1a1818"/>
        <path id="パス_432" data-name="パス 432" d="M80.543,711.467c-.969,2.2-2.071,3.307-3.324,3.307a2.283,2.283,0,0,1-1.885-1.136,5.131,5.131,0,0,1-.668-2.7,6.415,6.415,0,0,1,2.689-5.294,7.254,7.254,0,0,1,4.29-1.286c3.638,0,6.043,2.2,6.043,5.545a6,6,0,0,1-3.073,5.275,7,7,0,0,1-2.085.952c-.1,0-.167-.053-.284-.2a2.275,2.275,0,0,0-.735-.635,8.963,8.963,0,0,0,2.619-1.1,5.1,5.1,0,0,0,2.405-4.34,4.308,4.308,0,0,0-2.555-4.075,4.661,4.661,0,0,0-1.887-.431A21.755,21.755,0,0,1,80.543,711.467Zm-1.871-5.442A5.44,5.44,0,0,0,75.753,711c0,1.5.618,2.572,1.5,2.572.7,0,1.45-.835,2.168-2.436a19.931,19.931,0,0,0,1.52-5.729A6.28,6.28,0,0,0,78.673,706.025Z" transform="translate(269.945 546.059)" fill="#1a1818"/>
        <path id="パス_433" data-name="パス 433" d="M91.387,705.591a4.909,4.909,0,0,0-.431.434,14.194,14.194,0,0,1-2.789,2.388,19.748,19.748,0,0,0,6.361,1.935,2.824,2.824,0,0,0-.5.969,23.292,23.292,0,0,1-4.874-1.386,12.576,12.576,0,0,1-1.871-.969,17.171,17.171,0,0,1-2,1,21.332,21.332,0,0,1-4.657,1.453,2.661,2.661,0,0,0-.468-.919,18.052,18.052,0,0,0,6.294-2.071,13.484,13.484,0,0,1-2.121-1.885,11.939,11.939,0,0,1-3.121,2.052,2.307,2.307,0,0,0-.635-.752,11.455,11.455,0,0,0,2.987-1.854A9.653,9.653,0,0,0,85.6,703.57l1.069.334c-.117.15-.437.518-.935,1.119h3.555a9.04,9.04,0,0,0,1.487-.081Zm.935,6.611a9.522,9.522,0,0,0,1.787-.1v1.083a14.006,14.006,0,0,0-1.821-.1H88.25a9.112,9.112,0,0,0,1.72,1.536,15.77,15.77,0,0,0,4.523,2.3,4.531,4.531,0,0,0-.635,1.016,17.673,17.673,0,0,1-4.156-2.385,12.877,12.877,0,0,1-2.138-2.035c.033.7.05,1.036.05,1.4v1.968a6.716,6.716,0,0,0,.1,1.52H86.549a7.671,7.671,0,0,0,.1-1.52v-1.951c0-.367.019-.869.05-1.4a15.724,15.724,0,0,1-2.335,2.238,18.837,18.837,0,0,1-3.591,2.068,2.85,2.85,0,0,0-.615-.952A14.142,14.142,0,0,0,86,713.085H82.209a13.7,13.7,0,0,0-1.8.1V712.1a8.34,8.34,0,0,0,1.687.1h4.554v-.785a6.6,6.6,0,0,0-.067-1.086h1.1a6.6,6.6,0,0,0-.067,1.086v.785Zm-7.393-6.244a9.776,9.776,0,0,0,2.369,1.971,13.2,13.2,0,0,0,2.505-2.088H85.029Z" transform="translate(279.734 544.658)" fill="#1a1818"/>
        <path id="パス_434" data-name="パス 434" d="M88.128,711.114c0-.685.014-1.236.05-1.937a11.525,11.525,0,0,1-1.687,2.489,3,3,0,0,0-.651-.919,15.454,15.454,0,0,0,3.107-5.058,10.793,10.793,0,0,0,.568-2.071l1.116.334c-.084.234-.134.367-.251.718a23.325,23.325,0,0,1-1.216,3v8.749a16.374,16.374,0,0,0,.081,1.887H88.028a15.9,15.9,0,0,0,.1-1.921Zm6.926-5.542a9.587,9.587,0,0,0-.117-1.62H96.19a9.808,9.808,0,0,0-.1,1.62v1.8h2.319a10.17,10.17,0,0,0,1.653-.1v1.133a14.44,14.44,0,0,0-1.634-.1H96.09V711.8H99.1a9.668,9.668,0,0,0,1.684-.1v1.152a12.462,12.462,0,0,0-1.67-.1H96.09v3.839a10.16,10.16,0,0,0,.1,1.67H94.937a10.031,10.031,0,0,0,.117-1.67v-3.839h-3.2a10.716,10.716,0,0,0-1.67.1V711.7a10.7,10.7,0,0,0,1.67.1h3.2v-3.488H92.368a14.3,14.3,0,0,1-1.453,2.5,3.219,3.219,0,0,0-.9-.618,12.52,12.52,0,0,0,1.954-3.538,8.539,8.539,0,0,0,.534-2.121l1.119.32c-.1.264-.15.415-.3.866-.234.752-.334,1.052-.568,1.654h2.3Z" transform="translate(289.874 544.744)" fill="#1a1818"/>
      </g>
    </g>
  </g>
</svg>
