<svg xmlns="http://www.w3.org/2000/svg" width="765" height="38.487" viewBox="0 0 765 38.487">
  <g id="h2" transform="translate(-114.046 -552.029)">
    <g id="グループ_42" data-name="グループ 42" transform="translate(152.778 556.482)">
      <path id="パス_388" data-name="パス 388" d="M138.138,575.379a24.494,24.494,0,0,0,.137,3.074h-2.932a23.724,23.724,0,0,0,.164-3.048v-6.811c0-1.245,0-1.643.055-3.021a12.568,12.568,0,0,1-1.726,2.57,11.422,11.422,0,0,0-1.151-2.968,21.549,21.549,0,0,0,4.74-10.123l2.713.954c-.11.318-.356,1.032-.411,1.3a26.007,26.007,0,0,1-1.589,4.161Zm10.686-12.8c-.053.344-.053.451-.135,1.007-.824,6.862-3.1,11.157-8,15.026a10.829,10.829,0,0,0-2-2.147,15.836,15.836,0,0,0,5.425-5.91,26.316,26.316,0,0,0-2.576-2.544,16.5,16.5,0,0,1-1.671,2.253,11.244,11.244,0,0,0-1.562-2.491,15.627,15.627,0,0,0,3.863-8.878,12.352,12.352,0,0,0-1.863.1v-2.675a15.9,15.9,0,0,0,2.493.13h3.811a16.169,16.169,0,0,0,2.574-.13v2.65a20.513,20.513,0,0,0-2.053-.08h-2.384a25.977,25.977,0,0,1-.468,2.648h1.671a16.307,16.307,0,0,0,1.948-.08Zm-5.288,1.352a15.594,15.594,0,0,1-.767,1.853c1.4,1.248,1.646,1.486,2.466,2.307a18.191,18.191,0,0,0,.934-4.161Zm13.346,11.687c0,2.147-.74,2.623-4.085,2.623-.712,0-1.26,0-2.327-.026a8.539,8.539,0,0,0-.742-2.65,30.216,30.216,0,0,0,3.041.212c1.343,0,1.507-.08,1.507-.663V558.151a18.185,18.185,0,0,0-.135-2.623h2.877a16.4,16.4,0,0,0-.137,2.623Zm-7.124-3.233a16.209,16.209,0,0,0,.107-2.173V559.134a16.519,16.519,0,0,0-.107-2.146h2.822a14.485,14.485,0,0,0-.11,2.146v11.077a14.439,14.439,0,0,0,.11,2.173Z" transform="translate(-132.685 -553.86)" fill="#1a1818"/>
      <path id="パス_389" data-name="パス 389" d="M157.1,568.885a5.356,5.356,0,0,1,1.562-.265c1.891,0,2.768,1.087,3.124,3.816.192,1.564.274,1.855.658,2.173.329.318.849.424,1.808.424a13.787,13.787,0,0,0,4.165-.689.55.55,0,0,1,.192-.027c.164,0,.247.053.358.239a9.535,9.535,0,0,1,.409,2.6c0,.239-.055.344-.3.4a31.81,31.81,0,0,1-4.934.4c-2.382,0-3.642-.424-4.384-1.51a6.58,6.58,0,0,1-.847-3.154c-.192-2.041-.521-2.544-1.619-2.544-.984,0-1.754.477-3.368,2.041a27.826,27.826,0,0,0-3.811,4.479c-.162.265-.356.424-.518.424-.194,0-.386-.159-1.235-1.033-.82-.875-1.121-1.219-1.121-1.378,0-.186.053-.239.548-.663.656-.53.656-.53,10.851-11.026-4.414.769-7.206,1.327-7.864,1.566a1.553,1.553,0,0,1-.548.13c-.247,0-.3-.079-.468-.607a12.227,12.227,0,0,1-.521-2.624c.578.026.767.026.959.026,1.208,0,4.578-.318,7.62-.742,2.3-.293,2.658-.373,3.261-.662a1.167,1.167,0,0,1,.436-.135c.687,0,2.249,1.725,2.249,2.493,0,.318-.11.451-.466.634a6.5,6.5,0,0,0-1.48.93c-.274.212-1.1.952-1.48,1.3Zm-3.261-13.25c.11-.318.192-.453.329-.424a1.948,1.948,0,0,1,.274.051,23.621,23.621,0,0,0,3.343.823,25.415,25.415,0,0,0,4.877.477c.329.027.356.106.356.74a6.271,6.271,0,0,1-.247,1.99.37.37,0,0,1-.329.239c-.137,0-3.1-.318-3.535-.371a28.958,28.958,0,0,1-5.234-1.219c-.249-.106-.331-.186-.331-.373A9.68,9.68,0,0,1,153.836,555.635Z" transform="translate(-116.571 -553.7)" fill="#1a1818"/>
      <path id="パス_390" data-name="パス 390" d="M165.71,571.982a.43.43,0,0,1,.107.292c0,.159,0,.159-.466,1.378a18.337,18.337,0,0,0-1.041,3.977c-.027.343-.137.475-.493.555a8.34,8.34,0,0,1-1.836.159c-.274,0-.411-.053-.493-.212a19.63,19.63,0,0,1-.9-3.816,25.635,25.635,0,0,1-.274-3.9,56.851,56.851,0,0,1,1.343-11.13,18.75,18.75,0,0,0,.3-2.065,8.774,8.774,0,0,1,2.932.793c.411.214.575.373.575.638a.9.9,0,0,1-.19.475c-1.126,1.855-2.167,7.581-2.167,11.821,0,.636.027,1.643.11,2.915.658-1.643.959-2.385,1.562-3.657A4.3,4.3,0,0,0,165.71,571.982Zm4.6-6.97c-1.315,0-1.589-.053-1.671-.344a8.047,8.047,0,0,1-.164-1.7c0-.212,0-.424.027-.9.74.053,1.178.079,2.082.079,1.48,0,2.413-.026,3.836-.106a20.324,20.324,0,0,0-.329-5.062,14.809,14.809,0,0,1,3.233.344c.413.1.578.239.578.5a.973.973,0,0,1-.112.4,10.53,10.53,0,0,0-.466,3.5c1.016-.135,1.893-.291,3.535-.663a.618.618,0,0,1,.274-.053c.164,0,.247.077.3.265a13.167,13.167,0,0,1,.139,1.8c0,.634-.03.769-.3.875a20.656,20.656,0,0,1-3.971.663c0,1.828.164,4.849.356,6.572a21.482,21.482,0,0,1,4.11,2.146c.765.557.93.716.93.928a5.9,5.9,0,0,1-1.069,1.935c-.329.451-.493.583-.685.583s-.192,0-.822-.583a15.869,15.869,0,0,0-2.439-1.8v.212c0,2.359-2,3.871-5.04,3.871-3.1,0-5.126-1.592-5.126-3.977s2.082-4.161,4.85-4.161a14.125,14.125,0,0,1,2.274.133c-.11-2.067-.11-2.067-.192-5.592C173.271,564.96,171.409,565.013,170.311,565.013Zm2.249,7.791c-1.372,0-2.276.609-2.276,1.537,0,.848.849,1.378,2.165,1.378,1.452,0,2.222-.636,2.222-1.828,0-.4-.03-.663-.03-.689A5.689,5.689,0,0,0,172.56,572.8Zm7.314-13.756a11.136,11.136,0,0,0-1.48-2.305.359.359,0,0,1-.082-.184c0-.212.906-.824,1.233-.824.164,0,.356.188.906.848a9.306,9.306,0,0,1,1.45,2.359c0,.161-.082.265-.491.505a2.18,2.18,0,0,1-.934.448C180.287,559.9,180.287,559.9,179.874,559.048Zm1.48-4.132a1.976,1.976,0,0,1,.795-.318c.192,0,.331.1.712.583a8.543,8.543,0,0,1,1.562,2.489c0,.161-.107.294-.546.53a2.533,2.533,0,0,1-.852.4c-.108,0-.19-.082-.272-.265a13.278,13.278,0,0,0-1.728-2.785.313.313,0,0,1-.11-.21C180.915,555.232,181.025,555.1,181.354,554.916Z" transform="translate(-102.083 -554.333)" fill="#1a1818"/>
      <path id="パス_391" data-name="パス 391" d="M184.443,572.391a30.6,30.6,0,0,0,7.206-.928.7.7,0,0,1,.3-.055c.164,0,.247.108.3.347a17.759,17.759,0,0,1,.137,2.305c0,.53-.055.689-.3.8-.824.424-4.521.822-7.7.822-4.138,0-6.494-.663-8.387-2.385a5.939,5.939,0,0,1-1.806-2.836c0-.4.244-.556,2.491-1.8C177.673,571.278,179.947,572.391,184.443,572.391Zm.245-15.24a26.286,26.286,0,0,0,4.384-.316h.192a.316.316,0,0,1,.358.237,15.372,15.372,0,0,1,.11,2.069c0,.61-.055.822-.221.927a25.9,25.9,0,0,1-4.437.291,35.013,35.013,0,0,1-6.741-.609c-1.562-.292-1.646-.371-1.646-1.3,0-.611.057-1.617.139-2.358A27.26,27.26,0,0,0,184.687,557.151Z" transform="translate(-86.702 -552.78)" fill="#1a1818"/>
      <path id="パス_392" data-name="パス 392" d="M195.578,570.661c-1.315,2.2-3.124,3.419-4.987,3.419-2.852,0-4.879-2.7-4.879-6.466a10.644,10.644,0,0,1,5.948-9.7,13.254,13.254,0,0,1,6.412-1.38c5.725,0,9.974,3.924,9.974,9.171,0,4.638-2.356,7.977-6.9,9.858a6.7,6.7,0,0,1-1.973.583c-.329,0-.466-.106-.822-.609a5.669,5.669,0,0,0-1.726-1.67c5.645-1.4,8.193-3.975,8.193-8.27a6.136,6.136,0,0,0-2.658-5.219,7.091,7.091,0,0,0-3.233-1.142C198.154,564.831,197.25,567.878,195.578,570.661Zm-3.946-9.383a8.131,8.131,0,0,0-2.877,6.281c0,2.042.685,3.235,1.836,3.235,1.368,0,2.765-1.829,3.807-4.982a32.425,32.425,0,0,0,1.4-6.44A8.036,8.036,0,0,0,191.633,561.278Z" transform="translate(-73.944 -552.323)" fill="#1a1818"/>
      <path id="パス_393" data-name="パス 393" d="M210,564.23c.057,1.988.11,3.019.386,5.671a25.693,25.693,0,0,1,5.014,2.014c2.163,1.193,3.261,1.988,3.261,2.359a4.578,4.578,0,0,1-.986,1.8c-.411.583-.712.848-.934.848-.135,0-.247-.053-.438-.239A16.735,16.735,0,0,0,210.495,573a4.242,4.242,0,0,1-1.151,3.26,6.887,6.887,0,0,1-4.8,1.433c-3.589,0-5.782-1.539-5.782-4.057,0-2.677,2.413-4.373,6.165-4.373a20.713,20.713,0,0,1,2.386.133c-.276-4.348-.356-6.44-.386-10.335a29.471,29.471,0,0,0-.247-3.71,16.538,16.538,0,0,1,3.263.344c.438.133.6.263.6.557a1.069,1.069,0,0,1-.11.424c-.3.689-.411,1.7-.464,4.636.217,0,.217,0,1.067-.051a28.188,28.188,0,0,0,5.261-.956.69.69,0,0,1,.221-.024c.162,0,.217.053.327.318a8.987,8.987,0,0,1,.578,2.385c0,.212-.11.292-.356.369a36.837,36.837,0,0,1-6.686.877H210Zm-5.371,7.632c-1.861,0-2.987.61-2.987,1.617,0,.927.934,1.4,2.658,1.4,2.11,0,3.041-.716,3.041-2.385v-.212A7.538,7.538,0,0,0,204.629,571.862Z" transform="translate(-59.485 -553.55)" fill="#1a1818"/>
      <path id="パス_394" data-name="パス 394" d="M216.89,562.218a16.25,16.25,0,0,1,4.249-.61c3.889,0,6.138,2.226,6.138,6.042a9.542,9.542,0,0,1-4.466,8.109,13.414,13.414,0,0,1-4.8,2.279c-.356,0-.438-.08-1.014-.874a5.149,5.149,0,0,0-1.507-1.458c3.151-1.034,4.466-1.7,5.891-2.889a6.487,6.487,0,0,0,2.466-5.115c0-2.149-1.039-3.366-2.875-3.366a14.852,14.852,0,0,0-5.893,1.721,5.949,5.949,0,0,0-1.014.612.8.8,0,0,1-.329.106c-.521,0-1.4-1.484-2-3.472A33.007,33.007,0,0,0,216.89,562.218Zm1.836-6.466a25.733,25.733,0,0,0,3.811.713c.548.055.738.079,2.135.135.413,0,.523.106.523.4a8.9,8.9,0,0,1-.356,2.573c-.057.159-.192.21-.386.21a32.659,32.659,0,0,1-4.137-.554,18.459,18.459,0,0,1-4.437-1.246.422.422,0,0,1-.139-.292,11.938,11.938,0,0,1,.852-2.148c.135-.21.217-.265.382-.265A8.918,8.918,0,0,1,218.726,555.752Z" transform="translate(-45.113 -553.632)" fill="#1a1818"/>
      <path id="パス_395" data-name="パス 395" d="M225.082,562.909c-.5.027-.795.053-1.123.08-.249.025-.274.025-.3.025-.221,0-.329-.078-.411-.345a14.223,14.223,0,0,1-.356-2.622c.3.026,1.094.053,2.082.053.3,0,2.466-.133,3.425-.212a20.173,20.173,0,0,0,.63-4.693c2.822.373,3.836.689,3.836,1.193,0,.188-.029.238-.438.848a8.132,8.132,0,0,0-.767,2.255,20.261,20.261,0,0,0,3.069-.718,1.45,1.45,0,0,1,.411-.078c.192,0,.245.133.411.9a9.111,9.111,0,0,1,.219,1.51c0,.318-.082.369-.795.528-.932.214-2.521.479-4.22.689a47.558,47.558,0,0,1-2.959,7.051,37.994,37.994,0,0,1-2.249,3.949c-.217.318-.356.424-.546.424a5.7,5.7,0,0,1-2-1.087c-.438-.292-.546-.424-.546-.609s.108-.344.464-.822a26.448,26.448,0,0,0,2.742-4.346,29.794,29.794,0,0,0,1.834-4.161C226.423,562.8,226.341,562.827,225.082,562.909Zm9.015,15.264c-2.987,0-5.014-1.59-5.014-3.949,0-2.438,2.11-4.267,4.932-4.267a12.111,12.111,0,0,1,2.082.185c-.11-1.272-.11-1.776-.219-4.24,0-.5-.057-1.195-.11-2.043a13.331,13.331,0,0,1,2.987.5.426.426,0,0,1,.329.424,2.9,2.9,0,0,1-.055.424,6.118,6.118,0,0,0-.164,1.672c0,.98.082,2.65.164,3.949a16.706,16.706,0,0,1,4.11,2.306c.6.451.822.689.822.9,0,.267-.137.505-.9,1.7-.329.53-.575.769-.767.769-.164,0-.164,0-.932-.689a11.086,11.086,0,0,0-2.247-1.59C239.112,576.689,237.248,578.173,234.1,578.173Zm-.055-5.671c-1.315,0-2.219.61-2.219,1.535,0,.876.822,1.433,2.055,1.433a1.934,1.934,0,0,0,2.219-2.12,1.277,1.277,0,0,0-.027-.424A4.833,4.833,0,0,0,234.043,572.5Zm10.248-7.526c-.329.451-.493.581-.685.581-.137,0-.247-.051-.438-.237a16.746,16.746,0,0,0-2.658-1.935,11.077,11.077,0,0,0-1.863-.928c-.384-.159-.521-.265-.521-.479,0-.184.137-.424.548-1.032.656-.928.822-1.089,1.069-1.089a14.307,14.307,0,0,1,4,1.961c1.178.771,1.534,1.089,1.534,1.38A6.122,6.122,0,0,1,244.29,564.976Z" transform="translate(-33.246 -553.713)" fill="#1a1818"/>
      <path id="パス_396" data-name="パス 396" d="M241.275,563.469a32.474,32.474,0,0,1-3.946.238c-.849,0-.984-.345-1.176-2.7h1.069a36.839,36.839,0,0,0,4.053-.239v-.556a22.911,22.911,0,0,0-.381-4.507,17.352,17.352,0,0,1,3.478.373.44.44,0,0,1,.386.475,1.041,1.041,0,0,1-.164.532,8.752,8.752,0,0,0-.413,3.26c.9-.161,2.359-.506,3.453-.822a.561.561,0,0,1,.194-.027.385.385,0,0,1,.409.292,11.425,11.425,0,0,1,.3,1.988.514.514,0,0,1-.356.477c-.329.132-2.331.53-4.085.819v3.421a22.009,22.009,0,0,1,6.633-1.3c3.507,0,5.781,2.175,5.781,5.541a5.327,5.327,0,0,1-2.521,4.85,7.082,7.082,0,0,1-3.372.768,8.268,8.268,0,0,1-2.793-.292c-.3-.159-.329-.238-.386-.874a6.3,6.3,0,0,0-.546-2.147,8.847,8.847,0,0,0,3.124.557c2.137,0,3.343-1.06,3.343-2.942a2.76,2.76,0,0,0-2.987-2.942,17.239,17.239,0,0,0-6.277,1.511c0,.106,0,.106.027,1.14.03,1.749.03,1.749.03,2.12.025.477.025.954.025,1.193,0,2.147-.849,3.18-2.656,3.18a6.147,6.147,0,0,1-4.633-2.279,3.054,3.054,0,0,1-.658-1.91c0-1.72,1.591-3.284,5.042-5.009Zm0,7.1c-1.587.928-2.247,1.537-2.247,2.092,0,.612.906,1.274,1.726,1.274.384,0,.521-.238.521-.848Zm15.29-6.016a12.843,12.843,0,0,0-5.122-3.182c-.221-.08-.331-.184-.331-.316,0-.159.274-.583,1.043-1.59.3-.4.329-.424.6-.424a10.842,10.842,0,0,1,2.028.689c1.726.769,3.971,2.41,3.971,2.913,0,.479-1.368,2.149-1.779,2.149C256.838,564.794,256.731,564.741,256.564,564.555Z" transform="translate(-18.068 -553.186)" fill="#1a1818"/>
      <path id="パス_397" data-name="パス 397" d="M249.231,566.74a19.2,19.2,0,0,0,.932-6.625l2.11.449a24.647,24.647,0,0,1-.959,7Zm3.345,11.925a26.927,26.927,0,0,0,.162-3.207V557.809a19.458,19.458,0,0,0-.162-2.705h3.1a15.542,15.542,0,0,0-.167,2.705v17.755c0,1.3.057,2.253.139,3.1Zm4.464-14.31a20.786,20.786,0,0,0-1.368-3.977l1.671-.74a26.229,26.229,0,0,1,1.587,3.869Zm3.233,10.706h9.919v-8.215a15.739,15.739,0,0,0-.107-2.308H273.1a14.017,14.017,0,0,0-.137,2.387V575.8a23.276,23.276,0,0,0,.137,2.809h-2.907V577.5h-9.919v1.113H257.4a21.769,21.769,0,0,0,.135-2.915v-8.745a16.313,16.313,0,0,0-.108-2.359h2.959a15.424,15.424,0,0,0-.112,2.253v6.042a14.349,14.349,0,0,0,3.619-3.472,26.924,26.924,0,0,0-3.263-2.729l1.783-1.725c1.315,1.062,1.781,1.433,2.795,2.334a14.511,14.511,0,0,0,1.4-3.816l2.576.954a5.871,5.871,0,0,0-.413.98,30.723,30.723,0,0,1-1.669,3.657c1.315,1.3,1.669,1.7,2.932,3.127l-1.836,2.12a39.674,39.674,0,0,0-2.521-3.1,18.638,18.638,0,0,1-3.482,3.631,9.535,9.535,0,0,0-1.918-1.7Zm-.082-11.846a31.469,31.469,0,0,0-2.711-6.175l2.466-1.113a48.8,48.8,0,0,1,2.74,6.2Zm4.77-1.166a33.672,33.672,0,0,0-2.274-6.071l2.491-.848a34.91,34.91,0,0,1,2.413,6.016Zm2.3.873a23.75,23.75,0,0,0,3.533-7.392l2.824.981a38.586,38.586,0,0,1-3.863,7.5Z" transform="translate(-3.581 -553.807)" fill="#1a1818"/>
      <path id="パス_398" data-name="パス 398" d="M273.713,567.347a55.738,55.738,0,0,1-3.124,4.956,4.773,4.773,0,0,1-3.756,2.359c-1.971,0-3.315-1.563-3.315-3.9a5.47,5.47,0,0,1,2.987-4.848,10.863,10.863,0,0,1,4.8-1.219h.274c1.4-2.758,1.754-3.5,2.687-5.567a19.85,19.85,0,0,0-5.179.689.457.457,0,0,1-.192.029c-.468,0-.906-1.378-1.041-3.366a10.73,10.73,0,0,0,1.918.159c.93,0,2.519-.079,4.19-.239,1.562-.132,1.562-.132,1.918-.345a1.184,1.184,0,0,1,.5-.161c.356,0,.9.424,1.507,1.142a3.154,3.154,0,0,1,.71,1.193c0,.212-.107.4-.438.716a42.619,42.619,0,0,0-3.259,5.936,22.537,22.537,0,0,1,5.48,1.59,21.218,21.218,0,0,0,.245-2.758,9.618,9.618,0,0,0-.082-1.193c1.18.161,2.167.344,2.961.532.493.133.658.265.658.477a1.463,1.463,0,0,1-.219.687,6.223,6.223,0,0,0-.521,1.937c-.084.557-.167.927-.329,1.7a23.8,23.8,0,0,1,3.149,2.173.584.584,0,0,1,.221.4c0,.744-1.18,2.467-1.671,2.467a.918.918,0,0,1-.493-.239c-.74-.636-1.646-1.378-2.192-1.776a12.029,12.029,0,0,1-3.4,4.373,9.442,9.442,0,0,1-3.727,1.988,1.074,1.074,0,0,1-.658-.265,6.9,6.9,0,0,1-.44-.583,2.919,2.919,0,0,0-1.425-1.193,12.283,12.283,0,0,0,4.441-2.253,9.757,9.757,0,0,0,2.685-3.657A18.309,18.309,0,0,0,273.713,567.347Zm-7.4,3.18c0,.636.247,1.034.685,1.034.6,0,1.671-1.3,3.4-4.161C267.792,567.665,266.313,568.8,266.313,570.527Z" transform="translate(12.245 -552.984)" fill="#1a1818"/>
      <path id="パス_399" data-name="パス 399" d="M287.034,570.276c-2.713,1.537-3.482,2.305-3.482,3.472a1.1,1.1,0,0,0,.6,1.033,8.829,8.829,0,0,0,3.672.53,42.8,42.8,0,0,0,4.932-.318,18.212,18.212,0,0,0,2-.424h.137a.461.461,0,0,1,.411.316,8.492,8.492,0,0,1,.274,2.308.542.542,0,0,1-.493.636,52.392,52.392,0,0,1-5.7.292c-3.343,0-5.124-.212-6.439-.742a3.506,3.506,0,0,1-2.386-3.5,5,5,0,0,1,2.222-4.028,22.826,22.826,0,0,1,3.973-2.464c-.221-.875-.63-1.248-1.48-1.248a6.739,6.739,0,0,0-3.59,1.248,18.337,18.337,0,0,0-2.3,1.828c-.822.822-.9.875-1.123.875-.274,0-.852-.609-1.425-1.537a2.6,2.6,0,0,1-.438-.98c0-.241.055-.292.712-.689a16.546,16.546,0,0,0,5.234-5.221c-1.947.133-2.959.157-4.028.157-.411,0-.493-.077-.63-.528a22.118,22.118,0,0,1-.247-2.464,16.791,16.791,0,0,0,2.795.159c1.069,0,2.247-.026,3.48-.079a10.034,10.034,0,0,0,.795-3.712c2.439.4,3.562.8,3.562,1.247a.623.623,0,0,1-.11.318,16.757,16.757,0,0,0-.767,1.59.938.938,0,0,0-.082.186c1.562-.214,2.93-.477,3.891-.689a3.87,3.87,0,0,1,.877-.188.346.346,0,0,1,.384.239,15.368,15.368,0,0,1,.274,2.069c0,.292-.11.424-.466.5a56.883,56.883,0,0,1-6.414.928,14.8,14.8,0,0,1-2.245,3.208,7.4,7.4,0,0,1,3.261-.768c1.233,0,2.055.687,2.6,2.173,2.713-1.431,4.165-2.2,4.329-2.305a8.276,8.276,0,0,0,2.384-1.776,9.674,9.674,0,0,1,2.329,3.233c0,.159-.11.265-.464.344a57.053,57.053,0,0,0-8,3.339c.027.477.082,1.7.082,2.544v1.272c0,.318-.055.477-.192.557a4.182,4.182,0,0,1-1.7.212c-.932,0-1.1-.079-1.1-.5v-.106c.055-.769.082-1.776.082-2.412Z" transform="translate(26.517 -553.713)" fill="#1a1818"/>
      <path id="パス_400" data-name="パス 400" d="M294.421,563.469a32.475,32.475,0,0,1-3.946.238c-.849,0-.986-.345-1.178-2.7h1.069a36.875,36.875,0,0,0,4.055-.239v-.556a22.9,22.9,0,0,0-.384-4.507,17.381,17.381,0,0,1,3.48.373.438.438,0,0,1,.384.475,1.021,1.021,0,0,1-.164.532,8.768,8.768,0,0,0-.411,3.26c.9-.161,2.356-.506,3.452-.822a.551.551,0,0,1,.192-.027.387.387,0,0,1,.411.292,11.608,11.608,0,0,1,.3,1.988.511.511,0,0,1-.356.477c-.329.132-2.329.53-4.083.819v3.421a22.01,22.01,0,0,1,6.631-1.3c3.507,0,5.784,2.175,5.784,5.541a5.325,5.325,0,0,1-2.523,4.85,7.067,7.067,0,0,1-3.37.768,8.283,8.283,0,0,1-2.795-.292c-.3-.159-.329-.238-.384-.874a6.36,6.36,0,0,0-.548-2.147,8.855,8.855,0,0,0,3.124.557c2.137,0,3.343-1.06,3.343-2.942a2.759,2.759,0,0,0-2.987-2.942,17.22,17.22,0,0,0-6.275,1.511c0,.106,0,.106.027,1.14.027,1.749.027,1.749.027,2.12.027.477.027.954.027,1.193,0,2.147-.849,3.18-2.658,3.18a6.143,6.143,0,0,1-4.631-2.279,3.056,3.056,0,0,1-.66-1.91c0-1.72,1.591-3.284,5.044-5.009Zm0,7.1c-1.589.928-2.247,1.537-2.247,2.092,0,.612.9,1.274,1.726,1.274.384,0,.521-.238.521-.848Zm15.29-6.016a12.836,12.836,0,0,0-5.124-3.182c-.219-.08-.329-.184-.329-.316,0-.159.274-.583,1.041-1.59.3-.4.329-.424.6-.424a10.842,10.842,0,0,1,2.028.689c1.728.769,3.971,2.41,3.971,2.913,0,.479-1.368,2.149-1.779,2.149C309.982,564.794,309.875,564.741,309.711,564.555Z" transform="translate(40.802 -553.186)" fill="#1a1818"/>
      <path id="パス_401" data-name="パス 401" d="M323.445,567.428h.411a18.054,18.054,0,0,0,2.576-.135v2.732a17.75,17.75,0,0,0-2.576-.159h-.411v6.122c0,1.8-.932,2.412-3.726,2.412-.6,0-1.315-.027-2.466-.08a8.449,8.449,0,0,0-.767-2.73,16.919,16.919,0,0,0,3.012.292c.852,0,1.1-.132,1.1-.689v-5.327h-6.633A23.8,23.8,0,0,0,311,570v-2.253c-.932.424-1.7.742-2.274.954v7.235c0,2.014-.712,2.518-3.507,2.518-.5,0-.877-.027-1.754-.08a8.34,8.34,0,0,0-.577-2.6,19.889,19.889,0,0,0,2.219.159c.66,0,.849-.159.849-.8V569.68c-1.176.4-1.206.4-1.836.609a8.4,8.4,0,0,0-1.041.371l-.409-2.809a18.946,18.946,0,0,0,3.286-.848v-4.691h-1.206a14.449,14.449,0,0,0-1.889.106v-2.7a11.178,11.178,0,0,0,1.943.133h1.151v-2.094a13.989,13.989,0,0,0-.164-2.6h3.069a17.3,17.3,0,0,0-.135,2.573v2.12h.82a11.9,11.9,0,0,0,1.482-.08v2.624a12.313,12.313,0,0,0-1.454-.08h-.847V566.1c.847-.289,1.094-.369,2.163-.82h-.11v-2.624a27.922,27.922,0,0,0,2.934.131h3.206v-2.516h-2.411a24.025,24.025,0,0,0-2.66.106V557.7a17.428,17.428,0,0,0,2.66.159h2.411v-.769a10.29,10.29,0,0,0-.167-1.906h3.1a9.725,9.725,0,0,0-.137,1.906v.769h3.069a17.548,17.548,0,0,0,2.685-.159v2.679a23.71,23.71,0,0,0-2.66-.106h-3.094v2.516h3.807a22.441,22.441,0,0,0,2.961-.157v2.677a27.546,27.546,0,0,0-3.042-.132Zm-9.7-2.253c-.822,0-2.139.053-2.713.078v2.04a21.881,21.881,0,0,0,2.93.135H320.6v-2.253Zm.685,5.035a23.341,23.341,0,0,1,3.1,3.843l-2.274,1.669a18.523,18.523,0,0,0-3.069-4.055Z" transform="translate(55.621 -553.753)" fill="#1a1818"/>
      <path id="パス_402" data-name="パス 402" d="M319.019,562.654c-1.48,0-1.532,0-1.7-.318a8.93,8.93,0,0,1-.438-2.544,30.379,30.379,0,0,0,3.315.159c.795,0,1.863-.026,2.987-.106a19.489,19.489,0,0,0,.274-3.127c0-.453-.027-.8-.082-1.4a16.845,16.845,0,0,1,3.48.528c.219.079.3.159.3.373a1.13,1.13,0,0,1-.192.583,6.955,6.955,0,0,0-.521,1.8c-.082.5-.11.609-.164.954a28.075,28.075,0,0,0,6.056-1.325,1.957,1.957,0,0,1,.438-.079c.192,0,.274.132.382.66a17.045,17.045,0,0,1,.249,1.937c0,.318-.11.371-.932.556-2.165.424-4.877.82-6.768.979a20.858,20.858,0,0,1-2.194,5.991,11.487,11.487,0,0,1,3.672-2.067,10.292,10.292,0,0,1,3.564-.612,6.578,6.578,0,0,1,4.658,1.537,5.226,5.226,0,0,1,1.507,3.739c0,1.961-.959,3.551-3.014,4.876a16.257,16.257,0,0,1-6.494,2.173c-.438.053-.877.106-1.041.106a.8.8,0,0,1-.795-.451A7.652,7.652,0,0,0,323.9,575.4a21.388,21.388,0,0,0,6.467-1.14c2.082-.715,3.288-1.935,3.288-3.339a2.707,2.707,0,0,0-2.987-2.889,11.836,11.836,0,0,0-8.768,4.691.709.709,0,0,1-.5.292,5.339,5.339,0,0,1-2.384-2.094c0-.132.03-.185.3-.53a21.409,21.409,0,0,0,3.37-7.871C322.227,562.546,319.323,562.654,319.019,562.654Z" transform="translate(71.361 -553.591)" fill="#1a1818"/>
      <path id="パス_403" data-name="パス 403" d="M339.476,570.661c-1.315,2.2-3.124,3.419-4.987,3.419-2.852,0-4.879-2.7-4.879-6.466a10.643,10.643,0,0,1,5.948-9.7,13.254,13.254,0,0,1,6.412-1.38c5.725,0,9.974,3.924,9.974,9.171,0,4.638-2.356,7.977-6.9,9.858a6.7,6.7,0,0,1-1.973.583c-.329,0-.468-.106-.822-.609a5.67,5.67,0,0,0-1.726-1.67c5.645-1.4,8.193-3.975,8.193-8.27a6.136,6.136,0,0,0-2.658-5.219,7.091,7.091,0,0,0-3.233-1.142C342.052,564.831,341.148,567.878,339.476,570.661Zm-3.946-9.383a8.131,8.131,0,0,0-2.877,6.281c0,2.042.685,3.235,1.836,3.235,1.368,0,2.765-1.829,3.807-4.982a32.414,32.414,0,0,0,1.4-6.44A8.036,8.036,0,0,0,335.531,561.278Z" transform="translate(85.458 -552.323)" fill="#1a1818"/>
      <path id="パス_404" data-name="パス 404" d="M353.532,557.238a11.626,11.626,0,0,0-.164-2.094h3.368a10.455,10.455,0,0,0-.164,2.094V558.8h7.263a21.789,21.789,0,0,0,3.315-.185v3.1a23.3,23.3,0,0,0-3.233-.159H354.3a2.868,2.868,0,0,0-.025.5c-.057.927-.11,1.431-.192,2.226h7.289a22.2,22.2,0,0,0,2.738-.106.947.947,0,0,0-.025.236,17.713,17.713,0,0,0-.11,1.776,48.076,48.076,0,0,1-.906,8.933c-.6,2.412-1.48,3.047-4.11,3.047-.93,0-1.532-.026-3.56-.159a8.8,8.8,0,0,0-.742-2.968,24.7,24.7,0,0,0,3.946.345c1.153,0,1.4-.292,1.754-2.041a34.543,34.543,0,0,0,.578-6.389h-7.263c-1.123,5.143-3.45,8.35-8.465,11.53a7.423,7.423,0,0,0-2.11-2.438,16.5,16.5,0,0,0,4.711-3.737c2.274-2.65,3.151-5.565,3.29-10.759h-4.3a28.634,28.634,0,0,0-3.318.159v-3.1a23.141,23.141,0,0,0,3.288.185h6.77Z" transform="translate(100.393 -553.766)" fill="#1a1818"/>
      <path id="パス_405" data-name="パス 405" d="M368.075,570.276c-2.713,1.537-3.48,2.305-3.48,3.472a1.1,1.1,0,0,0,.6,1.033,8.83,8.83,0,0,0,3.672.53,42.8,42.8,0,0,0,4.932-.318,18.011,18.011,0,0,0,2-.424h.139a.461.461,0,0,1,.411.316,8.579,8.579,0,0,1,.274,2.308.542.542,0,0,1-.493.636,52.4,52.4,0,0,1-5.7.292c-3.341,0-5.122-.212-6.437-.742a3.506,3.506,0,0,1-2.386-3.5,5,5,0,0,1,2.222-4.028,22.7,22.7,0,0,1,3.971-2.464c-.217-.875-.628-1.248-1.48-1.248a6.739,6.739,0,0,0-3.59,1.248,18.34,18.34,0,0,0-2.3,1.828c-.82.822-.9.875-1.123.875-.274,0-.849-.609-1.425-1.537a2.6,2.6,0,0,1-.438-.98c0-.241.055-.292.712-.689a16.555,16.555,0,0,0,5.236-5.221c-1.945.133-2.961.157-4.028.157-.413,0-.5-.077-.63-.528a22.033,22.033,0,0,1-.249-2.464,16.832,16.832,0,0,0,2.8.159c1.069,0,2.245-.026,3.478-.079a10.034,10.034,0,0,0,.795-3.712c2.439.4,3.562.8,3.562,1.247a.616.616,0,0,1-.107.318,16.668,16.668,0,0,0-.769,1.59.943.943,0,0,0-.082.186c1.564-.214,2.934-.477,3.891-.689a3.892,3.892,0,0,1,.877-.188.349.349,0,0,1,.386.239,15.709,15.709,0,0,1,.274,2.069c0,.292-.11.424-.466.5a56.988,56.988,0,0,1-6.412.928,14.881,14.881,0,0,1-2.249,3.208,7.411,7.411,0,0,1,3.261-.768c1.233,0,2.055.687,2.605,2.173,2.713-1.431,4.163-2.2,4.327-2.305a8.31,8.31,0,0,0,2.384-1.776,9.689,9.689,0,0,1,2.331,3.233c0,.159-.11.265-.466.344a57.159,57.159,0,0,0-8,3.339c.03.477.082,1.7.082,2.544v1.272c0,.318-.053.477-.192.557a4.176,4.176,0,0,1-1.7.212c-.934,0-1.1-.079-1.1-.5v-.106c.057-.769.082-1.776.082-2.412Z" transform="translate(116.29 -553.713)" fill="#1a1818"/>
      <path id="パス_406" data-name="パス 406" d="M380.118,574.237a30.615,30.615,0,0,0,7.209-.928.722.722,0,0,1,.3-.053c.164,0,.247.106.3.345a17.759,17.759,0,0,1,.137,2.305c0,.53-.055.689-.3.8-.822.424-4.521.822-7.7.822-4.138,0-6.494-.689-8.387-2.385a5.94,5.94,0,0,1-1.806-2.836c0-.4.245-.583,2.493-1.8C373.35,573.124,375.626,574.237,380.118,574.237Zm.249-15.264a26.348,26.348,0,0,0,4.384-.32h.19a.317.317,0,0,1,.358.241,15.3,15.3,0,0,1,.11,2.065c0,.612-.055.824-.219.928a25.425,25.425,0,0,1-4.439.294,35.023,35.023,0,0,1-6.741-.609c-1.562-.292-1.644-.347-1.644-1.3,0-.583.055-1.617.137-2.33A28.151,28.151,0,0,0,380.366,558.973Zm8.028,1.378c-.137,0-.219-.053-.3-.212a12.313,12.313,0,0,0-2.165-2.7.277.277,0,0,1-.112-.214,3,3,0,0,1,1.4-1.058c.192,0,.521.239,1.206.954a7.039,7.039,0,0,1,1.534,1.959C389.957,559.371,388.751,560.351,388.395,560.351Zm2.822-4.984a6.008,6.008,0,0,1,1.452,1.91c0,.159-.082.239-.521.583-.548.4-.85.583-1.014.583-.082,0-.164-.08-.274-.265a15,15,0,0,0-2.11-2.518.319.319,0,0,1-.137-.214c0-.237,1.069-.978,1.425-.978C390.231,554.468,390.642,554.757,391.217,555.367Z" transform="translate(130.059 -554.468)" fill="#1a1818"/>
      <path id="パス_407" data-name="パス 407" d="M386.381,569.829a30.641,30.641,0,0,1-1.069,7.685l-2.519-.848a21.012,21.012,0,0,0,1.26-7.235Zm-3.286-3.9a11.934,11.934,0,0,0,1.7.081h.468c.738-.954.877-1.113,1.151-1.51a28.387,28.387,0,0,0-3.455-3.975L384.3,558.3l.959,1.007a16.813,16.813,0,0,0,2.028-4.32l2.63,1.036a10.068,10.068,0,0,0-.795,1.378,36.342,36.342,0,0,1-2.249,3.71c.548.636.742.874,1.043,1.246a22.788,22.788,0,0,0,2.466-4.426l2.439,1.352c-.11.106-.11.106-2.167,3.233-.6.872-1.7,2.359-2.6,3.417,1.315-.08,2.274-.159,2.932-.21-.356-.848-.413-1.034-.851-1.91l1.783-.819A31,31,0,0,1,394,568.16l-1.971.9c-.164-.609-.221-.8-.329-1.219-.384.053-.961.106-1.811.185v8.056a14.066,14.066,0,0,0,.164,2.676h-3.012a14.219,14.219,0,0,0,.164-2.676v-7.844c-.712.053-1.1.077-1.945.132a14.9,14.9,0,0,0-1.865.185Zm9.481,3.474a33.4,33.4,0,0,1,.849,6.281l-2.3.53a31.8,31.8,0,0,0-.658-6.36Zm3.315-10.892a26.208,26.208,0,0,0-2.77.13V555.89a25.171,25.171,0,0,0,2.934.159h8.3c1.041,0,1.918-.027,2.466-.08-.055.369-.055.61-.11,2.041a31.129,31.129,0,0,1-.685,6.281c-.384,1.51-1.26,1.935-4,1.935-.247,0-.356,0-1.781-.053a5.425,5.425,0,0,0-.685-2.73,17.1,17.1,0,0,0,2.683.289c.742,0,.989-.13,1.153-.607a20.559,20.559,0,0,0,.519-4.611h-3.7c-.329,4.106-1.838,6.36-5.453,8.266a6.412,6.412,0,0,0-1.891-2.25,7.309,7.309,0,0,0,3.452-2.465,6.005,6.005,0,0,0,1.069-3.551Zm1.151,20.14h-2.85a25.663,25.663,0,0,0,.11-2.65v-6.042a19.071,19.071,0,0,0-.11-2.385c.548.051,1.151.08,2.137.08h7.754a14.387,14.387,0,0,0,2.192-.108c-.055.612-.082,1.327-.082,2.414v6.122a23.5,23.5,0,0,0,.11,2.65h-2.877v-1.378h-6.384Zm0-3.79h6.384v-4.717h-6.384Z" transform="translate(144.373 -553.929)" fill="#1a1818"/>
      <path id="パス_408" data-name="パス 408" d="M410.977,555.248a13.216,13.216,0,0,0,2.329,2.915,26.288,26.288,0,0,0,8.656,5.512,14.459,14.459,0,0,0-1.48,2.968,32.964,32.964,0,0,1-6.656-4.187,19.236,19.236,0,0,1-4.466-4.744,23.787,23.787,0,0,1-4.3,4.691,31.778,31.778,0,0,1-6.467,4.24,10.917,10.917,0,0,0-1.564-2.838,22.163,22.163,0,0,0,6.3-3.761,18.861,18.861,0,0,0,4.22-4.8Zm-4.165,8.666a17.815,17.815,0,0,0-.112,2.092c-.082,3.845-.466,5.806-1.589,7.793a12.136,12.136,0,0,1-5.4,4.8,9.664,9.664,0,0,0-2.139-2.571,11.286,11.286,0,0,0,3.261-1.908c2.139-1.8,2.795-3.816,2.795-8.348a11.591,11.591,0,0,0-.164-1.855Zm8.357,0a15.778,15.778,0,0,0-.164,2.809v8.48a21.628,21.628,0,0,0,.19,3.021h-3.4a19.893,19.893,0,0,0,.194-2.995v-8.507a21.056,21.056,0,0,0-.164-2.809Z" transform="translate(160.141 -553.658)" fill="#1a1818"/>
      <path id="パス_409" data-name="パス 409" d="M424.011,557.672c0,.239-.11.32-.578.583a2.793,2.793,0,0,0-.685.61c-1.7,1.91-4.138,4.481-6.3,6.6a1.665,1.665,0,0,0-.66,1.111c0,.294.221.612.742,1.062,1.615,1.431,4.245,4.028,6.19,6.175,1.372,1.484,1.728,1.961,1.728,2.226,0,.292-.466.742-1.589,1.59a2.482,2.482,0,0,1-1.016.583c-.247,0-.356-.106-.63-.53a55.98,55.98,0,0,0-6.245-7.314,13.673,13.673,0,0,1-1.865-1.988,2.86,2.86,0,0,1-.658-1.775,3.06,3.06,0,0,1,.5-1.617,11.956,11.956,0,0,1,1.971-2.2,45.814,45.814,0,0,0,4.359-5.088,10.366,10.366,0,0,0,1.423-2.518C422.831,556.321,424.011,557.2,424.011,557.672Z" transform="translate(177.22 -553.725)" fill="#1a1818"/>
      <path id="パス_410" data-name="パス 410" d="M423.39,563.875h-.164a1.492,1.492,0,0,1-.3.027c-.247,0-.384-.106-.466-.451a13.266,13.266,0,0,1-.329-2.493c.381.029.685.029.877.029a38.512,38.512,0,0,0,4.658-.294,27.622,27.622,0,0,0,.411-4.185V555.9c3.178.424,3.781.583,3.754,1.058a1.107,1.107,0,0,1-.164.453,7.994,7.994,0,0,0-.795,2.78,25.22,25.22,0,0,0,2.987-.713.367.367,0,0,1,.219-.055c.247,0,.3.108.521,1.033a11.868,11.868,0,0,1,.219,1.486c0,.186-.082.29-.329.345a31.9,31.9,0,0,1-4.249.793,73.35,73.35,0,0,1-4.683,14.127c-.139.344-.274.477-.438.477a7.141,7.141,0,0,1-2.249-.874c-.464-.239-.6-.344-.6-.5a1.585,1.585,0,0,1,.219-.557,49.2,49.2,0,0,0,4.631-12.217C425.913,563.661,425.062,563.742,423.39,563.875Zm11.7,10.07a6.672,6.672,0,0,0,3.562.742,16.354,16.354,0,0,0,4.192-.424,1.634,1.634,0,0,1,.386-.079.393.393,0,0,1,.438.318,9.24,9.24,0,0,1,.327,2.465c0,.344-.11.477-.466.556a23.008,23.008,0,0,1-4.055.291c-3.425,0-5.343-.53-6.6-1.8a4.513,4.513,0,0,1-1.069-1.723,3.651,3.651,0,0,1-.274-1.007c0-.451.82-.928,2.247-1.378A2.92,2.92,0,0,0,435.093,573.945Zm7.7-7.712a23.392,23.392,0,0,0-2.66-.133,25.974,25.974,0,0,0-5.288.477.482.482,0,0,1-.192.026.272.272,0,0,1-.3-.214,11.787,11.787,0,0,1-.192-2.041c0-.344.055-.5.274-.581a4.548,4.548,0,0,1,.849-.188,30.069,30.069,0,0,1,5.343-.448,8.338,8.338,0,0,1,2.605.186c.135.106.162.318.162,1.19a8.415,8.415,0,0,1-.11,1.617c-.027.082-.135.135-.274.135A.686.686,0,0,1,442.794,566.233Zm-3.016-9.328a9.929,9.929,0,0,1,2.685,2.915,1.025,1.025,0,0,1-.411.5c-.11.08-.274.21-.466.369a1.619,1.619,0,0,1-.6.373.922.922,0,0,0-.137.051c-.11,0-.11-.024-.63-.793a13.873,13.873,0,0,0-1.809-2.147.591.591,0,0,1-.137-.187l.082-.157a6.92,6.92,0,0,1,.712-.612,2.474,2.474,0,0,0,.466-.265.078.078,0,0,1,.082-.051h.164Zm4.631,1.853a2.107,2.107,0,0,1-.795.426c-.11,0-.164-.053-.3-.267a12.681,12.681,0,0,0-2.085-2.516.271.271,0,0,1-.11-.214c0-.239,1.041-.979,1.4-.979.194,0,.521.265,1.123.875a5.758,5.758,0,0,1,1.507,1.935C445.149,558.177,444.957,558.363,444.409,558.758Z" transform="translate(187.95 -553.698)" fill="#1a1818"/>
      <path id="パス_411" data-name="パス 411" d="M445.54,556.055a12,12,0,0,0,.984,3.578,35.311,35.311,0,0,0,6.222-2.12,1.074,1.074,0,0,1,.329-.08c.274,0,.464.477.877,2.2.025.133.025.159.053.265a.182.182,0,0,1,.03.1c0,.188-.112.294-.386.4a41.729,41.729,0,0,1-5.916,1.8,15.6,15.6,0,0,0,5.425,5.912.375.375,0,0,1,.217.318,7.048,7.048,0,0,1-1.066,2.2c-.249.344-.413.477-.66.477-.192,0-.245-.026-.6-.291a11.982,11.982,0,0,0-2.934-1.272,12.83,12.83,0,0,0-3.507-.451c-3.233,0-4.875.875-4.875,2.571,0,.954.519,1.617,1.642,2.146a16.814,16.814,0,0,0,6.412.952,15.189,15.189,0,0,0,2.192-.131,13.19,13.19,0,0,0-1.094,2.809c-.139.4-.356.5-1.1.5a28.639,28.639,0,0,1-5.535-.556c-3.642-.874-5.727-2.862-5.727-5.512a4.858,4.858,0,0,1,1.425-3.419,8.453,8.453,0,0,1,5.891-1.855,10.569,10.569,0,0,1,4.249.742,17.555,17.555,0,0,1-3.343-4.505c-1.671.289-3.069.477-4.688.634-.959.08-3.069.214-3.478.214-.386,0-.5-.08-.632-.53a15.162,15.162,0,0,1-.438-2.518c.9.024,1.343.053,1.836.053a49.845,49.845,0,0,0,6.138-.477c-.244-.53-.712-1.672-.986-2.385a11.194,11.194,0,0,0-.986-2.175,25.672,25.672,0,0,1,3.318-.342c.521,0,.712.132.712.448Z" transform="translate(202.768 -553.591)" fill="#1a1818"/>
      <path id="パス_412" data-name="パス 412" d="M447.63,559.089c0-.768-.03-1.8-.082-2.385a12.679,12.679,0,0,1,2.93.581c.66.239.877.4.877.691a.8.8,0,0,1-.107.424,11.523,11.523,0,0,0-.466,4.32,22.808,22.808,0,0,0,.765,7.129c.413,1.246,1.041,1.961,1.783,1.961,1.123,0,2.055-1.272,3.069-4.214a7.822,7.822,0,0,0,1.48,2.7.956.956,0,0,1,.219.557,4.923,4.923,0,0,1-.959,2.093,4.855,4.855,0,0,1-3.891,2.332c-2.11,0-3.7-1.643-4.688-4.9a30.162,30.162,0,0,1-.93-8.507Zm16.3.424a.815.815,0,0,1,.521.265,17.554,17.554,0,0,1,3.7,5.459,15.957,15.957,0,0,1,1.178,3.84c0,.267-.137.4-.712.691a8.9,8.9,0,0,1-2.247.742c-.247,0-.356-.132-.438-.609a17.975,17.975,0,0,0-1.7-5.247,14.083,14.083,0,0,0-2.687-3.843A6.832,6.832,0,0,1,463.934,559.513Z" transform="translate(216.104 -552.146)" fill="#1a1818"/>
    </g>
    <path id="パス_413" data-name="パス 413" d="M142.424,590.016,128.2,552.529h-13.65Z" transform="translate(0)" fill="#1a1818" stroke="#1a1818" stroke-linejoin="round" stroke-width="1"/>
    <path id="パス_414" data-name="パス 414" d="M463.791,590.016l14.229-37.487H491.67Z" transform="translate(386.876)" fill="#1a1818" stroke="#1a1818" stroke-linejoin="round" stroke-width="1"/>
  </g>
</svg>
