<svg xmlns="http://www.w3.org/2000/svg" width="563.82" height="45.376" viewBox="0 0 563.82 45.376">
  <g id="subtitle" transform="translate(-169.857 -153.849)">
    <g id="グループ_6" data-name="グループ 6" transform="translate(173.167 153.849)">
      <path id="パス_22" data-name="パス 22" d="M178.06,164.914a37.728,37.728,0,0,1-4.736.3c-1.022,0-1.184-.428-1.415-3.356h1.283a42.823,42.823,0,0,0,4.867-.3v-.691a29.365,29.365,0,0,0-.461-5.593,20.1,20.1,0,0,1,4.178.461.541.541,0,0,1,.461.592,1.291,1.291,0,0,1-.2.658,11.279,11.279,0,0,0-.494,4.047c1.086-.2,2.829-.625,4.145-1.02a.648.648,0,0,1,.23-.033.469.469,0,0,1,.494.362,14.911,14.911,0,0,1,.362,2.468.632.632,0,0,1-.428.592c-.395.164-2.8.658-4.9,1.02v4.244a25.722,25.722,0,0,1,7.962-1.612c4.211,0,6.942,2.7,6.942,6.876a6.664,6.664,0,0,1-3.027,6.019,8.265,8.265,0,0,1-4.047.954,9.64,9.64,0,0,1-3.356-.362c-.362-.2-.395-.294-.461-1.084a8.126,8.126,0,0,0-.658-2.667,10.274,10.274,0,0,0,3.751.691c2.566,0,4.014-1.314,4.014-3.65a3.369,3.369,0,0,0-3.586-3.652,20.116,20.116,0,0,0-7.534,1.875c0,.132,0,.132.033,1.415.035,2.171.035,2.171.035,2.632.031.592.031,1.184.031,1.481,0,2.665-1.02,3.948-3.189,3.948A7.306,7.306,0,0,1,172.8,178.7a3.884,3.884,0,0,1-.787-2.369c0-2.139,1.908-4.08,6.052-6.218Zm0,8.815c-1.908,1.154-2.7,1.91-2.7,2.6,0,.757,1.086,1.579,2.075,1.579.461,0,.623-.3.623-1.053Zm18.359-7.466a15.309,15.309,0,0,0-6.152-3.948q-.395-.148-.395-.395a6.86,6.86,0,0,1,1.25-1.974c.362-.494.395-.526.724-.526a12.9,12.9,0,0,1,2.435.855c2.073.954,4.771,2.994,4.771,3.619,0,.592-1.645,2.665-2.139,2.665C196.748,166.559,196.616,166.493,196.419,166.263Z" transform="translate(-171.91 -152.148)" fill="#fff"/>
      <path id="パス_23" data-name="パス 23" d="M193.384,161.917a20.777,20.777,0,0,1-2.761,4.277,10.016,10.016,0,0,0-2.7-2.369,16.74,16.74,0,0,0,4.045-7.4,9.6,9.6,0,0,0,.4-1.974l3.551.724a9.7,9.7,0,0,0-.559,1.645c-.162.625-.362,1.152-.658,1.974h4.771a19.478,19.478,0,0,0,3.126-.164v3.422a30.052,30.052,0,0,0-3.126-.132h-1.184v2.139c-.033.888-.066,1.546-.164,2.8H200a18.416,18.416,0,0,0,2.994-.165v3.487a19.32,19.32,0,0,0-3.06-.164h-2.139c-.066.461-.1.592-.2,1.086a16.731,16.731,0,0,0,1.645,2.468,19.352,19.352,0,0,0,4.146,4.014A12.929,12.929,0,0,0,201.412,181a22.333,22.333,0,0,1-4.869-5.955c-1.217,3.189-2.7,5.132-6.087,7.962a7.932,7.932,0,0,0-2.632-2.829,13.385,13.385,0,0,0,5.3-5.725,16.153,16.153,0,0,0,1.316-4.442H192a18.566,18.566,0,0,0-3.455.2v-3.553a18.527,18.527,0,0,0,3.52.2h2.7c.1-1.481.1-1.481.164-4.935Zm13.72,20.958h-3.553a30.011,30.011,0,0,0,.2-3.619V160.634c0-1.316-.066-2.237-.165-3.356a17.589,17.589,0,0,0,2.9.164h6.679a18.331,18.331,0,0,0,2.9-.164,31.921,31.921,0,0,0-.132,3.356v18.291a35.976,35.976,0,0,0,.2,3.95h-3.586v-2.139H207.1Zm.033-5.3h5.4V160.6h-5.4Z" transform="translate(-152.919 -153.133)" fill="#fff"/>
      <path id="パス_24" data-name="パス 24" d="M210.63,166.54c.167-.263.167-.263,1.612-2.7a4.832,4.832,0,0,0,.792,1.448,1.5,1.5,0,0,1,.327.757c0,.2-.066.362-.855,1.645a44.325,44.325,0,0,0-1.908,4.014c-.329.921-.461.987-1.544.987a3.807,3.807,0,0,1-2.075-.329,16.492,16.492,0,0,1-.329-4.474,67.265,67.265,0,0,1,1.088-11.219,9.7,9.7,0,0,0,.132-1.711c2.566.461,4.244,1.217,4.244,1.842,0,.164-.033.263-.263.559a8.418,8.418,0,0,0-1.02,3.224,45.459,45.459,0,0,0-.693,6.843C210.435,166.9,210.435,166.9,210.63,166.54Zm11.943-9.607v.559c.033.132.033.395.066.757.033.526.033.526.1,1.349,0,.362,0,.362.066,1.579.1,1.579.165,3.158.165,3.948,0,6.185-1.612,10.989-5.034,15.036-1.316,1.546-2.468,2.435-3.126,2.435-.395,0-.428,0-1.119-.529a6.769,6.769,0,0,0-2.336-1.151,17.633,17.633,0,0,0,4.771-4.538,18.026,18.026,0,0,0,3.027-10.66c0-4.507-.3-7.271-1.053-9.278a27.762,27.762,0,0,1,3.356-.23c.987,0,1.119.066,1.119.625Z" transform="translate(-130.453 -152.524)" fill="#fff"/>
      <path id="パス_25" data-name="パス 25" d="M226.111,165.011a35.285,35.285,0,0,1-5.034,2.7,12.181,12.181,0,0,0-1.842-3.224,31.619,31.619,0,0,0,8.028-4.573,21.383,21.383,0,0,0,4.968-5.3h3.781a20.89,20.89,0,0,0,5.3,5.363,29.256,29.256,0,0,0,8.028,4.31,17.18,17.18,0,0,0-1.711,3.487,31.98,31.98,0,0,1-5.165-2.764v2.2a22.311,22.311,0,0,0-2.829-.132H228.809a23.124,23.124,0,0,0-2.7.132Zm-2.566,18.457a23.748,23.748,0,0,0,.2-3.325v-7.368a21.132,21.132,0,0,0-.164-3.093c.757.066,1.481.1,2.764.1h15.724c1.283,0,1.974-.033,2.764-.1a19.773,19.773,0,0,0-.165,3.093v7.4a18.527,18.527,0,0,0,.2,3.29h-3.784v-1.581H227.326v1.581Zm3.781-4.672h13.753v-5.955H227.326Zm12.274-15h1.084a27.247,27.247,0,0,1-6.514-6.185,22.125,22.125,0,0,1-6.183,6.185H239.6Z" transform="translate(-115.434 -152.936)" fill="#fff"/>
      <path id="パス_26" data-name="パス 26" d="M237.333,159.39c0-.954-.031-2.237-.1-2.961a14.813,14.813,0,0,1,3.52.724c.79.3,1.053.494,1.053.855a1,1,0,0,1-.132.526c-.428,1.119-.559,2.369-.559,5.363,0,4.211.265,6.843.921,8.85.493,1.546,1.25,2.435,2.139,2.435,1.349,0,2.468-1.579,3.685-5.231a9.834,9.834,0,0,0,1.777,3.356,1.2,1.2,0,0,1,.263.689,6.19,6.19,0,0,1-1.151,2.6,5.792,5.792,0,0,1-4.672,2.893c-2.533,0-4.439-2.038-5.624-6.087a38.511,38.511,0,0,1-1.121-10.559Zm19.576.526a.965.965,0,0,1,.625.329,21.838,21.838,0,0,1,4.442,6.778,20.294,20.294,0,0,1,1.415,4.771c0,.327-.164.493-.855.855a10.443,10.443,0,0,1-2.7.921c-.3,0-.428-.167-.526-.757a22.854,22.854,0,0,0-2.04-6.514c-.921-1.908-.987-2.007-3.224-4.771A8.131,8.131,0,0,1,256.909,159.916Z" transform="translate(-93.954 -150.77)" fill="#fff"/>
      <path id="パス_27" data-name="パス 27" d="M264.932,173.77c-1.577,2.731-3.751,4.244-5.986,4.244-3.422,0-5.856-3.356-5.856-8.028a13.276,13.276,0,0,1,7.139-12.042,15.484,15.484,0,0,1,7.7-1.711c6.876,0,11.976,4.869,11.976,11.384,0,5.758-2.829,9.9-8.291,12.237a7.843,7.843,0,0,1-2.367.724c-.4,0-.561-.132-.989-.754a6.918,6.918,0,0,0-2.071-2.075c6.775-1.742,9.835-4.935,9.835-10.263A7.7,7.7,0,0,0,272.828,161a8.327,8.327,0,0,0-3.882-1.415C268.025,166.532,266.939,170.315,264.932,173.77ZM260.2,162.123a10.234,10.234,0,0,0-3.457,7.8c0,2.533.823,4.014,2.206,4.014,1.645,0,3.321-2.27,4.573-6.185a41.428,41.428,0,0,0,1.676-7.995A9.49,9.49,0,0,0,260.2,162.123Z" transform="translate(-75.032 -151.003)" fill="#fff"/>
      <path id="パス_28" data-name="パス 28" d="M285.9,154.719a21.425,21.425,0,0,0,5.363,5.626,35.047,35.047,0,0,0,7.962,4.507,13.244,13.244,0,0,0-1.744,3.487,36.422,36.422,0,0,1-7.765-4.771,28.192,28.192,0,0,1-5.56-5.659,28.37,28.37,0,0,1-5.2,5.527,37.3,37.3,0,0,1-7.863,5.165,13.069,13.069,0,0,0-1.774-3.356,31.991,31.991,0,0,0,7.762-4.8,22.685,22.685,0,0,0,5.165-5.725Zm.691,24.476h7.863a30.838,30.838,0,0,0,3.981-.2v3.751a31.414,31.414,0,0,0-3.981-.2h-20.53a32.023,32.023,0,0,0-4.077.2V179a26,26,0,0,0,3.751.2h1.415V171.63a29.748,29.748,0,0,0-.167-3.619H278.7a26.017,26.017,0,0,0-.2,3.619v7.565h4.573V166.333a21.688,21.688,0,0,0-.2-3.52h3.913a23.008,23.008,0,0,0-.2,3.422v3.126h5.231a30.97,30.97,0,0,0,3.454-.165v3.685a24.953,24.953,0,0,0-3.422-.165h-5.264Z" transform="translate(-55.663 -152.811)" fill="#fff"/>
      <path id="パス_29" data-name="パス 29" d="M291.482,167.2a29.617,29.617,0,0,0-3.222.132v-2.994a27.014,27.014,0,0,0,3.222.132h3.849a21.717,21.717,0,0,0-1.184-2.369h-3.389c-1.513,0-2.762.066-3.751.164V159.1a25.6,25.6,0,0,0,3.588.2h1.02a13.8,13.8,0,0,0-2.141-2.928l3.158-1.184a22.622,22.622,0,0,1,2.437,4.113h1.774v-2.2a16.815,16.815,0,0,0-.162-2.468H300.1a20.3,20.3,0,0,0-.1,2.336V159.3h2.336v-2.336a15.483,15.483,0,0,0-.129-2.336h3.452a16.15,16.15,0,0,0-.164,2.468v2.2h1.974a16.354,16.354,0,0,0,2.27-4.178l3.224,1.184a31.7,31.7,0,0,1-1.941,2.994h.888a24.9,24.9,0,0,0,3.586-.2v3.158c-.987-.1-2.237-.164-3.751-.164h-3.191a23.282,23.282,0,0,1-1.152,2.369h3.652a28.036,28.036,0,0,0,3.257-.132v2.994a29.515,29.515,0,0,0-3.257-.132H302.8v1.513h6.646a28.506,28.506,0,0,0,3.224-.132v2.764a28.134,28.134,0,0,0-3.224-.132H302.8v1.579h8.85a26.144,26.144,0,0,0,3.784-.2v3.158a31.88,31.88,0,0,0-3.751-.2h-6.35a16.99,16.99,0,0,0,4.277,2.536,28.347,28.347,0,0,0,6.58,1.807,11.616,11.616,0,0,0-1.812,3.226c-5.295-1.45-8.881-3.358-11.678-6.286.066,1.121.066,1.516.066,2.237v1.581a21.159,21.159,0,0,0,.2,3.191h-3.716a22.619,22.619,0,0,0,.2-3.224v-1.513c0-.726,0-.987.068-2.171a15.965,15.965,0,0,1-4.542,3.487,30.265,30.265,0,0,1-6.448,2.665,12.7,12.7,0,0,0-1.906-3.062c4.573-.954,7.762-2.334,10.329-4.474H291.09a32.9,32.9,0,0,0-3.852.2v-3.158a28.026,28.026,0,0,0,3.819.2h8.355v-1.579h-6.249a28.178,28.178,0,0,0-3.226.132v-2.764a28.205,28.205,0,0,0,3.226.132h6.249V167.2Zm12.4-2.731a14.914,14.914,0,0,0,1.053-2.369h-7.2a23.248,23.248,0,0,1,.954,2.369Z" transform="translate(-35.024 -152.918)" fill="#fff"/>
      <path id="パス_30" data-name="パス 30" d="M316.72,173.41c-3.257,1.908-4.178,2.862-4.178,4.308a1.367,1.367,0,0,0,.724,1.283,10.25,10.25,0,0,0,4.409.66,49.659,49.659,0,0,0,5.922-.395,21.141,21.141,0,0,0,2.4-.526h.164a.555.555,0,0,1,.493.393,10.772,10.772,0,0,1,.329,2.865c0,.493-.165.691-.59.79a60.962,60.962,0,0,1-6.846.362c-4.014,0-6.15-.265-7.732-.921a4.355,4.355,0,0,1-2.862-4.343,6.275,6.275,0,0,1,2.665-5,27.545,27.545,0,0,1,4.771-3.06c-.263-1.086-.757-1.546-1.777-1.546a7.928,7.928,0,0,0-4.308,1.546,21.846,21.846,0,0,0-2.764,2.27c-.987,1.02-1.086,1.086-1.349,1.086-.331,0-1.02-.757-1.713-1.908a3.291,3.291,0,0,1-.526-1.217c0-.3.066-.362.858-.855a20.215,20.215,0,0,0,6.282-6.481c-2.334.164-3.551.2-4.834.2-.5,0-.594-.1-.759-.658a28.354,28.354,0,0,1-.3-3.06,19.545,19.545,0,0,0,3.358.2c1.283,0,2.7-.033,4.176-.1a12.865,12.865,0,0,0,.956-4.606c2.926.494,4.277.987,4.277,1.546a.791.791,0,0,1-.134.395c-.228.428-.491.954-.921,1.974a1.2,1.2,0,0,0-.1.23c1.875-.263,3.52-.592,4.672-.855a4.413,4.413,0,0,1,1.053-.23.416.416,0,0,1,.461.3,19.6,19.6,0,0,1,.329,2.566c0,.362-.132.526-.559.625a66.782,66.782,0,0,1-7.7,1.152,18.445,18.445,0,0,1-2.7,3.981,8.655,8.655,0,0,1,3.915-.954c1.48,0,2.468.855,3.126,2.7,3.257-1.777,5-2.731,5.2-2.862a10.016,10.016,0,0,0,2.862-2.2c1.349,1.382,2.8,3.455,2.8,4.014,0,.2-.132.329-.559.428a67.351,67.351,0,0,0-9.607,4.145c.033.592.1,2.106.1,3.158v1.579c0,.393-.066.592-.23.691a4.864,4.864,0,0,1-2.04.263c-1.119,0-1.316-.1-1.316-.625v-.132c.066-.954.1-2.2.1-2.994Z" transform="translate(-14.332 -152.847)" fill="#fff"/>
      <path id="パス_31" data-name="パス 31" d="M331.349,178.393A35.607,35.607,0,0,0,340,177.241a.841.841,0,0,1,.362-.066c.2,0,.294.129.362.428a22.792,22.792,0,0,1,.164,2.86c0,.66-.066.858-.362.989-.987.524-5.429,1.018-9.245,1.018-4.968,0-7.8-.853-10.068-2.959a7.415,7.415,0,0,1-2.171-3.52c0-.493.3-.724,2.994-2.237C323.222,177.011,325.953,178.393,331.349,178.393Zm.3-18.951a30.548,30.548,0,0,0,5.262-.395h.232a.379.379,0,0,1,.428.3,19.652,19.652,0,0,1,.132,2.566c0,.757-.066,1.02-.263,1.151a29.887,29.887,0,0,1-5.33.362,40.657,40.657,0,0,1-8.091-.757c-1.877-.362-1.976-.428-1.976-1.612,0-.724.066-2.007.164-2.9A32.768,32.768,0,0,0,331.645,159.442Zm9.64,1.711c-.167,0-.265-.066-.362-.263a15.339,15.339,0,0,0-2.6-3.356.343.343,0,0,1-.134-.263,3.6,3.6,0,0,1,1.68-1.316c.23,0,.625.3,1.448,1.184a8.681,8.681,0,0,1,1.842,2.435C343.16,159.936,341.713,161.153,341.285,161.153Zm3.389-6.185a7.446,7.446,0,0,1,1.742,2.369c0,.2-.1.3-.625.724-.658.493-1.02.724-1.215.724-.1,0-.2-.1-.329-.329a18.57,18.57,0,0,0-2.533-3.126.394.394,0,0,1-.165-.263c0-.3,1.283-1.217,1.711-1.217C343.487,153.849,343.983,154.211,344.674,154.968Z" transform="translate(3.676 -153.849)" fill="#fff"/>
      <path id="パス_32" data-name="パス 32" d="M339.015,172.873a39.367,39.367,0,0,1-1.283,9.541l-3.027-1.053c.921-2.4,1.283-4.573,1.513-8.982Zm-3.948-4.836a14.385,14.385,0,0,0,2.04.1h.559c.888-1.184,1.053-1.382,1.382-1.875a35.1,35.1,0,0,0-4.145-4.935l1.612-2.764,1.152,1.25a21.163,21.163,0,0,0,2.435-5.363l3.156,1.283a13.015,13.015,0,0,0-.952,1.711,45.015,45.015,0,0,1-2.7,4.606c.66.79.89,1.086,1.252,1.546a28.356,28.356,0,0,0,2.959-5.494l2.928,1.678c-.129.132-.129.132-2.6,4.014-.724,1.086-2.04,2.928-3.126,4.244,1.579-.1,2.731-.2,3.518-.263-.425-1.053-.491-1.283-1.018-2.369l2.136-1.02a39.283,39.283,0,0,1,2.5,6.416l-2.369,1.119c-.2-.757-.263-.987-.395-1.513-.461.066-1.151.132-2.171.23v10a17.605,17.605,0,0,0,.2,3.321H339.8a18.406,18.406,0,0,0,.2-3.321V170.9c-.858.066-1.316.1-2.336.165a17.65,17.65,0,0,0-2.237.23Zm11.384,4.31a42.59,42.59,0,0,1,1.018,7.8l-2.761.656a40.354,40.354,0,0,0-.792-7.894Zm3.981-13.522a29.74,29.74,0,0,0-3.325.165v-3.422a28.727,28.727,0,0,0,3.523.2H360.6c1.248,0,2.3-.033,2.959-.1-.066.461-.066.757-.129,2.533a40.23,40.23,0,0,1-.823,7.8c-.461,1.875-1.516,2.4-4.806,2.4-.294,0-.428,0-2.136-.066a6.937,6.937,0,0,0-.823-3.389,19.908,19.908,0,0,0,3.222.362c.891,0,1.187-.165,1.382-.757a26.385,26.385,0,0,0,.627-5.725h-4.444c-.395,5.1-2.2,7.9-6.545,10.265a7.89,7.89,0,0,0-2.27-2.8,8.75,8.75,0,0,0,4.143-3.06,7.626,7.626,0,0,0,1.283-4.409Zm1.382,25H348.39a32.168,32.168,0,0,0,.134-3.29v-7.5a23.9,23.9,0,0,0-.134-2.961,25,25,0,0,0,2.566.1h9.311a16.814,16.814,0,0,0,2.634-.132c-.068.757-.1,1.645-.1,2.994v7.6a30.233,30.233,0,0,0,.129,3.29h-3.455v-1.713h-7.664Zm0-4.7h7.664v-5.856h-7.664Z" transform="translate(22.366 -153.133)" fill="#fff"/>
      <path id="パス_33" data-name="パス 33" d="M368.627,154.749a16.391,16.391,0,0,0,2.794,3.619,31.43,31.43,0,0,0,10.4,6.843,17.951,17.951,0,0,0-1.774,3.685,39.439,39.439,0,0,1-8-5.2,23.618,23.618,0,0,1-5.361-5.889,29.134,29.134,0,0,1-5.168,5.823,37.783,37.783,0,0,1-7.764,5.264,13.531,13.531,0,0,0-1.873-3.52,26.461,26.461,0,0,0,7.567-4.672,23.193,23.193,0,0,0,5.067-5.955Zm-5,10.759a22.061,22.061,0,0,0-.13,2.6c-.1,4.771-.559,7.205-1.908,9.673a14.769,14.769,0,0,1-6.481,5.953,11.864,11.864,0,0,0-2.566-3.189,13.609,13.609,0,0,0,3.915-2.369c2.566-2.237,3.356-4.738,3.356-10.364a14.933,14.933,0,0,0-.2-2.3Zm10.037,0a20.3,20.3,0,0,0-.2,3.487v10.526a27.309,27.309,0,0,0,.228,3.751h-4.078a25.877,25.877,0,0,0,.228-3.716V168.995a26.624,26.624,0,0,0-.2-3.487Z" transform="translate(42.862 -152.775)" fill="#fff"/>
      <path id="パス_34" data-name="パス 34" d="M384.3,157.767c0,.3-.132.395-.689.724a3.222,3.222,0,0,0-.822.757c-2.04,2.369-4.968,5.56-7.569,8.192a2.085,2.085,0,0,0-.787,1.382c0,.362.261.757.886,1.316,1.943,1.777,5.1,5,7.438,7.666,1.643,1.842,2.07,2.435,2.07,2.764,0,.362-.559.919-1.908,1.972a2.922,2.922,0,0,1-1.217.724c-.294,0-.428-.132-.755-.656a69.38,69.38,0,0,0-7.5-9.081,16.783,16.783,0,0,1-2.239-2.468,3.622,3.622,0,0,1-.787-2.2,3.937,3.937,0,0,1,.59-2.007c.362-.592.362-.592,2.371-2.731a56.326,56.326,0,0,0,5.229-6.317,12.932,12.932,0,0,0,1.713-3.126C382.887,156.089,384.3,157.174,384.3,157.767Z" transform="translate(64.987 -152.864)" fill="#fff"/>
      <path id="パス_35" data-name="パス 35" d="M383.858,165.462h-.2a1.74,1.74,0,0,1-.36.033c-.3,0-.463-.132-.562-.559a17.225,17.225,0,0,1-.393-3.093c.461.033.822.033,1.053.033a45.194,45.194,0,0,0,5.593-.362,35.793,35.793,0,0,0,.494-5.2v-.757c3.816.526,4.54.724,4.505,1.316a1.377,1.377,0,0,1-.2.559c-.393.757-.428.855-.952,3.455a29.85,29.85,0,0,0,3.586-.888.439.439,0,0,1,.263-.066c.3,0,.362.132.625,1.283a15.444,15.444,0,0,1,.261,1.842c0,.23-.1.362-.395.428-.59.2-.59.2-5.1.987a93.278,93.278,0,0,1-5.624,17.536c-.164.428-.331.59-.529.59a8.423,8.423,0,0,1-2.7-1.084c-.559-.3-.724-.43-.724-.625a2.052,2.052,0,0,1,.263-.691,62.309,62.309,0,0,0,5.558-15.167C386.885,165.2,385.865,165.3,383.858,165.462Zm14.046,12.5a7.8,7.8,0,0,0,4.279.921,19.044,19.044,0,0,0,5.034-.526,1.792,1.792,0,0,1,.461-.1.475.475,0,0,1,.526.395,11.8,11.8,0,0,1,.393,3.06c0,.426-.132.592-.557.689a26.712,26.712,0,0,1-4.869.364c-4.113,0-6.418-.658-7.929-2.237a5.66,5.66,0,0,1-1.283-2.141,4.671,4.671,0,0,1-.331-1.248c0-.559.987-1.152,2.7-1.711A3.631,3.631,0,0,0,397.9,177.965Zm9.245-9.574a27.088,27.088,0,0,0-3.191-.165,30.173,30.173,0,0,0-6.347.592.577.577,0,0,1-.233.033.326.326,0,0,1-.362-.263,15.214,15.214,0,0,1-.228-2.533c0-.428.066-.625.327-.724a5.237,5.237,0,0,1,1.022-.23,34.7,34.7,0,0,1,6.416-.559,9.674,9.674,0,0,1,3.126.23c.165.132.2.395.2,1.48a11.1,11.1,0,0,1-.129,2.007.332.332,0,0,1-.331.165A.817.817,0,0,1,407.15,168.391Zm-3.617-11.581c.425,0,3.224,3.126,3.224,3.619a1.265,1.265,0,0,1-.5.625c-.132.1-.327.263-.559.461a1.929,1.929,0,0,1-.724.461.766.766,0,0,0-.162.066c-.134,0-.134-.033-.759-.987a17.2,17.2,0,0,0-2.169-2.665.759.759,0,0,1-.164-.23c.064-.132.1-.2.1-.2a8.538,8.538,0,0,1,.853-.757,3.194,3.194,0,0,0,.559-.329c.035-.066.066-.066.1-.066h.2Zm5.558,2.3a2.52,2.52,0,0,1-.954.526c-.132,0-.2-.066-.362-.329a15.625,15.625,0,0,0-2.5-3.126.336.336,0,0,1-.134-.263c0-.3,1.253-1.217,1.678-1.217.23,0,.625.329,1.349,1.086a7.126,7.126,0,0,1,1.81,2.4C409.979,158.389,409.749,158.619,409.091,159.113Z" transform="translate(79.218 -152.829)" fill="#fff"/>
      <path id="パス_36" data-name="パス 36" d="M410.572,155.745a15.225,15.225,0,0,0,1.184,4.442,41.353,41.353,0,0,0,7.468-2.632,1.334,1.334,0,0,1,.395-.1c.329,0,.557.592,1.053,2.731.033.164.033.2.066.329a.248.248,0,0,1,.033.132c0,.23-.134.362-.461.494a49.069,49.069,0,0,1-7.107,2.237,19.189,19.189,0,0,0,6.512,7.337.462.462,0,0,1,.265.395,8.892,8.892,0,0,1-1.283,2.731c-.3.425-.494.592-.79.592-.23,0-.3-.033-.724-.362a14.083,14.083,0,0,0-3.52-1.579,14.951,14.951,0,0,0-4.211-.559c-3.882,0-5.856,1.086-5.856,3.191a2.866,2.866,0,0,0,1.974,2.663c1.546.759,4.376,1.184,7.7,1.184a17.669,17.669,0,0,0,2.632-.162,16.614,16.614,0,0,0-1.316,3.487c-.164.494-.428.623-1.316.623a33.111,33.111,0,0,1-6.646-.691c-4.374-1.083-6.876-3.551-6.876-6.841a6.14,6.14,0,0,1,1.711-4.244c1.513-1.481,3.948-2.3,7.074-2.3a12.35,12.35,0,0,1,5.1.921,21.764,21.764,0,0,1-4.014-5.593c-2.007.362-3.685.592-5.624.79-1.154.1-3.687.263-4.181.263-.461,0-.59-.1-.755-.658a19.063,19.063,0,0,1-.529-3.126c1.086.033,1.614.066,2.2.066a57.953,57.953,0,0,0,7.372-.592c-.3-.658-.858-2.073-1.187-2.961a14,14,0,0,0-1.184-2.7,29.5,29.5,0,0,1,3.981-.428c.625,0,.855.164.855.559Z" transform="translate(98.533 -152.685)" fill="#fff"/>
      <path id="パス_37" data-name="パス 37" d="M413.269,159.39c0-.954-.033-2.237-.1-2.961a14.836,14.836,0,0,1,3.52.724c.79.3,1.053.494,1.053.855a1,1,0,0,1-.132.526c-.428,1.119-.559,2.369-.559,5.363,0,4.211.266,6.843.921,8.85.494,1.546,1.25,2.435,2.139,2.435,1.349,0,2.467-1.579,3.685-5.231a9.835,9.835,0,0,0,1.777,3.356,1.2,1.2,0,0,1,.263.689,6.189,6.189,0,0,1-1.152,2.6,5.792,5.792,0,0,1-4.672,2.893c-2.533,0-4.439-2.038-5.624-6.087a38.51,38.51,0,0,1-1.121-10.559Zm19.576.526a.965.965,0,0,1,.625.329,21.84,21.84,0,0,1,4.442,6.778,20.3,20.3,0,0,1,1.415,4.771c0,.327-.164.493-.855.855a10.442,10.442,0,0,1-2.7.921c-.3,0-.428-.167-.526-.757a22.783,22.783,0,0,0-2.04-6.514c-.921-1.908-.989-2.007-3.224-4.771A8.13,8.13,0,0,1,432.845,159.916Z" transform="translate(116.004 -150.77)" fill="#fff"/>
    </g>
    <g id="グループ_7" data-name="グループ 7" transform="translate(170.857 194.494)">
      <path id="パス_38" data-name="パス 38" d="M170.857,172.38c5.975,0,5.975,3.731,11.95,3.731s5.975-3.731,11.95-3.731,5.975,3.731,11.949,3.731,5.977-3.731,11.954-3.731,5.975,3.731,11.949,3.731,5.975-3.731,11.95-3.731,5.975,3.731,11.952,3.731,5.975-3.731,11.952-3.731,5.975,3.731,11.949,3.731,5.977-3.731,11.952-3.731,5.97,3.731,11.939,3.731,5.973-3.731,11.943-3.731,5.975,3.731,11.952,3.731,5.975-3.731,11.95-3.731,5.97,3.731,11.943,3.731,5.97-3.731,11.941-3.731,5.975,3.731,11.947,3.731,5.977-3.731,11.956-3.731,5.973,3.731,11.947,3.731,5.973-3.731,11.945-3.731,5.975,3.731,11.949,3.731,5.977-3.731,11.954-3.731,5.975,3.731,11.95,3.731,5.975-3.731,11.95-3.731,5.977,3.731,11.956,3.731,5.975-3.731,11.949-3.731,5.977,3.731,11.956,3.731,5.975-3.731,11.952-3.731,5.977,3.731,11.956,3.731,5.977-3.731,11.954-3.731,5.977,3.731,11.956,3.731,5.977-3.731,11.956-3.731,5.977,3.731,11.956,3.731,5.981-3.731,11.961-3.731,5.979,3.731,11.958,3.731,5.979-3.731,11.958-3.731,5.977,3.731,11.956,3.731,5.975-3.731,11.949-3.731,5.977,3.731,11.954,3.731,5.981-3.731,11.961-3.731,5.981,3.731,11.961,3.731,5.981-3.731,11.96-3.731,5.981,3.731,11.963,3.731,5.979-3.731,11.958-3.731,5.984,3.731,11.967,3.731,5.988-3.731,11.976-3.731,5.988,3.731,11.976,3.731" transform="translate(-170.857 -172.38)" fill="none" stroke="#fff" stroke-linecap="round" stroke-miterlimit="10" stroke-width="2"/>
    </g>
  </g>
</svg>
