<svg xmlns="http://www.w3.org/2000/svg" width="764" height="92.548" viewBox="0 0 764 92.548">
  <g id="title" transform="translate(-65.775 -83.584)">
    <g id="グループ_1" data-name="グループ 1" transform="translate(65.775 99.929)">
      <path id="パス_1" data-name="パス 1" d="M65.775,95.392h6.277v35.6H65.775Zm33-.919v27.408c0,16.078-5.588,27.562-19.448,35.447l-4.44-5.053c13.169-6.89,17.457-16.537,17.457-30.546V94.473Z" transform="translate(-65.775 -94.473)" fill="#fff"/>
      <path id="パス_2" data-name="パス 2" d="M144.047,100.217c-3.753,25.342-12.709,44.176-31.773,54.894l-4.44-4.976c17.914-9.416,26.03-26.03,28.862-46.09H101.632V98.073H139.3Z" transform="translate(-44.445 -92.331)" fill="#fff"/>
      <path id="パス_3" data-name="パス 3" d="M180.039,106.688a130.808,130.808,0,0,1-12.174,20.441l-4.668-2.756A83.53,83.53,0,0,0,172.23,109.6H142.143v-5.284h33.61ZM156,114.267h5.667c0,18.528-1.378,28.1-12.327,37.208l-4.67-3.675C155.159,139.915,156,131.722,156,114.267Z" transform="translate(-20.346 -88.62)" fill="#fff"/>
      <path id="パス_4" data-name="パス 4" d="M224.294,115.166q-5.282,29.743-29.017,41.725l-4.134-5.282a42.981,42.981,0,0,0,25.494-33.074H179.966V112.64H219.7Zm-5.207-14.011H185.937V95.337h33.149Z" transform="translate(2.153 -93.959)" fill="#fff"/>
      <path id="パス_5" data-name="パス 5" d="M231.3,96.121h6.277V120.39c0,14.164-3.215,26.031-14.317,35.83l-4.9-4.364C229.39,142.9,231.3,132.41,231.3,120.237Zm41.955,35.83a86.367,86.367,0,0,1-19.982,22.661l-5.282-3.751V95.049h6.356V145.12c5.129-3.829,12.019-11.944,15.617-19.293Z" transform="translate(24.996 -94.13)" fill="#fff"/>
    </g>
    <g id="グループ_2" data-name="グループ 2" transform="translate(382.728 85.301)">
      <path id="パス_6" data-name="パス 6" d="M317.886,97.817l-1.828,1.826a16.379,16.379,0,0,1-8.509,4.506h0a29.739,29.739,0,0,0-15.469,8.19" transform="translate(-248.106 -77.856)" fill="none" stroke="#fff" stroke-linecap="round" stroke-miterlimit="10" stroke-width="2.428"/>
      <path id="パス_7" data-name="パス 7" d="M315.1,123.982a29.625,29.625,0,0,0,1.158-4.3h0a16.379,16.379,0,0,1,4.506-8.509l1.828-1.828" transform="translate(-234.414 -70.996)" fill="none" stroke="#fff" stroke-linecap="round" stroke-miterlimit="10" stroke-width="2.428"/>
      <path id="パス_8" data-name="パス 8" d="M345.536,111.75l-8.284,8.284a3.872,3.872,0,0,1-5.475,0L310.8,99.06a3.872,3.872,0,0,1,0-5.475l8.284-8.284" transform="translate(-237.643 -85.301)" fill="none" stroke="#fff" stroke-linecap="round" stroke-miterlimit="10" stroke-width="2.428"/>
      <path id="パス_9" data-name="パス 9" d="M288.556,99.459s3.089,2.5,5.667,2.134c10.694-1.521,15.424,1.579,15.424,1.579" transform="translate(-250.203 -76.879)" fill="none" stroke="#fff" stroke-linecap="round" stroke-miterlimit="10" stroke-width="2.428"/>
      <path id="パス_10" data-name="パス 10" d="M284.219,120.914a14.314,14.314,0,0,0-4.341-7.068l-2.855-2.855" transform="translate(-257.063 -70.019)" fill="none" stroke="#fff" stroke-linecap="round" stroke-miterlimit="10" stroke-width="2.428"/>
      <path id="パス_11" data-name="パス 11" d="M302.591,132.65l2.914,2.914a5.245,5.245,0,0,1,0,7.419h0a5.245,5.245,0,0,1-7.419,0" transform="translate(-244.534 -57.135)" fill="none" stroke="#fff" stroke-linecap="round" stroke-miterlimit="10" stroke-width="2.428"/>
      <path id="パス_12" data-name="パス 12" d="M323.66,133.116l2.915,2.915a5.248,5.248,0,0,0,7.419,0h0a5.248,5.248,0,0,0,0-7.419L320.87,115.488l-15.778.526a17.2,17.2,0,0,0-6.525,1.75l-4.443,2.2a4.514,4.514,0,0,1-5.193-.853h0a4.514,4.514,0,0,1,0-6.381l5.808-5.807" transform="translate(-250.765 -72.439)" fill="none" stroke="#fff" stroke-linecap="round" stroke-miterlimit="10" stroke-width="2.428"/>
      <path id="パス_13" data-name="パス 13" d="M305.563,130.765l2.914,2.915a5.248,5.248,0,0,0,7.419,0h0a5.245,5.245,0,0,0,0-7.419l-2.915-2.915" transform="translate(-240.086 -62.669)" fill="none" stroke="#fff" stroke-linecap="round" stroke-miterlimit="10" stroke-width="2.428"/>
      <path id="パス_14" data-name="パス 14" d="M300.911,135.417l2.914,2.914a5.245,5.245,0,0,0,7.419,0h0a5.243,5.243,0,0,0,0-7.418L308.33,128" transform="translate(-242.853 -59.902)" fill="none" stroke="#fff" stroke-linecap="round" stroke-miterlimit="10" stroke-width="2.428"/>
      <path id="パス_15" data-name="パス 15" d="M290.957,87.1l8.282,8.282a3.869,3.869,0,0,1,0,5.475l-20.972,20.974a3.872,3.872,0,0,1-5.475,0l-8.284-8.284" transform="translate(-264.508 -84.234)" fill="none" stroke="#fff" stroke-linecap="round" stroke-miterlimit="10" stroke-width="2.428"/>
      <rect id="長方形_3" data-name="長方形 3" width="10.492" height="16.237" rx="3.289" transform="translate(45.338 62.796) rotate(45)" fill="none" stroke="#fff" stroke-linecap="round" stroke-miterlimit="10" stroke-width="2.428"/>
      <rect id="長方形_4" data-name="長方形 4" width="10.492" height="16.237" rx="3.289" transform="translate(37.919 55.377) rotate(45)" fill="none" stroke="#fff" stroke-linecap="round" stroke-miterlimit="10" stroke-width="2.428"/>
      <rect id="長方形_5" data-name="長方形 5" width="10.492" height="16.237" rx="3.289" transform="translate(30.5 47.957) rotate(45)" fill="none" stroke="#fff" stroke-linecap="round" stroke-miterlimit="10" stroke-width="2.428"/>
      <rect id="長方形_6" data-name="長方形 6" width="10.492" height="16.237" rx="3.289" transform="translate(52.757 70.215) rotate(45)" fill="none" stroke="#fff" stroke-linecap="round" stroke-miterlimit="10" stroke-width="2.428"/>
    </g>
    <g id="グループ_3" data-name="グループ 3" transform="translate(516.207 91.859)">
      <path id="パス_16" data-name="パス 16" d="M385.641,102.886l4.9,2.3c-3.828,25.266-12.863,43.258-31.7,53.745l-4.44-4.976c17.837-9.341,25.877-24.96,28.787-45.17H348.2v-5.9Zm12.709-7.119a6.405,6.405,0,0,1-6.356,6.431,6.47,6.47,0,0,1-6.432-6.431,6.4,6.4,0,0,1,6.432-6.354A6.339,6.339,0,0,1,398.35,95.767Zm-2.069,0a4.287,4.287,0,1,0-4.287,4.287A4.383,4.383,0,0,0,396.281,95.767Z" transform="translate(-348.201 -89.413)" fill="#fff"/>
      <path id="パス_17" data-name="パス 17" d="M433.675,97.285v53.669h-41.65V97.285Zm-6.432,6.049H398.381v41.5h28.862Z" transform="translate(-322.132 -84.73)" fill="#fff"/>
      <path id="パス_18" data-name="パス 18" d="M471.513,105.183l4.593,1.761c-4.134,26.031-13.781,42.645-31.849,52.367l-4.364-4.9c17.456-8.574,25.953-24.193,28.862-43.562H450.842c-3.9,8.8-8.958,17.3-14.164,22.815l-5.054-3.6c8.652-8.346,16.309-25.113,19.14-37.132l5.895,1.608a99.989,99.989,0,0,1-3.445,10.641Zm-.308-12.631a50.87,50.87,0,0,1,5.743,9.646l-3.217,2.22a48.648,48.648,0,0,0-5.588-9.722Zm13.477,6.431-3.217,2.3a46.225,46.225,0,0,0-5.667-9.646l3.064-2.22A53.328,53.328,0,0,1,484.682,98.982Z" transform="translate(-298.575 -89.413)" fill="#fff"/>
      <path id="パス_19" data-name="パス 19" d="M519.3,114.33q-5.282,29.743-29.017,41.725l-4.132-5.282A42.991,42.991,0,0,0,511.641,117.7H474.969V111.8H514.7Zm-5.206-14.011H480.94V94.5h33.151Z" transform="translate(-272.791 -86.386)" fill="#fff"/>
      <path id="パス_20" data-name="パス 20" d="M557.438,156.873c-.842-2.679-2.067-5.818-3.368-9.033-12.556,2.22-28.939,4.67-39.353,6.048l-1.3-6.507,5.817-.612a538.07,538.07,0,0,0,13.4-53.9l6.43,1.455c-3.6,16.92-8.344,35.141-13.245,51.678,8.5-1.072,18.3-2.451,25.878-3.751a139.964,139.964,0,0,0-9.188-17.379l5.435-2.911a238.473,238.473,0,0,1,15.544,31.773Z" transform="translate(-249.92 -87.357)" fill="#fff"/>
    </g>
  </g>
</svg>
