<svg width="40" height="40" viewBox="0 0 40 40" fill="none" xmlns="http://www.w3.org/2000/svg">
<rect x="4" y="4" width="32" height="32" rx="16" fill="#FF9696"/>
<path d="M21.5888 10.0346C19.7368 9.935 17.7644 10.0103 16.0305 10.8023C14.5463 11.4826 12.9149 12.6196 12.2708 14.3057C11.9722 15.0856 11.8318 16.0113 12.3243 16.7353C12.8168 17.4593 13.7796 17.8869 14.5819 18.1177C15.5603 18.3995 16.5899 18.4943 17.5928 18.5842C18.7138 18.6838 19.8371 18.7251 20.9603 18.7202C22.7231 18.7129 24.5172 18.7712 26.2555 18.3971C26.699 18.3023 27.1358 18.176 27.5615 18.0059C27.9404 17.8529 28.3928 17.6828 28.7048 17.3985C28.999 17.1289 29.0703 16.6891 28.9321 16.3077C28.7806 15.8922 28.4351 15.6979 28.083 15.5108C26.4828 14.6677 24.584 14.5025 22.8323 14.4345C20.7486 14.3543 18.6848 14.7042 16.6858 15.3334C15.1569 15.8169 13.6013 16.5919 12.8525 18.2222C12.5093 18.968 12.3109 19.969 12.6029 20.7683C12.8948 21.5676 13.3317 22.2115 14.0315 22.6002C15.7921 23.5793 17.8647 23.8708 19.8148 23.9583C21.7648 24.0458 23.8129 24.0603 25.7028 23.5186C26.309 23.3436 27.3565 23.074 27.225 22.1726C27.1581 21.7183 26.8238 21.5458 26.4672 21.3878C26.0037 21.1838 25.5201 21.0356 25.0298 20.9214C24.0781 20.6979 23.1042 20.5982 22.1325 20.5229C21.2812 20.4573 20.4254 20.416 19.5696 20.4573C17.9093 20.5424 16.24 20.9651 14.9318 22.141C14.2409 22.763 13.6882 23.5671 13.6013 24.5657C13.5256 25.4233 13.8487 26.2518 14.4571 26.796C15.0655 27.3402 15.7876 27.6123 16.5231 27.8237C17.5505 28.1225 18.6113 28.2975 19.6744 28.3509C20.7374 28.4044 21.7737 28.3631 22.7833 28.1152C23.3962 27.9646 24.8181 27.5565 24.3211 26.5458C24.1116 26.1182 23.628 26.0574 23.229 25.9845C22.7231 25.8922 22.2106 25.8606 21.6957 25.8874C21.1809 25.9141 20.6884 25.9821 20.1892 26.0574C19.7947 26.1157 19.4002 26.1716 19.0191 26.3004C18.335 26.5336 17.6619 26.9758 17.4123 27.7484C17.1114 28.6862 17.5638 29.6289 18.2592 30.1828C18.9545 30.7367 19.8727 30.8776 20.7263 30.9967C21.1519 31.055 21.1475 30.3261 20.7263 30.2678C19.9819 30.1633 19.1662 30.0492 18.56 29.522C18.0229 29.053 17.751 28.1906 18.2659 27.5807C18.6826 27.09 19.3512 26.9199 19.9329 26.8252C20.7909 26.6842 21.6645 26.5579 22.5315 26.6235C22.7387 26.6381 22.946 26.6672 23.151 26.7085C23.2469 26.728 23.6503 26.762 23.7127 26.8616C23.8397 27.0681 23.0998 27.2698 22.9839 27.3062C22.1192 27.5856 21.1965 27.6415 20.3006 27.6415C19.4047 27.6415 18.4664 27.5419 17.5683 27.3451C16.8418 27.1872 16.0818 26.9977 15.4199 26.6211C14.8806 26.315 14.4103 25.8606 14.2877 25.1828C14.1295 24.3227 14.544 23.538 15.0923 22.9598C16.1397 21.8592 17.5638 21.3733 18.9857 21.2299C20.5034 21.0769 22.0657 21.1983 23.5745 21.3951C24.4325 21.5069 25.295 21.6867 26.1062 22.0147C26.2488 22.073 26.7525 22.2139 26.4828 22.435C26.2622 22.6172 25.8945 22.6998 25.6315 22.78C24.0157 23.2732 22.2752 23.278 20.6126 23.2513C18.8498 23.2246 17.0691 23.0472 15.3909 22.4228C14.7669 22.1896 14.0693 21.9345 13.6459 21.3514C13.4275 21.0526 13.2247 20.6517 13.1578 20.2751C13.091 19.8985 13.1511 19.4928 13.2425 19.1284C13.6102 17.6561 14.8338 16.7887 16.0818 16.3028C17.6842 15.6784 19.4069 15.2994 21.1051 15.1828C22.0323 15.1196 22.9571 15.1464 23.882 15.2314C24.671 15.3043 25.4599 15.3917 26.231 15.5812C26.8751 15.7392 27.5972 15.9603 28.1499 16.3708C28.2412 16.4389 28.3282 16.5482 28.3259 16.677C28.3215 16.8495 28.1655 16.9029 28.0407 16.9734C27.7086 17.1629 27.3609 17.3111 27.0043 17.4326C25.5245 17.9355 23.9511 17.9671 22.4134 17.9768C20.597 17.9865 18.7874 17.9841 16.9777 17.7897C16.1241 17.6974 15.2594 17.5953 14.4393 17.3111C13.842 17.1046 12.9684 16.7426 12.721 16.0477C12.4736 15.3529 12.8369 14.5268 13.1823 13.9705C13.5835 13.3242 14.154 12.7994 14.7446 12.3694C16.0105 11.4462 17.4168 10.9578 18.9278 10.8048C19.8103 10.7149 20.6973 10.7124 21.5798 10.761C22.01 10.7853 22.0077 10.0565 21.5798 10.0322L21.5888 10.0346Z" fill="white"/>
</svg>
