<?xml version="1.0" encoding="utf-8"?>
<!-- Generator: Adobe Illustrator 25.4.1, SVG Export Plug-In . SVG Version: 6.00 Build 0)  -->
<svg version="1.1" id="レイヤー_1" xmlns="http://www.w3.org/2000/svg" xmlns:xlink="http://www.w3.org/1999/xlink" x="0px"
	 y="0px" viewBox="0 0 70 70" style="enable-background:new 0 0 70 70;" xml:space="preserve">
<style type="text/css">
	.st0{fill:#DDF4FF;}
	.st1{clip-path:url(#SVGID_00000039853318698836662590000003840450615883345546_);}
	.st2{fill:#00AFD5;}
	.st3{fill:#57C3EA;}
</style>
<circle class="st0" cx="35" cy="35" r="35"/>
<g>
	<g>
		<defs>
			<circle id="SVGID_1_" cx="35" cy="35" r="35"/>
		</defs>
		<use xlink:href="#SVGID_1_"  style="overflow:visible;fill:#FFF2DE;"/>
		<clipPath id="SVGID_00000100369620971514497670000002464050503899143094_">
			<use xlink:href="#SVGID_1_"  style="overflow:visible;"/>
		</clipPath>
		<g style="clip-path:url(#SVGID_00000100369620971514497670000002464050503899143094_);">
			<path class="st2" d="M71.2-6.3L45,20c-0.7,0.7-1.7,1.1-2.7,1.1h-7.1v6.1h2.6L21.2,43.8l13.9,13.9l36-36.1L71.2-6.3z"/>
			<path class="st3" d="M31.7,26.4h3.4v-5.3H28c-1,0-2-0.4-2.7-1.1L-1.2-6.4l-0.1,27.8l36.4,36.3L49,43.8L31.7,26.4z"/>
			<path class="st3" d="M35.5,51.1l3.4,3.4c1,1,1,2.5,0,3.5l0,0c-1,1-2.5,1-3.5,0L32,54.6c-1-1-1-2.5,0-3.5l0,0
				C33,50.1,34.6,50.1,35.5,51.1z"/>
			<path class="st3" d="M39,47.6l3.4,3.4c1,1,1,2.5,0,3.5l0,0c-1,1-2.5,1-3.5,0l-3.4-3.4c-1-1-1-2.5,0-3.5l0,0
				C36.5,46.7,38.1,46.7,39,47.6z"/>
			<path class="st3" d="M42.5,44.2l3.4,3.4c1,1,1,2.5,0,3.5l0,0c-1,1-2.5,1-3.5,0L39,47.6c-1-1-1-2.5,0-3.5l0,0
				C40,43.2,41.5,43.2,42.5,44.2z"/>
			<path class="st3" d="M46,40.7l3.4,3.4c1,1,1,2.5,0,3.5l0,0c-1,1-2.5,1-3.5,0l-3.4-3.4c-1-1-1-2.5,0-3.5l0,0
				C43.4,39.7,45,39.7,46,40.7z"/>
			<path class="st2" d="M40.6,26.5l-8.4,8.4c-1.5,1.5-3.9,1.5-5.4,0l0,0c-1.5-1.5-1.5-3.9,0-5.4l8.4-8.4L40.6,26.5z"/>
			<path class="st2" d="M27,43.5l-3.2,3.2c-1,1-2.7,1-3.7,0l0,0c-1-1-1-2.7,0-3.7l3.2-3.2c1-1,2.7-1,3.7,0l0,0
				C28,40.9,28,42.5,27,43.5z"/>
			<path class="st2" d="M30.7,47.3l-3.2,3.2c-1,1-2.7,1-3.7,0l0,0c-1-1-1-2.7,0-3.7l3.2-3.2c1-1,2.7-1,3.7,0l0,0
				C31.7,44.6,31.7,46.2,30.7,47.3z"/>
			<path class="st2" d="M34.4,51l-3.2,3.2c-1,1-2.7,1-3.7,0l0,0c-1-1-1-2.7,0-3.7l3.2-3.2c1-1,2.7-1,3.7,0l0,0
				C35.5,48.3,35.5,50,34.4,51z"/>
			<path class="st2" d="M38.2,54.7L35,57.9c-1,1-2.7,1-3.7,0l0,0c-1-1-1-2.7,0-3.7l3.2-3.2c1-1,2.7-1,3.7,0l0,0
				C39.2,52,39.2,53.7,38.2,54.7z"/>
		</g>
	</g>
</g>
</svg>
