<?xml version="1.0" encoding="utf-8"?>
<!-- Generator: Adobe Illustrator 25.4.1, SVG Export Plug-In . SVG Version: 6.00 Build 0)  -->
<svg version="1.1" id="レイヤー_1" xmlns="http://www.w3.org/2000/svg" xmlns:xlink="http://www.w3.org/1999/xlink" x="0px"
	 y="0px" viewBox="0 0 70 70" style="enable-background:new 0 0 70 70;" xml:space="preserve">
<style type="text/css">
	.st0{fill:#FFF2DE;}
	.st1{fill:#57C3EA;}
	.st2{fill:#00AFD5;}
</style>
<circle class="st0" cx="35" cy="35" r="35"/>
<g>
	<path class="st1" d="M18,13.5h34c1.4,0,2.5,1.1,2.5,2.5v20.6c0,1.4-1.1,2.5-2.5,2.5H18c-1.4,0-2.5-1.1-2.5-2.5V15.9
		C15.5,14.6,16.6,13.5,18,13.5z"/>
	<path class="st0" d="M18.6,15.9h32.8c0.4,0,0.7,0.3,0.7,0.7v19.3c0,0.4-0.3,0.7-0.7,0.7H18.6c-0.4,0-0.7-0.3-0.7-0.7V16.6
		C17.9,16.2,18.2,15.9,18.6,15.9z"/>
	<path class="st1" d="M58.9,49.9H11.1c-0.8,0-1.5-0.6-1.6-1.4c0-0.4,0.1-0.7,0.3-1l5.2-6.1c0.3-0.4,0.8-0.6,1.3-0.6h37.4
		c0.5,0,1,0.2,1.3,0.6l5.2,6.1c0.5,0.6,0.4,1.6-0.2,2.1C59.7,49.8,59.3,49.9,58.9,49.9z"/>
	<path class="st2" d="M47.8,44.2l1.2-0.9c0.6-0.4,1.4-0.3,1.8,0.3l7.5,10.6c0.4,0.6,0.3,1.4-0.3,1.8l-1.2,0.9
		c-0.6,0.4-1.4,0.3-1.8-0.3L47.5,46C47,45.4,47.2,44.6,47.8,44.2z"/>
	<path class="st0" d="M46,51.5h-0.8c-6.2-0.4-10.9-5.7-10.5-11.9c0.4-5.9,5.3-10.5,11.2-10.5c0.3,0,0.5,0,0.8,0
		c6.2,0.4,10.9,5.7,10.5,11.9C56.8,46.9,51.9,51.5,46,51.5z"/>
	<path class="st2" d="M45.9,32.1c0.2,0,0.4,0,0.6,0c4.5,0.1,8,3.9,7.9,8.4s-3.9,8-8.4,7.9l0,0c-0.2,0-0.4,0-0.6,0
		c-4.5-0.3-7.9-4.2-7.6-8.7C38.1,35.5,41.6,32.2,45.9,32.1 M45.9,29c-6.2,0-11.3,5-11.3,11.3c0,6,4.6,10.9,10.6,11.3
		c0.3,0,0.5,0,0.8,0c6.2,0,11.3-5.1,11.2-11.4c0-5.9-4.6-10.8-10.5-11.2C46.5,29,46.2,28.9,45.9,29L45.9,29z"/>
</g>
</svg>
