<?xml version="1.0" encoding="utf-8"?>
<!-- Generator: Adobe Illustrator 25.4.1, SVG Export Plug-In . SVG Version: 6.00 Build 0)  -->
<svg version="1.1" id="レイヤー_1" xmlns="http://www.w3.org/2000/svg" xmlns:xlink="http://www.w3.org/1999/xlink" x="0px"
	 y="0px" viewBox="0 0 70 70" style="enable-background:new 0 0 70 70;" xml:space="preserve">
<style type="text/css">
	.st0{fill:#FFF2DE;}
	.st1{fill:#00AFD5;}
	.st2{clip-path:url(#SVGID_00000154406091571375402790000009056500150713992109_);}
	.st3{fill:#57C3EA;}
</style>
<circle class="st0" cx="35" cy="35" r="35"/>
<g>
	<g>
		<path class="st1" d="M41,27.6c1.1,0,2.2,0,3.3,0c0.5,0,0.9-0.3,0.9-0.9c0-1.3,0.4-2.4,1.3-3.3c1.1-1.1,1.7-2.5,1.9-4
			c0.3-2.5-0.3-4.7-2.2-6.5c-2-2-4.5-2.6-7.2-1.9c-5.6,1.4-7.6,8.4-3.6,12.5c0.9,0.9,1.3,1.9,1.3,3.2c0,0.6,0.3,1,1,1
			C38.9,27.6,40,27.6,41,27.6z M37.7,29.3c0,0.3,0,0.6,0,0.9c0.1,1.3,1,2.3,2.3,2.4c0.7,0.1,1.5,0,2.2,0c0.1,0,0.2,0,0.4-0.1
			c1.5-0.4,2.1-1.7,1.8-3.3C42.2,29.3,39.9,29.3,37.7,29.3z M34.1,6.5c-0.4,0-0.6,0.2-0.7,0.4c-0.1,0.3-0.1,0.6,0.2,0.8
			c0.6,0.6,1.3,1.3,1.9,1.9c0.3,0.3,0.7,0.3,1,0s0.3-0.7,0-1c-0.6-0.6-1.3-1.3-1.9-1.9C34.4,6.7,34.2,6.6,34.1,6.5z M48.8,7.1
			c0-0.4-0.1-0.6-0.4-0.7c-0.3-0.1-0.6-0.1-0.8,0.1c-0.7,0.6-1.3,1.3-2,2c-0.3,0.3-0.3,0.7,0,1s0.7,0.3,1,0c0.6-0.6,1.3-1.3,1.9-1.9
			C48.7,7.4,48.8,7.2,48.8,7.1z"/>
		<path class="st1" d="M41.2,4.4c0.4,0.2,0.5,0.5,0.5,0.9c0,0.9,0,1.7,0,2.6c0,0.5-0.5,0.9-0.9,0.7c-0.3-0.1-0.4-0.3-0.4-0.6
			c0-1,0-1.9,0-2.9c0-0.3,0.2-0.5,0.5-0.7C41,4.4,41.1,4.4,41.2,4.4z"/>
		<path class="st1" d="M37.7,29.3c2.2,0,4.5,0,6.7,0c0.2,1.5-0.4,2.8-1.8,3.3c-0.1,0-0.2,0.1-0.4,0.1c-0.7,0-1.5,0.1-2.2,0
			c-1.3-0.1-2.2-1.1-2.3-2.4C37.7,29.9,37.7,29.6,37.7,29.3z"/>
	</g>
	<g>
		<path class="st1" d="M46.4,12.9c-2-2-4.5-2.6-7.2-1.9c-5.6,1.4-7.6,8.4-3.6,12.5c0.9,0.9,1.3,1.9,1.3,3.2c0,0.6,0.3,1,1,1
			c1.1,0,2.2,0,3.2,0c1.1,0,2.2,0,3.3,0c0.5,0,0.9-0.3,0.9-0.9c0-1.3,0.4-2.4,1.3-3.3c1.1-1.1,1.7-2.5,1.9-4
			C48.9,16.9,48.2,14.7,46.4,12.9z"/>
	</g>
	<path class="st0" d="M43.5,27.6H42V24c0-0.5-0.4-1-1-1c-0.5,0-1,0.4-1,1v3.6h-1.5V24c0-1.4,1.1-2.5,2.5-2.5s2.5,1.1,2.5,2.5V27.6z"
		/>
</g>
<g>
	<g>
		<defs>
			<circle id="SVGID_1_" cx="35" cy="35" r="35"/>
		</defs>
		<clipPath id="SVGID_00000121274465304446756450000015406752814159466628_">
			<use xlink:href="#SVGID_1_"  style="overflow:visible;"/>
		</clipPath>
		<g style="clip-path:url(#SVGID_00000121274465304446756450000015406752814159466628_);">
			<circle class="st3" cx="22" cy="37.4" r="8.7"/>
			<path class="st3" d="M31.7,47.7H12.3c-3.1,0-5.6,2.5-5.6,5.6V70h30.7V53.3C37.4,50.2,34.8,47.7,31.7,47.7z"/>
			<path class="st3" d="M31.2,47.7h11.6c0.6,0,1.1-0.4,1.4-0.9l5.4-13.3c0.5-1.2,1.9-1.8,3.1-1.3c0.1,0,0.2,0.1,0.3,0.1l0,0
				c0.9,0.5,1.4,1.6,1.1,2.6L50,51.1c-0.4,1.8-1.8,3.2-3.6,3.7l-9,2.5l-4-1L31.2,47.7z"/>
		</g>
	</g>
</g>
</svg>
